%TF.GenerationSoftware,KiCad,Pcbnew,(6.0.4)*%
%TF.CreationDate,2022-10-01T01:36:45+02:00*%
%TF.ProjectId,RGB-YPbPr-Converter,5247422d-5950-4625-9072-2d436f6e7665,rev?*%
%TF.SameCoordinates,Original*%
%TF.FileFunction,Legend,Top*%
%TF.FilePolarity,Positive*%
%FSLAX46Y46*%
G04 Gerber Fmt 4.6, Leading zero omitted, Abs format (unit mm)*
G04 Created by KiCad (PCBNEW (6.0.4)) date 2022-10-01 01:36:45*
%MOMM*%
%LPD*%
G01*
G04 APERTURE LIST*
%ADD10C,0.150000*%
%ADD11C,0.120000*%
G04 APERTURE END LIST*
D10*
X79419047Y-87571428D02*
X80180952Y-87571428D01*
X79800000Y-87952380D02*
X79800000Y-87190476D01*
X74319047Y-87571428D02*
X75080952Y-87571428D01*
%TO.C,J3*%
X76866666Y-79852380D02*
X76866666Y-80566666D01*
X76819047Y-80709523D01*
X76723809Y-80804761D01*
X76580952Y-80852380D01*
X76485714Y-80852380D01*
X77247619Y-79852380D02*
X77866666Y-79852380D01*
X77533333Y-80233333D01*
X77676190Y-80233333D01*
X77771428Y-80280952D01*
X77819047Y-80328571D01*
X77866666Y-80423809D01*
X77866666Y-80661904D01*
X77819047Y-80757142D01*
X77771428Y-80804761D01*
X77676190Y-80852380D01*
X77390476Y-80852380D01*
X77295238Y-80804761D01*
X77247619Y-80757142D01*
%TO.C,U1*%
X80938095Y-65252380D02*
X80938095Y-66061904D01*
X80985714Y-66157142D01*
X81033333Y-66204761D01*
X81128571Y-66252380D01*
X81319047Y-66252380D01*
X81414285Y-66204761D01*
X81461904Y-66157142D01*
X81509523Y-66061904D01*
X81509523Y-65252380D01*
X82509523Y-66252380D02*
X81938095Y-66252380D01*
X82223809Y-66252380D02*
X82223809Y-65252380D01*
X82128571Y-65395238D01*
X82033333Y-65490476D01*
X81938095Y-65538095D01*
%TO.C,R14*%
X85052380Y-73042857D02*
X84576190Y-73376190D01*
X85052380Y-73614285D02*
X84052380Y-73614285D01*
X84052380Y-73233333D01*
X84100000Y-73138095D01*
X84147619Y-73090476D01*
X84242857Y-73042857D01*
X84385714Y-73042857D01*
X84480952Y-73090476D01*
X84528571Y-73138095D01*
X84576190Y-73233333D01*
X84576190Y-73614285D01*
X85052380Y-72090476D02*
X85052380Y-72661904D01*
X85052380Y-72376190D02*
X84052380Y-72376190D01*
X84195238Y-72471428D01*
X84290476Y-72566666D01*
X84338095Y-72661904D01*
X84385714Y-71233333D02*
X85052380Y-71233333D01*
X84004761Y-71471428D02*
X84719047Y-71709523D01*
X84719047Y-71090476D01*
%TO.C,R13*%
X85557142Y-68002380D02*
X85223809Y-67526190D01*
X84985714Y-68002380D02*
X84985714Y-67002380D01*
X85366666Y-67002380D01*
X85461904Y-67050000D01*
X85509523Y-67097619D01*
X85557142Y-67192857D01*
X85557142Y-67335714D01*
X85509523Y-67430952D01*
X85461904Y-67478571D01*
X85366666Y-67526190D01*
X84985714Y-67526190D01*
X86509523Y-68002380D02*
X85938095Y-68002380D01*
X86223809Y-68002380D02*
X86223809Y-67002380D01*
X86128571Y-67145238D01*
X86033333Y-67240476D01*
X85938095Y-67288095D01*
X86842857Y-67002380D02*
X87461904Y-67002380D01*
X87128571Y-67383333D01*
X87271428Y-67383333D01*
X87366666Y-67430952D01*
X87414285Y-67478571D01*
X87461904Y-67573809D01*
X87461904Y-67811904D01*
X87414285Y-67907142D01*
X87366666Y-67954761D01*
X87271428Y-68002380D01*
X86985714Y-68002380D01*
X86890476Y-67954761D01*
X86842857Y-67907142D01*
%TO.C,J2*%
X105692049Y-71318333D02*
X106406335Y-71318333D01*
X106549192Y-71365952D01*
X106644430Y-71461190D01*
X106692049Y-71604047D01*
X106692049Y-71699285D01*
X105787288Y-70889761D02*
X105739669Y-70842142D01*
X105692049Y-70746904D01*
X105692049Y-70508809D01*
X105739669Y-70413571D01*
X105787288Y-70365952D01*
X105882526Y-70318333D01*
X105977764Y-70318333D01*
X106120621Y-70365952D01*
X106692049Y-70937380D01*
X106692049Y-70318333D01*
%TO.C,J1*%
X70952380Y-71333333D02*
X71666666Y-71333333D01*
X71809523Y-71380952D01*
X71904761Y-71476190D01*
X71952380Y-71619047D01*
X71952380Y-71714285D01*
X71952380Y-70333333D02*
X71952380Y-70904761D01*
X71952380Y-70619047D02*
X70952380Y-70619047D01*
X71095238Y-70714285D01*
X71190476Y-70809523D01*
X71238095Y-70904761D01*
%TO.C,U2*%
X91738095Y-66552380D02*
X91738095Y-67361904D01*
X91785714Y-67457142D01*
X91833333Y-67504761D01*
X91928571Y-67552380D01*
X92119047Y-67552380D01*
X92214285Y-67504761D01*
X92261904Y-67457142D01*
X92309523Y-67361904D01*
X92309523Y-66552380D01*
X92738095Y-66647619D02*
X92785714Y-66600000D01*
X92880952Y-66552380D01*
X93119047Y-66552380D01*
X93214285Y-66600000D01*
X93261904Y-66647619D01*
X93309523Y-66742857D01*
X93309523Y-66838095D01*
X93261904Y-66980952D01*
X92690476Y-67552380D01*
X93309523Y-67552380D01*
%TO.C,R5*%
X76933333Y-69552380D02*
X76600000Y-69076190D01*
X76361904Y-69552380D02*
X76361904Y-68552380D01*
X76742857Y-68552380D01*
X76838095Y-68600000D01*
X76885714Y-68647619D01*
X76933333Y-68742857D01*
X76933333Y-68885714D01*
X76885714Y-68980952D01*
X76838095Y-69028571D01*
X76742857Y-69076190D01*
X76361904Y-69076190D01*
X77838095Y-68552380D02*
X77361904Y-68552380D01*
X77314285Y-69028571D01*
X77361904Y-68980952D01*
X77457142Y-68933333D01*
X77695238Y-68933333D01*
X77790476Y-68980952D01*
X77838095Y-69028571D01*
X77885714Y-69123809D01*
X77885714Y-69361904D01*
X77838095Y-69457142D01*
X77790476Y-69504761D01*
X77695238Y-69552380D01*
X77457142Y-69552380D01*
X77361904Y-69504761D01*
X77314285Y-69457142D01*
%TO.C,R4*%
X76933333Y-67252380D02*
X76600000Y-66776190D01*
X76361904Y-67252380D02*
X76361904Y-66252380D01*
X76742857Y-66252380D01*
X76838095Y-66300000D01*
X76885714Y-66347619D01*
X76933333Y-66442857D01*
X76933333Y-66585714D01*
X76885714Y-66680952D01*
X76838095Y-66728571D01*
X76742857Y-66776190D01*
X76361904Y-66776190D01*
X77790476Y-66585714D02*
X77790476Y-67252380D01*
X77552380Y-66204761D02*
X77314285Y-66919047D01*
X77933333Y-66919047D01*
%TO.C,R11*%
X99657142Y-71702380D02*
X99323809Y-71226190D01*
X99085714Y-71702380D02*
X99085714Y-70702380D01*
X99466666Y-70702380D01*
X99561904Y-70750000D01*
X99609523Y-70797619D01*
X99657142Y-70892857D01*
X99657142Y-71035714D01*
X99609523Y-71130952D01*
X99561904Y-71178571D01*
X99466666Y-71226190D01*
X99085714Y-71226190D01*
X100609523Y-71702380D02*
X100038095Y-71702380D01*
X100323809Y-71702380D02*
X100323809Y-70702380D01*
X100228571Y-70845238D01*
X100133333Y-70940476D01*
X100038095Y-70988095D01*
X101561904Y-71702380D02*
X100990476Y-71702380D01*
X101276190Y-71702380D02*
X101276190Y-70702380D01*
X101180952Y-70845238D01*
X101085714Y-70940476D01*
X100990476Y-70988095D01*
%TO.C,R6*%
X102333333Y-68502380D02*
X102000000Y-68026190D01*
X101761904Y-68502380D02*
X101761904Y-67502380D01*
X102142857Y-67502380D01*
X102238095Y-67550000D01*
X102285714Y-67597619D01*
X102333333Y-67692857D01*
X102333333Y-67835714D01*
X102285714Y-67930952D01*
X102238095Y-67978571D01*
X102142857Y-68026190D01*
X101761904Y-68026190D01*
X103190476Y-67502380D02*
X103000000Y-67502380D01*
X102904761Y-67550000D01*
X102857142Y-67597619D01*
X102761904Y-67740476D01*
X102714285Y-67930952D01*
X102714285Y-68311904D01*
X102761904Y-68407142D01*
X102809523Y-68454761D01*
X102904761Y-68502380D01*
X103095238Y-68502380D01*
X103190476Y-68454761D01*
X103238095Y-68407142D01*
X103285714Y-68311904D01*
X103285714Y-68073809D01*
X103238095Y-67978571D01*
X103190476Y-67930952D01*
X103095238Y-67883333D01*
X102904761Y-67883333D01*
X102809523Y-67930952D01*
X102761904Y-67978571D01*
X102714285Y-68073809D01*
%TO.C,U3*%
X86752380Y-78461904D02*
X87561904Y-78461904D01*
X87657142Y-78414285D01*
X87704761Y-78366666D01*
X87752380Y-78271428D01*
X87752380Y-78080952D01*
X87704761Y-77985714D01*
X87657142Y-77938095D01*
X87561904Y-77890476D01*
X86752380Y-77890476D01*
X86752380Y-77509523D02*
X86752380Y-76890476D01*
X87133333Y-77223809D01*
X87133333Y-77080952D01*
X87180952Y-76985714D01*
X87228571Y-76938095D01*
X87323809Y-76890476D01*
X87561904Y-76890476D01*
X87657142Y-76938095D01*
X87704761Y-76985714D01*
X87752380Y-77080952D01*
X87752380Y-77366666D01*
X87704761Y-77461904D01*
X87657142Y-77509523D01*
%TO.C,R1*%
X78833333Y-78752380D02*
X78500000Y-78276190D01*
X78261904Y-78752380D02*
X78261904Y-77752380D01*
X78642857Y-77752380D01*
X78738095Y-77800000D01*
X78785714Y-77847619D01*
X78833333Y-77942857D01*
X78833333Y-78085714D01*
X78785714Y-78180952D01*
X78738095Y-78228571D01*
X78642857Y-78276190D01*
X78261904Y-78276190D01*
X79785714Y-78752380D02*
X79214285Y-78752380D01*
X79500000Y-78752380D02*
X79500000Y-77752380D01*
X79404761Y-77895238D01*
X79309523Y-77990476D01*
X79214285Y-78038095D01*
%TO.C,R12*%
X105302380Y-74442857D02*
X104826190Y-74776190D01*
X105302380Y-75014285D02*
X104302380Y-75014285D01*
X104302380Y-74633333D01*
X104350000Y-74538095D01*
X104397619Y-74490476D01*
X104492857Y-74442857D01*
X104635714Y-74442857D01*
X104730952Y-74490476D01*
X104778571Y-74538095D01*
X104826190Y-74633333D01*
X104826190Y-75014285D01*
X105302380Y-73490476D02*
X105302380Y-74061904D01*
X105302380Y-73776190D02*
X104302380Y-73776190D01*
X104445238Y-73871428D01*
X104540476Y-73966666D01*
X104588095Y-74061904D01*
X104397619Y-73109523D02*
X104350000Y-73061904D01*
X104302380Y-72966666D01*
X104302380Y-72728571D01*
X104350000Y-72633333D01*
X104397619Y-72585714D01*
X104492857Y-72538095D01*
X104588095Y-72538095D01*
X104730952Y-72585714D01*
X105302380Y-73157142D01*
X105302380Y-72538095D01*
%TO.C,C5*%
X91433333Y-84357142D02*
X91385714Y-84404761D01*
X91242857Y-84452380D01*
X91147619Y-84452380D01*
X91004761Y-84404761D01*
X90909523Y-84309523D01*
X90861904Y-84214285D01*
X90814285Y-84023809D01*
X90814285Y-83880952D01*
X90861904Y-83690476D01*
X90909523Y-83595238D01*
X91004761Y-83500000D01*
X91147619Y-83452380D01*
X91242857Y-83452380D01*
X91385714Y-83500000D01*
X91433333Y-83547619D01*
X92338095Y-83452380D02*
X91861904Y-83452380D01*
X91814285Y-83928571D01*
X91861904Y-83880952D01*
X91957142Y-83833333D01*
X92195238Y-83833333D01*
X92290476Y-83880952D01*
X92338095Y-83928571D01*
X92385714Y-84023809D01*
X92385714Y-84261904D01*
X92338095Y-84357142D01*
X92290476Y-84404761D01*
X92195238Y-84452380D01*
X91957142Y-84452380D01*
X91861904Y-84404761D01*
X91814285Y-84357142D01*
%TO.C,R3*%
X105452380Y-65566666D02*
X104976190Y-65900000D01*
X105452380Y-66138095D02*
X104452380Y-66138095D01*
X104452380Y-65757142D01*
X104500000Y-65661904D01*
X104547619Y-65614285D01*
X104642857Y-65566666D01*
X104785714Y-65566666D01*
X104880952Y-65614285D01*
X104928571Y-65661904D01*
X104976190Y-65757142D01*
X104976190Y-66138095D01*
X104452380Y-65233333D02*
X104452380Y-64614285D01*
X104833333Y-64947619D01*
X104833333Y-64804761D01*
X104880952Y-64709523D01*
X104928571Y-64661904D01*
X105023809Y-64614285D01*
X105261904Y-64614285D01*
X105357142Y-64661904D01*
X105404761Y-64709523D01*
X105452380Y-64804761D01*
X105452380Y-65090476D01*
X105404761Y-65185714D01*
X105357142Y-65233333D01*
%TO.C,C2*%
X96533333Y-65857142D02*
X96485714Y-65904761D01*
X96342857Y-65952380D01*
X96247619Y-65952380D01*
X96104761Y-65904761D01*
X96009523Y-65809523D01*
X95961904Y-65714285D01*
X95914285Y-65523809D01*
X95914285Y-65380952D01*
X95961904Y-65190476D01*
X96009523Y-65095238D01*
X96104761Y-65000000D01*
X96247619Y-64952380D01*
X96342857Y-64952380D01*
X96485714Y-65000000D01*
X96533333Y-65047619D01*
X96914285Y-65047619D02*
X96961904Y-65000000D01*
X97057142Y-64952380D01*
X97295238Y-64952380D01*
X97390476Y-65000000D01*
X97438095Y-65047619D01*
X97485714Y-65142857D01*
X97485714Y-65238095D01*
X97438095Y-65380952D01*
X96866666Y-65952380D01*
X97485714Y-65952380D01*
%TO.C,R10*%
X76857142Y-71852380D02*
X76523809Y-71376190D01*
X76285714Y-71852380D02*
X76285714Y-70852380D01*
X76666666Y-70852380D01*
X76761904Y-70900000D01*
X76809523Y-70947619D01*
X76857142Y-71042857D01*
X76857142Y-71185714D01*
X76809523Y-71280952D01*
X76761904Y-71328571D01*
X76666666Y-71376190D01*
X76285714Y-71376190D01*
X77809523Y-71852380D02*
X77238095Y-71852380D01*
X77523809Y-71852380D02*
X77523809Y-70852380D01*
X77428571Y-70995238D01*
X77333333Y-71090476D01*
X77238095Y-71138095D01*
X78428571Y-70852380D02*
X78523809Y-70852380D01*
X78619047Y-70900000D01*
X78666666Y-70947619D01*
X78714285Y-71042857D01*
X78761904Y-71233333D01*
X78761904Y-71471428D01*
X78714285Y-71661904D01*
X78666666Y-71757142D01*
X78619047Y-71804761D01*
X78523809Y-71852380D01*
X78428571Y-71852380D01*
X78333333Y-71804761D01*
X78285714Y-71757142D01*
X78238095Y-71661904D01*
X78190476Y-71471428D01*
X78190476Y-71233333D01*
X78238095Y-71042857D01*
X78285714Y-70947619D01*
X78333333Y-70900000D01*
X78428571Y-70852380D01*
%TO.C,D1*%
X73761904Y-78752380D02*
X73761904Y-77752380D01*
X74000000Y-77752380D01*
X74142857Y-77800000D01*
X74238095Y-77895238D01*
X74285714Y-77990476D01*
X74333333Y-78180952D01*
X74333333Y-78323809D01*
X74285714Y-78514285D01*
X74238095Y-78609523D01*
X74142857Y-78704761D01*
X74000000Y-78752380D01*
X73761904Y-78752380D01*
X75285714Y-78752380D02*
X74714285Y-78752380D01*
X75000000Y-78752380D02*
X75000000Y-77752380D01*
X74904761Y-77895238D01*
X74809523Y-77990476D01*
X74714285Y-78038095D01*
%TO.C,R2*%
X100233333Y-65102380D02*
X99900000Y-64626190D01*
X99661904Y-65102380D02*
X99661904Y-64102380D01*
X100042857Y-64102380D01*
X100138095Y-64150000D01*
X100185714Y-64197619D01*
X100233333Y-64292857D01*
X100233333Y-64435714D01*
X100185714Y-64530952D01*
X100138095Y-64578571D01*
X100042857Y-64626190D01*
X99661904Y-64626190D01*
X100614285Y-64197619D02*
X100661904Y-64150000D01*
X100757142Y-64102380D01*
X100995238Y-64102380D01*
X101090476Y-64150000D01*
X101138095Y-64197619D01*
X101185714Y-64292857D01*
X101185714Y-64388095D01*
X101138095Y-64530952D01*
X100566666Y-65102380D01*
X101185714Y-65102380D01*
%TO.C,C4*%
X83733333Y-80357142D02*
X83685714Y-80404761D01*
X83542857Y-80452380D01*
X83447619Y-80452380D01*
X83304761Y-80404761D01*
X83209523Y-80309523D01*
X83161904Y-80214285D01*
X83114285Y-80023809D01*
X83114285Y-79880952D01*
X83161904Y-79690476D01*
X83209523Y-79595238D01*
X83304761Y-79500000D01*
X83447619Y-79452380D01*
X83542857Y-79452380D01*
X83685714Y-79500000D01*
X83733333Y-79547619D01*
X84590476Y-79785714D02*
X84590476Y-80452380D01*
X84352380Y-79404761D02*
X84114285Y-80119047D01*
X84733333Y-80119047D01*
%TO.C,C3*%
X92233333Y-81357142D02*
X92185714Y-81404761D01*
X92042857Y-81452380D01*
X91947619Y-81452380D01*
X91804761Y-81404761D01*
X91709523Y-81309523D01*
X91661904Y-81214285D01*
X91614285Y-81023809D01*
X91614285Y-80880952D01*
X91661904Y-80690476D01*
X91709523Y-80595238D01*
X91804761Y-80500000D01*
X91947619Y-80452380D01*
X92042857Y-80452380D01*
X92185714Y-80500000D01*
X92233333Y-80547619D01*
X92566666Y-80452380D02*
X93185714Y-80452380D01*
X92852380Y-80833333D01*
X92995238Y-80833333D01*
X93090476Y-80880952D01*
X93138095Y-80928571D01*
X93185714Y-81023809D01*
X93185714Y-81261904D01*
X93138095Y-81357142D01*
X93090476Y-81404761D01*
X92995238Y-81452380D01*
X92709523Y-81452380D01*
X92614285Y-81404761D01*
X92566666Y-81357142D01*
%TO.C,kibuzzard-63377D38*%
G36*
X83860730Y-83979637D02*
G01*
X83860730Y-86820363D01*
X82339270Y-86820363D01*
X82339270Y-86168668D01*
X82498020Y-86168668D01*
X82643514Y-86175811D01*
X82794247Y-86185813D01*
X82949267Y-86199148D01*
X83107620Y-86216293D01*
X83111668Y-86085324D01*
X83123813Y-85981978D01*
X83169533Y-85843865D01*
X83240018Y-85779095D01*
X83330505Y-85762903D01*
X83393370Y-85772428D01*
X83447663Y-85807670D01*
X83486715Y-85878155D01*
X83501955Y-85991503D01*
X83497669Y-86080561D01*
X83484810Y-86153428D01*
X83446710Y-86260108D01*
X83641020Y-86307733D01*
X83661975Y-86253440D01*
X83681978Y-86174383D01*
X83696265Y-86082943D01*
X83701980Y-85989598D01*
X83694836Y-85880536D01*
X83673405Y-85785763D01*
X83639115Y-85705276D01*
X83593395Y-85639078D01*
X83472428Y-85551448D01*
X83320980Y-85522873D01*
X83210490Y-85535784D01*
X83117780Y-85574519D01*
X83042850Y-85639078D01*
X82986123Y-85729883D01*
X82948023Y-85847358D01*
X82928550Y-85991503D01*
X82819965Y-85981978D01*
X82692330Y-85972453D01*
X82692330Y-85566688D01*
X82498020Y-85566688D01*
X82498020Y-86168668D01*
X82339270Y-86168668D01*
X82339270Y-85397142D01*
X82498020Y-85397142D01*
X82604700Y-85375235D01*
X82738050Y-85343802D01*
X82837851Y-85318614D01*
X82941673Y-85291309D01*
X83049517Y-85261887D01*
X83159478Y-85230772D01*
X83269651Y-85198387D01*
X83380035Y-85164732D01*
X83537198Y-85114726D01*
X83677215Y-85067577D01*
X83677215Y-84825642D01*
X83575721Y-84789236D01*
X83471898Y-84753676D01*
X83365748Y-84718962D01*
X83259068Y-84685625D01*
X83153658Y-84654192D01*
X83049517Y-84624665D01*
X82897832Y-84584184D01*
X82753290Y-84548465D01*
X82618987Y-84517747D01*
X82498020Y-84492267D01*
X82498020Y-84738012D01*
X82597080Y-84755157D01*
X82711380Y-84776112D01*
X82834967Y-84799925D01*
X82961887Y-84825642D01*
X83089522Y-84853265D01*
X83215253Y-84882792D01*
X83333124Y-84913272D01*
X83437185Y-84943752D01*
X83331696Y-84974471D01*
X83213348Y-85005665D01*
X83087617Y-85036145D01*
X82959982Y-85064720D01*
X82833300Y-85091152D01*
X82710427Y-85115202D01*
X82596842Y-85135205D01*
X82498020Y-85149492D01*
X82498020Y-85397142D01*
X82339270Y-85397142D01*
X82339270Y-83979637D01*
X83860730Y-83979637D01*
G37*
%TO.C,kibuzzard-63377CAE*%
G36*
X75427259Y-74518524D02*
G01*
X75493458Y-74551385D01*
X75536320Y-74607582D01*
X75550608Y-74688545D01*
X75497268Y-74820942D01*
X75427259Y-74855947D01*
X75323913Y-74867615D01*
X75272478Y-74867615D01*
X75272478Y-74513285D01*
X75310578Y-74508522D01*
X75342963Y-74507570D01*
X75427259Y-74518524D01*
G37*
G36*
X73567741Y-74518286D02*
G01*
X73633225Y-74550432D01*
X73675373Y-74608297D01*
X73689422Y-74696165D01*
X73675135Y-74788796D01*
X73632272Y-74849517D01*
X73561311Y-74883093D01*
X73462727Y-74894285D01*
X73367477Y-74894285D01*
X73367477Y-74513285D01*
X73425580Y-74508522D01*
X73483682Y-74507570D01*
X73567741Y-74518286D01*
G37*
G36*
X76379468Y-75655015D02*
G01*
X72620532Y-75655015D01*
X72620532Y-75496265D01*
X73133162Y-75496265D01*
X73367477Y-75496265D01*
X73367477Y-75098120D01*
X73451297Y-75098120D01*
X73592162Y-75087643D01*
X73709954Y-75056210D01*
X73804675Y-75003823D01*
X73873996Y-74927940D01*
X73915588Y-74826022D01*
X73929452Y-74698070D01*
X73915694Y-74571387D01*
X73874419Y-74470740D01*
X73805627Y-74396128D01*
X73711859Y-74344798D01*
X73607234Y-74317070D01*
X74026607Y-74317070D01*
X74030894Y-74462564D01*
X74036132Y-74613297D01*
X74042562Y-74766174D01*
X74050420Y-74918098D01*
X74059707Y-75068593D01*
X74070422Y-75217183D01*
X74082805Y-75360772D01*
X74097092Y-75496265D01*
X74291402Y-75496265D01*
X74331407Y-75371011D01*
X74375222Y-75235280D01*
X74419990Y-75099549D01*
X74462852Y-74974295D01*
X74504763Y-75103121D01*
X74546673Y-75238138D01*
X74588583Y-75371726D01*
X74630493Y-75496265D01*
X74824803Y-75496265D01*
X75038163Y-75496265D01*
X75272478Y-75496265D01*
X75272478Y-75061925D01*
X75394398Y-75061925D01*
X75458929Y-75169796D01*
X75519175Y-75276238D01*
X75573706Y-75384108D01*
X75621093Y-75496265D01*
X75866838Y-75496265D01*
X75812545Y-75371488D01*
X75746823Y-75240043D01*
X75676338Y-75114313D01*
X75607758Y-75004775D01*
X75691101Y-74950959D01*
X75746823Y-74877140D01*
X75778255Y-74788557D01*
X75788733Y-74690450D01*
X75780874Y-74597819D01*
X75757300Y-74518047D01*
X75666813Y-74397080D01*
X75602043Y-74355646D01*
X75525843Y-74326595D01*
X75439165Y-74309450D01*
X75342963Y-74303735D01*
X75276288Y-74305640D01*
X75196278Y-74310402D01*
X75113410Y-74319927D01*
X75038163Y-74334215D01*
X75038163Y-75496265D01*
X74824803Y-75496265D01*
X74837423Y-75361010D01*
X74848615Y-75218135D01*
X74858378Y-75070259D01*
X74866713Y-74920003D01*
X74873856Y-74768079D01*
X74880048Y-74615202D01*
X74885763Y-74463993D01*
X74891478Y-74317070D01*
X74674308Y-74317070D01*
X74674784Y-74431608D01*
X74676213Y-74550432D01*
X74678118Y-74670686D01*
X74680023Y-74789510D01*
X74681928Y-74906429D01*
X74683833Y-75020968D01*
X74685261Y-75130743D01*
X74685738Y-75233375D01*
X74642875Y-75080975D01*
X74602870Y-74941910D01*
X74569533Y-74823800D01*
X74546673Y-74734265D01*
X74375222Y-74734265D01*
X74348552Y-74827610D01*
X74311405Y-74957150D01*
X74269495Y-75100025D01*
X74230442Y-75233375D01*
X74230919Y-75130743D01*
X74232347Y-75020968D01*
X74234252Y-74906191D01*
X74236157Y-74788557D01*
X74238062Y-74669257D01*
X74239967Y-74549480D01*
X74241872Y-74431370D01*
X74243777Y-74317070D01*
X74026607Y-74317070D01*
X73607234Y-74317070D01*
X73595654Y-74314001D01*
X73457012Y-74303735D01*
X73382717Y-74305640D01*
X73296992Y-74310402D01*
X73210315Y-74318975D01*
X73133162Y-74332310D01*
X73133162Y-75496265D01*
X72620532Y-75496265D01*
X72620532Y-74144985D01*
X76379468Y-74144985D01*
X76379468Y-75655015D01*
G37*
%TO.C,kibuzzard-63377C27*%
G36*
X102180494Y-81802356D02*
G01*
X102237644Y-81787275D01*
X102296381Y-81780131D01*
X102372184Y-81786283D01*
X102434494Y-81804737D01*
X102523394Y-81874587D01*
X102571019Y-81982537D01*
X102581734Y-82048617D01*
X102585306Y-82121444D01*
X102585306Y-82542131D01*
X102390044Y-82542131D01*
X102390044Y-82146844D01*
X102384091Y-82056753D01*
X102366231Y-81996031D01*
X102275744Y-81949994D01*
X102222563Y-81956344D01*
X102180494Y-81967456D01*
X102180494Y-82542131D01*
X101985231Y-82542131D01*
X101985231Y-81473744D01*
X102180494Y-81440406D01*
X102180494Y-81802356D01*
G37*
G36*
X96742314Y-81555500D02*
G01*
X96826650Y-81576931D01*
X96900667Y-81613642D01*
X96962381Y-81666625D01*
X97011792Y-81736078D01*
X97048900Y-81822200D01*
X97072117Y-81926380D01*
X97079856Y-82050006D01*
X97071323Y-82176411D01*
X97045725Y-82282575D01*
X97005045Y-82369689D01*
X96951269Y-82438944D01*
X96885189Y-82491133D01*
X96807600Y-82527050D01*
X96720089Y-82547886D01*
X96624244Y-82554831D01*
X96521850Y-82549275D01*
X96414694Y-82531019D01*
X96414694Y-82383381D01*
X96609956Y-82383381D01*
X96627419Y-82384969D01*
X96644881Y-82384969D01*
X96756800Y-82359569D01*
X96829825Y-82289719D01*
X96869512Y-82184150D01*
X96878442Y-82120055D01*
X96881419Y-82050006D01*
X96871894Y-81926181D01*
X96838556Y-81819819D01*
X96773469Y-81746000D01*
X96667106Y-81718219D01*
X96638531Y-81719012D01*
X96609956Y-81722981D01*
X96609956Y-82383381D01*
X96414694Y-82383381D01*
X96414694Y-81572169D01*
X96540106Y-81553119D01*
X96649644Y-81548356D01*
X96742314Y-81555500D01*
G37*
G36*
X97202094Y-82002381D02*
G01*
X97237019Y-81933920D01*
X97281469Y-81877762D01*
X97334253Y-81833908D01*
X97394181Y-81802356D01*
X97458475Y-81783306D01*
X97524356Y-81776956D01*
X97625603Y-81787804D01*
X97709212Y-81820348D01*
X97775181Y-81874587D01*
X97822806Y-81949641D01*
X97851381Y-82044626D01*
X97860906Y-82159544D01*
X97860112Y-82199231D01*
X97857731Y-82232569D01*
X97373544Y-82232569D01*
X97388625Y-82297855D01*
X97433869Y-82347663D01*
X97502925Y-82379214D01*
X97589444Y-82389731D01*
X97701362Y-82377031D01*
X97791056Y-82351631D01*
X97818044Y-82518319D01*
X97710094Y-82547688D01*
X97581506Y-82559594D01*
X97491217Y-82553442D01*
X97410850Y-82534988D01*
X97341000Y-82504428D01*
X97282262Y-82461963D01*
X97235233Y-82407789D01*
X97200506Y-82342106D01*
X97179075Y-82264716D01*
X97171931Y-82175419D01*
X97178275Y-82097631D01*
X97373544Y-82097631D01*
X97671994Y-82097631D01*
X97664056Y-82039688D01*
X97638656Y-81989681D01*
X97594206Y-81953962D01*
X97527531Y-81940469D01*
X97461650Y-81953169D01*
X97415612Y-81988094D01*
X97387037Y-82038894D01*
X97373544Y-82097631D01*
X97178275Y-82097631D01*
X97179472Y-82082947D01*
X97202094Y-82002381D01*
G37*
G36*
X98534006Y-81786481D02*
G01*
X98643544Y-81818231D01*
X98600681Y-81975394D01*
X98530037Y-81955550D01*
X98430819Y-81946819D01*
X98314137Y-81963487D01*
X98238731Y-82009525D01*
X98197456Y-82080169D01*
X98184756Y-82169069D01*
X98199242Y-82261144D01*
X98242700Y-82330994D01*
X98321083Y-82375047D01*
X98440344Y-82389731D01*
X98536387Y-82383381D01*
X98627669Y-82362744D01*
X98656244Y-82523081D01*
X98556231Y-82549275D01*
X98492334Y-82557014D01*
X98418119Y-82559594D01*
X98311955Y-82552053D01*
X98222062Y-82529431D01*
X98147648Y-82493713D01*
X98087919Y-82446881D01*
X98042477Y-82389731D01*
X98010925Y-82323056D01*
X97992470Y-82248841D01*
X97986319Y-82169069D01*
X97992669Y-82090488D01*
X98011719Y-82016669D01*
X98043866Y-81949795D01*
X98089506Y-81892050D01*
X98148839Y-81844425D01*
X98222062Y-81807912D01*
X98309970Y-81784695D01*
X98413356Y-81776956D01*
X98534006Y-81786481D01*
G37*
G36*
X101709006Y-81786481D02*
G01*
X101818544Y-81818231D01*
X101775681Y-81975394D01*
X101705038Y-81955550D01*
X101605819Y-81946819D01*
X101489138Y-81963487D01*
X101413731Y-82009525D01*
X101372456Y-82080169D01*
X101359756Y-82169069D01*
X101374242Y-82261144D01*
X101417700Y-82330994D01*
X101496083Y-82375047D01*
X101615344Y-82389731D01*
X101711388Y-82383381D01*
X101802669Y-82362744D01*
X101831244Y-82523081D01*
X101731231Y-82549275D01*
X101667334Y-82557014D01*
X101593119Y-82559594D01*
X101486955Y-82552053D01*
X101397063Y-82529431D01*
X101322648Y-82493713D01*
X101262919Y-82446881D01*
X101217477Y-82389731D01*
X101185925Y-82323056D01*
X101167470Y-82248841D01*
X101161319Y-82169069D01*
X101167669Y-82090488D01*
X101186719Y-82016669D01*
X101218866Y-81949795D01*
X101264506Y-81892050D01*
X101323839Y-81844425D01*
X101397063Y-81807912D01*
X101484970Y-81784695D01*
X101588356Y-81776956D01*
X101709006Y-81786481D01*
G37*
G36*
X99792894Y-82186531D02*
G01*
X99799045Y-82276423D01*
X99817500Y-82339725D01*
X99913544Y-82389731D01*
X100002444Y-82381794D01*
X100002444Y-81796006D01*
X100199294Y-81796006D01*
X100199294Y-82516731D01*
X100139564Y-82531019D01*
X100068325Y-82545306D01*
X99987958Y-82556022D01*
X99900844Y-82559594D01*
X99817103Y-82553244D01*
X99750031Y-82534194D01*
X99657163Y-82461963D01*
X99610331Y-82351631D01*
X99600806Y-82284956D01*
X99597631Y-82211931D01*
X99597631Y-81796006D01*
X99792894Y-81796006D01*
X99792894Y-82186531D01*
G37*
G36*
X100775953Y-81786283D02*
G01*
X100842231Y-81804737D01*
X100935100Y-81874587D01*
X100983519Y-81982537D01*
X100994234Y-82048617D01*
X100997806Y-82121444D01*
X100997806Y-82542131D01*
X100802544Y-82542131D01*
X100802544Y-82146844D01*
X100796591Y-82056753D01*
X100778731Y-81996031D01*
X100681894Y-81949994D01*
X100638238Y-81951581D01*
X100592994Y-81956344D01*
X100592994Y-82542131D01*
X100397731Y-82542131D01*
X100397731Y-81819819D01*
X100456270Y-81805928D01*
X100527113Y-81792831D01*
X100607480Y-81783306D01*
X100694594Y-81780131D01*
X100775953Y-81786283D01*
G37*
G36*
X99247588Y-81783306D02*
G01*
X99310294Y-81788862D01*
X99377762Y-81798387D01*
X99438881Y-81813469D01*
X99403956Y-81994444D01*
X99358712Y-81984919D01*
X99305531Y-81976187D01*
X99253144Y-81970631D01*
X99210281Y-81969044D01*
X99129319Y-81973012D01*
X99048356Y-81988094D01*
X99048356Y-82542131D01*
X98851506Y-82542131D01*
X98851506Y-81845219D01*
X98930286Y-81819422D01*
X99011050Y-81799181D01*
X99099752Y-81786084D01*
X99202344Y-81781719D01*
X99247588Y-81783306D01*
G37*
%TO.C,kibuzzard-63377C0B*%
G36*
X99758763Y-83851631D02*
G01*
X99661131Y-83860363D01*
X99549213Y-83842106D01*
X99459519Y-83784956D01*
X99399987Y-83683356D01*
X99383914Y-83613705D01*
X99378556Y-83530163D01*
X99379460Y-83520638D01*
X99545244Y-83520638D01*
X99549213Y-83582550D01*
X99564294Y-83639700D01*
X99595250Y-83681769D01*
X99646844Y-83698438D01*
X99691294Y-83693675D01*
X99691294Y-83376175D01*
X99667481Y-83371412D01*
X99645256Y-83369825D01*
X99596044Y-83383319D01*
X99565881Y-83418244D01*
X99550006Y-83466662D01*
X99545244Y-83520638D01*
X99379460Y-83520638D01*
X99390462Y-83404750D01*
X99430944Y-83302356D01*
X99504763Y-83233300D01*
X99616681Y-83207900D01*
X99691294Y-83215837D01*
X99691294Y-83190437D01*
X99653194Y-83088044D01*
X99542069Y-83045975D01*
X99442850Y-83068200D01*
X99361887Y-83145987D01*
X99331328Y-83210877D01*
X99307912Y-83294419D01*
X99293030Y-83399392D01*
X99288069Y-83528575D01*
X99292236Y-83633350D01*
X99304737Y-83725425D01*
X99327359Y-83804205D01*
X99361887Y-83869094D01*
X99409116Y-83920092D01*
X99469837Y-83957200D01*
X99545442Y-83979822D01*
X99637319Y-83987363D01*
X99754794Y-83979425D01*
X99810356Y-83966725D01*
X99827819Y-84104838D01*
X99778606Y-84115156D01*
X99734156Y-84121506D01*
X99688913Y-84125475D01*
X99637319Y-84127063D01*
X99536116Y-84119919D01*
X99442056Y-84098488D01*
X99357720Y-84059395D01*
X99285687Y-83999269D01*
X99226752Y-83917116D01*
X99181706Y-83811944D01*
X99160540Y-83727542D01*
X99147840Y-83629910D01*
X99143606Y-83519050D01*
X99147222Y-83410835D01*
X99158070Y-83314792D01*
X99176150Y-83230919D01*
X99214448Y-83125350D01*
X99264256Y-83042006D01*
X99323787Y-82980094D01*
X99391256Y-82938819D01*
X99464678Y-82915602D01*
X99542069Y-82907862D01*
X99664306Y-82927706D01*
X99764319Y-82990412D01*
X99802816Y-83039823D01*
X99832581Y-83102331D01*
X99851631Y-83178730D01*
X99857981Y-83269812D01*
X99857981Y-83825438D01*
X99758763Y-83851631D01*
G37*
G36*
X97192569Y-83179325D02*
G01*
X97294169Y-83128525D01*
X97357669Y-83258700D01*
X97192569Y-83341250D01*
X97192569Y-83630175D01*
X97222731Y-83733363D01*
X97298931Y-83760350D01*
X97397356Y-83744475D01*
X97449744Y-83723838D01*
X97475144Y-83881000D01*
X97453712Y-83892113D01*
X97410056Y-83908781D01*
X97344175Y-83923863D01*
X97256069Y-83930213D01*
X97139387Y-83910170D01*
X97059219Y-83850044D01*
X97012784Y-83751420D01*
X96997306Y-83615888D01*
X96997306Y-83438087D01*
X96909994Y-83482537D01*
X96846494Y-83350775D01*
X96997306Y-83276162D01*
X96997306Y-82982475D01*
X96790931Y-82982475D01*
X96790931Y-82820550D01*
X97192569Y-82820550D01*
X97192569Y-83179325D01*
G37*
G36*
X97822012Y-83292037D02*
G01*
X97840864Y-83358712D01*
X97860906Y-83425387D01*
X97882139Y-83491467D01*
X97904562Y-83556356D01*
X97951394Y-83676213D01*
X97984731Y-83556356D01*
X98001797Y-83491666D01*
X98018069Y-83426181D01*
X98033745Y-83360102D01*
X98049025Y-83293625D01*
X98076806Y-83166625D01*
X98276831Y-83166625D01*
X98247264Y-83270408D01*
X98218887Y-83372206D01*
X98190511Y-83471822D01*
X98160944Y-83569056D01*
X98129789Y-83664108D01*
X98096650Y-83757175D01*
X98061130Y-83848059D01*
X98022831Y-83936563D01*
X97963300Y-84046100D01*
X97898212Y-84121506D01*
X97818837Y-84165163D01*
X97716444Y-84179450D01*
X97626750Y-84171513D01*
X97559281Y-84150875D01*
X97595794Y-83987363D01*
X97652150Y-84007206D01*
X97705331Y-84012763D01*
X97797406Y-83974663D01*
X97852969Y-83884175D01*
X97806402Y-83786544D01*
X97759835Y-83679917D01*
X97713269Y-83564294D01*
X97679137Y-83471871D01*
X97646594Y-83374786D01*
X97615637Y-83273037D01*
X97586269Y-83166625D01*
X97789469Y-83166625D01*
X97822012Y-83292037D01*
G37*
G36*
X102212641Y-83646050D02*
G01*
X102185355Y-83734553D01*
X102147156Y-83806388D01*
X102080128Y-83876943D01*
X101995462Y-83919276D01*
X101893156Y-83933388D01*
X101790851Y-83919276D01*
X101706184Y-83876943D01*
X101639156Y-83806388D01*
X101600957Y-83734553D01*
X101573672Y-83646050D01*
X101557301Y-83540878D01*
X101551844Y-83419037D01*
X101728056Y-83419037D01*
X101732819Y-83523195D01*
X101747106Y-83609185D01*
X101770919Y-83677006D01*
X101822909Y-83743086D01*
X101893156Y-83765113D01*
X101964395Y-83743086D01*
X102016188Y-83677006D01*
X102039559Y-83609185D01*
X102053582Y-83523195D01*
X102058256Y-83419037D01*
X102053582Y-83315762D01*
X102039559Y-83230301D01*
X102016188Y-83162656D01*
X101964395Y-83096577D01*
X101893156Y-83074550D01*
X101822909Y-83096577D01*
X101770919Y-83162656D01*
X101747106Y-83230301D01*
X101732819Y-83315762D01*
X101728056Y-83419037D01*
X101551844Y-83419037D01*
X101557400Y-83298586D01*
X101574069Y-83194406D01*
X101601850Y-83106498D01*
X101640744Y-83034862D01*
X101708301Y-82964307D01*
X101792438Y-82921974D01*
X101893156Y-82907862D01*
X101995462Y-82921885D01*
X102080128Y-82963954D01*
X102147156Y-83034069D01*
X102185355Y-83105457D01*
X102212641Y-83193414D01*
X102229012Y-83297941D01*
X102234469Y-83419037D01*
X102229012Y-83540878D01*
X102212641Y-83646050D01*
G37*
G36*
X95429650Y-83015812D02*
G01*
X95465369Y-83128525D01*
X95503469Y-83250762D01*
X95539981Y-83365062D01*
X95579669Y-83243619D01*
X95619356Y-83122969D01*
X95654281Y-83014225D01*
X95682856Y-82930087D01*
X95844781Y-82930087D01*
X95855695Y-83057087D01*
X95866212Y-83180912D01*
X95875737Y-83302555D01*
X95883675Y-83423006D01*
X95890223Y-83543259D01*
X95895581Y-83664306D01*
X95899947Y-83787139D01*
X95903519Y-83912750D01*
X95724131Y-83912750D01*
X95733656Y-83149162D01*
X95613006Y-83565088D01*
X95470131Y-83565088D01*
X95354244Y-83149162D01*
X95362181Y-83912750D01*
X95182794Y-83912750D01*
X95187755Y-83789719D01*
X95193112Y-83661925D01*
X95198867Y-83532147D01*
X95205019Y-83403162D01*
X95211964Y-83276559D01*
X95220100Y-83153925D01*
X95229427Y-83037641D01*
X95239944Y-82930087D01*
X95401869Y-82930087D01*
X95429650Y-83015812D01*
G37*
G36*
X101199419Y-82925325D02*
G01*
X101297844Y-82977712D01*
X101366106Y-83065819D01*
X101391506Y-83188850D01*
X101372456Y-83286481D01*
X101321656Y-83377762D01*
X101250219Y-83463487D01*
X101169256Y-83542863D01*
X101121631Y-83588106D01*
X101070831Y-83642081D01*
X101030350Y-83698438D01*
X101013681Y-83750825D01*
X101435956Y-83750825D01*
X101435956Y-83912750D01*
X100794606Y-83912750D01*
X100790638Y-83873063D01*
X100791431Y-83839725D01*
X100798773Y-83763525D01*
X100820800Y-83693675D01*
X100854138Y-83629580D01*
X100895413Y-83570644D01*
X100942244Y-83516272D01*
X100992250Y-83465869D01*
X101042256Y-83418442D01*
X101089088Y-83373000D01*
X101163700Y-83287275D01*
X101193069Y-83203137D01*
X101156556Y-83110269D01*
X101064481Y-83077725D01*
X100967644Y-83099950D01*
X100867631Y-83174562D01*
X100770794Y-83038037D01*
X100839255Y-82980094D01*
X100917638Y-82939612D01*
X101000783Y-82915800D01*
X101083531Y-82907862D01*
X101199419Y-82925325D01*
G37*
G36*
X102786919Y-82925325D02*
G01*
X102885344Y-82977712D01*
X102953606Y-83065819D01*
X102979006Y-83188850D01*
X102959956Y-83286481D01*
X102909156Y-83377762D01*
X102837719Y-83463487D01*
X102756756Y-83542863D01*
X102709131Y-83588106D01*
X102658331Y-83642081D01*
X102617850Y-83698438D01*
X102601181Y-83750825D01*
X103023456Y-83750825D01*
X103023456Y-83912750D01*
X102382106Y-83912750D01*
X102378138Y-83873063D01*
X102378931Y-83839725D01*
X102386273Y-83763525D01*
X102408300Y-83693675D01*
X102441638Y-83629580D01*
X102482913Y-83570644D01*
X102529744Y-83516272D01*
X102579750Y-83465869D01*
X102629756Y-83418442D01*
X102676588Y-83373000D01*
X102751200Y-83287275D01*
X102780569Y-83203137D01*
X102744056Y-83110269D01*
X102651981Y-83077725D01*
X102555144Y-83099950D01*
X102455131Y-83174562D01*
X102358294Y-83038037D01*
X102426755Y-82980094D01*
X102505138Y-82939612D01*
X102588283Y-82915800D01*
X102671031Y-82907862D01*
X102786919Y-82925325D01*
G37*
G36*
X103580669Y-82925325D02*
G01*
X103679094Y-82977712D01*
X103747356Y-83065819D01*
X103772756Y-83188850D01*
X103753706Y-83286481D01*
X103702906Y-83377762D01*
X103631469Y-83463487D01*
X103550506Y-83542863D01*
X103502881Y-83588106D01*
X103452081Y-83642081D01*
X103411600Y-83698438D01*
X103394931Y-83750825D01*
X103817206Y-83750825D01*
X103817206Y-83912750D01*
X103175856Y-83912750D01*
X103171888Y-83873063D01*
X103172681Y-83839725D01*
X103180023Y-83763525D01*
X103202050Y-83693675D01*
X103235388Y-83629580D01*
X103276663Y-83570644D01*
X103323494Y-83516272D01*
X103373500Y-83465869D01*
X103423506Y-83418442D01*
X103470338Y-83373000D01*
X103544950Y-83287275D01*
X103574319Y-83203137D01*
X103537806Y-83110269D01*
X103445731Y-83077725D01*
X103348894Y-83099950D01*
X103248881Y-83174562D01*
X103152044Y-83038037D01*
X103220505Y-82980094D01*
X103298888Y-82939612D01*
X103382033Y-82915800D01*
X103464781Y-82907862D01*
X103580669Y-82925325D01*
G37*
G36*
X96398819Y-83628588D02*
G01*
X96423425Y-83727806D01*
X96505181Y-83760350D01*
X96570269Y-83753206D01*
X96655994Y-83723838D01*
X96681394Y-83881000D01*
X96567887Y-83919894D01*
X96470256Y-83930213D01*
X96400208Y-83924656D01*
X96342462Y-83907988D01*
X96259912Y-83843694D01*
X96216256Y-83741300D01*
X96206731Y-83676609D01*
X96203556Y-83603188D01*
X96203556Y-83328550D01*
X95997181Y-83328550D01*
X95997181Y-83166625D01*
X96398819Y-83166625D01*
X96398819Y-83628588D01*
G37*
G36*
X96354369Y-82860237D02*
G01*
X96390881Y-82952312D01*
X96354369Y-83042800D01*
X96267056Y-83076137D01*
X96180537Y-83042800D01*
X96144819Y-82952312D01*
X96180537Y-82860237D01*
X96267056Y-82826900D01*
X96354369Y-82860237D01*
G37*
G36*
X101957450Y-83328550D02*
G01*
X101982056Y-83403162D01*
X101957450Y-83476981D01*
X101894744Y-83507938D01*
X101829656Y-83476981D01*
X101805844Y-83403162D01*
X101829656Y-83328550D01*
X101894744Y-83296800D01*
X101957450Y-83328550D01*
G37*
%TO.C,kibuzzard-63377BDE*%
G36*
X103738908Y-61380702D02*
G01*
X103712119Y-61495300D01*
X103668066Y-61595610D01*
X103607344Y-61679847D01*
X103530548Y-61747415D01*
X103438275Y-61797719D01*
X103331119Y-61828973D01*
X103209675Y-61839391D01*
X103094184Y-61835223D01*
X102976313Y-61822722D01*
X102866775Y-61803672D01*
X102776288Y-61779859D01*
X102776288Y-61575072D01*
X103069181Y-61575072D01*
X103139428Y-61584597D01*
X103202531Y-61586978D01*
X103304925Y-61567630D01*
X103383506Y-61509588D01*
X103433513Y-61405110D01*
X103450181Y-61246459D01*
X103437382Y-61107752D01*
X103398984Y-61005953D01*
X103334393Y-60943445D01*
X103243013Y-60922609D01*
X103148953Y-60935706D01*
X103069181Y-60967853D01*
X103069181Y-61575072D01*
X102776288Y-61575072D01*
X102776288Y-60210616D01*
X103069181Y-60160609D01*
X103069181Y-60720203D01*
X103188244Y-60680912D01*
X103302544Y-60670197D01*
X103405533Y-60680615D01*
X103495425Y-60711869D01*
X103634728Y-60830931D01*
X103683841Y-60915763D01*
X103719263Y-61015478D01*
X103740694Y-61128588D01*
X103747838Y-61253603D01*
X103738908Y-61380702D01*
G37*
G36*
X98269177Y-60512141D02*
G01*
X98332875Y-60688056D01*
X98400741Y-60858018D01*
X98470987Y-61013097D01*
X98531709Y-60874984D01*
X98600766Y-60698772D01*
X98634698Y-60605308D01*
X98667441Y-60510653D01*
X98725781Y-60339203D01*
X99028200Y-60339203D01*
X98982956Y-60458861D01*
X98937712Y-60574947D01*
X98891278Y-60688652D01*
X98842462Y-60801166D01*
X98790670Y-60912787D01*
X98735306Y-61023813D01*
X98675775Y-61136029D01*
X98611481Y-61251222D01*
X98611481Y-61813197D01*
X98316206Y-61813197D01*
X98316206Y-61253603D01*
X98232466Y-61100806D01*
X98155869Y-60950391D01*
X98086416Y-60802356D01*
X98021460Y-60652999D01*
X97958357Y-60498615D01*
X97897106Y-60339203D01*
X98211431Y-60339203D01*
X98269177Y-60512141D01*
G37*
G36*
X99908733Y-60373864D02*
G01*
X100025944Y-60438025D01*
X100111933Y-60531291D01*
X100163527Y-60657100D01*
X100180725Y-60815453D01*
X100163395Y-60975394D01*
X100111404Y-61102791D01*
X100024753Y-61197644D01*
X99906352Y-61263128D01*
X99759111Y-61302419D01*
X99583031Y-61315516D01*
X99478256Y-61315516D01*
X99478256Y-61813197D01*
X99185362Y-61813197D01*
X99185362Y-61060722D01*
X99478256Y-61060722D01*
X99597319Y-61060722D01*
X99720548Y-61046732D01*
X99809250Y-61004763D01*
X99862828Y-60928860D01*
X99880687Y-60813072D01*
X99863126Y-60703237D01*
X99810441Y-60630906D01*
X99728585Y-60590723D01*
X99623512Y-60577328D01*
X99550884Y-60578519D01*
X99478256Y-60584472D01*
X99478256Y-61060722D01*
X99185362Y-61060722D01*
X99185362Y-60358253D01*
X99281803Y-60341584D01*
X99390150Y-60330869D01*
X99497306Y-60324916D01*
X99590175Y-60322534D01*
X99763477Y-60335367D01*
X99908733Y-60373864D01*
G37*
G36*
X102289983Y-60373864D02*
G01*
X102407194Y-60438025D01*
X102493183Y-60531291D01*
X102544777Y-60657100D01*
X102561975Y-60815453D01*
X102544645Y-60975394D01*
X102492654Y-61102791D01*
X102406003Y-61197644D01*
X102287602Y-61263128D01*
X102140361Y-61302419D01*
X101964281Y-61315516D01*
X101859506Y-61315516D01*
X101859506Y-61813197D01*
X101566612Y-61813197D01*
X101566612Y-61060722D01*
X101859506Y-61060722D01*
X101978569Y-61060722D01*
X102101798Y-61046732D01*
X102190500Y-61004763D01*
X102244078Y-60928860D01*
X102261938Y-60813072D01*
X102244376Y-60703237D01*
X102191691Y-60630906D01*
X102109835Y-60590723D01*
X102004763Y-60577328D01*
X101932134Y-60578519D01*
X101859506Y-60584472D01*
X101859506Y-61060722D01*
X101566612Y-61060722D01*
X101566612Y-60358253D01*
X101663053Y-60341584D01*
X101771400Y-60330869D01*
X101878556Y-60324916D01*
X101971425Y-60322534D01*
X102144727Y-60335367D01*
X102289983Y-60373864D01*
G37*
G36*
X101053453Y-60674959D02*
G01*
X101147512Y-60683294D01*
X101248716Y-60697581D01*
X101340394Y-60720203D01*
X101288006Y-60991666D01*
X101220141Y-60977378D01*
X101140369Y-60964281D01*
X101061787Y-60955947D01*
X100997494Y-60953566D01*
X100876050Y-60959519D01*
X100754606Y-60982141D01*
X100754606Y-61813197D01*
X100459331Y-61813197D01*
X100459331Y-60767828D01*
X100577501Y-60729133D01*
X100698647Y-60698772D01*
X100831699Y-60679127D01*
X100985588Y-60672578D01*
X101053453Y-60674959D01*
G37*
G36*
X106102894Y-61070247D02*
G01*
X106102894Y-61334566D01*
X105188494Y-61720328D01*
X105105150Y-61463153D01*
X105774281Y-61203597D01*
X105105150Y-60944041D01*
X105188494Y-60686866D01*
X106102894Y-61070247D01*
G37*
%TO.C,kibuzzard-63377BCB*%
G36*
X75940656Y-60243953D02*
G01*
X76058528Y-60273719D01*
X76140681Y-60309437D01*
X76189497Y-60338012D01*
X76113297Y-60571375D01*
X75984709Y-60511844D01*
X75827547Y-60485650D01*
X75651334Y-60523750D01*
X75533463Y-60629716D01*
X75466788Y-60791641D01*
X75451607Y-60890760D01*
X75446547Y-61000000D01*
X75455807Y-61160734D01*
X75483589Y-61290513D01*
X75529891Y-61389334D01*
X75632880Y-61483096D01*
X75775159Y-61514350D01*
X75832309Y-61511969D01*
X75889459Y-61504825D01*
X75889459Y-60966662D01*
X76182353Y-60966662D01*
X76182353Y-61702469D01*
X76019238Y-61745331D01*
X75896901Y-61763191D01*
X75751347Y-61769144D01*
X75620080Y-61756940D01*
X75502506Y-61720328D01*
X75399815Y-61659606D01*
X75313197Y-61575072D01*
X75243545Y-61466725D01*
X75191753Y-61334566D01*
X75159606Y-61178891D01*
X75148891Y-61000000D01*
X75161392Y-60822895D01*
X75198897Y-60667816D01*
X75257833Y-60535359D01*
X75334628Y-60426119D01*
X75428092Y-60340691D01*
X75537034Y-60279672D01*
X75657883Y-60243060D01*
X75787066Y-60230856D01*
X75940656Y-60243953D01*
G37*
G36*
X74523813Y-60254669D02*
G01*
X74632159Y-60276100D01*
X74727409Y-60312414D01*
X74808372Y-60364206D01*
X74921481Y-60515416D01*
X74950949Y-60615130D01*
X74960772Y-60730919D01*
X74947675Y-60853553D01*
X74908384Y-60964281D01*
X74838733Y-61056555D01*
X74734553Y-61123825D01*
X74820278Y-61260747D01*
X74908384Y-61417909D01*
X74990538Y-61582216D01*
X75058403Y-61738188D01*
X74751222Y-61738188D01*
X74691988Y-61597991D01*
X74623825Y-61463153D01*
X74548518Y-61330101D01*
X74467853Y-61195263D01*
X74315453Y-61195263D01*
X74315453Y-61738188D01*
X74022559Y-61738188D01*
X74022559Y-60952375D01*
X74315453Y-60952375D01*
X74379747Y-60952375D01*
X74508930Y-60937790D01*
X74596441Y-60894034D01*
X74663116Y-60728537D01*
X74645256Y-60627334D01*
X74591678Y-60557087D01*
X74508930Y-60516011D01*
X74403559Y-60502319D01*
X74363078Y-60503509D01*
X74315453Y-60509462D01*
X74315453Y-60952375D01*
X74022559Y-60952375D01*
X74022559Y-60285625D01*
X74116619Y-60267766D01*
X74220203Y-60255859D01*
X74320216Y-60249906D01*
X74403559Y-60247525D01*
X74523813Y-60254669D01*
G37*
G36*
X77346784Y-61515541D02*
G01*
X77224150Y-61658416D01*
X77139616Y-61704255D01*
X77040794Y-61734616D01*
X76930959Y-61751582D01*
X76813384Y-61757238D01*
X76713967Y-61754559D01*
X76610978Y-61746522D01*
X76506798Y-61733127D01*
X76403809Y-61714375D01*
X76403809Y-61492919D01*
X76696703Y-61492919D01*
X76764569Y-61500062D01*
X76837197Y-61502444D01*
X76934828Y-61494109D01*
X77019363Y-61463153D01*
X77080084Y-61398859D01*
X77103897Y-61292894D01*
X77036031Y-61139303D01*
X76853866Y-61092869D01*
X76696703Y-61092869D01*
X76696703Y-61492919D01*
X76403809Y-61492919D01*
X76403809Y-60849981D01*
X76696703Y-60849981D01*
X76811003Y-60849981D01*
X76980072Y-60801166D01*
X77037222Y-60666625D01*
X77020553Y-60582091D01*
X76975309Y-60532084D01*
X76908634Y-60508272D01*
X76830053Y-60502319D01*
X76760997Y-60504700D01*
X76696703Y-60511844D01*
X76696703Y-60849981D01*
X76403809Y-60849981D01*
X76403809Y-60283244D01*
X76587166Y-60258241D01*
X76784809Y-60247525D01*
X76936019Y-60256157D01*
X77056272Y-60282053D01*
X77220578Y-60372541D01*
X77301541Y-60497556D01*
X77322972Y-60635669D01*
X77310173Y-60734491D01*
X77271775Y-60821406D01*
X77134853Y-60949994D01*
X77260762Y-61014288D01*
X77338450Y-61097631D01*
X77378634Y-61192881D01*
X77392028Y-61292894D01*
X77380717Y-61415230D01*
X77346784Y-61515541D01*
G37*
G36*
X72605716Y-60995237D02*
G01*
X72605716Y-61259556D01*
X71691316Y-61645319D01*
X71607972Y-61388144D01*
X72277103Y-61128588D01*
X71607972Y-60869031D01*
X71691316Y-60611856D01*
X72605716Y-60995237D01*
G37*
%TO.C,kibuzzard-63377B96*%
G36*
X73556932Y-56613054D02*
G01*
X104443068Y-56613054D01*
X104443068Y-59386946D01*
X73556932Y-59386946D01*
X73556932Y-59081088D01*
X74069562Y-59081088D01*
X74460087Y-59081088D01*
X74460087Y-58357188D01*
X74663287Y-58357188D01*
X74770841Y-58536972D01*
X74871250Y-58714375D01*
X74962134Y-58894159D01*
X75041112Y-59081088D01*
X75450687Y-59081088D01*
X75360200Y-58873125D01*
X75250662Y-58654050D01*
X75133187Y-58444500D01*
X75018887Y-58261938D01*
X75157794Y-58172244D01*
X75214713Y-58096838D01*
X75571337Y-58096838D01*
X75585625Y-58335359D01*
X75628487Y-58542925D01*
X75697544Y-58719138D01*
X75790412Y-58863600D01*
X75905903Y-58976313D01*
X76042825Y-59057275D01*
X76199591Y-59106091D01*
X76374612Y-59122363D01*
X76568684Y-59114425D01*
X76731800Y-59090613D01*
X76888874Y-59049338D01*
X77244562Y-59049338D01*
X77381881Y-59074341D01*
X77520787Y-59092200D01*
X77658106Y-59102916D01*
X77790662Y-59106488D01*
X77947428Y-59098947D01*
X78093875Y-59076325D01*
X78225637Y-59035844D01*
X78338350Y-58974725D01*
X78501862Y-58784225D01*
X78547106Y-58650478D01*
X78562187Y-58487363D01*
X78544328Y-58354013D01*
X78490750Y-58227013D01*
X78387166Y-58115888D01*
X78306335Y-58074613D01*
X79019387Y-58074613D01*
X79019387Y-58458788D01*
X79889337Y-58458788D01*
X79889337Y-58074613D01*
X79019387Y-58074613D01*
X78306335Y-58074613D01*
X78219287Y-58030163D01*
X78401850Y-57858712D01*
X78453047Y-57742825D01*
X78470112Y-57611062D01*
X78441537Y-57426912D01*
X78333587Y-57260225D01*
X78114512Y-57139575D01*
X78003932Y-57115762D01*
X80289387Y-57115762D01*
X80371056Y-57328311D01*
X80455193Y-57534157D01*
X80541800Y-57733300D01*
X80634404Y-57930679D01*
X80736533Y-58131233D01*
X80848187Y-58334963D01*
X80848187Y-59081088D01*
X81241887Y-59081088D01*
X82007062Y-59081088D01*
X82397587Y-59081088D01*
X82397587Y-59036638D01*
X83619962Y-59036638D01*
X83740612Y-59068388D01*
X83886662Y-59093788D01*
X84043825Y-59110456D01*
X84197812Y-59116013D01*
X84359737Y-59102122D01*
X84431853Y-59081088D01*
X85182062Y-59081088D01*
X85572587Y-59081088D01*
X86880687Y-59081088D01*
X87274387Y-59081088D01*
X87274387Y-58096838D01*
X89858838Y-58096838D01*
X89872530Y-58328811D01*
X89913606Y-58532606D01*
X89982067Y-58708223D01*
X90077913Y-58855663D01*
X90245835Y-59003829D01*
X90457501Y-59092729D01*
X90712913Y-59122363D01*
X90886347Y-59111647D01*
X91038350Y-59079500D01*
X91262188Y-58985838D01*
X91163763Y-58677863D01*
X91003425Y-58747713D01*
X90751013Y-58782638D01*
X90524397Y-58737791D01*
X90371600Y-58603250D01*
X90307218Y-58466196D01*
X90277028Y-58331788D01*
X91452688Y-58331788D01*
X91465388Y-58501253D01*
X91503488Y-58654050D01*
X91565003Y-58788591D01*
X91647950Y-58903288D01*
X91750344Y-58996156D01*
X91870200Y-59065213D01*
X92006328Y-59108075D01*
X92157538Y-59122363D01*
X92308747Y-59108075D01*
X92444875Y-59065213D01*
X92564334Y-58996156D01*
X92665538Y-58903288D01*
X92747294Y-58788591D01*
X92808413Y-58654050D01*
X92846513Y-58501253D01*
X92859213Y-58331788D01*
X92846513Y-58164703D01*
X92808413Y-58012700D01*
X92746897Y-57878556D01*
X92663950Y-57765050D01*
X92561556Y-57673769D01*
X92495282Y-57636462D01*
X93148138Y-57636462D01*
X93148138Y-59081088D01*
X93538663Y-59081088D01*
X93538663Y-57909512D01*
X93629150Y-57899987D01*
X93716463Y-57896812D01*
X93910138Y-57988887D01*
X93945856Y-58110331D01*
X93957763Y-58290513D01*
X93957763Y-59081088D01*
X94348288Y-59081088D01*
X94348288Y-58239713D01*
X94341144Y-58094059D01*
X94319713Y-57961900D01*
X94222875Y-57746000D01*
X94037138Y-57606300D01*
X93974420Y-57588837D01*
X94580063Y-57588837D01*
X94647630Y-57809798D01*
X94716984Y-58021828D01*
X94788124Y-58224929D01*
X94861050Y-58419100D01*
X94958946Y-58661282D01*
X95055783Y-58881944D01*
X95151563Y-59081088D01*
X95478588Y-59081088D01*
X95575954Y-58881944D01*
X95677554Y-58661282D01*
X95783388Y-58419100D01*
X95812517Y-58347663D01*
X96221538Y-58347663D01*
X96235825Y-58526256D01*
X96278688Y-58681038D01*
X96348141Y-58812403D01*
X96442200Y-58920750D01*
X96559675Y-59005681D01*
X96699375Y-59066800D01*
X96860109Y-59103709D01*
X97040688Y-59116013D01*
X97297863Y-59092200D01*
X97338707Y-59081088D01*
X97993188Y-59081088D01*
X98386888Y-59081088D01*
X98386888Y-57973012D01*
X98548813Y-57942850D01*
X98710738Y-57934912D01*
X98796463Y-57938087D01*
X98901238Y-57949200D01*
X99007600Y-57966662D01*
X99098088Y-57985712D01*
X99112181Y-57912687D01*
X99412413Y-57912687D01*
X99752138Y-57912687D01*
X99752138Y-58525463D01*
X99761663Y-58694928D01*
X99790238Y-58828675D01*
X99901363Y-59008063D01*
X100079163Y-59093788D01*
X100320463Y-59116013D01*
X100563350Y-59096963D01*
X100796713Y-59033463D01*
X100742738Y-58696913D01*
X100642725Y-58738188D01*
X100553825Y-58762000D01*
X100464925Y-58773113D01*
X100364913Y-58776288D01*
X100272838Y-58766763D01*
X100202988Y-58728663D01*
X100158538Y-58649288D01*
X100142663Y-58515938D01*
X100142663Y-58347663D01*
X100984038Y-58347663D01*
X100998325Y-58526256D01*
X101041188Y-58681038D01*
X101110641Y-58812403D01*
X101204700Y-58920750D01*
X101322175Y-59005681D01*
X101461875Y-59066800D01*
X101622609Y-59103709D01*
X101803188Y-59116013D01*
X102060363Y-59092200D01*
X102101207Y-59081088D01*
X102755688Y-59081088D01*
X103149388Y-59081088D01*
X103149388Y-57973012D01*
X103311313Y-57942850D01*
X103473238Y-57934912D01*
X103558963Y-57938087D01*
X103663738Y-57949200D01*
X103770100Y-57966662D01*
X103860588Y-57985712D01*
X103930438Y-57623762D01*
X103808200Y-57593600D01*
X103673263Y-57574550D01*
X103547850Y-57563437D01*
X103457363Y-57560262D01*
X103252178Y-57568994D01*
X103074775Y-57595187D01*
X102913247Y-57635669D01*
X102755688Y-57687262D01*
X102755688Y-59081088D01*
X102101207Y-59081088D01*
X102276263Y-59033463D01*
X102222288Y-58700088D01*
X102042900Y-58750888D01*
X101819063Y-58776288D01*
X101646025Y-58755253D01*
X101507913Y-58692150D01*
X101417425Y-58592534D01*
X101387263Y-58461963D01*
X102355638Y-58461963D01*
X102360400Y-58395288D01*
X102361988Y-58315913D01*
X102342938Y-58086078D01*
X102285788Y-57896107D01*
X102190538Y-57746000D01*
X102058599Y-57637521D01*
X101891382Y-57572433D01*
X101688888Y-57550737D01*
X101557125Y-57563437D01*
X101428538Y-57601537D01*
X101308681Y-57664641D01*
X101203113Y-57752350D01*
X101114213Y-57864666D01*
X101044363Y-58001588D01*
X100999119Y-58162719D01*
X100984038Y-58347663D01*
X100142663Y-58347663D01*
X100142663Y-57912687D01*
X100768138Y-57912687D01*
X100768138Y-57588837D01*
X100142663Y-57588837D01*
X100142663Y-57150687D01*
X99752138Y-57214187D01*
X99752138Y-57588837D01*
X99412413Y-57588837D01*
X99412413Y-57912687D01*
X99112181Y-57912687D01*
X99167938Y-57623762D01*
X99045700Y-57593600D01*
X98910763Y-57574550D01*
X98785350Y-57563437D01*
X98694863Y-57560262D01*
X98489678Y-57568994D01*
X98312275Y-57595187D01*
X98150747Y-57635669D01*
X97993188Y-57687262D01*
X97993188Y-59081088D01*
X97338707Y-59081088D01*
X97513763Y-59033463D01*
X97459788Y-58700088D01*
X97280400Y-58750888D01*
X97056563Y-58776288D01*
X96883525Y-58755253D01*
X96745413Y-58692150D01*
X96654925Y-58592534D01*
X96624763Y-58461963D01*
X97593138Y-58461963D01*
X97597900Y-58395288D01*
X97599488Y-58315913D01*
X97580438Y-58086078D01*
X97523288Y-57896107D01*
X97428038Y-57746000D01*
X97296099Y-57637521D01*
X97128882Y-57572433D01*
X96926388Y-57550737D01*
X96794625Y-57563437D01*
X96666038Y-57601537D01*
X96546181Y-57664641D01*
X96440613Y-57752350D01*
X96351713Y-57864666D01*
X96281863Y-58001588D01*
X96236619Y-58162719D01*
X96221538Y-58347663D01*
X95812517Y-58347663D01*
X95862564Y-58224929D01*
X95938169Y-58021828D01*
X96010202Y-57809798D01*
X96078663Y-57588837D01*
X95681788Y-57588837D01*
X95648847Y-57713456D01*
X95607175Y-57846012D01*
X95560344Y-57982934D01*
X95511925Y-58120650D01*
X95462316Y-58256778D01*
X95411913Y-58388938D01*
X95319838Y-58627063D01*
X95232525Y-58388938D01*
X95186884Y-58256778D01*
X95142038Y-58120650D01*
X95098778Y-57982934D01*
X95057900Y-57846012D01*
X95020991Y-57713456D01*
X94989638Y-57588837D01*
X94580063Y-57588837D01*
X93974420Y-57588837D01*
X93904581Y-57569391D01*
X93741863Y-57557087D01*
X93567634Y-57563437D01*
X93406900Y-57582487D01*
X93265216Y-57608681D01*
X93148138Y-57636462D01*
X92495282Y-57636462D01*
X92441700Y-57606300D01*
X92306366Y-57564628D01*
X92157538Y-57550737D01*
X92010694Y-57564628D01*
X91874963Y-57606300D01*
X91753916Y-57673769D01*
X91651125Y-57765050D01*
X91567781Y-57878556D01*
X91505075Y-58012700D01*
X91465784Y-58164703D01*
X91452688Y-58331788D01*
X90277028Y-58331788D01*
X90268589Y-58294217D01*
X90255713Y-58087313D01*
X90266428Y-57909512D01*
X90298575Y-57763462D01*
X90409700Y-57555500D01*
X90565275Y-57444375D01*
X90744663Y-57411037D01*
X90981200Y-57444375D01*
X91157413Y-57525337D01*
X91259013Y-57214187D01*
X91193925Y-57176087D01*
X91087563Y-57128462D01*
X90939925Y-57088775D01*
X90751013Y-57071312D01*
X90564878Y-57088378D01*
X90393825Y-57139575D01*
X90241425Y-57223712D01*
X90111250Y-57339600D01*
X90005284Y-57486047D01*
X89925513Y-57661862D01*
X89875506Y-57865856D01*
X89858838Y-58096838D01*
X87274387Y-58096838D01*
X87274387Y-57973012D01*
X87436312Y-57942850D01*
X87598237Y-57934912D01*
X87683962Y-57938087D01*
X87788737Y-57949200D01*
X87895100Y-57966662D01*
X87985588Y-57985712D01*
X88055437Y-57623762D01*
X87933200Y-57593600D01*
X87798262Y-57574550D01*
X87672850Y-57563437D01*
X87582362Y-57560262D01*
X87377178Y-57568994D01*
X87199775Y-57595187D01*
X87038247Y-57635669D01*
X86880687Y-57687262D01*
X86880687Y-59081088D01*
X85572587Y-59081088D01*
X85572587Y-58417513D01*
X85712287Y-58417513D01*
X85947061Y-58400050D01*
X86143382Y-58347663D01*
X86301250Y-58260350D01*
X86416785Y-58133879D01*
X86486106Y-57964017D01*
X86509212Y-57750762D01*
X86486282Y-57539625D01*
X86417490Y-57371879D01*
X86302837Y-57247525D01*
X86146557Y-57161976D01*
X85952882Y-57110647D01*
X85721812Y-57093537D01*
X85597987Y-57096712D01*
X85455112Y-57104650D01*
X85310650Y-57118937D01*
X85182062Y-57141162D01*
X85182062Y-59081088D01*
X84431853Y-59081088D01*
X84502612Y-59060450D01*
X84625644Y-58993378D01*
X84728037Y-58903288D01*
X84809000Y-58790972D01*
X84867737Y-58657225D01*
X84903456Y-58504428D01*
X84915362Y-58334963D01*
X84905837Y-58168275D01*
X84877262Y-58017463D01*
X84830034Y-57884509D01*
X84764550Y-57771400D01*
X84578812Y-57612650D01*
X84458956Y-57570978D01*
X84321637Y-57557087D01*
X84169237Y-57571375D01*
X84010487Y-57623762D01*
X84010487Y-56877637D01*
X83619962Y-56944312D01*
X83619962Y-59036638D01*
X82397587Y-59036638D01*
X82397587Y-58417513D01*
X82537287Y-58417513D01*
X82772061Y-58400050D01*
X82968382Y-58347663D01*
X83126250Y-58260350D01*
X83241785Y-58133879D01*
X83311106Y-57964017D01*
X83334212Y-57750762D01*
X83311282Y-57539625D01*
X83242490Y-57371879D01*
X83127837Y-57247525D01*
X82971557Y-57161976D01*
X82777882Y-57110647D01*
X82546812Y-57093537D01*
X82422987Y-57096712D01*
X82280112Y-57104650D01*
X82135650Y-57118937D01*
X82007062Y-57141162D01*
X82007062Y-59081088D01*
X81241887Y-59081088D01*
X81241887Y-58331788D01*
X81327612Y-58178197D01*
X81406987Y-58028575D01*
X81480806Y-57880541D01*
X81549862Y-57731712D01*
X81614950Y-57581694D01*
X81676862Y-57430087D01*
X81737187Y-57275306D01*
X81797512Y-57115762D01*
X81394287Y-57115762D01*
X81316500Y-57344362D01*
X81272844Y-57470569D01*
X81227600Y-57595187D01*
X81135525Y-57830137D01*
X81054562Y-58014288D01*
X80960900Y-57807516D01*
X80870413Y-57580900D01*
X80785481Y-57346347D01*
X80708487Y-57115762D01*
X80289387Y-57115762D01*
X78003932Y-57115762D01*
X77954175Y-57105047D01*
X77752562Y-57093537D01*
X77489037Y-57107825D01*
X77244562Y-57141162D01*
X77244562Y-59049338D01*
X76888874Y-59049338D01*
X76949287Y-59033463D01*
X76949287Y-58052388D01*
X76558762Y-58052388D01*
X76558762Y-58769938D01*
X76482562Y-58779463D01*
X76406362Y-58782638D01*
X76216656Y-58740966D01*
X76079337Y-58615950D01*
X76017601Y-58484188D01*
X75980560Y-58311150D01*
X75968212Y-58096838D01*
X75974959Y-57951184D01*
X75995200Y-57819025D01*
X76084100Y-57603125D01*
X76241262Y-57461837D01*
X76476212Y-57411037D01*
X76685762Y-57445962D01*
X76857212Y-57525337D01*
X76958812Y-57214187D01*
X76893725Y-57176087D01*
X76784187Y-57128462D01*
X76627025Y-57088775D01*
X76422237Y-57071312D01*
X76249994Y-57087584D01*
X76088862Y-57136400D01*
X75943606Y-57217759D01*
X75818987Y-57331662D01*
X75716594Y-57477316D01*
X75638012Y-57653925D01*
X75588006Y-57860697D01*
X75571337Y-58096838D01*
X75214713Y-58096838D01*
X75250662Y-58049213D01*
X75303050Y-57901575D01*
X75320512Y-57738062D01*
X75307416Y-57583678D01*
X75268125Y-57450725D01*
X75117312Y-57249112D01*
X75009362Y-57180056D01*
X74882362Y-57131637D01*
X74737900Y-57103062D01*
X74577562Y-57093537D01*
X74466437Y-57096712D01*
X74333087Y-57104650D01*
X74194975Y-57120525D01*
X74069562Y-57144337D01*
X74069562Y-59081088D01*
X73556932Y-59081088D01*
X73556932Y-56613054D01*
G37*
G36*
X92294459Y-57921022D02*
G01*
X92387725Y-58012700D01*
X92441303Y-58154384D01*
X92459163Y-58334963D01*
X92439716Y-58515938D01*
X92381375Y-58658813D01*
X92284934Y-58751681D01*
X92151188Y-58782638D01*
X92014266Y-58751681D01*
X91921000Y-58658813D01*
X91867422Y-58515938D01*
X91849563Y-58334963D01*
X91869009Y-58154384D01*
X91927350Y-58012700D01*
X92023791Y-57921022D01*
X92157538Y-57890462D01*
X92294459Y-57921022D01*
G37*
G36*
X84364103Y-57921419D02*
G01*
X84450225Y-58004763D01*
X84501422Y-58140494D01*
X84518487Y-58325438D01*
X84496262Y-58536972D01*
X84429587Y-58676275D01*
X84324812Y-58753666D01*
X84188287Y-58779463D01*
X84104150Y-58776288D01*
X84010487Y-58763588D01*
X84010487Y-57953962D01*
X84116850Y-57911100D01*
X84242262Y-57893637D01*
X84364103Y-57921419D01*
G37*
G36*
X82731359Y-57451122D02*
G01*
X82840500Y-57504700D01*
X82910747Y-57601141D01*
X82934162Y-57747588D01*
X82910350Y-57901972D01*
X82838912Y-58003175D01*
X82720644Y-58059134D01*
X82556337Y-58077788D01*
X82397587Y-58077788D01*
X82397587Y-57442787D01*
X82494425Y-57434850D01*
X82591262Y-57433262D01*
X82731359Y-57451122D01*
G37*
G36*
X85906359Y-57451122D02*
G01*
X86015500Y-57504700D01*
X86085747Y-57601141D01*
X86109162Y-57747588D01*
X86085350Y-57901972D01*
X86013912Y-58003175D01*
X85895644Y-58059134D01*
X85731337Y-58077788D01*
X85572587Y-58077788D01*
X85572587Y-57442787D01*
X85669425Y-57434850D01*
X85766262Y-57433262D01*
X85906359Y-57451122D01*
G37*
G36*
X78087525Y-58282575D02*
G01*
X78178012Y-58487363D01*
X78146262Y-58628650D01*
X78065300Y-58714375D01*
X77952587Y-58755650D01*
X77822412Y-58766763D01*
X77725575Y-58763588D01*
X77635087Y-58754063D01*
X77635087Y-58220663D01*
X77844637Y-58220663D01*
X78087525Y-58282575D01*
G37*
G36*
X74718056Y-57451519D02*
G01*
X74828387Y-57506287D01*
X74899825Y-57599950D01*
X74923637Y-57734887D01*
X74834737Y-57955550D01*
X74718056Y-58013891D01*
X74545812Y-58033338D01*
X74460087Y-58033338D01*
X74460087Y-57442787D01*
X74523587Y-57434850D01*
X74577562Y-57433262D01*
X74718056Y-57451519D01*
G37*
G36*
X97066088Y-57904750D02*
G01*
X97154988Y-57976187D01*
X97205788Y-58076200D01*
X97221663Y-58192088D01*
X96624763Y-58192088D01*
X96651750Y-58074613D01*
X96708900Y-57973012D01*
X96800975Y-57903162D01*
X96932738Y-57877762D01*
X97066088Y-57904750D01*
G37*
G36*
X101828588Y-57904750D02*
G01*
X101917488Y-57976187D01*
X101968288Y-58076200D01*
X101984163Y-58192088D01*
X101387263Y-58192088D01*
X101414250Y-58074613D01*
X101471400Y-57973012D01*
X101563475Y-57903162D01*
X101695238Y-57877762D01*
X101828588Y-57904750D01*
G37*
G36*
X77917662Y-57441200D02*
G01*
X78006562Y-57472950D01*
X78066887Y-57539625D01*
X78089112Y-57652337D01*
X78012912Y-57831725D01*
X77787487Y-57896812D01*
X77635087Y-57896812D01*
X77635087Y-57445962D01*
X77720812Y-57436437D01*
X77812887Y-57433262D01*
X77917662Y-57441200D01*
G37*
D11*
%TO.C,J3*%
X72120000Y-79190000D02*
X72120000Y-86810000D01*
X82280000Y-86810000D02*
X82280000Y-79190000D01*
X82280000Y-85540000D02*
X72120000Y-85540000D01*
X72120000Y-86810000D02*
X82280000Y-86810000D01*
X82280000Y-79190000D02*
X72120000Y-79190000D01*
%TO.C,U1*%
X81700000Y-69760000D02*
X82500000Y-69760000D01*
X81700000Y-66640000D02*
X82500000Y-66640000D01*
X81700000Y-66640000D02*
X79900000Y-66640000D01*
X81700000Y-69760000D02*
X80900000Y-69760000D01*
%TO.C,R14*%
X82065000Y-72627064D02*
X82065000Y-72172936D01*
X83535000Y-72627064D02*
X83535000Y-72172936D01*
%TO.C,R13*%
X85972936Y-68465000D02*
X86427064Y-68465000D01*
X85972936Y-69935000D02*
X86427064Y-69935000D01*
%TO.C,J2*%
X106718344Y-75300000D02*
X106285331Y-75550000D01*
X107179669Y-55500000D02*
X115779669Y-55500000D01*
X106285331Y-75550000D02*
X106285331Y-75050000D01*
X107179669Y-86470000D02*
X107179669Y-55500000D01*
X106285331Y-75050000D02*
X106718344Y-75300000D01*
X115779669Y-86470000D02*
X107179669Y-86470000D01*
%TO.C,J1*%
X70931325Y-66800000D02*
X71364338Y-66550000D01*
X70470000Y-86600000D02*
X61870000Y-86600000D01*
X71364338Y-66550000D02*
X71364338Y-67050000D01*
X70470000Y-55630000D02*
X70470000Y-86600000D01*
X71364338Y-67050000D02*
X70931325Y-66800000D01*
X61870000Y-55630000D02*
X70470000Y-55630000D01*
D10*
%TO.C,U2*%
X94175000Y-68025000D02*
X94175000Y-68325000D01*
X90825000Y-68025000D02*
X94175000Y-68025000D01*
X90825000Y-68025000D02*
X90825000Y-68250000D01*
X90825000Y-68250000D02*
X89600000Y-68250000D01*
X94175000Y-71375000D02*
X94175000Y-71075000D01*
X90825000Y-71375000D02*
X90825000Y-71075000D01*
X90825000Y-71375000D02*
X94175000Y-71375000D01*
D11*
%TO.C,R5*%
X74072936Y-69835000D02*
X74527064Y-69835000D01*
X74072936Y-68365000D02*
X74527064Y-68365000D01*
%TO.C,R4*%
X74072936Y-67535000D02*
X74527064Y-67535000D01*
X74072936Y-66065000D02*
X74527064Y-66065000D01*
%TO.C,R11*%
X100072936Y-72165000D02*
X100527064Y-72165000D01*
X100072936Y-73635000D02*
X100527064Y-73635000D01*
%TO.C,R6*%
X102272936Y-70435000D02*
X102727064Y-70435000D01*
X102272936Y-68965000D02*
X102727064Y-68965000D01*
%TO.C,U3*%
X85645112Y-77600000D02*
X85645112Y-80525000D01*
X88865112Y-77600000D02*
X88865112Y-76100000D01*
X88865112Y-77600000D02*
X88865112Y-79100000D01*
X85645112Y-77600000D02*
X85645112Y-76100000D01*
%TO.C,R1*%
X79227064Y-75765000D02*
X78772936Y-75765000D01*
X79227064Y-77235000D02*
X78772936Y-77235000D01*
%TO.C,R12*%
X103935000Y-73572936D02*
X103935000Y-74027064D01*
X102465000Y-73572936D02*
X102465000Y-74027064D01*
%TO.C,C5*%
X88200000Y-85040000D02*
X88200000Y-86511000D01*
X88881000Y-81753000D02*
X88881000Y-82960000D01*
X89241000Y-81996000D02*
X89241000Y-82960000D01*
X89481000Y-82215000D02*
X89481000Y-82960000D01*
X87640000Y-81420000D02*
X87640000Y-82960000D01*
X88481000Y-81572000D02*
X88481000Y-82960000D01*
X89561000Y-85040000D02*
X89561000Y-85699000D01*
X88240000Y-81499000D02*
X88240000Y-82960000D01*
X88280000Y-81509000D02*
X88280000Y-82960000D01*
X88641000Y-85040000D02*
X88641000Y-86365000D01*
X89241000Y-85040000D02*
X89241000Y-86004000D01*
X88681000Y-81652000D02*
X88681000Y-82960000D01*
X90161000Y-83482000D02*
X90161000Y-84518000D01*
X88721000Y-81671000D02*
X88721000Y-82960000D01*
X88120000Y-81472000D02*
X88120000Y-82960000D01*
X89441000Y-85040000D02*
X89441000Y-85826000D01*
X89281000Y-85040000D02*
X89281000Y-85971000D01*
X87720000Y-81422000D02*
X87720000Y-82960000D01*
X89361000Y-82099000D02*
X89361000Y-82960000D01*
X88401000Y-81545000D02*
X88401000Y-82960000D01*
X89841000Y-82681000D02*
X89841000Y-85319000D01*
X88801000Y-85040000D02*
X88801000Y-86290000D01*
X88601000Y-81618000D02*
X88601000Y-82960000D01*
X87720000Y-85040000D02*
X87720000Y-86578000D01*
X90121000Y-83323000D02*
X90121000Y-84677000D01*
X89561000Y-82301000D02*
X89561000Y-82960000D01*
X88521000Y-85040000D02*
X88521000Y-86414000D01*
X89441000Y-82174000D02*
X89441000Y-82960000D01*
X88761000Y-85040000D02*
X88761000Y-86310000D01*
X88561000Y-85040000D02*
X88561000Y-86398000D01*
X89081000Y-81878000D02*
X89081000Y-82960000D01*
X88160000Y-81480000D02*
X88160000Y-82960000D01*
X84795225Y-82525000D02*
X85295225Y-82525000D01*
X88280000Y-85040000D02*
X88280000Y-86491000D01*
X87640000Y-85040000D02*
X87640000Y-86580000D01*
X89081000Y-85040000D02*
X89081000Y-86122000D01*
X88160000Y-85040000D02*
X88160000Y-86520000D01*
X87760000Y-81424000D02*
X87760000Y-82960000D01*
X88120000Y-85040000D02*
X88120000Y-86528000D01*
X88561000Y-81602000D02*
X88561000Y-82960000D01*
X89961000Y-82902000D02*
X89961000Y-85098000D01*
X88040000Y-81457000D02*
X88040000Y-82960000D01*
X87920000Y-85040000D02*
X87920000Y-86561000D01*
X89401000Y-82136000D02*
X89401000Y-82960000D01*
X89001000Y-81825000D02*
X89001000Y-82960000D01*
X88000000Y-81450000D02*
X88000000Y-82960000D01*
X89921000Y-82822000D02*
X89921000Y-85178000D01*
X89601000Y-82347000D02*
X89601000Y-82960000D01*
X89321000Y-82063000D02*
X89321000Y-82960000D01*
X88841000Y-81732000D02*
X88841000Y-82960000D01*
X89201000Y-85040000D02*
X89201000Y-86035000D01*
X88321000Y-81520000D02*
X88321000Y-82960000D01*
X88961000Y-85040000D02*
X88961000Y-86200000D01*
X87840000Y-81431000D02*
X87840000Y-82960000D01*
X85045225Y-82275000D02*
X85045225Y-82775000D01*
X88361000Y-85040000D02*
X88361000Y-86468000D01*
X88481000Y-85040000D02*
X88481000Y-86428000D01*
X89481000Y-85040000D02*
X89481000Y-85785000D01*
X88401000Y-85040000D02*
X88401000Y-86455000D01*
X88080000Y-85040000D02*
X88080000Y-86536000D01*
X90001000Y-82989000D02*
X90001000Y-85011000D01*
X87680000Y-81421000D02*
X87680000Y-82960000D01*
X88000000Y-85040000D02*
X88000000Y-86550000D01*
X88601000Y-85040000D02*
X88601000Y-86382000D01*
X87920000Y-81439000D02*
X87920000Y-82960000D01*
X89121000Y-81905000D02*
X89121000Y-82960000D01*
X88921000Y-85040000D02*
X88921000Y-86224000D01*
X88441000Y-81558000D02*
X88441000Y-82960000D01*
X87600000Y-85040000D02*
X87600000Y-86580000D01*
X89801000Y-82617000D02*
X89801000Y-85383000D01*
X89601000Y-85040000D02*
X89601000Y-85653000D01*
X89761000Y-82557000D02*
X89761000Y-85443000D01*
X88641000Y-81635000D02*
X88641000Y-82960000D01*
X89161000Y-81935000D02*
X89161000Y-82960000D01*
X88721000Y-85040000D02*
X88721000Y-86329000D01*
X90201000Y-83716000D02*
X90201000Y-84284000D01*
X88200000Y-81489000D02*
X88200000Y-82960000D01*
X88761000Y-81690000D02*
X88761000Y-82960000D01*
X89681000Y-82446000D02*
X89681000Y-85554000D01*
X89521000Y-82257000D02*
X89521000Y-82960000D01*
X88240000Y-85040000D02*
X88240000Y-86501000D01*
X89201000Y-81965000D02*
X89201000Y-82960000D01*
X89361000Y-85040000D02*
X89361000Y-85901000D01*
X87800000Y-85040000D02*
X87800000Y-86573000D01*
X87880000Y-85040000D02*
X87880000Y-86565000D01*
X89041000Y-85040000D02*
X89041000Y-86149000D01*
X89281000Y-82029000D02*
X89281000Y-82960000D01*
X88881000Y-85040000D02*
X88881000Y-86247000D01*
X89041000Y-81851000D02*
X89041000Y-82960000D01*
X87600000Y-81420000D02*
X87600000Y-82960000D01*
X87960000Y-85040000D02*
X87960000Y-86556000D01*
X88321000Y-85040000D02*
X88321000Y-86480000D01*
X88040000Y-85040000D02*
X88040000Y-86543000D01*
X87880000Y-81435000D02*
X87880000Y-82960000D01*
X89641000Y-82395000D02*
X89641000Y-85605000D01*
X88801000Y-81710000D02*
X88801000Y-82960000D01*
X87680000Y-85040000D02*
X87680000Y-86579000D01*
X89401000Y-85040000D02*
X89401000Y-85864000D01*
X89521000Y-85040000D02*
X89521000Y-85743000D01*
X89161000Y-85040000D02*
X89161000Y-86065000D01*
X88841000Y-85040000D02*
X88841000Y-86268000D01*
X89121000Y-85040000D02*
X89121000Y-86095000D01*
X88681000Y-85040000D02*
X88681000Y-86348000D01*
X89721000Y-82500000D02*
X89721000Y-85500000D01*
X89321000Y-85040000D02*
X89321000Y-85937000D01*
X87800000Y-81427000D02*
X87800000Y-82960000D01*
X89881000Y-82749000D02*
X89881000Y-85251000D01*
X88361000Y-81532000D02*
X88361000Y-82960000D01*
X88441000Y-85040000D02*
X88441000Y-86442000D01*
X87960000Y-81444000D02*
X87960000Y-82960000D01*
X90041000Y-83085000D02*
X90041000Y-84915000D01*
X88521000Y-81586000D02*
X88521000Y-82960000D01*
X88080000Y-81464000D02*
X88080000Y-82960000D01*
X88921000Y-81776000D02*
X88921000Y-82960000D01*
X88961000Y-81800000D02*
X88961000Y-82960000D01*
X87760000Y-85040000D02*
X87760000Y-86576000D01*
X90081000Y-83195000D02*
X90081000Y-84805000D01*
X87840000Y-85040000D02*
X87840000Y-86569000D01*
X89001000Y-85040000D02*
X89001000Y-86175000D01*
X90220000Y-84000000D02*
G75*
G03*
X90220000Y-84000000I-2620000J0D01*
G01*
%TO.C,R3*%
X104035000Y-65627064D02*
X104035000Y-65172936D01*
X102565000Y-65627064D02*
X102565000Y-65172936D01*
%TO.C,C2*%
X93965000Y-65761252D02*
X93965000Y-65238748D01*
X95435000Y-65761252D02*
X95435000Y-65238748D01*
%TO.C,R10*%
X74072936Y-72135000D02*
X74527064Y-72135000D01*
X74072936Y-70665000D02*
X74527064Y-70665000D01*
%TO.C,D1*%
X76185000Y-77460000D02*
X76185000Y-75540000D01*
X76185000Y-75540000D02*
X73500000Y-75540000D01*
X73500000Y-77460000D02*
X76185000Y-77460000D01*
%TO.C,R2*%
X100172936Y-67035000D02*
X100627064Y-67035000D01*
X100172936Y-65565000D02*
X100627064Y-65565000D01*
%TO.C,C4*%
X84635000Y-77138748D02*
X84635000Y-77661252D01*
X83165000Y-77138748D02*
X83165000Y-77661252D01*
%TO.C,C3*%
X89920000Y-76634113D02*
X91360000Y-76634113D01*
X90900000Y-75234113D02*
X93900000Y-75234113D01*
X89909000Y-76675113D02*
X91360000Y-76675113D01*
X93440000Y-75634113D02*
X94337000Y-75634113D01*
X90052000Y-76274113D02*
X91360000Y-76274113D01*
X93440000Y-77075113D02*
X94965000Y-77075113D01*
X93440000Y-75954113D02*
X94575000Y-75954113D01*
X90225000Y-75954113D02*
X91360000Y-75954113D01*
X91882000Y-74794113D02*
X92918000Y-74794113D01*
X93440000Y-75514113D02*
X94226000Y-75514113D01*
X93440000Y-76034113D02*
X94624000Y-76034113D01*
X89899000Y-76715113D02*
X91360000Y-76715113D01*
X90463000Y-75634113D02*
X91360000Y-75634113D01*
X93440000Y-77115113D02*
X94969000Y-77115113D01*
X93440000Y-77155113D02*
X94973000Y-77155113D01*
X89827000Y-77155113D02*
X91360000Y-77155113D01*
X91302000Y-74994113D02*
X93498000Y-74994113D01*
X90278000Y-75874113D02*
X91360000Y-75874113D01*
X93440000Y-76875113D02*
X94936000Y-76875113D01*
X89932000Y-76594113D02*
X91360000Y-76594113D01*
X93440000Y-76995113D02*
X94956000Y-76995113D01*
X93440000Y-75554113D02*
X94264000Y-75554113D01*
X90132000Y-76114113D02*
X91360000Y-76114113D01*
X90200000Y-75994113D02*
X91360000Y-75994113D01*
X93440000Y-76795113D02*
X94920000Y-76795113D01*
X93440000Y-77035113D02*
X94961000Y-77035113D01*
X91485000Y-74914113D02*
X93315000Y-74914113D01*
X93440000Y-76154113D02*
X94690000Y-76154113D01*
X90365000Y-75754113D02*
X91360000Y-75754113D01*
X93440000Y-75594113D02*
X94301000Y-75594113D01*
X93440000Y-75994113D02*
X94600000Y-75994113D01*
X93440000Y-75834113D02*
X94495000Y-75834113D01*
X90499000Y-75594113D02*
X91360000Y-75594113D01*
X90035000Y-76314113D02*
X91360000Y-76314113D01*
X90002000Y-76394113D02*
X91360000Y-76394113D01*
X90335000Y-75794113D02*
X91360000Y-75794113D01*
X89835000Y-77075113D02*
X91360000Y-77075113D01*
X89958000Y-76514113D02*
X91360000Y-76514113D01*
X93440000Y-76634113D02*
X94880000Y-76634113D01*
X89986000Y-76434113D02*
X91360000Y-76434113D01*
X91222000Y-75034113D02*
X93578000Y-75034113D01*
X90153000Y-76074113D02*
X91360000Y-76074113D01*
X93440000Y-76955113D02*
X94950000Y-76955113D01*
X90925000Y-80159888D02*
X90925000Y-79659888D01*
X90251000Y-75914113D02*
X91360000Y-75914113D01*
X93440000Y-76915113D02*
X94943000Y-76915113D01*
X93440000Y-76835113D02*
X94928000Y-76835113D01*
X91723000Y-74834113D02*
X93077000Y-74834113D01*
X93440000Y-76514113D02*
X94842000Y-76514113D01*
X93440000Y-76114113D02*
X94668000Y-76114113D01*
X89889000Y-76755113D02*
X91360000Y-76755113D01*
X90176000Y-76034113D02*
X91360000Y-76034113D01*
X89850000Y-76955113D02*
X91360000Y-76955113D01*
X93440000Y-75394113D02*
X94099000Y-75394113D01*
X89822000Y-77235113D02*
X91360000Y-77235113D01*
X93440000Y-75434113D02*
X94143000Y-75434113D01*
X93440000Y-75914113D02*
X94549000Y-75914113D01*
X93440000Y-76194113D02*
X94710000Y-76194113D01*
X93440000Y-75754113D02*
X94435000Y-75754113D01*
X90110000Y-76154113D02*
X91360000Y-76154113D01*
X93440000Y-77355113D02*
X94980000Y-77355113D01*
X90574000Y-75514113D02*
X91360000Y-75514113D01*
X90957000Y-75194113D02*
X93843000Y-75194113D01*
X93440000Y-76434113D02*
X94814000Y-76434113D01*
X90701000Y-75394113D02*
X91360000Y-75394113D01*
X89824000Y-77195113D02*
X91360000Y-77195113D01*
X90747000Y-75354113D02*
X91360000Y-75354113D01*
X93440000Y-75354113D02*
X94053000Y-75354113D01*
X89839000Y-77035113D02*
X91360000Y-77035113D01*
X90536000Y-75554113D02*
X91360000Y-75554113D01*
X93440000Y-76755113D02*
X94911000Y-76755113D01*
X93440000Y-76314113D02*
X94765000Y-76314113D01*
X93440000Y-76274113D02*
X94748000Y-76274113D01*
X91149000Y-75074113D02*
X93651000Y-75074113D01*
X89857000Y-76915113D02*
X91360000Y-76915113D01*
X90305000Y-75834113D02*
X91360000Y-75834113D01*
X93440000Y-76474113D02*
X94828000Y-76474113D01*
X93440000Y-76234113D02*
X94729000Y-76234113D01*
X93440000Y-75674113D02*
X94371000Y-75674113D01*
X90846000Y-75274113D02*
X93954000Y-75274113D01*
X89831000Y-77115113D02*
X91360000Y-77115113D01*
X93440000Y-75874113D02*
X94522000Y-75874113D01*
X93440000Y-77195113D02*
X94976000Y-77195113D01*
X89844000Y-76995113D02*
X91360000Y-76995113D01*
X93440000Y-77275113D02*
X94979000Y-77275113D01*
X89820000Y-77315113D02*
X91360000Y-77315113D01*
X91017000Y-75154113D02*
X93783000Y-75154113D01*
X89945000Y-76554113D02*
X91360000Y-76554113D01*
X90795000Y-75314113D02*
X94005000Y-75314113D01*
X90657000Y-75434113D02*
X91360000Y-75434113D01*
X90071000Y-76234113D02*
X91360000Y-76234113D01*
X89880000Y-76795113D02*
X91360000Y-76795113D01*
X93440000Y-76594113D02*
X94868000Y-76594113D01*
X92116000Y-74754113D02*
X92684000Y-74754113D01*
X93440000Y-76554113D02*
X94855000Y-76554113D01*
X90018000Y-76354113D02*
X91360000Y-76354113D01*
X89820000Y-77355113D02*
X91360000Y-77355113D01*
X93440000Y-76074113D02*
X94647000Y-76074113D01*
X93440000Y-76715113D02*
X94901000Y-76715113D01*
X90429000Y-75674113D02*
X91360000Y-75674113D01*
X93440000Y-77315113D02*
X94980000Y-77315113D01*
X93440000Y-75714113D02*
X94404000Y-75714113D01*
X90090000Y-76194113D02*
X91360000Y-76194113D01*
X93440000Y-76675113D02*
X94891000Y-76675113D01*
X91595000Y-74874113D02*
X93205000Y-74874113D01*
X89872000Y-76835113D02*
X91360000Y-76835113D01*
X93440000Y-76394113D02*
X94798000Y-76394113D01*
X93440000Y-77235113D02*
X94978000Y-77235113D01*
X89821000Y-77275113D02*
X91360000Y-77275113D01*
X93440000Y-76354113D02*
X94782000Y-76354113D01*
X93440000Y-75794113D02*
X94465000Y-75794113D01*
X91081000Y-75114113D02*
X93719000Y-75114113D01*
X91389000Y-74954113D02*
X93411000Y-74954113D01*
X89972000Y-76474113D02*
X91360000Y-76474113D01*
X90615000Y-75474113D02*
X91360000Y-75474113D01*
X89864000Y-76875113D02*
X91360000Y-76875113D01*
X90396000Y-75714113D02*
X91360000Y-75714113D01*
X93440000Y-75474113D02*
X94185000Y-75474113D01*
X90675000Y-79909888D02*
X91175000Y-79909888D01*
X95020000Y-77355113D02*
G75*
G03*
X95020000Y-77355113I-2620000J0D01*
G01*
%TD*%
M02*
