%TF.GenerationSoftware,KiCad,Pcbnew,(6.0.4)*%
%TF.CreationDate,2022-10-01T01:36:45+02:00*%
%TF.ProjectId,RGB-YPbPr-Converter,5247422d-5950-4625-9072-2d436f6e7665,rev?*%
%TF.SameCoordinates,Original*%
%TF.FileFunction,Copper,L1,Top*%
%TF.FilePolarity,Positive*%
%FSLAX46Y46*%
G04 Gerber Fmt 4.6, Leading zero omitted, Abs format (unit mm)*
G04 Created by KiCad (PCBNEW (6.0.4)) date 2022-10-01 01:36:45*
%MOMM*%
%LPD*%
G01*
G04 APERTURE LIST*
G04 Aperture macros list*
%AMRoundRect*
0 Rectangle with rounded corners*
0 $1 Rounding radius*
0 $2 $3 $4 $5 $6 $7 $8 $9 X,Y pos of 4 corners*
0 Add a 4 corners polygon primitive as box body*
4,1,4,$2,$3,$4,$5,$6,$7,$8,$9,$2,$3,0*
0 Add four circle primitives for the rounded corners*
1,1,$1+$1,$2,$3*
1,1,$1+$1,$4,$5*
1,1,$1+$1,$6,$7*
1,1,$1+$1,$8,$9*
0 Add four rect primitives between the rounded corners*
20,1,$1+$1,$2,$3,$4,$5,0*
20,1,$1+$1,$4,$5,$6,$7,0*
20,1,$1+$1,$6,$7,$8,$9,0*
20,1,$1+$1,$8,$9,$2,$3,0*%
G04 Aperture macros list end*
%TA.AperFunction,ComponentPad*%
%ADD10R,3.000000X3.000000*%
%TD*%
%TA.AperFunction,ComponentPad*%
%ADD11C,3.000000*%
%TD*%
%TA.AperFunction,SMDPad,CuDef*%
%ADD12RoundRect,0.150000X-0.512500X-0.150000X0.512500X-0.150000X0.512500X0.150000X-0.512500X0.150000X0*%
%TD*%
%TA.AperFunction,SMDPad,CuDef*%
%ADD13RoundRect,0.250000X0.450000X-0.262500X0.450000X0.262500X-0.450000X0.262500X-0.450000X-0.262500X0*%
%TD*%
%TA.AperFunction,SMDPad,CuDef*%
%ADD14RoundRect,0.250000X-0.262500X-0.450000X0.262500X-0.450000X0.262500X0.450000X-0.262500X0.450000X0*%
%TD*%
%TA.AperFunction,ComponentPad*%
%ADD15C,4.000000*%
%TD*%
%TA.AperFunction,ComponentPad*%
%ADD16R,1.600000X1.600000*%
%TD*%
%TA.AperFunction,ComponentPad*%
%ADD17C,1.600000*%
%TD*%
%TA.AperFunction,SMDPad,CuDef*%
%ADD18R,1.400000X0.300000*%
%TD*%
%TA.AperFunction,SMDPad,CuDef*%
%ADD19RoundRect,0.100000X0.100000X-0.712500X0.100000X0.712500X-0.100000X0.712500X-0.100000X-0.712500X0*%
%TD*%
%TA.AperFunction,SMDPad,CuDef*%
%ADD20RoundRect,0.250000X0.262500X0.450000X-0.262500X0.450000X-0.262500X-0.450000X0.262500X-0.450000X0*%
%TD*%
%TA.AperFunction,SMDPad,CuDef*%
%ADD21RoundRect,0.250000X-0.450000X0.262500X-0.450000X-0.262500X0.450000X-0.262500X0.450000X0.262500X0*%
%TD*%
%TA.AperFunction,SMDPad,CuDef*%
%ADD22RoundRect,0.250000X0.475000X-0.250000X0.475000X0.250000X-0.475000X0.250000X-0.475000X-0.250000X0*%
%TD*%
%TA.AperFunction,SMDPad,CuDef*%
%ADD23RoundRect,0.243750X0.243750X0.456250X-0.243750X0.456250X-0.243750X-0.456250X0.243750X-0.456250X0*%
%TD*%
%TA.AperFunction,SMDPad,CuDef*%
%ADD24RoundRect,0.250000X-0.475000X0.250000X-0.475000X-0.250000X0.475000X-0.250000X0.475000X0.250000X0*%
%TD*%
%TA.AperFunction,ViaPad*%
%ADD25C,0.800000*%
%TD*%
%TA.AperFunction,Conductor*%
%ADD26C,0.300000*%
%TD*%
%TA.AperFunction,Conductor*%
%ADD27C,0.500000*%
%TD*%
G04 APERTURE END LIST*
D10*
%TO.P,J3,1,Pin_1*%
%TO.N,GND*%
X74660000Y-83000000D03*
D11*
%TO.P,J3,2,Pin_2*%
%TO.N,+5V*%
X79740000Y-83000000D03*
%TD*%
D12*
%TO.P,U1,5,V+*%
%TO.N,+5V*%
X82837500Y-67250000D03*
%TO.P,U1,4,-*%
%TO.N,Net-(R13-Pad1)*%
X82837500Y-69150000D03*
%TO.P,U1,3,+*%
%TO.N,Net-(R10-Pad2)*%
X80562500Y-69150000D03*
%TO.P,U1,2,V-*%
%TO.N,GND*%
X80562500Y-68200000D03*
%TO.P,U1,1*%
%TO.N,Net-(U2-Pad2)*%
X80562500Y-67250000D03*
%TD*%
D13*
%TO.P,R14,1*%
%TO.N,GND*%
X82800000Y-73312500D03*
%TO.P,R14,2*%
%TO.N,Net-(R13-Pad1)*%
X82800000Y-71487500D03*
%TD*%
D14*
%TO.P,R13,1*%
%TO.N,Net-(R13-Pad1)*%
X85287500Y-69200000D03*
%TO.P,R13,2*%
%TO.N,Net-(U2-Pad2)*%
X87112500Y-69200000D03*
%TD*%
D15*
%TO.P,J2,0*%
%TO.N,GND*%
X110899669Y-83485000D03*
X110899669Y-58485000D03*
D16*
%TO.P,J2,1*%
%TO.N,/Pr*%
X108849669Y-75300000D03*
D17*
%TO.P,J2,2*%
%TO.N,/Y*%
X108849669Y-73010000D03*
%TO.P,J2,3*%
%TO.N,/Pb*%
X108849669Y-70720000D03*
%TO.P,J2,4*%
%TO.N,unconnected-(J2-Pad4)*%
X108849669Y-68430000D03*
%TO.P,J2,5*%
%TO.N,GND*%
X108849669Y-66140000D03*
%TO.P,J2,6*%
X110829669Y-76445000D03*
%TO.P,J2,7*%
X110829669Y-74155000D03*
%TO.P,J2,8*%
X110829669Y-71865000D03*
%TO.P,J2,9*%
X110829669Y-69575000D03*
%TO.P,J2,10*%
X110829669Y-67285000D03*
%TO.P,J2,11*%
%TO.N,unconnected-(J2-Pad11)*%
X112809669Y-75300000D03*
%TO.P,J2,12*%
%TO.N,unconnected-(J2-Pad12)*%
X112809669Y-73010000D03*
%TO.P,J2,13*%
%TO.N,unconnected-(J2-Pad13)*%
X112809669Y-70720000D03*
%TO.P,J2,14*%
%TO.N,unconnected-(J2-Pad14)*%
X112809669Y-68430000D03*
%TO.P,J2,15*%
%TO.N,unconnected-(J2-Pad15)*%
X112809669Y-66140000D03*
%TD*%
D15*
%TO.P,J1,0*%
%TO.N,GND*%
X66750000Y-58615000D03*
X66750000Y-83615000D03*
D16*
%TO.P,J1,1*%
%TO.N,/R*%
X68800000Y-66800000D03*
D17*
%TO.P,J1,2*%
%TO.N,/G*%
X68800000Y-69090000D03*
%TO.P,J1,3*%
%TO.N,/B*%
X68800000Y-71380000D03*
%TO.P,J1,4*%
%TO.N,unconnected-(J1-Pad4)*%
X68800000Y-73670000D03*
%TO.P,J1,5*%
%TO.N,GND*%
X68800000Y-75960000D03*
%TO.P,J1,6*%
X66820000Y-65655000D03*
%TO.P,J1,7*%
X66820000Y-67945000D03*
%TO.P,J1,8*%
X66820000Y-70235000D03*
%TO.P,J1,9*%
X66820000Y-72525000D03*
%TO.P,J1,10*%
X66820000Y-74815000D03*
%TO.P,J1,11*%
%TO.N,unconnected-(J1-Pad11)*%
X64840000Y-66800000D03*
%TO.P,J1,12*%
%TO.N,unconnected-(J1-Pad12)*%
X64840000Y-69090000D03*
%TO.P,J1,13*%
%TO.N,unconnected-(J1-Pad13)*%
X64840000Y-71380000D03*
%TO.P,J1,14*%
%TO.N,unconnected-(J1-Pad14)*%
X64840000Y-73670000D03*
%TO.P,J1,15*%
%TO.N,unconnected-(J1-Pad15)*%
X64840000Y-75960000D03*
%TD*%
D18*
%TO.P,U2,1,IN1*%
%TO.N,/R*%
X90300000Y-68700000D03*
%TO.P,U2,2,IN2*%
%TO.N,Net-(U2-Pad2)*%
X90300000Y-69200000D03*
%TO.P,U2,3,IN3*%
%TO.N,/B*%
X90300000Y-69700000D03*
%TO.P,U2,4,GND*%
%TO.N,/Y_FB*%
X90300000Y-70200000D03*
%TO.P,U2,5,VEE*%
%TO.N,-5V*%
X90300000Y-70700000D03*
%TO.P,U2,6*%
%TO.N,N/C*%
X94700000Y-70700000D03*
%TO.P,U2,7,OUT3*%
%TO.N,Net-(R11-Pad1)*%
X94700000Y-70200000D03*
%TO.P,U2,8,OUT2*%
%TO.N,/Y_FB*%
X94700000Y-69700000D03*
%TO.P,U2,9,OUT1*%
%TO.N,Net-(R2-Pad1)*%
X94700000Y-69200000D03*
%TO.P,U2,10,VCC*%
%TO.N,+5V*%
X94700000Y-68700000D03*
%TD*%
D14*
%TO.P,R5,1*%
%TO.N,/G*%
X73387500Y-69100000D03*
%TO.P,R5,2*%
%TO.N,Net-(R10-Pad2)*%
X75212500Y-69100000D03*
%TD*%
%TO.P,R4,1*%
%TO.N,/R*%
X73387500Y-66800000D03*
%TO.P,R4,2*%
%TO.N,Net-(R10-Pad2)*%
X75212500Y-66800000D03*
%TD*%
%TO.P,R11,1*%
%TO.N,Net-(R11-Pad1)*%
X99387500Y-72900000D03*
%TO.P,R11,2*%
%TO.N,/Pb*%
X101212500Y-72900000D03*
%TD*%
%TO.P,R6,1*%
%TO.N,/Y_FB*%
X101587500Y-69700000D03*
%TO.P,R6,2*%
%TO.N,/Y*%
X103412500Y-69700000D03*
%TD*%
D19*
%TO.P,U3,1,NC*%
%TO.N,unconnected-(U3-Pad1)*%
X86280112Y-79712500D03*
%TO.P,U3,2,CAP+*%
%TO.N,Net-(C5-Pad1)*%
X86930112Y-79712500D03*
%TO.P,U3,3,GND*%
%TO.N,GND*%
X87580112Y-79712500D03*
%TO.P,U3,4,CAP-*%
%TO.N,Net-(C5-Pad2)*%
X88230112Y-79712500D03*
%TO.P,U3,5,VOUT*%
%TO.N,-5V*%
X88230112Y-75487500D03*
%TO.P,U3,6,LV*%
%TO.N,unconnected-(U3-Pad6)*%
X87580112Y-75487500D03*
%TO.P,U3,7,OSC*%
%TO.N,unconnected-(U3-Pad7)*%
X86930112Y-75487500D03*
%TO.P,U3,8,V+*%
%TO.N,+5V*%
X86280112Y-75487500D03*
%TD*%
D20*
%TO.P,R1,1*%
%TO.N,+5V*%
X79912500Y-76500000D03*
%TO.P,R1,2*%
%TO.N,Net-(D1-Pad1)*%
X78087500Y-76500000D03*
%TD*%
D21*
%TO.P,R12,1*%
%TO.N,/Pb*%
X103200000Y-72887500D03*
%TO.P,R12,2*%
%TO.N,GND*%
X103200000Y-74712500D03*
%TD*%
D16*
%TO.P,C5,1*%
%TO.N,Net-(C5-Pad1)*%
X86600000Y-84000000D03*
D17*
%TO.P,C5,2*%
%TO.N,Net-(C5-Pad2)*%
X88600000Y-84000000D03*
%TD*%
D13*
%TO.P,R3,1*%
%TO.N,/Pr*%
X103300000Y-66312500D03*
%TO.P,R3,2*%
%TO.N,GND*%
X103300000Y-64487500D03*
%TD*%
D22*
%TO.P,C2,1*%
%TO.N,+5V*%
X94700000Y-66450000D03*
%TO.P,C2,2*%
%TO.N,GND*%
X94700000Y-64550000D03*
%TD*%
D14*
%TO.P,R10,1*%
%TO.N,/B*%
X73387500Y-71400000D03*
%TO.P,R10,2*%
%TO.N,Net-(R10-Pad2)*%
X75212500Y-71400000D03*
%TD*%
D23*
%TO.P,D1,1,K*%
%TO.N,Net-(D1-Pad1)*%
X75437500Y-76500000D03*
%TO.P,D1,2,A*%
%TO.N,GND*%
X73562500Y-76500000D03*
%TD*%
D14*
%TO.P,R2,1*%
%TO.N,Net-(R2-Pad1)*%
X99487500Y-66300000D03*
%TO.P,R2,2*%
%TO.N,/Pr*%
X101312500Y-66300000D03*
%TD*%
D24*
%TO.P,C4,1*%
%TO.N,+5V*%
X83900000Y-76450000D03*
%TO.P,C4,2*%
%TO.N,GND*%
X83900000Y-78350000D03*
%TD*%
D16*
%TO.P,C3,1*%
%TO.N,GND*%
X92400000Y-78355113D03*
D17*
%TO.P,C3,2*%
%TO.N,-5V*%
X92400000Y-76355113D03*
%TD*%
D25*
%TO.N,+5V*%
X88300000Y-66100000D03*
X84862500Y-75487500D03*
X84400000Y-67300000D03*
%TO.N,GND*%
X82800000Y-74700000D03*
X72200000Y-76500000D03*
X86300000Y-78100000D03*
X103200000Y-76100000D03*
X103300000Y-63100000D03*
X94700000Y-63200000D03*
X79100000Y-67900000D03*
%TO.N,/Pb*%
X104500000Y-72500000D03*
%TO.N,/Pr*%
X107000000Y-72000000D03*
%TD*%
D26*
%TO.N,+5V*%
X93300000Y-66500000D02*
X94650000Y-66500000D01*
X92900000Y-66100000D02*
X93300000Y-66500000D01*
X88300000Y-66100000D02*
X92900000Y-66100000D01*
X94650000Y-66500000D02*
X94700000Y-66450000D01*
X84350000Y-67250000D02*
X84400000Y-67300000D01*
X82837500Y-67250000D02*
X84350000Y-67250000D01*
%TO.N,GND*%
X82800000Y-73312500D02*
X82800000Y-74700000D01*
X73562500Y-76500000D02*
X72200000Y-76500000D01*
X84150000Y-78100000D02*
X83900000Y-78350000D01*
X86300000Y-78100000D02*
X84150000Y-78100000D01*
X87580112Y-78914283D02*
X87580112Y-79712500D01*
X86765829Y-78100000D02*
X87580112Y-78914283D01*
X86300000Y-78100000D02*
X86765829Y-78100000D01*
X103200000Y-74712500D02*
X103200000Y-76100000D01*
X103300000Y-64487500D02*
X103300000Y-63100000D01*
X94700000Y-64550000D02*
X94700000Y-63200000D01*
%TO.N,/Y_FB*%
X92100000Y-70200000D02*
X92600000Y-69700000D01*
X92600000Y-69700000D02*
X94700000Y-69700000D01*
X90300000Y-70200000D02*
X92100000Y-70200000D01*
%TO.N,GND*%
X79400000Y-68200000D02*
X79100000Y-67900000D01*
X80562500Y-68200000D02*
X79400000Y-68200000D01*
%TO.N,Net-(D1-Pad1)*%
X78087500Y-76500000D02*
X75437500Y-76500000D01*
%TO.N,+5V*%
X84862500Y-75487500D02*
X83900000Y-76450000D01*
X86280112Y-75487500D02*
X84862500Y-75487500D01*
X83850000Y-76500000D02*
X83900000Y-76450000D01*
X79912500Y-76500000D02*
X83850000Y-76500000D01*
X79740000Y-76672500D02*
X79912500Y-76500000D01*
X79740000Y-83000000D02*
X79740000Y-76672500D01*
%TO.N,-5V*%
X92155113Y-76355113D02*
X92400000Y-76355113D01*
X91287500Y-75487500D02*
X92155113Y-76355113D01*
X88230112Y-75487500D02*
X91287500Y-75487500D01*
X88230112Y-71669888D02*
X88230112Y-75487500D01*
X89200000Y-70700000D02*
X88230112Y-71669888D01*
X90300000Y-70700000D02*
X89200000Y-70700000D01*
%TO.N,Net-(C5-Pad2)*%
X88600000Y-82800000D02*
X88600000Y-84000000D01*
X88230112Y-82430112D02*
X88600000Y-82800000D01*
X88230112Y-79712500D02*
X88230112Y-82430112D01*
%TO.N,Net-(C5-Pad1)*%
X86930112Y-83669888D02*
X86600000Y-84000000D01*
X86930112Y-79712500D02*
X86930112Y-83669888D01*
%TO.N,/R*%
X75087500Y-65100000D02*
X73387500Y-66800000D01*
X89300000Y-68700000D02*
X85700000Y-65100000D01*
X85700000Y-65100000D02*
X75087500Y-65100000D01*
X90300000Y-68700000D02*
X89300000Y-68700000D01*
%TO.N,Net-(U2-Pad2)*%
X85100000Y-65900000D02*
X87112500Y-67912500D01*
X81000000Y-65900000D02*
X85100000Y-65900000D01*
X87112500Y-67912500D02*
X87112500Y-69200000D01*
X80562500Y-66337500D02*
X81000000Y-65900000D01*
X80562500Y-67250000D02*
X80562500Y-66337500D01*
D27*
%TO.N,/Pb*%
X104112500Y-72887500D02*
X104500000Y-72500000D01*
X103200000Y-72887500D02*
X104112500Y-72887500D01*
D26*
%TO.N,/Pr*%
X107000000Y-70012500D02*
X107000000Y-72000000D01*
X103300000Y-66312500D02*
X107000000Y-70012500D01*
%TO.N,/Y*%
X106722500Y-73010000D02*
X108849669Y-73010000D01*
X103412500Y-69700000D02*
X106722500Y-73010000D01*
D27*
%TO.N,/Pb*%
X101225000Y-72887500D02*
X101212500Y-72900000D01*
X103200000Y-72887500D02*
X101225000Y-72887500D01*
%TO.N,/Pr*%
X101325000Y-66312500D02*
X101312500Y-66300000D01*
X103300000Y-66312500D02*
X101325000Y-66312500D01*
D26*
%TO.N,Net-(R11-Pad1)*%
X95749022Y-70200000D02*
X98449022Y-72900000D01*
X94700000Y-70200000D02*
X95749022Y-70200000D01*
X98449022Y-72900000D02*
X99387500Y-72900000D01*
%TO.N,Net-(R2-Pad1)*%
X98700000Y-66300000D02*
X99487500Y-66300000D01*
X95800000Y-69200000D02*
X98700000Y-66300000D01*
X94700000Y-69200000D02*
X95800000Y-69200000D01*
%TO.N,/Y_FB*%
X101587500Y-69700000D02*
X94700000Y-69700000D01*
%TO.N,+5V*%
X94700000Y-66450000D02*
X94700000Y-68600489D01*
%TO.N,/B*%
X86501458Y-72449520D02*
X74437020Y-72449520D01*
X74437020Y-72449520D02*
X73387500Y-71400000D01*
X89250978Y-69700000D02*
X86501458Y-72449520D01*
X90300000Y-69700000D02*
X89250978Y-69700000D01*
%TO.N,Net-(U2-Pad2)*%
X90300000Y-69200000D02*
X87112500Y-69200000D01*
D27*
%TO.N,Net-(R13-Pad1)*%
X85237500Y-69150000D02*
X85287500Y-69200000D01*
D26*
X82837500Y-69150000D02*
X85237500Y-69150000D01*
X82837500Y-71450000D02*
X82800000Y-71487500D01*
X82837500Y-69150000D02*
X82837500Y-71450000D01*
D27*
%TO.N,Net-(R10-Pad2)*%
X80512500Y-69100000D02*
X80562500Y-69150000D01*
D26*
X77700000Y-69100000D02*
X80512500Y-69100000D01*
X77700000Y-70443750D02*
X76743750Y-71400000D01*
X77700000Y-69100000D02*
X77700000Y-70443750D01*
X75256250Y-71400000D02*
X76743750Y-71400000D01*
X76700000Y-66800000D02*
X77700000Y-67800000D01*
X75212500Y-69100000D02*
X77700000Y-69100000D01*
X77700000Y-67800000D02*
X77700000Y-69100000D01*
X75212500Y-66800000D02*
X76700000Y-66800000D01*
%TO.N,/B*%
X73387500Y-71400000D02*
X68820000Y-71400000D01*
%TO.N,/G*%
X73387500Y-69100000D02*
X68810000Y-69100000D01*
%TO.N,/R*%
X73387500Y-66800000D02*
X68800000Y-66800000D01*
%TD*%
M02*
