%TF.GenerationSoftware,KiCad,Pcbnew,(6.0.7)*%
%TF.CreationDate,2022-10-07T02:42:22+02:00*%
%TF.ProjectId,RGB-YPbPr-Converter,5247422d-5950-4625-9072-2d436f6e7665,rev?*%
%TF.SameCoordinates,Original*%
%TF.FileFunction,Paste,Top*%
%TF.FilePolarity,Positive*%
%FSLAX46Y46*%
G04 Gerber Fmt 4.6, Leading zero omitted, Abs format (unit mm)*
G04 Created by KiCad (PCBNEW (6.0.7)) date 2022-10-07 02:42:22*
%MOMM*%
%LPD*%
G01*
G04 APERTURE LIST*
G04 Aperture macros list*
%AMRoundRect*
0 Rectangle with rounded corners*
0 $1 Rounding radius*
0 $2 $3 $4 $5 $6 $7 $8 $9 X,Y pos of 4 corners*
0 Add a 4 corners polygon primitive as box body*
4,1,4,$2,$3,$4,$5,$6,$7,$8,$9,$2,$3,0*
0 Add four circle primitives for the rounded corners*
1,1,$1+$1,$2,$3*
1,1,$1+$1,$4,$5*
1,1,$1+$1,$6,$7*
1,1,$1+$1,$8,$9*
0 Add four rect primitives between the rounded corners*
20,1,$1+$1,$2,$3,$4,$5,0*
20,1,$1+$1,$4,$5,$6,$7,0*
20,1,$1+$1,$6,$7,$8,$9,0*
20,1,$1+$1,$8,$9,$2,$3,0*%
G04 Aperture macros list end*
%ADD10RoundRect,0.250000X0.262500X0.450000X-0.262500X0.450000X-0.262500X-0.450000X0.262500X-0.450000X0*%
%ADD11RoundRect,0.250000X-0.262500X-0.450000X0.262500X-0.450000X0.262500X0.450000X-0.262500X0.450000X0*%
%ADD12RoundRect,0.250000X0.250000X0.475000X-0.250000X0.475000X-0.250000X-0.475000X0.250000X-0.475000X0*%
%ADD13RoundRect,0.150000X-0.825000X-0.150000X0.825000X-0.150000X0.825000X0.150000X-0.825000X0.150000X0*%
%ADD14R,1.000000X1.000000*%
%ADD15RoundRect,0.250000X0.450000X-0.262500X0.450000X0.262500X-0.450000X0.262500X-0.450000X-0.262500X0*%
%ADD16RoundRect,0.250000X-0.450000X0.262500X-0.450000X-0.262500X0.450000X-0.262500X0.450000X0.262500X0*%
%ADD17R,1.400000X0.300000*%
%ADD18R,3.800000X2.000000*%
%ADD19R,1.500000X2.000000*%
%ADD20RoundRect,0.150000X-0.587500X-0.150000X0.587500X-0.150000X0.587500X0.150000X-0.587500X0.150000X0*%
%ADD21RoundRect,0.150000X0.587500X0.150000X-0.587500X0.150000X-0.587500X-0.150000X0.587500X-0.150000X0*%
%ADD22RoundRect,0.250000X-0.250000X-0.475000X0.250000X-0.475000X0.250000X0.475000X-0.250000X0.475000X0*%
%ADD23RoundRect,0.150000X-0.150000X0.512500X-0.150000X-0.512500X0.150000X-0.512500X0.150000X0.512500X0*%
%ADD24RoundRect,0.243750X-0.243750X-0.456250X0.243750X-0.456250X0.243750X0.456250X-0.243750X0.456250X0*%
G04 APERTURE END LIST*
D10*
%TO.C,R30*%
X145612500Y-133600000D03*
X143787500Y-133600000D03*
%TD*%
%TO.C,R28*%
X145612500Y-124200000D03*
X143787500Y-124200000D03*
%TD*%
D11*
%TO.C,R26*%
X147287500Y-131600000D03*
X149112500Y-131600000D03*
%TD*%
%TO.C,R25*%
X147287500Y-126200000D03*
X149112500Y-126200000D03*
%TD*%
%TO.C,R14*%
X121037500Y-123500000D03*
X122862500Y-123500000D03*
%TD*%
%TO.C,R13*%
X121037500Y-128750000D03*
X122862500Y-128750000D03*
%TD*%
%TO.C,R12*%
X121037500Y-134221951D03*
X122862500Y-134221951D03*
%TD*%
D12*
%TO.C,C2*%
X130442267Y-156100000D03*
X128542267Y-156100000D03*
%TD*%
%TO.C,C8*%
X139150000Y-125000000D03*
X137250000Y-125000000D03*
%TD*%
D13*
%TO.C,U2*%
X140464541Y-155795000D03*
X140464541Y-157065000D03*
X140464541Y-158335000D03*
X140464541Y-159605000D03*
X145414541Y-159605000D03*
X145414541Y-158335000D03*
X145414541Y-157065000D03*
X145414541Y-155795000D03*
%TD*%
D14*
%TO.C,D2*%
X135400000Y-145150000D03*
X135400000Y-142650000D03*
%TD*%
D15*
%TO.C,R20*%
X144700000Y-139012500D03*
X144700000Y-137187500D03*
%TD*%
D16*
%TO.C,R18*%
X127700000Y-133787500D03*
X127700000Y-135612500D03*
%TD*%
D17*
%TO.C,U4*%
X140400000Y-127200000D03*
X140400000Y-127700000D03*
X140400000Y-128200000D03*
X140400000Y-128700000D03*
X140400000Y-129200000D03*
X136000000Y-129200000D03*
X136000000Y-128700000D03*
X136000000Y-128200000D03*
X136000000Y-127700000D03*
X136000000Y-127200000D03*
%TD*%
D15*
%TO.C,R15*%
X135400000Y-140912500D03*
X135400000Y-139087500D03*
%TD*%
D11*
%TO.C,R10*%
X117520195Y-128750000D03*
X119345195Y-128750000D03*
%TD*%
%TO.C,R4*%
X122912500Y-144797257D03*
X121087500Y-144797257D03*
%TD*%
%TO.C,R9*%
X119412500Y-134221951D03*
X117587500Y-134221951D03*
%TD*%
D16*
%TO.C,R17*%
X137500000Y-139087500D03*
X137500000Y-140912500D03*
%TD*%
%TO.C,R16*%
X131600000Y-127787500D03*
X131600000Y-129612500D03*
%TD*%
D18*
%TO.C,U1*%
X131392267Y-164950000D03*
D19*
X129092267Y-158650000D03*
X131392267Y-158650000D03*
X133692267Y-158650000D03*
%TD*%
D11*
%TO.C,R23*%
X143787500Y-131600000D03*
X145612500Y-131600000D03*
%TD*%
%TO.C,R7*%
X122856250Y-132228201D03*
X121031250Y-132228201D03*
%TD*%
D20*
%TO.C,Q3*%
X139562500Y-139050000D03*
X139562500Y-140950000D03*
X141437500Y-140000000D03*
%TD*%
D11*
%TO.C,R22*%
X146287500Y-116000000D03*
X148112500Y-116000000D03*
%TD*%
D12*
%TO.C,C9*%
X137250000Y-131400000D03*
X139150000Y-131400000D03*
%TD*%
D11*
%TO.C,R24*%
X112987500Y-161900000D03*
X114812500Y-161900000D03*
%TD*%
D21*
%TO.C,Q2*%
X129137500Y-142450000D03*
X129137500Y-140550000D03*
X127262500Y-141500000D03*
%TD*%
D11*
%TO.C,R5*%
X121087500Y-141800000D03*
X122912500Y-141800000D03*
%TD*%
D10*
%TO.C,R27*%
X147287500Y-124200000D03*
X149112500Y-124200000D03*
%TD*%
D22*
%TO.C,C3*%
X134242267Y-156100000D03*
X132342267Y-156100000D03*
%TD*%
D10*
%TO.C,R29*%
X149112500Y-133600000D03*
X147287500Y-133600000D03*
%TD*%
D23*
%TO.C,U3*%
X127750000Y-127562500D03*
X126800000Y-127562500D03*
X125850000Y-127562500D03*
X125850000Y-129837500D03*
X127750000Y-129837500D03*
%TD*%
D11*
%TO.C,R2*%
X122912500Y-139800000D03*
X121087500Y-139800000D03*
%TD*%
D15*
%TO.C,R19*%
X129600000Y-129612500D03*
X129600000Y-127787500D03*
%TD*%
D11*
%TO.C,R11*%
X117587500Y-123502003D03*
X119412500Y-123502003D03*
%TD*%
%TO.C,R6*%
X122856250Y-126756250D03*
X121031250Y-126756250D03*
%TD*%
D24*
%TO.C,D3*%
X109162500Y-161900000D03*
X111037500Y-161900000D03*
%TD*%
D21*
%TO.C,Q1*%
X127262500Y-145000000D03*
X129137500Y-144050000D03*
X129137500Y-145950000D03*
%TD*%
D11*
%TO.C,R21*%
X145612500Y-126200000D03*
X143787500Y-126200000D03*
%TD*%
D12*
%TO.C,C5*%
X125850000Y-131937500D03*
X127750000Y-131937500D03*
%TD*%
D11*
%TO.C,R3*%
X121031250Y-121506250D03*
X122856250Y-121506250D03*
%TD*%
%TO.C,R1*%
X121087500Y-146850000D03*
X122912500Y-146850000D03*
%TD*%
D15*
%TO.C,R8*%
X127400000Y-148387500D03*
X127400000Y-150212500D03*
%TD*%
D12*
%TO.C,C4*%
X142034429Y-153700000D03*
X143934429Y-153700000D03*
%TD*%
M02*
