M48
; DRILL file {KiCad 7.0.2} date Mon Jun 12 01:54:00 2023
; FORMAT={-:-/ absolute / metric / decimal}
; #@! TF.CreationDate,2023-06-12T01:54:00+02:00
; #@! TF.GenerationSoftware,Kicad,Pcbnew,7.0.2
; #@! TF.FileFunction,Plated,1,2,PTH
FMAT,2
METRIC
; #@! TA.AperFunction,Plated,PTH,ViaDrill
T1C0.600
; #@! TA.AperFunction,Plated,PTH,ComponentDrill
T2C0.800
; #@! TA.AperFunction,Plated,PTH,ComponentDrill
T3C0.890
; #@! TA.AperFunction,Plated,PTH,ComponentDrill
T4C1.000
; #@! TA.AperFunction,Plated,PTH,ComponentDrill
T5C2.010
; #@! TA.AperFunction,Plated,PTH,ComponentDrill
T6C3.200
%
G90
G05
T1
X120.9Y-155.35
X124.2Y-121.5
X124.244Y-126.756
X124.3Y-132.2
X124.65Y-156.15
X124.7Y-123.2
X129.75Y-132.85
X129.8Y-127.75
X129.8Y-136.3
X131.0Y-140.5
X131.4Y-160.55
X132.4Y-132.15
X132.6Y-143.9
X132.6Y-146.35
X133.9Y-133.5
X133.9Y-154.45
X134.3Y-150.75
X135.7Y-125.0
X138.05Y-154.15
X138.35Y-127.05
X140.6Y-131.4
X141.2Y-160.8
X141.6Y-154.15
X142.4Y-124.2
X142.4Y-133.6
T2
X118.9Y-151.95
X120.9Y-151.95
T3
X156.411Y-113.41
X156.411Y-115.95
X156.411Y-132.46
X156.411Y-135.0
X156.411Y-151.54
X156.411Y-154.08
T4
X108.775Y-120.64
X108.775Y-122.93
X108.775Y-125.22
X108.775Y-127.51
X108.775Y-129.8
X111.315Y-121.785
X111.315Y-124.075
X111.315Y-126.365
X111.315Y-128.655
X111.315Y-130.945
X113.855Y-120.64
X113.855Y-122.93
X113.855Y-125.22
X113.855Y-127.51
X113.855Y-129.8
T5
X161.491Y-110.87
X161.491Y-121.03
X161.491Y-129.92
X161.491Y-140.08
X161.491Y-149.0
X161.491Y-159.16
T6
X104.0Y-104.0
X104.0Y-166.0
X111.245Y-112.985
X111.245Y-137.985
X166.0Y-104.0
X166.0Y-166.0
T4
X107.8Y-150.941G85X107.8Y-152.941
G05
X109.8Y-156.641G85X111.8Y-156.641
G05
X113.8Y-150.941G85X113.8Y-152.941
G05
T0
M30
