%TF.GenerationSoftware,KiCad,Pcbnew,(6.0.7)*%
%TF.CreationDate,2022-10-07T02:42:22+02:00*%
%TF.ProjectId,RGB-YPbPr-Converter,5247422d-5950-4625-9072-2d436f6e7665,rev?*%
%TF.SameCoordinates,Original*%
%TF.FileFunction,Copper,L1,Top*%
%TF.FilePolarity,Positive*%
%FSLAX46Y46*%
G04 Gerber Fmt 4.6, Leading zero omitted, Abs format (unit mm)*
G04 Created by KiCad (PCBNEW (6.0.7)) date 2022-10-07 02:42:22*
%MOMM*%
%LPD*%
G01*
G04 APERTURE LIST*
G04 Aperture macros list*
%AMRoundRect*
0 Rectangle with rounded corners*
0 $1 Rounding radius*
0 $2 $3 $4 $5 $6 $7 $8 $9 X,Y pos of 4 corners*
0 Add a 4 corners polygon primitive as box body*
4,1,4,$2,$3,$4,$5,$6,$7,$8,$9,$2,$3,0*
0 Add four circle primitives for the rounded corners*
1,1,$1+$1,$2,$3*
1,1,$1+$1,$4,$5*
1,1,$1+$1,$6,$7*
1,1,$1+$1,$8,$9*
0 Add four rect primitives between the rounded corners*
20,1,$1+$1,$2,$3,$4,$5,0*
20,1,$1+$1,$4,$5,$6,$7,0*
20,1,$1+$1,$6,$7,$8,$9,0*
20,1,$1+$1,$8,$9,$2,$3,0*%
G04 Aperture macros list end*
%TA.AperFunction,SMDPad,CuDef*%
%ADD10RoundRect,0.250000X0.262500X0.450000X-0.262500X0.450000X-0.262500X-0.450000X0.262500X-0.450000X0*%
%TD*%
%TA.AperFunction,SMDPad,CuDef*%
%ADD11RoundRect,0.250000X-0.262500X-0.450000X0.262500X-0.450000X0.262500X0.450000X-0.262500X0.450000X0*%
%TD*%
%TA.AperFunction,ComponentPad*%
%ADD12R,1.600000X1.600000*%
%TD*%
%TA.AperFunction,ComponentPad*%
%ADD13C,1.600000*%
%TD*%
%TA.AperFunction,SMDPad,CuDef*%
%ADD14RoundRect,0.250000X0.250000X0.475000X-0.250000X0.475000X-0.250000X-0.475000X0.250000X-0.475000X0*%
%TD*%
%TA.AperFunction,SMDPad,CuDef*%
%ADD15RoundRect,0.150000X-0.825000X-0.150000X0.825000X-0.150000X0.825000X0.150000X-0.825000X0.150000X0*%
%TD*%
%TA.AperFunction,SMDPad,CuDef*%
%ADD16R,1.000000X1.000000*%
%TD*%
%TA.AperFunction,SMDPad,CuDef*%
%ADD17RoundRect,0.250000X0.450000X-0.262500X0.450000X0.262500X-0.450000X0.262500X-0.450000X-0.262500X0*%
%TD*%
%TA.AperFunction,SMDPad,CuDef*%
%ADD18RoundRect,0.250000X-0.450000X0.262500X-0.450000X-0.262500X0.450000X-0.262500X0.450000X0.262500X0*%
%TD*%
%TA.AperFunction,SMDPad,CuDef*%
%ADD19R,1.400000X0.300000*%
%TD*%
%TA.AperFunction,ComponentPad*%
%ADD20O,2.500000X1.600000*%
%TD*%
%TA.AperFunction,ComponentPad*%
%ADD21O,7.000000X3.500000*%
%TD*%
%TA.AperFunction,SMDPad,CuDef*%
%ADD22R,3.800000X2.000000*%
%TD*%
%TA.AperFunction,SMDPad,CuDef*%
%ADD23R,1.500000X2.000000*%
%TD*%
%TA.AperFunction,SMDPad,CuDef*%
%ADD24RoundRect,0.150000X-0.587500X-0.150000X0.587500X-0.150000X0.587500X0.150000X-0.587500X0.150000X0*%
%TD*%
%TA.AperFunction,SMDPad,CuDef*%
%ADD25RoundRect,0.150000X0.587500X0.150000X-0.587500X0.150000X-0.587500X-0.150000X0.587500X-0.150000X0*%
%TD*%
%TA.AperFunction,ComponentPad*%
%ADD26C,5.700000*%
%TD*%
%TA.AperFunction,ComponentPad*%
%ADD27C,4.000000*%
%TD*%
%TA.AperFunction,SMDPad,CuDef*%
%ADD28RoundRect,0.250000X-0.250000X-0.475000X0.250000X-0.475000X0.250000X0.475000X-0.250000X0.475000X0*%
%TD*%
%TA.AperFunction,ComponentPad*%
%ADD29R,2.200000X2.200000*%
%TD*%
%TA.AperFunction,ComponentPad*%
%ADD30O,2.200000X2.200000*%
%TD*%
%TA.AperFunction,SMDPad,CuDef*%
%ADD31RoundRect,0.150000X-0.150000X0.512500X-0.150000X-0.512500X0.150000X-0.512500X0.150000X0.512500X0*%
%TD*%
%TA.AperFunction,SMDPad,CuDef*%
%ADD32RoundRect,0.243750X-0.243750X-0.456250X0.243750X-0.456250X0.243750X0.456250X-0.243750X0.456250X0*%
%TD*%
%TA.AperFunction,ComponentPad*%
%ADD33R,3.500000X5.000000*%
%TD*%
%TA.AperFunction,ComponentPad*%
%ADD34RoundRect,0.750000X-0.750000X-1.750000X0.750000X-1.750000X0.750000X1.750000X-0.750000X1.750000X0*%
%TD*%
%TA.AperFunction,ComponentPad*%
%ADD35RoundRect,0.875000X-1.625000X-0.875000X1.625000X-0.875000X1.625000X0.875000X-1.625000X0.875000X0*%
%TD*%
%TA.AperFunction,ViaPad*%
%ADD36C,1.000000*%
%TD*%
%TA.AperFunction,Conductor*%
%ADD37C,0.500000*%
%TD*%
%TA.AperFunction,Conductor*%
%ADD38C,1.300000*%
%TD*%
%TA.AperFunction,Conductor*%
%ADD39C,0.300000*%
%TD*%
G04 APERTURE END LIST*
D10*
%TO.P,R30,1*%
%TO.N,Net-(R29-Pad2)*%
X145612500Y-133600000D03*
%TO.P,R30,2*%
%TO.N,GND*%
X143787500Y-133600000D03*
%TD*%
%TO.P,R28,1*%
%TO.N,Net-(R27-Pad2)*%
X145612500Y-124200000D03*
%TO.P,R28,2*%
%TO.N,GND*%
X143787500Y-124200000D03*
%TD*%
D11*
%TO.P,R26,1*%
%TO.N,Net-(R23-Pad2)*%
X147287500Y-131600000D03*
%TO.P,R26,2*%
%TO.N,/Pr*%
X149112500Y-131600000D03*
%TD*%
%TO.P,R25,1*%
%TO.N,Net-(R21-Pad2)*%
X147287500Y-126200000D03*
%TO.P,R25,2*%
%TO.N,/Pb*%
X149112500Y-126200000D03*
%TD*%
%TO.P,R14,1*%
%TO.N,Net-(R11-Pad2)*%
X121037500Y-123500000D03*
%TO.P,R14,2*%
%TO.N,/YSUM*%
X122862500Y-123500000D03*
%TD*%
%TO.P,R13,1*%
%TO.N,Net-(R10-Pad2)*%
X121037500Y-128750000D03*
%TO.P,R13,2*%
%TO.N,/YSUM*%
X122862500Y-128750000D03*
%TD*%
%TO.P,R12,1*%
%TO.N,Net-(R12-Pad1)*%
X121037500Y-134221951D03*
%TO.P,R12,2*%
%TO.N,/YSUM*%
X122862500Y-134221951D03*
%TD*%
D12*
%TO.P,C1,1*%
%TO.N,/VIND*%
X123144888Y-163500000D03*
D13*
%TO.P,C1,2*%
%TO.N,GND*%
X125144888Y-163500000D03*
%TD*%
D14*
%TO.P,C2,1*%
%TO.N,/VIND*%
X130442267Y-156100000D03*
%TO.P,C2,2*%
%TO.N,GND*%
X128542267Y-156100000D03*
%TD*%
D12*
%TO.P,C6,1*%
%TO.N,/CAP+*%
X139284430Y-163500000D03*
D13*
%TO.P,C6,2*%
%TO.N,/CAP-*%
X141284430Y-163500000D03*
%TD*%
D14*
%TO.P,C8,1*%
%TO.N,+5V*%
X139150000Y-125000000D03*
%TO.P,C8,2*%
%TO.N,GND*%
X137250000Y-125000000D03*
%TD*%
D15*
%TO.P,U2,1,NC*%
%TO.N,unconnected-(U2-Pad1)*%
X140464541Y-155795000D03*
%TO.P,U2,2,CAP+*%
%TO.N,/CAP+*%
X140464541Y-157065000D03*
%TO.P,U2,3,GND*%
%TO.N,GND*%
X140464541Y-158335000D03*
%TO.P,U2,4,CAP-*%
%TO.N,/CAP-*%
X140464541Y-159605000D03*
%TO.P,U2,5,VOUT*%
%TO.N,-5V*%
X145414541Y-159605000D03*
%TO.P,U2,6,LV*%
%TO.N,unconnected-(U2-Pad6)*%
X145414541Y-158335000D03*
%TO.P,U2,7,OSC*%
%TO.N,unconnected-(U2-Pad7)*%
X145414541Y-157065000D03*
%TO.P,U2,8,V+*%
%TO.N,+5V*%
X145414541Y-155795000D03*
%TD*%
D16*
%TO.P,D2,1,K*%
%TO.N,Net-(D2-Pad1)*%
X135400000Y-145150000D03*
%TO.P,D2,2,A*%
%TO.N,Net-(D2-Pad2)*%
X135400000Y-142650000D03*
%TD*%
D17*
%TO.P,R20,1*%
%TO.N,Net-(Q3-Pad3)*%
X144700000Y-139012500D03*
%TO.P,R20,2*%
%TO.N,/Y*%
X144700000Y-137187500D03*
%TD*%
D18*
%TO.P,R18,1*%
%TO.N,/+5VAMP*%
X127700000Y-133787500D03*
%TO.P,R18,2*%
%TO.N,+5V*%
X127700000Y-135612500D03*
%TD*%
D19*
%TO.P,U4,10,VCC*%
%TO.N,+5V*%
X140400000Y-127200000D03*
%TO.P,U4,9,OUT1*%
%TO.N,/Pb_OUT*%
X140400000Y-127700000D03*
%TO.P,U4,8,OUT2*%
%TO.N,/Y_OUT*%
X140400000Y-128200000D03*
%TO.P,U4,7,OUT3*%
%TO.N,/Pr_OUT*%
X140400000Y-128700000D03*
%TO.P,U4,6*%
%TO.N,N/C*%
X140400000Y-129200000D03*
%TO.P,U4,5,VEE*%
%TO.N,-5V*%
X136000000Y-129200000D03*
%TO.P,U4,4,GND*%
%TO.N,/Y_OUT*%
X136000000Y-128700000D03*
%TO.P,U4,3,IN3*%
%TO.N,/R*%
X136000000Y-128200000D03*
%TO.P,U4,2,IN2*%
%TO.N,/YAMP*%
X136000000Y-127700000D03*
%TO.P,U4,1,IN1*%
%TO.N,/B*%
X136000000Y-127200000D03*
%TD*%
D17*
%TO.P,R15,1*%
%TO.N,Net-(D2-Pad2)*%
X135400000Y-140912500D03*
%TO.P,R15,2*%
%TO.N,Net-(Q3-Pad1)*%
X135400000Y-139087500D03*
%TD*%
D11*
%TO.P,R10,1*%
%TO.N,/G*%
X117520195Y-128750000D03*
%TO.P,R10,2*%
%TO.N,Net-(R10-Pad2)*%
X119345195Y-128750000D03*
%TD*%
%TO.P,R4,2*%
%TO.N,/V_R*%
X122912500Y-144797257D03*
%TO.P,R4,1*%
%TO.N,/V_SYNC*%
X121087500Y-144797257D03*
%TD*%
%TO.P,R9,2*%
%TO.N,Net-(R12-Pad1)*%
X119412500Y-134221951D03*
%TO.P,R9,1*%
%TO.N,/R*%
X117587500Y-134221951D03*
%TD*%
D20*
%TO.P,J3,1,In*%
%TO.N,/Pb*%
X156410997Y-135000000D03*
%TO.P,J3,2,Ext*%
%TO.N,GND*%
X156410997Y-132460000D03*
D21*
X161490997Y-140080000D03*
X161490997Y-129920000D03*
%TD*%
D18*
%TO.P,R17,1*%
%TO.N,Net-(Q3-Pad1)*%
X137500000Y-139087500D03*
%TO.P,R17,2*%
%TO.N,-5V*%
X137500000Y-140912500D03*
%TD*%
D20*
%TO.P,J5,1,In*%
%TO.N,/Pr*%
X156410997Y-154080000D03*
D21*
%TO.P,J5,2,Ext*%
%TO.N,GND*%
X161490997Y-159160000D03*
D20*
X156410997Y-151540000D03*
D21*
X161490997Y-149000000D03*
%TD*%
D18*
%TO.P,R16,1*%
%TO.N,GND*%
X131600000Y-127787500D03*
%TO.P,R16,2*%
%TO.N,/FB*%
X131600000Y-129612500D03*
%TD*%
D22*
%TO.P,U1,4*%
%TO.N,N/C*%
X131392267Y-164950000D03*
D23*
%TO.P,U1,3,VI*%
%TO.N,/VIND*%
X129092267Y-158650000D03*
%TO.P,U1,2,VO*%
%TO.N,+5V*%
X131392267Y-158650000D03*
%TO.P,U1,1,GND*%
%TO.N,GND*%
X133692267Y-158650000D03*
%TD*%
D11*
%TO.P,R23,1*%
%TO.N,/Pr_OUT*%
X143787500Y-131600000D03*
%TO.P,R23,2*%
%TO.N,Net-(R23-Pad2)*%
X145612500Y-131600000D03*
%TD*%
%TO.P,R7,2*%
%TO.N,GND*%
X122856250Y-132228201D03*
%TO.P,R7,1*%
%TO.N,/R*%
X121031250Y-132228201D03*
%TD*%
D24*
%TO.P,Q3,1,B*%
%TO.N,Net-(Q3-Pad1)*%
X139562500Y-139050000D03*
%TO.P,Q3,2,E*%
%TO.N,-5V*%
X139562500Y-140950000D03*
%TO.P,Q3,3,C*%
%TO.N,Net-(Q3-Pad3)*%
X141437500Y-140000000D03*
%TD*%
D11*
%TO.P,R22,1*%
%TO.N,/Y_OUT*%
X146287500Y-116000000D03*
%TO.P,R22,2*%
%TO.N,/Y*%
X148112500Y-116000000D03*
%TD*%
D14*
%TO.P,C9,2*%
%TO.N,-5V*%
X137250000Y-131400000D03*
%TO.P,C9,1*%
%TO.N,GND*%
X139150000Y-131400000D03*
%TD*%
D11*
%TO.P,R24,1*%
%TO.N,Net-(D3-Pad2)*%
X112987500Y-161900000D03*
%TO.P,R24,2*%
%TO.N,+5V*%
X114812500Y-161900000D03*
%TD*%
D25*
%TO.P,Q2,1,B*%
%TO.N,/H_R*%
X129137500Y-142450000D03*
%TO.P,Q2,2,E*%
%TO.N,GND*%
X129137500Y-140550000D03*
%TO.P,Q2,3,C*%
%TO.N,Net-(Q1-Pad2)*%
X127262500Y-141500000D03*
%TD*%
D11*
%TO.P,R5,1*%
%TO.N,/H_SYNC*%
X121087500Y-141800000D03*
%TO.P,R5,2*%
%TO.N,/H_R*%
X122912500Y-141800000D03*
%TD*%
D26*
%TO.P,H2,1,1*%
%TO.N,GND*%
X166000000Y-104000000D03*
%TD*%
D27*
%TO.P,J2,0*%
%TO.N,GND*%
X111245331Y-112985000D03*
X111245331Y-137985000D03*
D12*
%TO.P,J2,1*%
%TO.N,/R*%
X113855331Y-129800000D03*
D13*
%TO.P,J2,2*%
%TO.N,/G*%
X113855331Y-127510000D03*
%TO.P,J2,3*%
%TO.N,/B*%
X113855331Y-125220000D03*
%TO.P,J2,4*%
%TO.N,unconnected-(J2-Pad4)*%
X113855331Y-122930000D03*
%TO.P,J2,5*%
%TO.N,GND*%
X113855331Y-120640000D03*
%TO.P,J2,6*%
X111315331Y-130945000D03*
%TO.P,J2,7*%
X111315331Y-128655000D03*
%TO.P,J2,8*%
X111315331Y-126365000D03*
%TO.P,J2,9*%
%TO.N,unconnected-(J2-Pad9)*%
X111315331Y-124075000D03*
%TO.P,J2,10*%
%TO.N,GND*%
X111315331Y-121785000D03*
%TO.P,J2,11*%
%TO.N,unconnected-(J2-Pad11)*%
X108775331Y-129800000D03*
%TO.P,J2,12*%
%TO.N,unconnected-(J2-Pad12)*%
X108775331Y-127510000D03*
%TO.P,J2,13*%
%TO.N,/H_SYNC*%
X108775331Y-125220000D03*
%TO.P,J2,14*%
%TO.N,/V_SYNC*%
X108775331Y-122930000D03*
%TO.P,J2,15*%
%TO.N,unconnected-(J2-Pad15)*%
X108775331Y-120640000D03*
%TD*%
D26*
%TO.P,H1,1,1*%
%TO.N,GND*%
X104000000Y-104000000D03*
%TD*%
D10*
%TO.P,R27,2*%
%TO.N,Net-(R27-Pad2)*%
X147287500Y-124200000D03*
%TO.P,R27,1*%
%TO.N,/Pb*%
X149112500Y-124200000D03*
%TD*%
D28*
%TO.P,C3,2*%
%TO.N,GND*%
X134242267Y-156100000D03*
%TO.P,C3,1*%
%TO.N,+5V*%
X132342267Y-156100000D03*
%TD*%
D10*
%TO.P,R29,1*%
%TO.N,/Pr*%
X149112500Y-133600000D03*
%TO.P,R29,2*%
%TO.N,Net-(R29-Pad2)*%
X147287500Y-133600000D03*
%TD*%
D29*
%TO.P,D1,1,K*%
%TO.N,/VIND*%
X118200000Y-161980000D03*
D30*
%TO.P,D1,2,A*%
%TO.N,/VIN*%
X118200000Y-151820000D03*
%TD*%
D31*
%TO.P,U3,1*%
%TO.N,/YAMP*%
X127750000Y-127562500D03*
%TO.P,U3,2,V-*%
%TO.N,GND*%
X126800000Y-127562500D03*
%TO.P,U3,3,+*%
%TO.N,/YSUM*%
X125850000Y-127562500D03*
%TO.P,U3,4,-*%
%TO.N,/FB*%
X125850000Y-129837500D03*
%TO.P,U3,5,V+*%
%TO.N,/+5VAMP*%
X127750000Y-129837500D03*
%TD*%
D11*
%TO.P,R2,2*%
%TO.N,GND*%
X122912500Y-139800000D03*
%TO.P,R2,1*%
%TO.N,/H_SYNC*%
X121087500Y-139800000D03*
%TD*%
D17*
%TO.P,R19,1*%
%TO.N,/FB*%
X129600000Y-129612500D03*
%TO.P,R19,2*%
%TO.N,/YAMP*%
X129600000Y-127787500D03*
%TD*%
D11*
%TO.P,R11,1*%
%TO.N,/B*%
X117587500Y-123502003D03*
%TO.P,R11,2*%
%TO.N,Net-(R11-Pad2)*%
X119412500Y-123502003D03*
%TD*%
%TO.P,R6,2*%
%TO.N,GND*%
X122856250Y-126756250D03*
%TO.P,R6,1*%
%TO.N,/G*%
X121031250Y-126756250D03*
%TD*%
D32*
%TO.P,D3,1,K*%
%TO.N,GND*%
X109162500Y-161900000D03*
%TO.P,D3,2,A*%
%TO.N,Net-(D3-Pad2)*%
X111037500Y-161900000D03*
%TD*%
D25*
%TO.P,Q1,3,C*%
%TO.N,Net-(D2-Pad1)*%
X127262500Y-145000000D03*
%TO.P,Q1,2,E*%
%TO.N,Net-(Q1-Pad2)*%
X129137500Y-144050000D03*
%TO.P,Q1,1,B*%
%TO.N,/V_R*%
X129137500Y-145950000D03*
%TD*%
D11*
%TO.P,R21,2*%
%TO.N,Net-(R21-Pad2)*%
X145612500Y-126200000D03*
%TO.P,R21,1*%
%TO.N,/Pb_OUT*%
X143787500Y-126200000D03*
%TD*%
D14*
%TO.P,C5,2*%
%TO.N,GND*%
X125850000Y-131937500D03*
%TO.P,C5,1*%
%TO.N,/+5VAMP*%
X127750000Y-131937500D03*
%TD*%
D26*
%TO.P,H4,1,1*%
%TO.N,GND*%
X166000000Y-166000000D03*
%TD*%
D11*
%TO.P,R3,1*%
%TO.N,/B*%
X121031250Y-121506250D03*
%TO.P,R3,2*%
%TO.N,GND*%
X122856250Y-121506250D03*
%TD*%
D26*
%TO.P,H3,1,1*%
%TO.N,GND*%
X104000000Y-166000000D03*
%TD*%
D33*
%TO.P,J1,1*%
%TO.N,/VIN*%
X113800000Y-151940691D03*
D34*
%TO.P,J1,2*%
%TO.N,GND*%
X107800000Y-151940691D03*
D35*
%TO.P,J1,3*%
X110800000Y-156640691D03*
%TD*%
D11*
%TO.P,R1,1*%
%TO.N,/V_SYNC*%
X121087500Y-146850000D03*
%TO.P,R1,2*%
%TO.N,GND*%
X122912500Y-146850000D03*
%TD*%
D17*
%TO.P,R8,2*%
%TO.N,Net-(D2-Pad1)*%
X127400000Y-148387500D03*
%TO.P,R8,1*%
%TO.N,+5V*%
X127400000Y-150212500D03*
%TD*%
D20*
%TO.P,J4,1,In*%
%TO.N,/Y*%
X156410997Y-115950000D03*
D21*
%TO.P,J4,2,Ext*%
%TO.N,GND*%
X161490997Y-110870000D03*
X161490997Y-121030000D03*
D20*
X156410997Y-113410000D03*
%TD*%
D14*
%TO.P,C4,2*%
%TO.N,GND*%
X142034429Y-153700000D03*
%TO.P,C4,1*%
%TO.N,+5V*%
X143934429Y-153700000D03*
%TD*%
D13*
%TO.P,C7,2*%
%TO.N,-5V*%
X146984429Y-163500000D03*
D12*
%TO.P,C7,1*%
%TO.N,GND*%
X144984429Y-163500000D03*
%TD*%
D36*
%TO.N,GND*%
X124200000Y-121500000D03*
X142400000Y-124200000D03*
X142400000Y-133600000D03*
X124500000Y-131900000D03*
X126800000Y-125900000D03*
X126892267Y-156100000D03*
X131000000Y-140500000D03*
X124300000Y-146900000D03*
X124400000Y-139800000D03*
X142984429Y-161000000D03*
X140600000Y-131400000D03*
X107600000Y-161900000D03*
X135700000Y-125000000D03*
X124243750Y-126756250D03*
X135792267Y-156100000D03*
X140484429Y-153700000D03*
%TD*%
D37*
%TO.N,+5V*%
X140400000Y-125000000D02*
X139150000Y-125000000D01*
%TO.N,/B*%
X121031250Y-121368750D02*
X121031250Y-121506250D01*
X133800000Y-121800000D02*
X132100000Y-120100000D01*
X133800000Y-126300000D02*
X133800000Y-121800000D01*
X134300000Y-126800000D02*
X133800000Y-126300000D01*
X132100000Y-120100000D02*
X122300000Y-120100000D01*
X122300000Y-120100000D02*
X121031250Y-121368750D01*
%TO.N,GND*%
X124193750Y-121506250D02*
X124200000Y-121500000D01*
X122856250Y-121506250D02*
X124193750Y-121506250D01*
%TO.N,/YSUM*%
X121943750Y-124418750D02*
X122862500Y-123500000D01*
X121943750Y-127831250D02*
X121943750Y-124418750D01*
X122862500Y-128750000D02*
X121943750Y-127831250D01*
X121943750Y-129668750D02*
X122862500Y-128750000D01*
X122862500Y-134221951D02*
X121943750Y-133303201D01*
X121943750Y-133303201D02*
X121943750Y-129668750D01*
%TO.N,GND*%
X124171799Y-132228201D02*
X124500000Y-131900000D01*
X122856250Y-132228201D02*
X124171799Y-132228201D01*
%TO.N,/R*%
X117587500Y-135137500D02*
X117587500Y-134221951D01*
X118000000Y-135550000D02*
X117587500Y-135137500D01*
X130300000Y-134700000D02*
X124650000Y-134700000D01*
X124650000Y-134700000D02*
X123800000Y-135550000D01*
X133800000Y-131200000D02*
X130300000Y-134700000D01*
X123800000Y-135550000D02*
X118000000Y-135550000D01*
X133800000Y-129100000D02*
X133800000Y-131200000D01*
X134300000Y-128600000D02*
X133800000Y-129100000D01*
%TO.N,Net-(R11-Pad2)*%
X121035497Y-123502003D02*
X121037500Y-123500000D01*
X119412500Y-123502003D02*
X121035497Y-123502003D01*
%TO.N,/B*%
X117587500Y-121612500D02*
X117693750Y-121506250D01*
X117587500Y-123502003D02*
X117587500Y-121612500D01*
D38*
X116343750Y-121506250D02*
X117693750Y-121506250D01*
X117693750Y-121506250D02*
X121031250Y-121506250D01*
X115900000Y-121950000D02*
X116343750Y-121506250D01*
X115900000Y-123850000D02*
X115900000Y-121950000D01*
X114530000Y-125220000D02*
X115900000Y-123850000D01*
X113855331Y-125220000D02*
X114530000Y-125220000D01*
D37*
%TO.N,Net-(R10-Pad2)*%
X119345195Y-128750000D02*
X121037500Y-128750000D01*
D38*
%TO.N,/G*%
X117206250Y-126756250D02*
X116243750Y-126756250D01*
D37*
X117520195Y-128750000D02*
X117520195Y-127070195D01*
X117520195Y-127070195D02*
X117206250Y-126756250D01*
D38*
X120893750Y-126756250D02*
X117206250Y-126756250D01*
X115490000Y-127510000D02*
X113855331Y-127510000D01*
X116243750Y-126756250D02*
X115490000Y-127510000D01*
%TO.N,/R*%
X116283532Y-132228201D02*
X113855331Y-129800000D01*
X117843750Y-132228201D02*
X116283532Y-132228201D01*
D37*
%TO.N,Net-(R12-Pad1)*%
X119412500Y-134221951D02*
X121037500Y-134221951D01*
%TO.N,/R*%
X117587500Y-132484451D02*
X117843750Y-132228201D01*
X117587500Y-134221951D02*
X117587500Y-132484451D01*
D38*
X117843750Y-132228201D02*
X120893750Y-132228201D01*
D37*
%TO.N,+5V*%
X125287500Y-135612500D02*
X127700000Y-135612500D01*
X122000000Y-149100000D02*
X122000000Y-138900000D01*
X123112500Y-150212500D02*
X122000000Y-149100000D01*
X127400000Y-150212500D02*
X123112500Y-150212500D01*
X122000000Y-138900000D02*
X125287500Y-135612500D01*
%TO.N,/Y_OUT*%
X145000000Y-116000000D02*
X146287500Y-116000000D01*
X144700000Y-116300000D02*
X145000000Y-116000000D01*
X144200000Y-128200000D02*
X144700000Y-127700000D01*
X144700000Y-127700000D02*
X144700000Y-116300000D01*
X142100000Y-128200000D02*
X144200000Y-128200000D01*
D38*
%TO.N,/Y*%
X156360997Y-116000000D02*
X156410997Y-115950000D01*
X148112500Y-116000000D02*
X156360997Y-116000000D01*
D37*
X148200000Y-116087500D02*
X148112500Y-116000000D01*
X148200000Y-128000000D02*
X148200000Y-116087500D01*
X147200000Y-129000000D02*
X148200000Y-128000000D01*
X145300000Y-129000000D02*
X147200000Y-129000000D01*
X144700000Y-129600000D02*
X145300000Y-129000000D01*
X144700000Y-137187500D02*
X144700000Y-129600000D01*
%TO.N,/Pb*%
X149112500Y-124200000D02*
X149112500Y-126200000D01*
D38*
X151900000Y-126200000D02*
X149250000Y-126200000D01*
X152700000Y-127000000D02*
X151900000Y-126200000D01*
%TO.N,+5V*%
X165500000Y-107900000D02*
X146000000Y-107900000D01*
X167000000Y-109400000D02*
X165500000Y-107900000D01*
X140400000Y-113500000D02*
X140400000Y-123200000D01*
X167000000Y-159400000D02*
X167000000Y-109400000D01*
X159100000Y-167300000D02*
X167000000Y-159400000D01*
X146000000Y-107900000D02*
X140400000Y-113500000D01*
X131392267Y-160592267D02*
X138100000Y-167300000D01*
X131392267Y-158650000D02*
X131392267Y-160592267D01*
X138100000Y-167300000D02*
X159100000Y-167300000D01*
D39*
%TO.N,/Y_OUT*%
X140400000Y-128200000D02*
X142100000Y-128200000D01*
D37*
%TO.N,/Pb_OUT*%
X141900000Y-126200000D02*
X141700000Y-126400000D01*
X141700000Y-126400000D02*
X141700000Y-127100000D01*
X143787500Y-126200000D02*
X141900000Y-126200000D01*
D39*
X141700000Y-127500000D02*
X141700000Y-127100000D01*
X141400000Y-127700000D02*
X141500000Y-127700000D01*
X141500000Y-127700000D02*
X141700000Y-127500000D01*
D38*
%TO.N,/Pb*%
X152700000Y-134300000D02*
X152700000Y-127000000D01*
X153400000Y-135000000D02*
X152700000Y-134300000D01*
X156410997Y-135000000D02*
X153400000Y-135000000D01*
D37*
%TO.N,Net-(R27-Pad2)*%
X147287500Y-124200000D02*
X145612500Y-124200000D01*
%TO.N,Net-(R21-Pad2)*%
X145612500Y-126200000D02*
X147287500Y-126200000D01*
%TO.N,GND*%
X143787500Y-124200000D02*
X142400000Y-124200000D01*
D38*
%TO.N,/Pr*%
X149112500Y-133600000D02*
X149112500Y-152512500D01*
D37*
%TO.N,/Pr_OUT*%
X141700000Y-129500000D02*
X141700000Y-130900000D01*
X141700000Y-130900000D02*
X142400000Y-131600000D01*
X142400000Y-131600000D02*
X143787500Y-131600000D01*
D39*
X141400000Y-128700000D02*
X140400000Y-128700000D01*
X141700000Y-129000000D02*
X141400000Y-128700000D01*
X141700000Y-129500000D02*
X141700000Y-129000000D01*
D37*
%TO.N,Net-(R29-Pad2)*%
X147287500Y-133600000D02*
X145612500Y-133600000D01*
%TO.N,Net-(R23-Pad2)*%
X145612500Y-131600000D02*
X147287500Y-131600000D01*
%TO.N,GND*%
X143787500Y-133600000D02*
X142400000Y-133600000D01*
%TO.N,-5V*%
X147000000Y-144500000D02*
X146400000Y-143900000D01*
X147000000Y-159584429D02*
X147000000Y-144500000D01*
X146984429Y-159600000D02*
X147000000Y-159584429D01*
X146400000Y-143900000D02*
X137600000Y-143900000D01*
D38*
%TO.N,/Pr*%
X150680000Y-154080000D02*
X156410997Y-154080000D01*
X149112500Y-152512500D02*
X150680000Y-154080000D01*
X149112500Y-131600000D02*
X149112500Y-133600000D01*
D37*
%TO.N,Net-(Q3-Pad3)*%
X144700000Y-139800000D02*
X144700000Y-139012500D01*
X144500000Y-140000000D02*
X144700000Y-139800000D01*
X141437500Y-140000000D02*
X144500000Y-140000000D01*
%TO.N,GND*%
X124537500Y-131937500D02*
X124500000Y-131900000D01*
X125850000Y-131937500D02*
X124537500Y-131937500D01*
%TO.N,+5V*%
X131392267Y-160907733D02*
X131392267Y-158650000D01*
X116400000Y-165300000D02*
X127000000Y-165300000D01*
X127000000Y-165300000D02*
X131392267Y-160907733D01*
X114812500Y-163712500D02*
X116400000Y-165300000D01*
X114812500Y-161900000D02*
X114812500Y-163712500D01*
X140400000Y-123200000D02*
X140400000Y-125000000D01*
X140400000Y-125000000D02*
X140400000Y-127100489D01*
%TO.N,GND*%
X130800000Y-125900000D02*
X126800000Y-125900000D01*
X131600000Y-126700000D02*
X130800000Y-125900000D01*
X131600000Y-127787500D02*
X131600000Y-126700000D01*
%TO.N,+5V*%
X127757733Y-154157733D02*
X132342267Y-154157733D01*
X127350000Y-150262500D02*
X127350000Y-153750000D01*
X127400000Y-150212500D02*
X127350000Y-150262500D01*
X127350000Y-153750000D02*
X127757733Y-154157733D01*
X132342267Y-152857733D02*
X132342267Y-154157733D01*
X132342267Y-154157733D02*
X132342267Y-156100000D01*
X133450000Y-151750000D02*
X132342267Y-152857733D01*
X143434429Y-151750000D02*
X133450000Y-151750000D01*
X143934429Y-152250000D02*
X143434429Y-151750000D01*
X143934429Y-153700000D02*
X143934429Y-152250000D01*
D38*
%TO.N,/VIND*%
X123144888Y-161980000D02*
X123144888Y-163500000D01*
X118200000Y-161980000D02*
X123144888Y-161980000D01*
X123144888Y-159855112D02*
X123144888Y-163500000D01*
X129092267Y-158650000D02*
X124350000Y-158650000D01*
X124350000Y-158650000D02*
X123144888Y-159855112D01*
D39*
%TO.N,/B*%
X134700000Y-127200000D02*
X136000000Y-127200000D01*
X134300000Y-126800000D02*
X134700000Y-127200000D01*
D37*
%TO.N,/+5VAMP*%
X127750000Y-131937500D02*
X127750000Y-133737500D01*
X127750000Y-133737500D02*
X127700000Y-133787500D01*
%TO.N,GND*%
X126800000Y-127562500D02*
X126800000Y-125900000D01*
%TO.N,-5V*%
X133900000Y-143300000D02*
X133900000Y-133500000D01*
X133900000Y-133500000D02*
X136000000Y-131400000D01*
X134500000Y-143900000D02*
X133900000Y-143300000D01*
X137600000Y-143900000D02*
X134500000Y-143900000D01*
D39*
%TO.N,/R*%
X134700000Y-128200000D02*
X134300000Y-128600000D01*
X136000000Y-128200000D02*
X134700000Y-128200000D01*
D37*
%TO.N,/YAMP*%
X130512500Y-128700000D02*
X129600000Y-127787500D01*
X132800000Y-128700000D02*
X130512500Y-128700000D01*
D39*
X133800000Y-127700000D02*
X136000000Y-127700000D01*
X133400000Y-128100000D02*
X133800000Y-127700000D01*
D37*
X133400000Y-128100000D02*
X132800000Y-128700000D01*
%TO.N,/FB*%
X128500000Y-128700000D02*
X129412500Y-129612500D01*
X129412500Y-129612500D02*
X129600000Y-129612500D01*
X126519239Y-128700000D02*
X128500000Y-128700000D01*
X125850000Y-129369239D02*
X126519239Y-128700000D01*
X125850000Y-129837500D02*
X125850000Y-129369239D01*
%TO.N,/YSUM*%
X125850000Y-128450000D02*
X125850000Y-127562500D01*
X125543750Y-128756250D02*
X125850000Y-128450000D01*
X122856250Y-128756250D02*
X125543750Y-128756250D01*
%TO.N,/FB*%
X129600000Y-129612500D02*
X131600000Y-129612500D01*
%TO.N,/YAMP*%
X127975000Y-127787500D02*
X127750000Y-127562500D01*
X129600000Y-127787500D02*
X127975000Y-127787500D01*
%TO.N,/+5VAMP*%
X127750000Y-131937500D02*
X127750000Y-129837500D01*
%TO.N,Net-(D2-Pad1)*%
X129812500Y-148387500D02*
X130500000Y-147700000D01*
X130500000Y-147700000D02*
X130500000Y-145000000D01*
X127400000Y-148387500D02*
X129812500Y-148387500D01*
%TO.N,GND*%
X140464541Y-158335000D02*
X141919429Y-158335000D01*
X142034429Y-158450000D02*
X142034429Y-160050000D01*
X142034429Y-153700000D02*
X142034429Y-158450000D01*
X141919429Y-158335000D02*
X142034429Y-158450000D01*
X142034429Y-160050000D02*
X142984429Y-161000000D01*
X128542267Y-156100000D02*
X126892267Y-156100000D01*
%TO.N,-5V*%
X136000000Y-131400000D02*
X136000000Y-129300000D01*
X137250000Y-131400000D02*
X136000000Y-131400000D01*
X137500000Y-143800000D02*
X137600000Y-143900000D01*
X137500000Y-140912500D02*
X137500000Y-143800000D01*
X146984429Y-159600000D02*
X146984429Y-163500000D01*
X146979429Y-159605000D02*
X146984429Y-159600000D01*
X145414541Y-159605000D02*
X146979429Y-159605000D01*
%TO.N,Net-(D2-Pad1)*%
X127262500Y-145000000D02*
X130500000Y-145000000D01*
X130500000Y-145000000D02*
X135250000Y-145000000D01*
X135250000Y-145000000D02*
X135400000Y-145150000D01*
%TO.N,-5V*%
X139562500Y-140950000D02*
X137537500Y-140950000D01*
X137537500Y-140950000D02*
X137500000Y-140912500D01*
%TO.N,Net-(Q3-Pad1)*%
X137537500Y-139050000D02*
X137500000Y-139087500D01*
X139562500Y-139050000D02*
X137537500Y-139050000D01*
X135400000Y-139087500D02*
X137500000Y-139087500D01*
%TO.N,Net-(D2-Pad2)*%
X135400000Y-142650000D02*
X135400000Y-140912500D01*
%TO.N,GND*%
X130950000Y-140550000D02*
X131000000Y-140500000D01*
X129137500Y-140550000D02*
X130950000Y-140550000D01*
%TO.N,Net-(Q1-Pad2)*%
X130500000Y-143800000D02*
X130500000Y-141700000D01*
X130300000Y-141500000D02*
X127262500Y-141500000D01*
X129137500Y-144050000D02*
X130250000Y-144050000D01*
X130250000Y-144050000D02*
X130500000Y-143800000D01*
X130500000Y-141700000D02*
X130300000Y-141500000D01*
%TO.N,/H_R*%
X125400000Y-141800000D02*
X122912500Y-141800000D01*
X126050000Y-142450000D02*
X125400000Y-141800000D01*
X129137500Y-142450000D02*
X126050000Y-142450000D01*
%TO.N,/V_R*%
X125850000Y-145950000D02*
X124697257Y-144797257D01*
X129137500Y-145950000D02*
X125850000Y-145950000D01*
X124697257Y-144797257D02*
X122912500Y-144797257D01*
%TO.N,GND*%
X124250000Y-146850000D02*
X124300000Y-146900000D01*
X122912500Y-146850000D02*
X124250000Y-146850000D01*
X122912500Y-139800000D02*
X124400000Y-139800000D01*
%TO.N,/H_SYNC*%
X121087500Y-141800000D02*
X121087500Y-139800000D01*
D38*
X108400000Y-141800000D02*
X120950000Y-141800000D01*
D37*
%TO.N,/V_SYNC*%
X121087500Y-146850000D02*
X121087500Y-144797257D01*
D38*
X106497257Y-144797257D02*
X120937500Y-144797257D01*
X102500000Y-124600000D02*
X104170000Y-122930000D01*
X102500000Y-140800000D02*
X102500000Y-124600000D01*
X106497257Y-144797257D02*
X102500000Y-140800000D01*
X104170000Y-122930000D02*
X108775331Y-122930000D01*
D37*
%TO.N,+5V*%
X144884429Y-153700000D02*
X143934429Y-153700000D01*
X145414541Y-155795000D02*
X145414541Y-154230112D01*
X145414541Y-154230112D02*
X144884429Y-153700000D01*
%TO.N,/CAP+*%
X138719429Y-157065000D02*
X140464541Y-157065000D01*
X138084429Y-157700000D02*
X138719429Y-157065000D01*
X138084429Y-162299999D02*
X138084429Y-157700000D01*
X139284430Y-163500000D02*
X138084429Y-162299999D01*
%TO.N,GND*%
X144984429Y-161500000D02*
X144984429Y-163500000D01*
X144484429Y-161000000D02*
X144984429Y-161500000D01*
X142984429Y-161000000D02*
X144484429Y-161000000D01*
%TO.N,/CAP-*%
X141284430Y-161900001D02*
X141284430Y-163500000D01*
X140464541Y-161080112D02*
X141284430Y-161900001D01*
X140464541Y-159605000D02*
X140464541Y-161080112D01*
%TO.N,+5V*%
X131392267Y-157050000D02*
X132342267Y-156100000D01*
X131392267Y-158650000D02*
X131392267Y-157050000D01*
%TO.N,GND*%
X133692267Y-158650000D02*
X133692267Y-156650000D01*
X109162500Y-161900000D02*
X107600000Y-161900000D01*
X133692267Y-156650000D02*
X134242267Y-156100000D01*
X134242267Y-156100000D02*
X135792267Y-156100000D01*
X137250000Y-125000000D02*
X135700000Y-125000000D01*
X122856250Y-126756250D02*
X124243750Y-126756250D01*
X139150000Y-131400000D02*
X140600000Y-131400000D01*
X142034429Y-153700000D02*
X140484429Y-153700000D01*
D39*
%TO.N,/Y_OUT*%
X138500000Y-128200000D02*
X140400000Y-128200000D01*
X136000000Y-128700000D02*
X138000000Y-128700000D01*
X138000000Y-128700000D02*
X138500000Y-128200000D01*
%TO.N,/Pb_OUT*%
X140400000Y-127700000D02*
X141400000Y-127700000D01*
D38*
%TO.N,/H_SYNC*%
X106880000Y-125220000D02*
X105400000Y-126700000D01*
X105400000Y-138800000D02*
X108400000Y-141800000D01*
X108775331Y-125220000D02*
X106880000Y-125220000D01*
X105400000Y-126700000D02*
X105400000Y-138800000D01*
%TO.N,/VIN*%
X113800000Y-151940691D02*
X118079309Y-151940691D01*
X118079309Y-151940691D02*
X118200000Y-151820000D01*
D37*
%TO.N,/VIND*%
X130442267Y-156100000D02*
X130442267Y-156950000D01*
X129092267Y-158300000D02*
X129092267Y-158650000D01*
X130442267Y-156950000D02*
X129092267Y-158300000D01*
%TO.N,Net-(D3-Pad2)*%
X112987500Y-161900000D02*
X111037500Y-161900000D01*
%TD*%
M02*
