%TF.GenerationSoftware,KiCad,Pcbnew,7.0.2*%
%TF.CreationDate,2023-06-12T01:53:58+02:00*%
%TF.ProjectId,RGB-YPbPr-Converter,5247422d-5950-4625-9072-2d436f6e7665,rev?*%
%TF.SameCoordinates,Original*%
%TF.FileFunction,Soldermask,Top*%
%TF.FilePolarity,Negative*%
%FSLAX46Y46*%
G04 Gerber Fmt 4.6, Leading zero omitted, Abs format (unit mm)*
G04 Created by KiCad (PCBNEW 7.0.2) date 2023-06-12 01:53:58*
%MOMM*%
%LPD*%
G01*
G04 APERTURE LIST*
G04 Aperture macros list*
%AMRoundRect*
0 Rectangle with rounded corners*
0 $1 Rounding radius*
0 $2 $3 $4 $5 $6 $7 $8 $9 X,Y pos of 4 corners*
0 Add a 4 corners polygon primitive as box body*
4,1,4,$2,$3,$4,$5,$6,$7,$8,$9,$2,$3,0*
0 Add four circle primitives for the rounded corners*
1,1,$1+$1,$2,$3*
1,1,$1+$1,$4,$5*
1,1,$1+$1,$6,$7*
1,1,$1+$1,$8,$9*
0 Add four rect primitives between the rounded corners*
20,1,$1+$1,$2,$3,$4,$5,0*
20,1,$1+$1,$4,$5,$6,$7,0*
20,1,$1+$1,$6,$7,$8,$9,0*
20,1,$1+$1,$8,$9,$2,$3,0*%
G04 Aperture macros list end*
%ADD10RoundRect,0.150000X-0.725000X-0.150000X0.725000X-0.150000X0.725000X0.150000X-0.725000X0.150000X0*%
%ADD11RoundRect,0.250000X0.450000X-0.262500X0.450000X0.262500X-0.450000X0.262500X-0.450000X-0.262500X0*%
%ADD12RoundRect,0.250000X0.262500X0.450000X-0.262500X0.450000X-0.262500X-0.450000X0.262500X-0.450000X0*%
%ADD13R,1.400000X0.300000*%
%ADD14RoundRect,0.250000X-0.262500X-0.450000X0.262500X-0.450000X0.262500X0.450000X-0.262500X0.450000X0*%
%ADD15O,2.500000X1.600000*%
%ADD16O,7.000000X3.500000*%
%ADD17R,1.600000X1.600000*%
%ADD18C,1.600000*%
%ADD19R,1.000000X1.000000*%
%ADD20RoundRect,0.250000X-0.450000X0.262500X-0.450000X-0.262500X0.450000X-0.262500X0.450000X0.262500X0*%
%ADD21RoundRect,0.250000X-0.250000X-0.475000X0.250000X-0.475000X0.250000X0.475000X-0.250000X0.475000X0*%
%ADD22R,1.500000X2.000000*%
%ADD23R,3.800000X2.000000*%
%ADD24RoundRect,0.150000X-0.587500X-0.150000X0.587500X-0.150000X0.587500X0.150000X-0.587500X0.150000X0*%
%ADD25RoundRect,0.250000X0.250000X0.475000X-0.250000X0.475000X-0.250000X-0.475000X0.250000X-0.475000X0*%
%ADD26RoundRect,0.150000X0.587500X0.150000X-0.587500X0.150000X-0.587500X-0.150000X0.587500X-0.150000X0*%
%ADD27C,5.700000*%
%ADD28C,4.000000*%
%ADD29RoundRect,0.243750X-0.243750X-0.456250X0.243750X-0.456250X0.243750X0.456250X-0.243750X0.456250X0*%
%ADD30R,3.500000X5.000000*%
%ADD31RoundRect,0.750000X-0.750000X-1.750000X0.750000X-1.750000X0.750000X1.750000X-0.750000X1.750000X0*%
%ADD32RoundRect,0.875000X-1.625000X-0.875000X1.625000X-0.875000X1.625000X0.875000X-1.625000X0.875000X0*%
G04 APERTURE END LIST*
D10*
%TO.C,U5*%
X126375000Y-125095000D03*
X126375000Y-126365000D03*
X126375000Y-127635000D03*
X126375000Y-128905000D03*
X131525000Y-128905000D03*
X131525000Y-127635000D03*
X131525000Y-126365000D03*
X131525000Y-125095000D03*
%TD*%
D11*
%TO.C,R20*%
X144700000Y-139012500D03*
X144700000Y-137187500D03*
%TD*%
D12*
%TO.C,R28*%
X145612500Y-124200000D03*
X143787500Y-124200000D03*
%TD*%
D13*
%TO.C,U4*%
X136000000Y-127200000D03*
X136000000Y-127700000D03*
X136000000Y-128200000D03*
X136000000Y-128700000D03*
X136000000Y-129200000D03*
X140400000Y-129200000D03*
X140400000Y-128700000D03*
X140400000Y-128200000D03*
X140400000Y-127700000D03*
X140400000Y-127200000D03*
%TD*%
D11*
%TO.C,R15*%
X135400000Y-140912500D03*
X135400000Y-139087500D03*
%TD*%
D14*
%TO.C,R10*%
X117520195Y-128750000D03*
X119345195Y-128750000D03*
%TD*%
%TO.C,R4*%
X121087500Y-144797257D03*
X122912500Y-144797257D03*
%TD*%
%TO.C,R9*%
X117587500Y-134221951D03*
X119412500Y-134221951D03*
%TD*%
D15*
%TO.C,J3*%
X156410997Y-135000000D03*
D16*
X161490997Y-129920000D03*
D15*
X156410997Y-132460000D03*
D16*
X161490997Y-140080000D03*
%TD*%
D17*
%TO.C,C1*%
X118900000Y-151950000D03*
D18*
X120900000Y-151950000D03*
%TD*%
D14*
%TO.C,R25*%
X147287500Y-126200000D03*
X149112500Y-126200000D03*
%TD*%
D19*
%TO.C,D2*%
X135400000Y-145150000D03*
X135400000Y-142650000D03*
%TD*%
D20*
%TO.C,R17*%
X137500000Y-139087500D03*
X137500000Y-140912500D03*
%TD*%
D15*
%TO.C,J5*%
X156410997Y-154080000D03*
D16*
X161490997Y-149000000D03*
D15*
X156410997Y-151540000D03*
D16*
X161490997Y-159160000D03*
%TD*%
D14*
%TO.C,R16*%
X126037500Y-123250000D03*
X127862500Y-123250000D03*
%TD*%
D21*
%TO.C,C4*%
X139800000Y-156100000D03*
X141700000Y-156100000D03*
%TD*%
D22*
%TO.C,U1*%
X133692267Y-158650000D03*
X131392267Y-158650000D03*
X129092267Y-158650000D03*
D23*
X131392267Y-164950000D03*
%TD*%
D14*
%TO.C,R23*%
X143787500Y-131600000D03*
X145612500Y-131600000D03*
%TD*%
%TO.C,R7*%
X121031250Y-132228201D03*
X122856250Y-132228201D03*
%TD*%
D24*
%TO.C,Q3*%
X139562500Y-139050000D03*
X139562500Y-140950000D03*
X141437500Y-140000000D03*
%TD*%
D14*
%TO.C,R22*%
X146287500Y-116000000D03*
X148112500Y-116000000D03*
%TD*%
D25*
%TO.C,C9*%
X139150000Y-131400000D03*
X137250000Y-131400000D03*
%TD*%
D14*
%TO.C,R24*%
X112987500Y-161900000D03*
X114812500Y-161900000D03*
%TD*%
D26*
%TO.C,Q2*%
X129137500Y-142450000D03*
X129137500Y-140550000D03*
X127262500Y-141500000D03*
%TD*%
D22*
%TO.C,U2*%
X141200000Y-158650000D03*
X138900000Y-158650000D03*
X136600000Y-158650000D03*
D23*
X138900000Y-164950000D03*
%TD*%
D21*
%TO.C,C6*%
X136100000Y-156100000D03*
X138000000Y-156100000D03*
%TD*%
D14*
%TO.C,R5*%
X121087500Y-141800000D03*
X122912500Y-141800000D03*
%TD*%
D27*
%TO.C,H2*%
X166000000Y-104000000D03*
%TD*%
D28*
%TO.C,J2*%
X111245331Y-112985000D03*
X111245331Y-137985000D03*
D17*
X113855331Y-129800000D03*
D18*
X113855331Y-127510000D03*
X113855331Y-125220000D03*
X113855331Y-122930000D03*
X113855331Y-120640000D03*
X111315331Y-130945000D03*
X111315331Y-128655000D03*
X111315331Y-126365000D03*
X111315331Y-124075000D03*
X111315331Y-121785000D03*
X108775331Y-129800000D03*
X108775331Y-127510000D03*
X108775331Y-125220000D03*
X108775331Y-122930000D03*
X108775331Y-120640000D03*
%TD*%
D27*
%TO.C,H1*%
X104000000Y-104000000D03*
%TD*%
D12*
%TO.C,R27*%
X149112500Y-124200000D03*
X147287500Y-124200000D03*
%TD*%
D21*
%TO.C,C3*%
X132342267Y-156100000D03*
X134242267Y-156100000D03*
%TD*%
D12*
%TO.C,R29*%
X149112500Y-133600000D03*
X147287500Y-133600000D03*
%TD*%
D14*
%TO.C,R19*%
X130037500Y-123300000D03*
X131862500Y-123300000D03*
%TD*%
D25*
%TO.C,C8*%
X139150000Y-125000000D03*
X137250000Y-125000000D03*
%TD*%
D12*
%TO.C,R30*%
X145612500Y-133600000D03*
X143787500Y-133600000D03*
%TD*%
D14*
%TO.C,R11*%
X117587500Y-123502003D03*
X119412500Y-123502003D03*
%TD*%
%TO.C,R6*%
X121031250Y-126756250D03*
X122856250Y-126756250D03*
%TD*%
D29*
%TO.C,D3*%
X109162500Y-161900000D03*
X111037500Y-161900000D03*
%TD*%
D26*
%TO.C,Q1*%
X129137500Y-145950000D03*
X129137500Y-144050000D03*
X127262500Y-145000000D03*
%TD*%
D14*
%TO.C,R13*%
X121037500Y-128750000D03*
X122862500Y-128750000D03*
%TD*%
%TO.C,R21*%
X143787500Y-126200000D03*
X145612500Y-126200000D03*
%TD*%
%TO.C,R26*%
X147287500Y-131600000D03*
X149112500Y-131600000D03*
%TD*%
%TO.C,R12*%
X121037500Y-134221951D03*
X122862500Y-134221951D03*
%TD*%
D25*
%TO.C,C5*%
X129750000Y-130800000D03*
X127850000Y-130800000D03*
%TD*%
D27*
%TO.C,H4*%
X166000000Y-166000000D03*
%TD*%
D14*
%TO.C,R14*%
X121037500Y-123500000D03*
X122862500Y-123500000D03*
%TD*%
%TO.C,R3*%
X121031250Y-121506250D03*
X122856250Y-121506250D03*
%TD*%
D27*
%TO.C,H3*%
X104000000Y-166000000D03*
%TD*%
D25*
%TO.C,C2*%
X130442267Y-156100000D03*
X128542267Y-156100000D03*
%TD*%
D30*
%TO.C,J1*%
X113800000Y-151940691D03*
D31*
X107800000Y-151940691D03*
D32*
X110800000Y-156640691D03*
%TD*%
D11*
%TO.C,R8*%
X127400000Y-150212500D03*
X127400000Y-148387500D03*
%TD*%
D15*
%TO.C,J4*%
X156410997Y-115950000D03*
D16*
X161490997Y-110870000D03*
D15*
X156410997Y-113410000D03*
D16*
X161490997Y-121030000D03*
%TD*%
M02*
