%TF.GenerationSoftware,KiCad,Pcbnew,(6.0.4)*%
%TF.CreationDate,2022-10-01T01:36:45+02:00*%
%TF.ProjectId,RGB-YPbPr-Converter,5247422d-5950-4625-9072-2d436f6e7665,rev?*%
%TF.SameCoordinates,Original*%
%TF.FileFunction,Copper,L2,Bot*%
%TF.FilePolarity,Positive*%
%FSLAX46Y46*%
G04 Gerber Fmt 4.6, Leading zero omitted, Abs format (unit mm)*
G04 Created by KiCad (PCBNEW (6.0.4)) date 2022-10-01 01:36:45*
%MOMM*%
%LPD*%
G01*
G04 APERTURE LIST*
G04 Aperture macros list*
%AMRoundRect*
0 Rectangle with rounded corners*
0 $1 Rounding radius*
0 $2 $3 $4 $5 $6 $7 $8 $9 X,Y pos of 4 corners*
0 Add a 4 corners polygon primitive as box body*
4,1,4,$2,$3,$4,$5,$6,$7,$8,$9,$2,$3,0*
0 Add four circle primitives for the rounded corners*
1,1,$1+$1,$2,$3*
1,1,$1+$1,$4,$5*
1,1,$1+$1,$6,$7*
1,1,$1+$1,$8,$9*
0 Add four rect primitives between the rounded corners*
20,1,$1+$1,$2,$3,$4,$5,0*
20,1,$1+$1,$4,$5,$6,$7,0*
20,1,$1+$1,$6,$7,$8,$9,0*
20,1,$1+$1,$8,$9,$2,$3,0*%
G04 Aperture macros list end*
%TA.AperFunction,ComponentPad*%
%ADD10R,3.000000X3.000000*%
%TD*%
%TA.AperFunction,ComponentPad*%
%ADD11C,3.000000*%
%TD*%
%TA.AperFunction,ComponentPad*%
%ADD12C,4.000000*%
%TD*%
%TA.AperFunction,ComponentPad*%
%ADD13R,1.600000X1.600000*%
%TD*%
%TA.AperFunction,ComponentPad*%
%ADD14C,1.600000*%
%TD*%
%TA.AperFunction,SMDPad,CuDef*%
%ADD15RoundRect,0.250000X-0.262500X-0.450000X0.262500X-0.450000X0.262500X0.450000X-0.262500X0.450000X0*%
%TD*%
%TA.AperFunction,SMDPad,CuDef*%
%ADD16RoundRect,0.250000X0.250000X0.475000X-0.250000X0.475000X-0.250000X-0.475000X0.250000X-0.475000X0*%
%TD*%
%TA.AperFunction,ViaPad*%
%ADD17C,0.800000*%
%TD*%
%TA.AperFunction,Conductor*%
%ADD18C,0.300000*%
%TD*%
%TA.AperFunction,Conductor*%
%ADD19C,0.500000*%
%TD*%
G04 APERTURE END LIST*
D10*
%TO.P,J3,1,Pin_1*%
%TO.N,GND*%
X74660000Y-83000000D03*
D11*
%TO.P,J3,2,Pin_2*%
%TO.N,+5V*%
X79740000Y-83000000D03*
%TD*%
D12*
%TO.P,J2,0*%
%TO.N,GND*%
X110899669Y-83485000D03*
X110899669Y-58485000D03*
D13*
%TO.P,J2,1*%
%TO.N,/Pr*%
X108849669Y-75300000D03*
D14*
%TO.P,J2,2*%
%TO.N,/Y*%
X108849669Y-73010000D03*
%TO.P,J2,3*%
%TO.N,/Pb*%
X108849669Y-70720000D03*
%TO.P,J2,4*%
%TO.N,unconnected-(J2-Pad4)*%
X108849669Y-68430000D03*
%TO.P,J2,5*%
%TO.N,GND*%
X108849669Y-66140000D03*
%TO.P,J2,6*%
X110829669Y-76445000D03*
%TO.P,J2,7*%
X110829669Y-74155000D03*
%TO.P,J2,8*%
X110829669Y-71865000D03*
%TO.P,J2,9*%
X110829669Y-69575000D03*
%TO.P,J2,10*%
X110829669Y-67285000D03*
%TO.P,J2,11*%
%TO.N,unconnected-(J2-Pad11)*%
X112809669Y-75300000D03*
%TO.P,J2,12*%
%TO.N,unconnected-(J2-Pad12)*%
X112809669Y-73010000D03*
%TO.P,J2,13*%
%TO.N,unconnected-(J2-Pad13)*%
X112809669Y-70720000D03*
%TO.P,J2,14*%
%TO.N,unconnected-(J2-Pad14)*%
X112809669Y-68430000D03*
%TO.P,J2,15*%
%TO.N,unconnected-(J2-Pad15)*%
X112809669Y-66140000D03*
%TD*%
D12*
%TO.P,J1,0*%
%TO.N,GND*%
X66750000Y-58615000D03*
X66750000Y-83615000D03*
D13*
%TO.P,J1,1*%
%TO.N,/R*%
X68800000Y-66800000D03*
D14*
%TO.P,J1,2*%
%TO.N,/G*%
X68800000Y-69090000D03*
%TO.P,J1,3*%
%TO.N,/B*%
X68800000Y-71380000D03*
%TO.P,J1,4*%
%TO.N,unconnected-(J1-Pad4)*%
X68800000Y-73670000D03*
%TO.P,J1,5*%
%TO.N,GND*%
X68800000Y-75960000D03*
%TO.P,J1,6*%
X66820000Y-65655000D03*
%TO.P,J1,7*%
X66820000Y-67945000D03*
%TO.P,J1,8*%
X66820000Y-70235000D03*
%TO.P,J1,9*%
X66820000Y-72525000D03*
%TO.P,J1,10*%
X66820000Y-74815000D03*
%TO.P,J1,11*%
%TO.N,unconnected-(J1-Pad11)*%
X64840000Y-66800000D03*
%TO.P,J1,12*%
%TO.N,unconnected-(J1-Pad12)*%
X64840000Y-69090000D03*
%TO.P,J1,13*%
%TO.N,unconnected-(J1-Pad13)*%
X64840000Y-71380000D03*
%TO.P,J1,14*%
%TO.N,unconnected-(J1-Pad14)*%
X64840000Y-73670000D03*
%TO.P,J1,15*%
%TO.N,unconnected-(J1-Pad15)*%
X64840000Y-75960000D03*
%TD*%
D15*
%TO.P,R9,1*%
%TO.N,/R*%
X71487500Y-66800000D03*
%TO.P,R9,2*%
%TO.N,GND*%
X73312500Y-66800000D03*
%TD*%
D13*
%TO.P,C5,1*%
%TO.N,Net-(C5-Pad1)*%
X86600000Y-84000000D03*
D14*
%TO.P,C5,2*%
%TO.N,Net-(C5-Pad2)*%
X88600000Y-84000000D03*
%TD*%
D15*
%TO.P,R8,2*%
%TO.N,GND*%
X73312500Y-69100000D03*
%TO.P,R8,1*%
%TO.N,/G*%
X71487500Y-69100000D03*
%TD*%
D16*
%TO.P,C1,1*%
%TO.N,+5V*%
X82650000Y-67800000D03*
%TO.P,C1,2*%
%TO.N,GND*%
X80750000Y-67800000D03*
%TD*%
D15*
%TO.P,R7,1*%
%TO.N,/B*%
X71487500Y-71400000D03*
%TO.P,R7,2*%
%TO.N,GND*%
X73312500Y-71400000D03*
%TD*%
D13*
%TO.P,C3,1*%
%TO.N,GND*%
X92400000Y-78355113D03*
D14*
%TO.P,C3,2*%
%TO.N,-5V*%
X92400000Y-76355113D03*
%TD*%
D17*
%TO.N,+5V*%
X88300000Y-66100000D03*
X84862500Y-75487500D03*
X84400000Y-67300000D03*
%TO.N,GND*%
X82800000Y-74700000D03*
X72200000Y-76500000D03*
X86300000Y-78100000D03*
X103200000Y-76100000D03*
X103300000Y-63100000D03*
X94700000Y-63200000D03*
X79100000Y-67900000D03*
%TO.N,/Pb*%
X104500000Y-72500000D03*
%TO.N,/Pr*%
X107000000Y-72000000D03*
%TD*%
D18*
%TO.N,+5V*%
X85600000Y-66100000D02*
X88300000Y-66100000D01*
X84400000Y-67300000D02*
X85600000Y-66100000D01*
X84862500Y-75487500D02*
X84400000Y-75025000D01*
X84400000Y-75025000D02*
X84400000Y-67300000D01*
X83150000Y-67300000D02*
X82650000Y-67800000D01*
X84400000Y-67300000D02*
X83150000Y-67300000D01*
%TO.N,GND*%
X110829669Y-67285000D02*
X110829669Y-76445000D01*
X109684669Y-66140000D02*
X110829669Y-67285000D01*
X108849669Y-66140000D02*
X109684669Y-66140000D01*
X67965000Y-75960000D02*
X66820000Y-74815000D01*
X68800000Y-75960000D02*
X67965000Y-75960000D01*
X66820000Y-65655000D02*
X66820000Y-74815000D01*
D19*
%TO.N,/Pb*%
X106280000Y-70720000D02*
X108849669Y-70720000D01*
X104500000Y-72500000D02*
X106280000Y-70720000D01*
%TO.N,/Pr*%
X107800000Y-75300000D02*
X108849669Y-75300000D01*
X107000000Y-74500000D02*
X107800000Y-75300000D01*
X107000000Y-72000000D02*
X107000000Y-74500000D01*
%TO.N,GND*%
X73312500Y-66800000D02*
X73312500Y-71400000D01*
%TO.N,/B*%
X71467500Y-71380000D02*
X71487500Y-71400000D01*
X68800000Y-71380000D02*
X71467500Y-71380000D01*
%TO.N,/G*%
X68800000Y-69090000D02*
X71477500Y-69090000D01*
X71477500Y-69090000D02*
X71487500Y-69100000D01*
%TO.N,/R*%
X68800000Y-66800000D02*
X71487500Y-66800000D01*
%TD*%
%TA.AperFunction,Conductor*%
%TO.N,GND*%
G36*
X115433621Y-54028502D02*
G01*
X115480114Y-54082158D01*
X115491500Y-54134500D01*
X115491500Y-87865500D01*
X115471498Y-87933621D01*
X115417842Y-87980114D01*
X115365500Y-87991500D01*
X62134500Y-87991500D01*
X62066379Y-87971498D01*
X62019886Y-87917842D01*
X62008500Y-87865500D01*
X62008500Y-85560987D01*
X65168721Y-85560987D01*
X65177548Y-85572605D01*
X65400281Y-85734430D01*
X65406961Y-85738670D01*
X65676572Y-85886890D01*
X65683707Y-85890247D01*
X65969770Y-86003508D01*
X65977296Y-86005953D01*
X66275279Y-86082462D01*
X66283050Y-86083945D01*
X66588278Y-86122503D01*
X66596169Y-86123000D01*
X66903831Y-86123000D01*
X66911722Y-86122503D01*
X67216950Y-86083945D01*
X67224721Y-86082462D01*
X67522704Y-86005953D01*
X67530230Y-86003508D01*
X67816293Y-85890247D01*
X67823428Y-85886890D01*
X68093039Y-85738670D01*
X68099719Y-85734430D01*
X68322823Y-85572336D01*
X68331246Y-85561413D01*
X68324342Y-85548552D01*
X68206777Y-85430987D01*
X109318390Y-85430987D01*
X109327217Y-85442605D01*
X109549950Y-85604430D01*
X109556630Y-85608670D01*
X109826241Y-85756890D01*
X109833376Y-85760247D01*
X110119439Y-85873508D01*
X110126965Y-85875953D01*
X110424948Y-85952462D01*
X110432719Y-85953945D01*
X110737947Y-85992503D01*
X110745838Y-85993000D01*
X111053500Y-85993000D01*
X111061391Y-85992503D01*
X111366619Y-85953945D01*
X111374390Y-85952462D01*
X111672373Y-85875953D01*
X111679899Y-85873508D01*
X111965962Y-85760247D01*
X111973097Y-85756890D01*
X112242708Y-85608670D01*
X112249388Y-85604430D01*
X112472492Y-85442336D01*
X112480915Y-85431413D01*
X112474011Y-85418552D01*
X110912481Y-83857022D01*
X110898537Y-83849408D01*
X110896704Y-83849539D01*
X110890089Y-83853790D01*
X109325003Y-85418876D01*
X109318390Y-85430987D01*
X68206777Y-85430987D01*
X66762812Y-83987022D01*
X66748868Y-83979408D01*
X66747035Y-83979539D01*
X66740420Y-83983790D01*
X65175334Y-85548876D01*
X65168721Y-85560987D01*
X62008500Y-85560987D01*
X62008500Y-83618958D01*
X64237290Y-83618958D01*
X64256607Y-83925994D01*
X64257600Y-83933855D01*
X64315246Y-84236046D01*
X64317217Y-84243723D01*
X64412284Y-84536309D01*
X64415199Y-84543672D01*
X64546189Y-84822041D01*
X64550001Y-84828974D01*
X64714851Y-85088736D01*
X64719495Y-85095129D01*
X64794497Y-85185790D01*
X64807014Y-85194245D01*
X64817752Y-85188038D01*
X66377978Y-83627812D01*
X66384356Y-83616132D01*
X67114408Y-83616132D01*
X67114539Y-83617965D01*
X67118790Y-83624580D01*
X68681145Y-85186935D01*
X68694407Y-85194177D01*
X68704512Y-85186988D01*
X68780505Y-85095129D01*
X68785149Y-85088736D01*
X68949999Y-84828974D01*
X68953811Y-84822041D01*
X69084332Y-84544669D01*
X72652001Y-84544669D01*
X72652371Y-84551490D01*
X72657895Y-84602352D01*
X72661521Y-84617604D01*
X72706676Y-84738054D01*
X72715214Y-84753649D01*
X72791715Y-84855724D01*
X72804276Y-84868285D01*
X72906351Y-84944786D01*
X72921946Y-84953324D01*
X73042394Y-84998478D01*
X73057649Y-85002105D01*
X73108514Y-85007631D01*
X73115328Y-85008000D01*
X74387885Y-85008000D01*
X74403124Y-85003525D01*
X74404329Y-85002135D01*
X74406000Y-84994452D01*
X74406000Y-84989884D01*
X74914000Y-84989884D01*
X74918475Y-85005123D01*
X74919865Y-85006328D01*
X74927548Y-85007999D01*
X76204669Y-85007999D01*
X76211490Y-85007629D01*
X76262352Y-85002105D01*
X76277604Y-84998479D01*
X76398054Y-84953324D01*
X76413649Y-84944786D01*
X76515724Y-84868285D01*
X76528285Y-84855724D01*
X76604786Y-84753649D01*
X76613324Y-84738054D01*
X76658478Y-84617606D01*
X76662105Y-84602351D01*
X76667631Y-84551486D01*
X76668000Y-84544672D01*
X76668000Y-83272115D01*
X76663525Y-83256876D01*
X76662135Y-83255671D01*
X76654452Y-83254000D01*
X74932115Y-83254000D01*
X74916876Y-83258475D01*
X74915671Y-83259865D01*
X74914000Y-83267548D01*
X74914000Y-84989884D01*
X74406000Y-84989884D01*
X74406000Y-83272115D01*
X74401525Y-83256876D01*
X74400135Y-83255671D01*
X74392452Y-83254000D01*
X72670116Y-83254000D01*
X72654877Y-83258475D01*
X72653672Y-83259865D01*
X72652001Y-83267548D01*
X72652001Y-84544669D01*
X69084332Y-84544669D01*
X69084801Y-84543672D01*
X69087716Y-84536309D01*
X69182783Y-84243723D01*
X69184754Y-84236046D01*
X69242400Y-83933855D01*
X69243393Y-83925994D01*
X69262710Y-83618958D01*
X69262710Y-83611042D01*
X69243393Y-83304006D01*
X69242400Y-83296145D01*
X69184754Y-82993954D01*
X69182783Y-82986277D01*
X69180392Y-82978918D01*
X77726917Y-82978918D01*
X77742682Y-83252320D01*
X77743507Y-83256525D01*
X77743508Y-83256533D01*
X77751280Y-83296145D01*
X77795405Y-83521053D01*
X77796792Y-83525103D01*
X77796793Y-83525108D01*
X77828925Y-83618958D01*
X77884112Y-83780144D01*
X77911217Y-83834036D01*
X77957467Y-83925994D01*
X78007160Y-84024799D01*
X78009586Y-84028328D01*
X78009589Y-84028334D01*
X78068276Y-84113723D01*
X78162274Y-84250490D01*
X78165161Y-84253663D01*
X78165162Y-84253664D01*
X78310757Y-84413672D01*
X78346582Y-84453043D01*
X78556675Y-84628707D01*
X78560316Y-84630991D01*
X78785024Y-84771951D01*
X78785028Y-84771953D01*
X78788664Y-84774234D01*
X78856544Y-84804883D01*
X79034345Y-84885164D01*
X79034349Y-84885166D01*
X79038257Y-84886930D01*
X79042377Y-84888150D01*
X79042376Y-84888150D01*
X79296723Y-84963491D01*
X79296727Y-84963492D01*
X79300836Y-84964709D01*
X79305070Y-84965357D01*
X79305075Y-84965358D01*
X79567298Y-85005483D01*
X79567300Y-85005483D01*
X79571540Y-85006132D01*
X79710912Y-85008322D01*
X79841071Y-85010367D01*
X79841077Y-85010367D01*
X79845362Y-85010434D01*
X80117235Y-84977534D01*
X80382127Y-84908041D01*
X80386087Y-84906401D01*
X80386092Y-84906399D01*
X80526755Y-84848134D01*
X85291500Y-84848134D01*
X85298255Y-84910316D01*
X85349385Y-85046705D01*
X85436739Y-85163261D01*
X85553295Y-85250615D01*
X85689684Y-85301745D01*
X85751866Y-85308500D01*
X87448134Y-85308500D01*
X87510316Y-85301745D01*
X87646705Y-85250615D01*
X87763261Y-85163261D01*
X87768642Y-85156081D01*
X87774992Y-85149731D01*
X87777232Y-85151971D01*
X87821565Y-85118829D01*
X87892384Y-85113810D01*
X87933790Y-85131949D01*
X87933981Y-85131617D01*
X87936964Y-85133339D01*
X87937797Y-85133704D01*
X87943251Y-85137523D01*
X87948233Y-85139846D01*
X87948238Y-85139849D01*
X88145775Y-85231961D01*
X88150757Y-85234284D01*
X88156065Y-85235706D01*
X88156067Y-85235707D01*
X88366598Y-85292119D01*
X88366600Y-85292119D01*
X88371913Y-85293543D01*
X88600000Y-85313498D01*
X88828087Y-85293543D01*
X88833400Y-85292119D01*
X88833402Y-85292119D01*
X89043933Y-85235707D01*
X89043935Y-85235706D01*
X89049243Y-85234284D01*
X89054225Y-85231961D01*
X89251762Y-85139849D01*
X89251767Y-85139846D01*
X89256749Y-85137523D01*
X89371840Y-85056935D01*
X89439789Y-85009357D01*
X89439792Y-85009355D01*
X89444300Y-85006198D01*
X89606198Y-84844300D01*
X89616930Y-84828974D01*
X89680592Y-84738054D01*
X89737523Y-84656749D01*
X89739846Y-84651767D01*
X89739849Y-84651762D01*
X89831961Y-84454225D01*
X89831961Y-84454224D01*
X89834284Y-84449243D01*
X89891411Y-84236046D01*
X89892119Y-84233402D01*
X89892119Y-84233400D01*
X89893543Y-84228087D01*
X89913498Y-84000000D01*
X89893543Y-83771913D01*
X89852559Y-83618958D01*
X89835707Y-83556067D01*
X89835706Y-83556065D01*
X89834284Y-83550757D01*
X89809596Y-83497812D01*
X89805467Y-83488958D01*
X108386959Y-83488958D01*
X108406276Y-83795994D01*
X108407269Y-83803855D01*
X108464915Y-84106046D01*
X108466886Y-84113723D01*
X108561953Y-84406309D01*
X108564868Y-84413672D01*
X108695858Y-84692041D01*
X108699670Y-84698974D01*
X108864520Y-84958736D01*
X108869164Y-84965129D01*
X108944166Y-85055790D01*
X108956683Y-85064245D01*
X108967421Y-85058038D01*
X110527647Y-83497812D01*
X110534025Y-83486132D01*
X111264077Y-83486132D01*
X111264208Y-83487965D01*
X111268459Y-83494580D01*
X112830814Y-85056935D01*
X112844076Y-85064177D01*
X112854181Y-85056988D01*
X112930174Y-84965129D01*
X112934818Y-84958736D01*
X113099668Y-84698974D01*
X113103480Y-84692041D01*
X113234470Y-84413672D01*
X113237385Y-84406309D01*
X113332452Y-84113723D01*
X113334423Y-84106046D01*
X113392069Y-83803855D01*
X113393062Y-83795994D01*
X113412379Y-83488958D01*
X113412379Y-83481042D01*
X113393062Y-83174006D01*
X113392069Y-83166145D01*
X113334423Y-82863954D01*
X113332452Y-82856277D01*
X113237385Y-82563691D01*
X113234470Y-82556328D01*
X113103480Y-82277959D01*
X113099668Y-82271026D01*
X112934818Y-82011264D01*
X112930174Y-82004871D01*
X112855172Y-81914210D01*
X112842655Y-81905755D01*
X112831917Y-81911962D01*
X111271691Y-83472188D01*
X111264077Y-83486132D01*
X110534025Y-83486132D01*
X110535261Y-83483868D01*
X110535130Y-83482035D01*
X110530879Y-83475420D01*
X108968524Y-81913065D01*
X108955262Y-81905823D01*
X108945157Y-81913012D01*
X108869164Y-82004871D01*
X108864520Y-82011264D01*
X108699670Y-82271026D01*
X108695858Y-82277959D01*
X108564868Y-82556328D01*
X108561953Y-82563691D01*
X108466886Y-82856277D01*
X108464915Y-82863954D01*
X108407269Y-83166145D01*
X108406276Y-83174006D01*
X108386959Y-83481042D01*
X108386959Y-83488958D01*
X89805467Y-83488958D01*
X89739849Y-83348238D01*
X89739846Y-83348233D01*
X89737523Y-83343251D01*
X89606198Y-83155700D01*
X89444300Y-82993802D01*
X89439792Y-82990645D01*
X89439789Y-82990643D01*
X89361611Y-82935902D01*
X89256749Y-82862477D01*
X89251767Y-82860154D01*
X89251762Y-82860151D01*
X89054225Y-82768039D01*
X89054224Y-82768039D01*
X89049243Y-82765716D01*
X89043935Y-82764294D01*
X89043933Y-82764293D01*
X88833402Y-82707881D01*
X88833400Y-82707881D01*
X88828087Y-82706457D01*
X88600000Y-82686502D01*
X88371913Y-82706457D01*
X88366600Y-82707881D01*
X88366598Y-82707881D01*
X88156067Y-82764293D01*
X88156065Y-82764294D01*
X88150757Y-82765716D01*
X88145776Y-82768039D01*
X88145775Y-82768039D01*
X87948238Y-82860151D01*
X87948233Y-82860154D01*
X87943251Y-82862477D01*
X87937798Y-82866295D01*
X87937314Y-82866459D01*
X87933981Y-82868383D01*
X87933594Y-82867713D01*
X87870526Y-82888988D01*
X87801665Y-82871707D01*
X87776263Y-82848998D01*
X87774992Y-82850269D01*
X87768642Y-82843919D01*
X87763261Y-82836739D01*
X87646705Y-82749385D01*
X87510316Y-82698255D01*
X87448134Y-82691500D01*
X85751866Y-82691500D01*
X85689684Y-82698255D01*
X85553295Y-82749385D01*
X85436739Y-82836739D01*
X85349385Y-82953295D01*
X85298255Y-83089684D01*
X85291500Y-83151866D01*
X85291500Y-84848134D01*
X80526755Y-84848134D01*
X80536011Y-84844300D01*
X80635136Y-84803241D01*
X80753359Y-84734157D01*
X80867879Y-84667237D01*
X80867880Y-84667236D01*
X80871582Y-84665073D01*
X81087089Y-84496094D01*
X81128809Y-84453043D01*
X81274686Y-84302509D01*
X81277669Y-84299431D01*
X81280202Y-84295983D01*
X81280206Y-84295978D01*
X81437257Y-84082178D01*
X81439795Y-84078723D01*
X81467154Y-84028334D01*
X81568418Y-83841830D01*
X81568419Y-83841828D01*
X81570468Y-83838054D01*
X81655873Y-83612035D01*
X81665751Y-83585895D01*
X81665752Y-83585891D01*
X81667269Y-83581877D01*
X81720779Y-83348238D01*
X81727449Y-83319117D01*
X81727450Y-83319113D01*
X81728407Y-83314933D01*
X81729383Y-83304006D01*
X81752531Y-83044627D01*
X81752531Y-83044625D01*
X81752751Y-83042161D01*
X81753193Y-83000000D01*
X81752781Y-82993954D01*
X81734859Y-82731055D01*
X81734858Y-82731049D01*
X81734567Y-82726778D01*
X81730260Y-82705978D01*
X81679901Y-82462809D01*
X81679032Y-82458612D01*
X81587617Y-82200465D01*
X81462013Y-81957112D01*
X81452040Y-81942921D01*
X81307008Y-81736562D01*
X81304545Y-81733057D01*
X81135483Y-81551124D01*
X81123833Y-81538587D01*
X109318423Y-81538587D01*
X109325327Y-81551448D01*
X110886857Y-83112978D01*
X110900801Y-83120592D01*
X110902634Y-83120461D01*
X110909249Y-83116210D01*
X112474335Y-81551124D01*
X112480948Y-81539013D01*
X112472121Y-81527395D01*
X112249388Y-81365570D01*
X112242708Y-81361330D01*
X111973097Y-81213110D01*
X111965962Y-81209753D01*
X111679899Y-81096492D01*
X111672373Y-81094047D01*
X111374390Y-81017538D01*
X111366619Y-81016055D01*
X111061391Y-80977497D01*
X111053500Y-80977000D01*
X110745838Y-80977000D01*
X110737947Y-80977497D01*
X110432719Y-81016055D01*
X110424948Y-81017538D01*
X110126965Y-81094047D01*
X110119439Y-81096492D01*
X109833376Y-81209753D01*
X109826241Y-81213110D01*
X109556630Y-81361330D01*
X109549950Y-81365570D01*
X109326846Y-81527664D01*
X109318423Y-81538587D01*
X81123833Y-81538587D01*
X81121046Y-81535588D01*
X81121043Y-81535585D01*
X81118125Y-81532445D01*
X81114810Y-81529731D01*
X81114806Y-81529728D01*
X80909523Y-81361706D01*
X80906205Y-81358990D01*
X80672704Y-81215901D01*
X80658699Y-81209753D01*
X80425873Y-81107549D01*
X80425869Y-81107548D01*
X80421945Y-81105825D01*
X80158566Y-81030800D01*
X80154324Y-81030196D01*
X80154318Y-81030195D01*
X79927366Y-80997895D01*
X79887443Y-80992213D01*
X79743589Y-80991460D01*
X79617877Y-80990802D01*
X79617871Y-80990802D01*
X79613591Y-80990780D01*
X79609347Y-80991339D01*
X79609343Y-80991339D01*
X79501416Y-81005548D01*
X79342078Y-81026525D01*
X79337938Y-81027658D01*
X79337936Y-81027658D01*
X79268418Y-81046676D01*
X79077928Y-81098788D01*
X79073980Y-81100472D01*
X78829982Y-81204546D01*
X78829978Y-81204548D01*
X78826030Y-81206232D01*
X78792178Y-81226492D01*
X78594725Y-81344664D01*
X78594721Y-81344667D01*
X78591043Y-81346868D01*
X78377318Y-81518094D01*
X78188808Y-81716742D01*
X78029002Y-81939136D01*
X77900857Y-82181161D01*
X77899385Y-82185184D01*
X77899383Y-82185188D01*
X77820397Y-82401026D01*
X77806743Y-82438337D01*
X77748404Y-82705907D01*
X77726917Y-82978918D01*
X69180392Y-82978918D01*
X69098826Y-82727885D01*
X72652000Y-82727885D01*
X72656475Y-82743124D01*
X72657865Y-82744329D01*
X72665548Y-82746000D01*
X74387885Y-82746000D01*
X74403124Y-82741525D01*
X74404329Y-82740135D01*
X74406000Y-82732452D01*
X74406000Y-82727885D01*
X74914000Y-82727885D01*
X74918475Y-82743124D01*
X74919865Y-82744329D01*
X74927548Y-82746000D01*
X76649884Y-82746000D01*
X76665123Y-82741525D01*
X76666328Y-82740135D01*
X76667999Y-82732452D01*
X76667999Y-81455331D01*
X76667629Y-81448510D01*
X76662105Y-81397648D01*
X76658479Y-81382396D01*
X76613324Y-81261946D01*
X76604786Y-81246351D01*
X76528285Y-81144276D01*
X76515724Y-81131715D01*
X76413649Y-81055214D01*
X76398054Y-81046676D01*
X76277606Y-81001522D01*
X76262351Y-80997895D01*
X76211486Y-80992369D01*
X76204672Y-80992000D01*
X74932115Y-80992000D01*
X74916876Y-80996475D01*
X74915671Y-80997865D01*
X74914000Y-81005548D01*
X74914000Y-82727885D01*
X74406000Y-82727885D01*
X74406000Y-81010116D01*
X74401525Y-80994877D01*
X74400135Y-80993672D01*
X74392452Y-80992001D01*
X73115331Y-80992001D01*
X73108510Y-80992371D01*
X73057648Y-80997895D01*
X73042396Y-81001521D01*
X72921946Y-81046676D01*
X72906351Y-81055214D01*
X72804276Y-81131715D01*
X72791715Y-81144276D01*
X72715214Y-81246351D01*
X72706676Y-81261946D01*
X72661522Y-81382394D01*
X72657895Y-81397649D01*
X72652369Y-81448514D01*
X72652000Y-81455328D01*
X72652000Y-82727885D01*
X69098826Y-82727885D01*
X69087716Y-82693691D01*
X69084801Y-82686328D01*
X68953811Y-82407959D01*
X68949999Y-82401026D01*
X68785149Y-82141264D01*
X68780505Y-82134871D01*
X68705503Y-82044210D01*
X68692986Y-82035755D01*
X68682248Y-82041962D01*
X67122022Y-83602188D01*
X67114408Y-83616132D01*
X66384356Y-83616132D01*
X66385592Y-83613868D01*
X66385461Y-83612035D01*
X66381210Y-83605420D01*
X64818855Y-82043065D01*
X64805593Y-82035823D01*
X64795488Y-82043012D01*
X64719495Y-82134871D01*
X64714851Y-82141264D01*
X64550001Y-82401026D01*
X64546189Y-82407959D01*
X64415199Y-82686328D01*
X64412284Y-82693691D01*
X64317217Y-82986277D01*
X64315246Y-82993954D01*
X64257600Y-83296145D01*
X64256607Y-83304006D01*
X64237290Y-83611042D01*
X64237290Y-83618958D01*
X62008500Y-83618958D01*
X62008500Y-81668587D01*
X65168754Y-81668587D01*
X65175658Y-81681448D01*
X66737188Y-83242978D01*
X66751132Y-83250592D01*
X66752965Y-83250461D01*
X66759580Y-83246210D01*
X68324666Y-81681124D01*
X68331279Y-81669013D01*
X68322452Y-81657395D01*
X68099719Y-81495570D01*
X68093039Y-81491330D01*
X67823428Y-81343110D01*
X67816293Y-81339753D01*
X67530230Y-81226492D01*
X67522704Y-81224047D01*
X67224721Y-81147538D01*
X67216950Y-81146055D01*
X66911722Y-81107497D01*
X66903831Y-81107000D01*
X66596169Y-81107000D01*
X66588278Y-81107497D01*
X66283050Y-81146055D01*
X66275279Y-81147538D01*
X65977296Y-81224047D01*
X65969770Y-81226492D01*
X65683707Y-81339753D01*
X65676572Y-81343110D01*
X65406961Y-81491330D01*
X65400281Y-81495570D01*
X65177177Y-81657664D01*
X65168754Y-81668587D01*
X62008500Y-81668587D01*
X62008500Y-79199782D01*
X91092001Y-79199782D01*
X91092371Y-79206603D01*
X91097895Y-79257465D01*
X91101521Y-79272717D01*
X91146676Y-79393167D01*
X91155214Y-79408762D01*
X91231715Y-79510837D01*
X91244276Y-79523398D01*
X91346351Y-79599899D01*
X91361946Y-79608437D01*
X91482394Y-79653591D01*
X91497649Y-79657218D01*
X91548514Y-79662744D01*
X91555328Y-79663113D01*
X92127885Y-79663113D01*
X92143124Y-79658638D01*
X92144329Y-79657248D01*
X92146000Y-79649565D01*
X92146000Y-79644997D01*
X92654000Y-79644997D01*
X92658475Y-79660236D01*
X92659865Y-79661441D01*
X92667548Y-79663112D01*
X93244669Y-79663112D01*
X93251490Y-79662742D01*
X93302352Y-79657218D01*
X93317604Y-79653592D01*
X93438054Y-79608437D01*
X93453649Y-79599899D01*
X93555724Y-79523398D01*
X93568285Y-79510837D01*
X93644786Y-79408762D01*
X93653324Y-79393167D01*
X93698478Y-79272719D01*
X93702105Y-79257464D01*
X93707631Y-79206599D01*
X93708000Y-79199785D01*
X93708000Y-78627228D01*
X93703525Y-78611989D01*
X93702135Y-78610784D01*
X93694452Y-78609113D01*
X92672115Y-78609113D01*
X92656876Y-78613588D01*
X92655671Y-78614978D01*
X92654000Y-78622661D01*
X92654000Y-79644997D01*
X92146000Y-79644997D01*
X92146000Y-78627228D01*
X92141525Y-78611989D01*
X92140135Y-78610784D01*
X92132452Y-78609113D01*
X91110116Y-78609113D01*
X91094877Y-78613588D01*
X91093672Y-78614978D01*
X91092001Y-78622661D01*
X91092001Y-79199782D01*
X62008500Y-79199782D01*
X62008500Y-75960000D01*
X63526502Y-75960000D01*
X63546457Y-76188087D01*
X63547881Y-76193400D01*
X63547881Y-76193402D01*
X63602168Y-76396000D01*
X63605716Y-76409243D01*
X63608039Y-76414224D01*
X63608039Y-76414225D01*
X63700151Y-76611762D01*
X63700154Y-76611767D01*
X63702477Y-76616749D01*
X63833802Y-76804300D01*
X63995700Y-76966198D01*
X64000208Y-76969355D01*
X64000211Y-76969357D01*
X64060915Y-77011862D01*
X64183251Y-77097523D01*
X64188233Y-77099846D01*
X64188238Y-77099849D01*
X64384765Y-77191490D01*
X64390757Y-77194284D01*
X64396065Y-77195706D01*
X64396067Y-77195707D01*
X64606598Y-77252119D01*
X64606600Y-77252119D01*
X64611913Y-77253543D01*
X64840000Y-77273498D01*
X65068087Y-77253543D01*
X65073400Y-77252119D01*
X65073402Y-77252119D01*
X65283933Y-77195707D01*
X65283935Y-77195706D01*
X65289243Y-77194284D01*
X65295235Y-77191490D01*
X65491762Y-77099849D01*
X65491767Y-77099846D01*
X65496749Y-77097523D01*
X65570243Y-77046062D01*
X68078493Y-77046062D01*
X68087789Y-77058077D01*
X68138994Y-77093931D01*
X68148489Y-77099414D01*
X68345947Y-77191490D01*
X68356239Y-77195236D01*
X68566688Y-77251625D01*
X68577481Y-77253528D01*
X68794525Y-77272517D01*
X68805475Y-77272517D01*
X69022519Y-77253528D01*
X69033312Y-77251625D01*
X69243761Y-77195236D01*
X69254053Y-77191490D01*
X69451511Y-77099414D01*
X69461006Y-77093931D01*
X69513048Y-77057491D01*
X69521424Y-77047012D01*
X69514356Y-77033566D01*
X68812812Y-76332022D01*
X68798868Y-76324408D01*
X68797035Y-76324539D01*
X68790420Y-76328790D01*
X68084923Y-77034287D01*
X68078493Y-77046062D01*
X65570243Y-77046062D01*
X65619085Y-77011862D01*
X65679789Y-76969357D01*
X65679792Y-76969355D01*
X65684300Y-76966198D01*
X65846198Y-76804300D01*
X65977523Y-76616749D01*
X65979846Y-76611767D01*
X65979849Y-76611762D01*
X66071961Y-76414225D01*
X66071961Y-76414224D01*
X66074284Y-76409243D01*
X66077833Y-76396000D01*
X66132119Y-76193402D01*
X66132119Y-76193400D01*
X66133543Y-76188087D01*
X66138872Y-76127178D01*
X66164736Y-76061060D01*
X66222239Y-76019420D01*
X66293127Y-76015480D01*
X66317643Y-76023965D01*
X66365947Y-76046490D01*
X66376239Y-76050236D01*
X66586688Y-76106625D01*
X66597481Y-76108528D01*
X66814525Y-76127517D01*
X66825475Y-76127517D01*
X67042519Y-76108528D01*
X67053312Y-76106625D01*
X67263761Y-76050236D01*
X67274058Y-76046488D01*
X67322838Y-76023741D01*
X67393030Y-76013079D01*
X67457843Y-76042058D01*
X67496699Y-76101478D01*
X67501609Y-76126953D01*
X67506470Y-76182509D01*
X67508375Y-76193312D01*
X67564764Y-76403761D01*
X67568510Y-76414053D01*
X67660586Y-76611511D01*
X67666069Y-76621006D01*
X67702509Y-76673048D01*
X67712988Y-76681424D01*
X67726434Y-76674356D01*
X68439658Y-75961132D01*
X69164408Y-75961132D01*
X69164539Y-75962965D01*
X69168790Y-75969580D01*
X69874287Y-76675077D01*
X69886062Y-76681507D01*
X69898077Y-76672211D01*
X69933931Y-76621006D01*
X69939414Y-76611511D01*
X70031490Y-76414053D01*
X70035236Y-76403761D01*
X70091625Y-76193312D01*
X70093528Y-76182519D01*
X70112517Y-75965475D01*
X70112517Y-75954525D01*
X70093528Y-75737481D01*
X70091625Y-75726688D01*
X70035236Y-75516239D01*
X70031490Y-75505947D01*
X69939414Y-75308489D01*
X69933931Y-75298994D01*
X69897491Y-75246952D01*
X69887012Y-75238576D01*
X69873566Y-75245644D01*
X69172022Y-75947188D01*
X69164408Y-75961132D01*
X68439658Y-75961132D01*
X69515077Y-74885713D01*
X69522691Y-74871769D01*
X69520266Y-74837858D01*
X69524113Y-74837583D01*
X69527886Y-74784834D01*
X69573671Y-74725653D01*
X69639789Y-74679357D01*
X69639792Y-74679355D01*
X69644300Y-74676198D01*
X69806198Y-74514300D01*
X69937523Y-74326749D01*
X69939846Y-74321767D01*
X69939849Y-74321762D01*
X70031961Y-74124225D01*
X70031961Y-74124224D01*
X70034284Y-74119243D01*
X70044074Y-74082709D01*
X70092119Y-73903402D01*
X70092119Y-73903400D01*
X70093543Y-73898087D01*
X70113498Y-73670000D01*
X70093543Y-73441913D01*
X70053137Y-73291118D01*
X70035707Y-73226067D01*
X70035706Y-73226065D01*
X70034284Y-73220757D01*
X69950860Y-73041852D01*
X69939849Y-73018238D01*
X69939846Y-73018233D01*
X69937523Y-73013251D01*
X69806198Y-72825700D01*
X69644300Y-72663802D01*
X69639792Y-72660645D01*
X69639789Y-72660643D01*
X69593474Y-72628213D01*
X69549146Y-72572756D01*
X69541837Y-72502136D01*
X69573868Y-72438776D01*
X69593474Y-72421787D01*
X69639789Y-72389357D01*
X69639792Y-72389355D01*
X69644300Y-72386198D01*
X69806198Y-72224300D01*
X69828655Y-72192229D01*
X69884110Y-72147901D01*
X69931867Y-72138500D01*
X70441313Y-72138500D01*
X70509434Y-72158502D01*
X70548457Y-72198197D01*
X70626522Y-72324348D01*
X70751697Y-72449305D01*
X70757927Y-72453145D01*
X70757928Y-72453146D01*
X70895288Y-72537816D01*
X70902262Y-72542115D01*
X70982005Y-72568564D01*
X71063611Y-72595632D01*
X71063613Y-72595632D01*
X71070139Y-72597797D01*
X71076975Y-72598497D01*
X71076978Y-72598498D01*
X71120031Y-72602909D01*
X71174600Y-72608500D01*
X71800400Y-72608500D01*
X71803646Y-72608163D01*
X71803650Y-72608163D01*
X71899308Y-72598238D01*
X71899312Y-72598237D01*
X71906166Y-72597526D01*
X71912702Y-72595345D01*
X71912704Y-72595345D01*
X72055021Y-72547864D01*
X72073946Y-72541550D01*
X72224348Y-72448478D01*
X72311137Y-72361537D01*
X72373421Y-72327458D01*
X72444241Y-72332461D01*
X72489329Y-72361382D01*
X72571829Y-72443739D01*
X72583240Y-72452751D01*
X72721243Y-72537816D01*
X72734424Y-72543963D01*
X72888710Y-72595138D01*
X72902086Y-72598005D01*
X72996438Y-72607672D01*
X73002854Y-72608000D01*
X73040385Y-72608000D01*
X73055624Y-72603525D01*
X73056829Y-72602135D01*
X73058500Y-72594452D01*
X73058500Y-72589884D01*
X73566500Y-72589884D01*
X73570975Y-72605123D01*
X73572365Y-72606328D01*
X73580048Y-72607999D01*
X73622095Y-72607999D01*
X73628614Y-72607662D01*
X73724206Y-72597743D01*
X73737600Y-72594851D01*
X73891784Y-72543412D01*
X73904962Y-72537239D01*
X74042807Y-72451937D01*
X74054208Y-72442901D01*
X74168739Y-72328171D01*
X74177751Y-72316760D01*
X74262816Y-72178757D01*
X74268963Y-72165576D01*
X74320138Y-72011290D01*
X74323005Y-71997914D01*
X74332672Y-71903562D01*
X74333000Y-71897146D01*
X74333000Y-71672115D01*
X74328525Y-71656876D01*
X74327135Y-71655671D01*
X74319452Y-71654000D01*
X73584615Y-71654000D01*
X73569376Y-71658475D01*
X73568171Y-71659865D01*
X73566500Y-71667548D01*
X73566500Y-72589884D01*
X73058500Y-72589884D01*
X73058500Y-71127885D01*
X73566500Y-71127885D01*
X73570975Y-71143124D01*
X73572365Y-71144329D01*
X73580048Y-71146000D01*
X74314884Y-71146000D01*
X74330123Y-71141525D01*
X74331328Y-71140135D01*
X74332999Y-71132452D01*
X74332999Y-70902905D01*
X74332662Y-70896386D01*
X74322743Y-70800794D01*
X74319851Y-70787400D01*
X74268412Y-70633216D01*
X74262239Y-70620038D01*
X74176937Y-70482193D01*
X74167901Y-70470792D01*
X74053170Y-70356260D01*
X74043833Y-70348886D01*
X74002771Y-70290969D01*
X73999539Y-70220046D01*
X74035165Y-70158635D01*
X74043665Y-70151257D01*
X74054206Y-70142903D01*
X74168739Y-70028171D01*
X74177751Y-70016760D01*
X74262816Y-69878757D01*
X74268963Y-69865576D01*
X74320138Y-69711290D01*
X74323005Y-69697914D01*
X74332672Y-69603562D01*
X74333000Y-69597146D01*
X74333000Y-69372115D01*
X74328525Y-69356876D01*
X74327135Y-69355671D01*
X74319452Y-69354000D01*
X73584615Y-69354000D01*
X73569376Y-69358475D01*
X73568171Y-69359865D01*
X73566500Y-69367548D01*
X73566500Y-71127885D01*
X73058500Y-71127885D01*
X73058500Y-68827885D01*
X73566500Y-68827885D01*
X73570975Y-68843124D01*
X73572365Y-68844329D01*
X73580048Y-68846000D01*
X74314884Y-68846000D01*
X74330123Y-68841525D01*
X74331328Y-68840135D01*
X74332999Y-68832452D01*
X74332999Y-68602905D01*
X74332662Y-68596386D01*
X74322743Y-68500794D01*
X74319851Y-68487400D01*
X74268412Y-68333216D01*
X74263203Y-68322095D01*
X79742001Y-68322095D01*
X79742338Y-68328614D01*
X79752257Y-68424206D01*
X79755149Y-68437600D01*
X79806588Y-68591784D01*
X79812761Y-68604962D01*
X79898063Y-68742807D01*
X79907099Y-68754208D01*
X80021829Y-68868739D01*
X80033240Y-68877751D01*
X80171243Y-68962816D01*
X80184424Y-68968963D01*
X80338710Y-69020138D01*
X80352086Y-69023005D01*
X80446438Y-69032672D01*
X80452854Y-69033000D01*
X80477885Y-69033000D01*
X80493124Y-69028525D01*
X80494329Y-69027135D01*
X80496000Y-69019452D01*
X80496000Y-69014884D01*
X81004000Y-69014884D01*
X81008475Y-69030123D01*
X81009865Y-69031328D01*
X81017548Y-69032999D01*
X81047095Y-69032999D01*
X81053614Y-69032662D01*
X81149206Y-69022743D01*
X81162600Y-69019851D01*
X81316784Y-68968412D01*
X81329962Y-68962239D01*
X81467807Y-68876937D01*
X81479208Y-68867901D01*
X81593738Y-68753172D01*
X81600794Y-68744238D01*
X81658712Y-68703177D01*
X81729635Y-68699947D01*
X81791046Y-68735574D01*
X81797846Y-68743407D01*
X81801522Y-68749348D01*
X81926697Y-68874305D01*
X81932927Y-68878145D01*
X81932928Y-68878146D01*
X82070288Y-68962816D01*
X82077262Y-68967115D01*
X82157005Y-68993564D01*
X82238611Y-69020632D01*
X82238613Y-69020632D01*
X82245139Y-69022797D01*
X82251975Y-69023497D01*
X82251978Y-69023498D01*
X82295031Y-69027909D01*
X82349600Y-69033500D01*
X82950400Y-69033500D01*
X82953646Y-69033163D01*
X82953650Y-69033163D01*
X83049308Y-69023238D01*
X83049312Y-69023237D01*
X83056166Y-69022526D01*
X83062702Y-69020345D01*
X83062704Y-69020345D01*
X83194806Y-68976272D01*
X83223946Y-68966550D01*
X83374348Y-68873478D01*
X83499305Y-68748303D01*
X83503148Y-68742069D01*
X83508241Y-68733807D01*
X83561013Y-68686314D01*
X83631085Y-68674892D01*
X83696208Y-68703166D01*
X83735708Y-68762160D01*
X83741500Y-68799924D01*
X83741500Y-74942944D01*
X83740941Y-74954800D01*
X83739212Y-74962537D01*
X83739777Y-74980500D01*
X83741438Y-75033369D01*
X83741500Y-75037327D01*
X83741500Y-75066432D01*
X83742056Y-75070832D01*
X83742988Y-75082664D01*
X83744438Y-75128831D01*
X83746650Y-75136444D01*
X83746650Y-75136445D01*
X83750419Y-75149416D01*
X83754430Y-75168782D01*
X83757118Y-75190064D01*
X83760034Y-75197429D01*
X83760035Y-75197433D01*
X83774126Y-75233021D01*
X83777965Y-75244231D01*
X83790855Y-75288600D01*
X83801775Y-75307065D01*
X83810466Y-75324805D01*
X83818365Y-75344756D01*
X83845516Y-75382126D01*
X83852033Y-75392048D01*
X83871507Y-75424977D01*
X83871510Y-75424981D01*
X83875547Y-75431807D01*
X83890711Y-75446971D01*
X83903551Y-75462004D01*
X83916159Y-75479357D01*
X83922270Y-75484412D01*
X83922971Y-75485159D01*
X83955023Y-75548508D01*
X83956430Y-75558230D01*
X83968958Y-75677428D01*
X84027973Y-75859056D01*
X84031276Y-75864778D01*
X84031277Y-75864779D01*
X84034257Y-75869940D01*
X84123460Y-76024444D01*
X84127878Y-76029351D01*
X84127879Y-76029352D01*
X84246825Y-76161455D01*
X84251247Y-76166366D01*
X84405748Y-76278618D01*
X84411776Y-76281302D01*
X84411778Y-76281303D01*
X84565262Y-76349638D01*
X84580212Y-76356294D01*
X84673613Y-76376147D01*
X84760556Y-76394628D01*
X84760561Y-76394628D01*
X84767013Y-76396000D01*
X84957987Y-76396000D01*
X84964439Y-76394628D01*
X84964444Y-76394628D01*
X85051387Y-76376147D01*
X85144788Y-76356294D01*
X85147441Y-76355113D01*
X91086502Y-76355113D01*
X91106457Y-76583200D01*
X91107881Y-76588513D01*
X91107881Y-76588515D01*
X91131076Y-76675077D01*
X91165716Y-76804356D01*
X91168039Y-76809337D01*
X91168039Y-76809338D01*
X91260151Y-77006875D01*
X91260154Y-77006880D01*
X91262477Y-77011862D01*
X91265637Y-77016375D01*
X91266590Y-77017737D01*
X91266825Y-77018433D01*
X91268383Y-77021132D01*
X91267840Y-77021445D01*
X91289274Y-77085013D01*
X91271985Y-77153872D01*
X91249344Y-77179194D01*
X91250627Y-77180477D01*
X91231715Y-77199389D01*
X91155214Y-77301464D01*
X91146676Y-77317059D01*
X91101522Y-77437507D01*
X91097895Y-77452762D01*
X91092369Y-77503627D01*
X91092000Y-77510441D01*
X91092000Y-78082998D01*
X91096475Y-78098237D01*
X91097865Y-78099442D01*
X91105548Y-78101113D01*
X93689884Y-78101113D01*
X93705123Y-78096638D01*
X93706328Y-78095248D01*
X93707999Y-78087565D01*
X93707999Y-77531062D01*
X110108162Y-77531062D01*
X110117458Y-77543077D01*
X110168663Y-77578931D01*
X110178158Y-77584414D01*
X110375616Y-77676490D01*
X110385908Y-77680236D01*
X110596357Y-77736625D01*
X110607150Y-77738528D01*
X110824194Y-77757517D01*
X110835144Y-77757517D01*
X111052188Y-77738528D01*
X111062981Y-77736625D01*
X111273430Y-77680236D01*
X111283722Y-77676490D01*
X111481180Y-77584414D01*
X111490675Y-77578931D01*
X111542717Y-77542491D01*
X111551093Y-77532012D01*
X111544025Y-77518566D01*
X110842481Y-76817022D01*
X110828537Y-76809408D01*
X110826704Y-76809539D01*
X110820089Y-76813790D01*
X110114592Y-77519287D01*
X110108162Y-77531062D01*
X93707999Y-77531062D01*
X93707999Y-77510444D01*
X93707629Y-77503623D01*
X93702105Y-77452761D01*
X93698479Y-77437509D01*
X93653324Y-77317059D01*
X93644786Y-77301464D01*
X93568285Y-77199389D01*
X93549373Y-77180477D01*
X93551631Y-77178219D01*
X93518543Y-77133959D01*
X93513524Y-77063140D01*
X93531861Y-77021273D01*
X93531617Y-77021132D01*
X93532885Y-77018936D01*
X93533410Y-77017737D01*
X93534363Y-77016375D01*
X93537523Y-77011862D01*
X93539846Y-77006880D01*
X93539849Y-77006875D01*
X93631961Y-76809338D01*
X93631961Y-76809337D01*
X93634284Y-76804356D01*
X93668925Y-76675077D01*
X93692119Y-76588515D01*
X93692119Y-76588513D01*
X93693543Y-76583200D01*
X93713498Y-76355113D01*
X93693543Y-76127026D01*
X93692119Y-76121711D01*
X93635707Y-75911180D01*
X93635706Y-75911178D01*
X93634284Y-75905870D01*
X93613811Y-75861965D01*
X93539849Y-75703351D01*
X93539846Y-75703346D01*
X93537523Y-75698364D01*
X93439409Y-75558243D01*
X93409357Y-75515324D01*
X93409355Y-75515321D01*
X93406198Y-75510813D01*
X93244300Y-75348915D01*
X93239792Y-75345758D01*
X93239789Y-75345756D01*
X93086671Y-75238542D01*
X93056749Y-75217590D01*
X93051767Y-75215267D01*
X93051762Y-75215264D01*
X92854225Y-75123152D01*
X92854224Y-75123152D01*
X92849243Y-75120829D01*
X92843935Y-75119407D01*
X92843933Y-75119406D01*
X92633402Y-75062994D01*
X92633400Y-75062994D01*
X92628087Y-75061570D01*
X92400000Y-75041615D01*
X92171913Y-75061570D01*
X92166600Y-75062994D01*
X92166598Y-75062994D01*
X91956067Y-75119406D01*
X91956065Y-75119407D01*
X91950757Y-75120829D01*
X91945776Y-75123152D01*
X91945775Y-75123152D01*
X91748238Y-75215264D01*
X91748233Y-75215267D01*
X91743251Y-75217590D01*
X91713329Y-75238542D01*
X91560211Y-75345756D01*
X91560208Y-75345758D01*
X91555700Y-75348915D01*
X91393802Y-75510813D01*
X91390645Y-75515321D01*
X91390643Y-75515324D01*
X91360591Y-75558243D01*
X91262477Y-75698364D01*
X91260154Y-75703346D01*
X91260151Y-75703351D01*
X91186189Y-75861965D01*
X91165716Y-75905870D01*
X91164294Y-75911178D01*
X91164293Y-75911180D01*
X91107881Y-76121711D01*
X91106457Y-76127026D01*
X91086502Y-76355113D01*
X85147441Y-76355113D01*
X85159738Y-76349638D01*
X85313222Y-76281303D01*
X85313224Y-76281302D01*
X85319252Y-76278618D01*
X85473753Y-76166366D01*
X85478175Y-76161455D01*
X85597121Y-76029352D01*
X85597122Y-76029351D01*
X85601540Y-76024444D01*
X85690743Y-75869940D01*
X85693723Y-75864779D01*
X85693724Y-75864778D01*
X85697027Y-75859056D01*
X85756042Y-75677428D01*
X85776004Y-75487500D01*
X85773324Y-75462005D01*
X85756732Y-75304135D01*
X85756732Y-75304133D01*
X85756042Y-75297572D01*
X85697027Y-75115944D01*
X85601540Y-74950556D01*
X85562048Y-74906695D01*
X85478175Y-74813545D01*
X85478174Y-74813544D01*
X85473753Y-74808634D01*
X85319252Y-74696382D01*
X85313224Y-74693698D01*
X85313222Y-74693697D01*
X85150817Y-74621390D01*
X85150815Y-74621389D01*
X85144788Y-74618706D01*
X85143837Y-74618504D01*
X85086956Y-74579606D01*
X85059321Y-74514209D01*
X85058500Y-74499850D01*
X85058500Y-72500000D01*
X103586496Y-72500000D01*
X103587186Y-72506565D01*
X103604122Y-72667699D01*
X103606458Y-72689928D01*
X103665473Y-72871556D01*
X103760960Y-73036944D01*
X103888747Y-73178866D01*
X104043248Y-73291118D01*
X104049276Y-73293802D01*
X104049278Y-73293803D01*
X104211681Y-73366109D01*
X104217712Y-73368794D01*
X104311113Y-73388647D01*
X104398056Y-73407128D01*
X104398061Y-73407128D01*
X104404513Y-73408500D01*
X104595487Y-73408500D01*
X104601939Y-73407128D01*
X104601944Y-73407128D01*
X104688887Y-73388647D01*
X104782288Y-73368794D01*
X104788319Y-73366109D01*
X104950722Y-73293803D01*
X104950724Y-73293802D01*
X104956752Y-73291118D01*
X105111253Y-73178866D01*
X105239040Y-73036944D01*
X105334527Y-72871556D01*
X105389387Y-72702714D01*
X105420125Y-72652556D01*
X105906207Y-72166474D01*
X105968519Y-72132448D01*
X106039334Y-72137513D01*
X106096170Y-72180060D01*
X106115135Y-72216633D01*
X106116161Y-72219791D01*
X106165473Y-72371556D01*
X106168776Y-72377278D01*
X106168777Y-72377279D01*
X106224619Y-72473999D01*
X106241500Y-72536999D01*
X106241500Y-74432930D01*
X106240067Y-74451880D01*
X106238800Y-74460211D01*
X106236801Y-74473349D01*
X106237394Y-74480641D01*
X106237394Y-74480644D01*
X106241085Y-74526018D01*
X106241500Y-74536233D01*
X106241500Y-74544293D01*
X106241925Y-74547937D01*
X106244789Y-74572507D01*
X106245222Y-74576882D01*
X106251140Y-74649637D01*
X106253396Y-74656601D01*
X106254587Y-74662560D01*
X106255971Y-74668415D01*
X106256818Y-74675681D01*
X106281735Y-74744327D01*
X106283152Y-74748455D01*
X106302648Y-74808634D01*
X106305649Y-74817899D01*
X106309445Y-74824154D01*
X106311951Y-74829628D01*
X106314670Y-74835058D01*
X106317167Y-74841937D01*
X106321180Y-74848057D01*
X106321180Y-74848058D01*
X106357186Y-74902976D01*
X106359523Y-74906680D01*
X106397405Y-74969107D01*
X106401121Y-74973315D01*
X106401122Y-74973316D01*
X106404803Y-74977484D01*
X106404776Y-74977508D01*
X106407429Y-74980500D01*
X106410132Y-74983733D01*
X106414144Y-74989852D01*
X106419456Y-74994884D01*
X106470383Y-75043128D01*
X106472825Y-75045506D01*
X107216230Y-75788911D01*
X107228616Y-75803323D01*
X107237149Y-75814918D01*
X107237154Y-75814923D01*
X107241492Y-75820818D01*
X107247070Y-75825557D01*
X107247073Y-75825560D01*
X107281768Y-75855035D01*
X107289284Y-75861965D01*
X107294979Y-75867660D01*
X107297861Y-75869940D01*
X107317251Y-75885281D01*
X107320655Y-75888072D01*
X107341605Y-75905870D01*
X107376285Y-75935333D01*
X107382801Y-75938661D01*
X107387850Y-75942028D01*
X107392979Y-75945195D01*
X107398716Y-75949734D01*
X107464875Y-75980655D01*
X107468781Y-75982564D01*
X107472476Y-75984451D01*
X107524046Y-76033247D01*
X107541169Y-76096665D01*
X107541169Y-76148134D01*
X107547924Y-76210316D01*
X107599054Y-76346705D01*
X107686408Y-76463261D01*
X107802964Y-76550615D01*
X107939353Y-76601745D01*
X108001535Y-76608500D01*
X109422654Y-76608500D01*
X109490775Y-76628502D01*
X109537268Y-76682158D01*
X109544361Y-76701889D01*
X109594433Y-76888761D01*
X109598179Y-76899053D01*
X109690255Y-77096511D01*
X109695738Y-77106006D01*
X109732178Y-77158048D01*
X109742657Y-77166424D01*
X109756103Y-77159356D01*
X110740574Y-76174885D01*
X110802886Y-76140859D01*
X110873701Y-76145924D01*
X110918764Y-76174885D01*
X111903956Y-77160077D01*
X111915731Y-77166507D01*
X111927746Y-77157211D01*
X111963600Y-77106006D01*
X111969083Y-77096511D01*
X112061159Y-76899053D01*
X112064905Y-76888761D01*
X112121294Y-76678312D01*
X112123197Y-76667520D01*
X112128012Y-76612484D01*
X112153875Y-76546366D01*
X112211378Y-76504726D01*
X112282266Y-76500785D01*
X112306783Y-76509270D01*
X112360426Y-76534284D01*
X112365734Y-76535706D01*
X112365736Y-76535707D01*
X112576267Y-76592119D01*
X112576269Y-76592119D01*
X112581582Y-76593543D01*
X112809669Y-76613498D01*
X113037756Y-76593543D01*
X113043069Y-76592119D01*
X113043071Y-76592119D01*
X113253602Y-76535707D01*
X113253604Y-76535706D01*
X113258912Y-76534284D01*
X113263894Y-76531961D01*
X113461431Y-76439849D01*
X113461436Y-76439846D01*
X113466418Y-76437523D01*
X113586259Y-76353609D01*
X113649458Y-76309357D01*
X113649461Y-76309355D01*
X113653969Y-76306198D01*
X113815867Y-76144300D01*
X113824126Y-76132506D01*
X113874152Y-76061060D01*
X113947192Y-75956749D01*
X113949515Y-75951767D01*
X113949518Y-75951762D01*
X114041630Y-75754225D01*
X114041630Y-75754224D01*
X114043953Y-75749243D01*
X114064955Y-75670865D01*
X114101788Y-75533402D01*
X114101788Y-75533400D01*
X114103212Y-75528087D01*
X114123167Y-75300000D01*
X114103212Y-75071913D01*
X114101788Y-75066598D01*
X114045376Y-74856067D01*
X114045375Y-74856065D01*
X114043953Y-74850757D01*
X114037810Y-74837583D01*
X113949518Y-74648238D01*
X113949515Y-74648233D01*
X113947192Y-74643251D01*
X113815867Y-74455700D01*
X113653969Y-74293802D01*
X113649461Y-74290645D01*
X113649458Y-74290643D01*
X113603143Y-74258213D01*
X113558815Y-74202756D01*
X113551506Y-74132136D01*
X113583537Y-74068776D01*
X113603143Y-74051787D01*
X113649458Y-74019357D01*
X113649461Y-74019355D01*
X113653969Y-74016198D01*
X113815867Y-73854300D01*
X113947192Y-73666749D01*
X113949515Y-73661767D01*
X113949518Y-73661762D01*
X114041630Y-73464225D01*
X114041630Y-73464224D01*
X114043953Y-73459243D01*
X114068909Y-73366109D01*
X114101788Y-73243402D01*
X114101788Y-73243400D01*
X114103212Y-73238087D01*
X114123167Y-73010000D01*
X114103212Y-72781913D01*
X114056658Y-72608172D01*
X114045376Y-72566067D01*
X114045375Y-72566065D01*
X114043953Y-72560757D01*
X114033199Y-72537694D01*
X113949518Y-72358238D01*
X113949515Y-72358233D01*
X113947192Y-72353251D01*
X113815867Y-72165700D01*
X113653969Y-72003802D01*
X113649461Y-72000645D01*
X113649458Y-72000643D01*
X113603143Y-71968213D01*
X113558815Y-71912756D01*
X113551506Y-71842136D01*
X113583537Y-71778776D01*
X113603143Y-71761787D01*
X113649458Y-71729357D01*
X113649461Y-71729355D01*
X113653969Y-71726198D01*
X113815867Y-71564300D01*
X113947192Y-71376749D01*
X113949515Y-71371767D01*
X113949518Y-71371762D01*
X114041630Y-71174225D01*
X114041630Y-71174224D01*
X114043953Y-71169243D01*
X114103212Y-70948087D01*
X114123167Y-70720000D01*
X114103212Y-70491913D01*
X114101788Y-70486598D01*
X114045376Y-70276067D01*
X114045375Y-70276065D01*
X114043953Y-70270757D01*
X114030334Y-70241550D01*
X113949518Y-70068238D01*
X113949515Y-70068233D01*
X113947192Y-70063251D01*
X113815867Y-69875700D01*
X113653969Y-69713802D01*
X113649461Y-69710645D01*
X113649458Y-69710643D01*
X113603143Y-69678213D01*
X113558815Y-69622756D01*
X113551506Y-69552136D01*
X113583537Y-69488776D01*
X113603143Y-69471787D01*
X113649458Y-69439357D01*
X113649461Y-69439355D01*
X113653969Y-69436198D01*
X113815867Y-69274300D01*
X113947192Y-69086749D01*
X113949515Y-69081767D01*
X113949518Y-69081762D01*
X114041630Y-68884225D01*
X114041630Y-68884224D01*
X114043953Y-68879243D01*
X114052861Y-68846000D01*
X114101788Y-68663402D01*
X114101788Y-68663400D01*
X114103212Y-68658087D01*
X114123167Y-68430000D01*
X114103212Y-68201913D01*
X114097111Y-68179144D01*
X114045376Y-67986067D01*
X114045375Y-67986065D01*
X114043953Y-67980757D01*
X114035795Y-67963261D01*
X113949518Y-67778238D01*
X113949515Y-67778233D01*
X113947192Y-67773251D01*
X113815867Y-67585700D01*
X113653969Y-67423802D01*
X113649461Y-67420645D01*
X113649458Y-67420643D01*
X113603143Y-67388213D01*
X113558815Y-67332756D01*
X113551506Y-67262136D01*
X113583537Y-67198776D01*
X113603143Y-67181787D01*
X113649458Y-67149357D01*
X113649461Y-67149355D01*
X113653969Y-67146198D01*
X113815867Y-66984300D01*
X113826725Y-66968794D01*
X113883831Y-66887237D01*
X113947192Y-66796749D01*
X113949515Y-66791767D01*
X113949518Y-66791762D01*
X114041630Y-66594225D01*
X114041630Y-66594224D01*
X114043953Y-66589243D01*
X114049823Y-66567338D01*
X114101788Y-66373402D01*
X114101788Y-66373400D01*
X114103212Y-66368087D01*
X114123167Y-66140000D01*
X114103212Y-65911913D01*
X114097256Y-65889684D01*
X114045376Y-65696067D01*
X114045375Y-65696065D01*
X114043953Y-65690757D01*
X114032238Y-65665634D01*
X113949518Y-65488238D01*
X113949515Y-65488233D01*
X113947192Y-65483251D01*
X113815867Y-65295700D01*
X113653969Y-65133802D01*
X113649461Y-65130645D01*
X113649458Y-65130643D01*
X113523589Y-65042509D01*
X113466418Y-65002477D01*
X113461436Y-65000154D01*
X113461431Y-65000151D01*
X113263894Y-64908039D01*
X113263893Y-64908039D01*
X113258912Y-64905716D01*
X113253604Y-64904294D01*
X113253602Y-64904293D01*
X113043071Y-64847881D01*
X113043069Y-64847881D01*
X113037756Y-64846457D01*
X112809669Y-64826502D01*
X112581582Y-64846457D01*
X112576269Y-64847881D01*
X112576267Y-64847881D01*
X112365736Y-64904293D01*
X112365734Y-64904294D01*
X112360426Y-64905716D01*
X112355445Y-64908039D01*
X112355444Y-64908039D01*
X112157907Y-65000151D01*
X112157902Y-65000154D01*
X112152920Y-65002477D01*
X112095749Y-65042509D01*
X111969880Y-65130643D01*
X111969877Y-65130645D01*
X111965369Y-65133802D01*
X111803471Y-65295700D01*
X111672146Y-65483251D01*
X111669823Y-65488233D01*
X111669820Y-65488238D01*
X111587100Y-65665634D01*
X111575385Y-65690757D01*
X111573963Y-65696065D01*
X111573962Y-65696067D01*
X111522082Y-65889684D01*
X111516126Y-65911913D01*
X111515647Y-65917393D01*
X111510797Y-65972822D01*
X111484933Y-66038940D01*
X111427430Y-66080580D01*
X111356542Y-66084520D01*
X111332026Y-66076035D01*
X111283722Y-66053510D01*
X111273430Y-66049764D01*
X111062981Y-65993375D01*
X111052188Y-65991472D01*
X110835144Y-65972483D01*
X110824194Y-65972483D01*
X110607150Y-65991472D01*
X110596357Y-65993375D01*
X110385908Y-66049764D01*
X110375611Y-66053512D01*
X110326831Y-66076259D01*
X110256639Y-66086921D01*
X110191826Y-66057942D01*
X110152970Y-65998522D01*
X110148060Y-65973047D01*
X110143199Y-65917491D01*
X110141294Y-65906688D01*
X110084905Y-65696239D01*
X110081159Y-65685947D01*
X109989083Y-65488489D01*
X109983600Y-65478994D01*
X109947160Y-65426952D01*
X109936681Y-65418576D01*
X109923235Y-65425644D01*
X108134592Y-67214287D01*
X108126978Y-67228231D01*
X108129403Y-67262142D01*
X108125556Y-67262417D01*
X108121783Y-67315166D01*
X108075998Y-67374347D01*
X108009880Y-67420643D01*
X108009877Y-67420645D01*
X108005369Y-67423802D01*
X107843471Y-67585700D01*
X107712146Y-67773251D01*
X107709823Y-67778233D01*
X107709820Y-67778238D01*
X107623543Y-67963261D01*
X107615385Y-67980757D01*
X107613963Y-67986065D01*
X107613962Y-67986067D01*
X107562227Y-68179144D01*
X107556126Y-68201913D01*
X107536171Y-68430000D01*
X107556126Y-68658087D01*
X107557550Y-68663400D01*
X107557550Y-68663402D01*
X107606478Y-68846000D01*
X107615385Y-68879243D01*
X107617708Y-68884224D01*
X107617708Y-68884225D01*
X107709820Y-69081762D01*
X107709823Y-69081767D01*
X107712146Y-69086749D01*
X107843471Y-69274300D01*
X108005369Y-69436198D01*
X108009877Y-69439355D01*
X108009880Y-69439357D01*
X108056195Y-69471787D01*
X108100523Y-69527244D01*
X108107832Y-69597864D01*
X108075801Y-69661224D01*
X108056195Y-69678213D01*
X108009880Y-69710643D01*
X108009877Y-69710645D01*
X108005369Y-69713802D01*
X107843471Y-69875700D01*
X107821014Y-69907771D01*
X107765559Y-69952099D01*
X107717802Y-69961500D01*
X106347069Y-69961500D01*
X106328121Y-69960067D01*
X106320780Y-69958950D01*
X106313883Y-69957901D01*
X106313881Y-69957901D01*
X106306651Y-69956801D01*
X106299359Y-69957394D01*
X106299356Y-69957394D01*
X106253982Y-69961085D01*
X106243767Y-69961500D01*
X106235707Y-69961500D01*
X106222417Y-69963049D01*
X106207493Y-69964789D01*
X106203118Y-69965222D01*
X106137661Y-69970546D01*
X106137658Y-69970547D01*
X106130363Y-69971140D01*
X106123399Y-69973396D01*
X106117440Y-69974587D01*
X106111585Y-69975971D01*
X106104319Y-69976818D01*
X106035673Y-70001735D01*
X106031545Y-70003152D01*
X105969064Y-70023393D01*
X105969062Y-70023394D01*
X105962101Y-70025649D01*
X105955846Y-70029445D01*
X105950372Y-70031951D01*
X105944942Y-70034670D01*
X105938063Y-70037167D01*
X105931943Y-70041180D01*
X105931942Y-70041180D01*
X105877024Y-70077186D01*
X105873320Y-70079523D01*
X105810893Y-70117405D01*
X105802516Y-70124803D01*
X105802492Y-70124776D01*
X105799500Y-70127429D01*
X105796267Y-70130132D01*
X105790148Y-70134144D01*
X105781478Y-70143296D01*
X105736872Y-70190383D01*
X105734494Y-70192825D01*
X104343669Y-71583650D01*
X104280772Y-71617801D01*
X104224176Y-71629831D01*
X104224167Y-71629834D01*
X104217712Y-71631206D01*
X104211682Y-71633891D01*
X104211681Y-71633891D01*
X104049278Y-71706197D01*
X104049276Y-71706198D01*
X104043248Y-71708882D01*
X104037907Y-71712762D01*
X104037906Y-71712763D01*
X104015067Y-71729357D01*
X103888747Y-71821134D01*
X103884326Y-71826044D01*
X103884325Y-71826045D01*
X103814529Y-71903562D01*
X103760960Y-71963056D01*
X103665473Y-72128444D01*
X103606458Y-72310072D01*
X103605768Y-72316633D01*
X103605768Y-72316635D01*
X103598457Y-72386198D01*
X103586496Y-72500000D01*
X85058500Y-72500000D01*
X85058500Y-67974759D01*
X85078502Y-67906638D01*
X85090864Y-67890449D01*
X85134621Y-67841852D01*
X85134622Y-67841851D01*
X85139040Y-67836944D01*
X85204651Y-67723303D01*
X85231223Y-67677279D01*
X85231224Y-67677278D01*
X85234527Y-67671556D01*
X85275866Y-67544329D01*
X85291502Y-67496207D01*
X85291502Y-67496205D01*
X85293542Y-67489928D01*
X85296556Y-67461257D01*
X85306755Y-67364215D01*
X85333768Y-67298559D01*
X85342969Y-67288291D01*
X85835854Y-66795405D01*
X85898167Y-66761380D01*
X85924950Y-66758500D01*
X87619776Y-66758500D01*
X87687897Y-66778502D01*
X87693834Y-66782562D01*
X87725371Y-66805475D01*
X87806513Y-66864428D01*
X87843248Y-66891118D01*
X87849276Y-66893802D01*
X87849278Y-66893803D01*
X88011681Y-66966109D01*
X88017712Y-66968794D01*
X88090662Y-66984300D01*
X88198056Y-67007128D01*
X88198061Y-67007128D01*
X88204513Y-67008500D01*
X88395487Y-67008500D01*
X88401939Y-67007128D01*
X88401944Y-67007128D01*
X88509338Y-66984300D01*
X88582288Y-66968794D01*
X88588319Y-66966109D01*
X88750722Y-66893803D01*
X88750724Y-66893802D01*
X88756752Y-66891118D01*
X88793488Y-66864428D01*
X88874629Y-66805475D01*
X88911253Y-66778866D01*
X88915675Y-66773955D01*
X89034621Y-66641852D01*
X89034622Y-66641851D01*
X89039040Y-66636944D01*
X89134527Y-66471556D01*
X89193542Y-66289928D01*
X89208724Y-66145475D01*
X107537152Y-66145475D01*
X107556141Y-66362519D01*
X107558044Y-66373312D01*
X107614433Y-66583761D01*
X107618179Y-66594053D01*
X107710255Y-66791511D01*
X107715738Y-66801006D01*
X107752178Y-66853048D01*
X107762657Y-66861424D01*
X107776103Y-66854356D01*
X108477647Y-66152812D01*
X108485261Y-66138868D01*
X108485130Y-66137035D01*
X108480879Y-66130420D01*
X107775382Y-65424923D01*
X107763607Y-65418493D01*
X107751592Y-65427789D01*
X107715738Y-65478994D01*
X107710255Y-65488489D01*
X107618179Y-65685947D01*
X107614433Y-65696239D01*
X107558044Y-65906688D01*
X107556141Y-65917481D01*
X107537152Y-66134525D01*
X107537152Y-66145475D01*
X89208724Y-66145475D01*
X89213504Y-66100000D01*
X89208224Y-66049764D01*
X89194232Y-65916635D01*
X89194232Y-65916633D01*
X89193542Y-65910072D01*
X89134527Y-65728444D01*
X89039040Y-65563056D01*
X89030557Y-65553634D01*
X88915675Y-65426045D01*
X88915674Y-65426044D01*
X88911253Y-65421134D01*
X88756752Y-65308882D01*
X88750724Y-65306198D01*
X88750722Y-65306197D01*
X88588319Y-65233891D01*
X88588318Y-65233891D01*
X88582288Y-65231206D01*
X88488351Y-65211239D01*
X88401944Y-65192872D01*
X88401939Y-65192872D01*
X88395487Y-65191500D01*
X88204513Y-65191500D01*
X88198061Y-65192872D01*
X88198056Y-65192872D01*
X88111649Y-65211239D01*
X88017712Y-65231206D01*
X88011682Y-65233891D01*
X88011681Y-65233891D01*
X87849278Y-65306197D01*
X87849276Y-65306198D01*
X87843248Y-65308882D01*
X87694092Y-65417251D01*
X87693837Y-65417436D01*
X87626969Y-65441294D01*
X87619776Y-65441500D01*
X85682056Y-65441500D01*
X85670200Y-65440941D01*
X85670197Y-65440941D01*
X85662463Y-65439212D01*
X85607446Y-65440941D01*
X85591631Y-65441438D01*
X85587673Y-65441500D01*
X85558568Y-65441500D01*
X85554168Y-65442056D01*
X85542336Y-65442988D01*
X85496169Y-65444438D01*
X85475579Y-65450420D01*
X85456218Y-65454430D01*
X85449230Y-65455312D01*
X85442796Y-65456125D01*
X85442795Y-65456125D01*
X85434936Y-65457118D01*
X85427571Y-65460034D01*
X85427567Y-65460035D01*
X85391979Y-65474126D01*
X85380769Y-65477965D01*
X85336400Y-65490855D01*
X85317943Y-65501771D01*
X85300193Y-65510466D01*
X85280244Y-65518365D01*
X85273833Y-65523023D01*
X85273831Y-65523024D01*
X85242864Y-65545523D01*
X85232946Y-65552038D01*
X85193193Y-65575548D01*
X85178032Y-65590709D01*
X85163000Y-65603548D01*
X85145643Y-65616159D01*
X85128618Y-65636739D01*
X85116198Y-65651752D01*
X85108208Y-65660533D01*
X84414144Y-66354596D01*
X84351832Y-66388621D01*
X84325049Y-66391500D01*
X84304513Y-66391500D01*
X84298061Y-66392872D01*
X84298056Y-66392872D01*
X84211113Y-66411353D01*
X84117712Y-66431206D01*
X84111682Y-66433891D01*
X84111681Y-66433891D01*
X83949278Y-66506197D01*
X83949276Y-66506198D01*
X83943248Y-66508882D01*
X83937907Y-66512762D01*
X83937906Y-66512763D01*
X83793837Y-66617436D01*
X83726969Y-66641294D01*
X83719776Y-66641500D01*
X83267140Y-66641500D01*
X83223118Y-66631740D01*
X83222738Y-66632885D01*
X83061389Y-66579368D01*
X83061387Y-66579368D01*
X83054861Y-66577203D01*
X83048025Y-66576503D01*
X83048022Y-66576502D01*
X83003231Y-66571913D01*
X82950400Y-66566500D01*
X82349600Y-66566500D01*
X82346354Y-66566837D01*
X82346350Y-66566837D01*
X82250692Y-66576762D01*
X82250688Y-66576763D01*
X82243834Y-66577474D01*
X82237298Y-66579655D01*
X82237296Y-66579655D01*
X82193625Y-66594225D01*
X82076054Y-66633450D01*
X81925652Y-66726522D01*
X81800695Y-66851697D01*
X81797898Y-66856235D01*
X81740647Y-66896824D01*
X81669724Y-66900054D01*
X81608313Y-66864428D01*
X81600938Y-66855932D01*
X81592902Y-66845793D01*
X81478171Y-66731261D01*
X81466760Y-66722249D01*
X81328757Y-66637184D01*
X81315576Y-66631037D01*
X81161290Y-66579862D01*
X81147914Y-66576995D01*
X81053562Y-66567328D01*
X81047145Y-66567000D01*
X81022115Y-66567000D01*
X81006876Y-66571475D01*
X81005671Y-66572865D01*
X81004000Y-66580548D01*
X81004000Y-69014884D01*
X80496000Y-69014884D01*
X80496000Y-68072115D01*
X80491525Y-68056876D01*
X80490135Y-68055671D01*
X80482452Y-68054000D01*
X79760116Y-68054000D01*
X79744877Y-68058475D01*
X79743672Y-68059865D01*
X79742001Y-68067548D01*
X79742001Y-68322095D01*
X74263203Y-68322095D01*
X74262239Y-68320038D01*
X74176937Y-68182193D01*
X74167901Y-68170792D01*
X74053170Y-68056260D01*
X74043833Y-68048886D01*
X74002771Y-67990969D01*
X73999539Y-67920046D01*
X74035165Y-67858635D01*
X74043665Y-67851257D01*
X74054206Y-67842903D01*
X74168739Y-67728171D01*
X74177751Y-67716760D01*
X74262816Y-67578757D01*
X74268963Y-67565576D01*
X74281465Y-67527885D01*
X79742000Y-67527885D01*
X79746475Y-67543124D01*
X79747865Y-67544329D01*
X79755548Y-67546000D01*
X80477885Y-67546000D01*
X80493124Y-67541525D01*
X80494329Y-67540135D01*
X80496000Y-67532452D01*
X80496000Y-66585116D01*
X80491525Y-66569877D01*
X80490135Y-66568672D01*
X80482452Y-66567001D01*
X80452905Y-66567001D01*
X80446386Y-66567338D01*
X80350794Y-66577257D01*
X80337400Y-66580149D01*
X80183216Y-66631588D01*
X80170038Y-66637761D01*
X80032193Y-66723063D01*
X80020792Y-66732099D01*
X79906261Y-66846829D01*
X79897249Y-66858240D01*
X79812184Y-66996243D01*
X79806037Y-67009424D01*
X79754862Y-67163710D01*
X79751995Y-67177086D01*
X79742328Y-67271438D01*
X79742000Y-67277855D01*
X79742000Y-67527885D01*
X74281465Y-67527885D01*
X74320138Y-67411290D01*
X74323005Y-67397914D01*
X74332672Y-67303562D01*
X74333000Y-67297146D01*
X74333000Y-67072115D01*
X74328525Y-67056876D01*
X74327135Y-67055671D01*
X74319452Y-67054000D01*
X73584615Y-67054000D01*
X73569376Y-67058475D01*
X73568171Y-67059865D01*
X73566500Y-67067548D01*
X73566500Y-68827885D01*
X73058500Y-68827885D01*
X73058500Y-66527885D01*
X73566500Y-66527885D01*
X73570975Y-66543124D01*
X73572365Y-66544329D01*
X73580048Y-66546000D01*
X74314884Y-66546000D01*
X74330123Y-66541525D01*
X74331328Y-66540135D01*
X74332999Y-66532452D01*
X74332999Y-66302905D01*
X74332662Y-66296386D01*
X74322743Y-66200794D01*
X74319851Y-66187400D01*
X74268412Y-66033216D01*
X74262239Y-66020038D01*
X74176937Y-65882193D01*
X74167901Y-65870792D01*
X74053171Y-65756261D01*
X74041760Y-65747249D01*
X73903757Y-65662184D01*
X73890576Y-65656037D01*
X73736290Y-65604862D01*
X73722914Y-65601995D01*
X73628562Y-65592328D01*
X73622145Y-65592000D01*
X73584615Y-65592000D01*
X73569376Y-65596475D01*
X73568171Y-65597865D01*
X73566500Y-65605548D01*
X73566500Y-66527885D01*
X73058500Y-66527885D01*
X73058500Y-65610116D01*
X73054025Y-65594877D01*
X73052635Y-65593672D01*
X73044952Y-65592001D01*
X73002905Y-65592001D01*
X72996386Y-65592338D01*
X72900794Y-65602257D01*
X72887400Y-65605149D01*
X72733216Y-65656588D01*
X72720038Y-65662761D01*
X72582193Y-65748063D01*
X72570792Y-65757099D01*
X72489570Y-65838462D01*
X72427287Y-65872541D01*
X72356467Y-65867538D01*
X72311380Y-65838617D01*
X72228488Y-65755870D01*
X72228483Y-65755866D01*
X72223303Y-65750695D01*
X72215863Y-65746109D01*
X72078968Y-65661725D01*
X72078966Y-65661724D01*
X72072738Y-65657885D01*
X71992761Y-65631358D01*
X71911389Y-65604368D01*
X71911387Y-65604368D01*
X71904861Y-65602203D01*
X71898025Y-65601503D01*
X71898022Y-65601502D01*
X71854969Y-65597091D01*
X71800400Y-65591500D01*
X71174600Y-65591500D01*
X71171354Y-65591837D01*
X71171350Y-65591837D01*
X71075692Y-65601762D01*
X71075688Y-65601763D01*
X71068834Y-65602474D01*
X71062298Y-65604655D01*
X71062296Y-65604655D01*
X70930194Y-65648728D01*
X70901054Y-65658450D01*
X70750652Y-65751522D01*
X70625695Y-65876697D01*
X70566443Y-65972822D01*
X70561022Y-65981616D01*
X70508250Y-66029109D01*
X70453762Y-66041500D01*
X70231291Y-66041500D01*
X70163170Y-66021498D01*
X70116677Y-65967842D01*
X70106028Y-65929108D01*
X70102598Y-65897540D01*
X70101745Y-65889684D01*
X70050615Y-65753295D01*
X69963261Y-65636739D01*
X69846705Y-65549385D01*
X69710316Y-65498255D01*
X69648134Y-65491500D01*
X68227015Y-65491500D01*
X68158894Y-65471498D01*
X68112401Y-65417842D01*
X68105308Y-65398111D01*
X68055236Y-65211239D01*
X68051490Y-65200947D01*
X67982496Y-65052988D01*
X108128245Y-65052988D01*
X108135313Y-65066434D01*
X108836857Y-65767978D01*
X108850801Y-65775592D01*
X108852634Y-65775461D01*
X108859249Y-65771210D01*
X109564746Y-65065713D01*
X109571176Y-65053938D01*
X109561880Y-65041923D01*
X109510675Y-65006069D01*
X109501180Y-65000586D01*
X109303722Y-64908510D01*
X109293430Y-64904764D01*
X109082981Y-64848375D01*
X109072188Y-64846472D01*
X108855144Y-64827483D01*
X108844194Y-64827483D01*
X108627150Y-64846472D01*
X108616357Y-64848375D01*
X108405908Y-64904764D01*
X108395616Y-64908510D01*
X108198158Y-65000586D01*
X108188663Y-65006069D01*
X108136621Y-65042509D01*
X108128245Y-65052988D01*
X67982496Y-65052988D01*
X67959414Y-65003489D01*
X67953931Y-64993994D01*
X67917491Y-64941952D01*
X67907012Y-64933576D01*
X67893566Y-64940644D01*
X66909095Y-65925115D01*
X66846783Y-65959141D01*
X66775968Y-65954076D01*
X66730905Y-65925115D01*
X65745713Y-64939923D01*
X65733938Y-64933493D01*
X65721923Y-64942789D01*
X65686069Y-64993994D01*
X65680586Y-65003489D01*
X65588510Y-65200947D01*
X65584764Y-65211239D01*
X65528375Y-65421688D01*
X65526472Y-65432480D01*
X65521657Y-65487516D01*
X65495794Y-65553634D01*
X65438291Y-65595274D01*
X65367403Y-65599215D01*
X65342886Y-65590730D01*
X65294225Y-65568039D01*
X65294224Y-65568039D01*
X65289243Y-65565716D01*
X65283935Y-65564294D01*
X65283933Y-65564293D01*
X65073402Y-65507881D01*
X65073400Y-65507881D01*
X65068087Y-65506457D01*
X64840000Y-65486502D01*
X64611913Y-65506457D01*
X64606600Y-65507881D01*
X64606598Y-65507881D01*
X64396067Y-65564293D01*
X64396065Y-65564294D01*
X64390757Y-65565716D01*
X64385776Y-65568039D01*
X64385775Y-65568039D01*
X64188238Y-65660151D01*
X64188233Y-65660154D01*
X64183251Y-65662477D01*
X64135280Y-65696067D01*
X64000211Y-65790643D01*
X64000208Y-65790645D01*
X63995700Y-65793802D01*
X63833802Y-65955700D01*
X63830645Y-65960208D01*
X63830643Y-65960211D01*
X63788752Y-66020038D01*
X63702477Y-66143251D01*
X63700154Y-66148233D01*
X63700151Y-66148238D01*
X63608039Y-66345775D01*
X63605716Y-66350757D01*
X63604294Y-66356065D01*
X63604293Y-66356067D01*
X63554972Y-66540135D01*
X63546457Y-66571913D01*
X63526502Y-66800000D01*
X63546457Y-67028087D01*
X63547881Y-67033400D01*
X63547881Y-67033402D01*
X63596350Y-67214287D01*
X63605716Y-67249243D01*
X63608039Y-67254224D01*
X63608039Y-67254225D01*
X63700151Y-67451762D01*
X63700154Y-67451767D01*
X63702477Y-67456749D01*
X63730106Y-67496207D01*
X63815524Y-67618196D01*
X63833802Y-67644300D01*
X63995700Y-67806198D01*
X64000208Y-67809355D01*
X64000211Y-67809357D01*
X64046526Y-67841787D01*
X64090854Y-67897244D01*
X64098163Y-67967864D01*
X64066132Y-68031224D01*
X64046526Y-68048213D01*
X64000211Y-68080643D01*
X64000208Y-68080645D01*
X63995700Y-68083802D01*
X63833802Y-68245700D01*
X63702477Y-68433251D01*
X63700154Y-68438233D01*
X63700151Y-68438238D01*
X63622407Y-68604962D01*
X63605716Y-68640757D01*
X63604294Y-68646065D01*
X63604293Y-68646067D01*
X63550721Y-68846000D01*
X63546457Y-68861913D01*
X63526502Y-69090000D01*
X63546457Y-69318087D01*
X63547881Y-69323400D01*
X63547881Y-69323402D01*
X63556851Y-69356876D01*
X63605716Y-69539243D01*
X63608039Y-69544224D01*
X63608039Y-69544225D01*
X63700151Y-69741762D01*
X63700154Y-69741767D01*
X63702477Y-69746749D01*
X63705634Y-69751257D01*
X63791542Y-69873946D01*
X63833802Y-69934300D01*
X63995700Y-70096198D01*
X64000208Y-70099355D01*
X64000211Y-70099357D01*
X64046526Y-70131787D01*
X64090854Y-70187244D01*
X64098163Y-70257864D01*
X64066132Y-70321224D01*
X64046526Y-70338213D01*
X64000211Y-70370643D01*
X64000208Y-70370645D01*
X63995700Y-70373802D01*
X63833802Y-70535700D01*
X63702477Y-70723251D01*
X63700154Y-70728233D01*
X63700151Y-70728238D01*
X63608039Y-70925775D01*
X63605716Y-70930757D01*
X63604294Y-70936065D01*
X63604293Y-70936067D01*
X63549613Y-71140135D01*
X63546457Y-71151913D01*
X63526502Y-71380000D01*
X63546457Y-71608087D01*
X63547881Y-71613400D01*
X63547881Y-71613402D01*
X63562390Y-71667548D01*
X63605716Y-71829243D01*
X63608039Y-71834224D01*
X63608039Y-71834225D01*
X63700151Y-72031762D01*
X63700154Y-72031767D01*
X63702477Y-72036749D01*
X63833802Y-72224300D01*
X63995700Y-72386198D01*
X64000208Y-72389355D01*
X64000211Y-72389357D01*
X64046526Y-72421787D01*
X64090854Y-72477244D01*
X64098163Y-72547864D01*
X64066132Y-72611224D01*
X64046526Y-72628213D01*
X64000211Y-72660643D01*
X64000208Y-72660645D01*
X63995700Y-72663802D01*
X63833802Y-72825700D01*
X63702477Y-73013251D01*
X63700154Y-73018233D01*
X63700151Y-73018238D01*
X63689140Y-73041852D01*
X63605716Y-73220757D01*
X63604294Y-73226065D01*
X63604293Y-73226067D01*
X63586863Y-73291118D01*
X63546457Y-73441913D01*
X63526502Y-73670000D01*
X63546457Y-73898087D01*
X63547881Y-73903400D01*
X63547881Y-73903402D01*
X63595927Y-74082709D01*
X63605716Y-74119243D01*
X63608039Y-74124224D01*
X63608039Y-74124225D01*
X63700151Y-74321762D01*
X63700154Y-74321767D01*
X63702477Y-74326749D01*
X63833802Y-74514300D01*
X63995700Y-74676198D01*
X64000208Y-74679355D01*
X64000211Y-74679357D01*
X64046526Y-74711787D01*
X64090854Y-74767244D01*
X64098163Y-74837864D01*
X64066132Y-74901224D01*
X64046526Y-74918213D01*
X64000211Y-74950643D01*
X64000208Y-74950645D01*
X63995700Y-74953802D01*
X63833802Y-75115700D01*
X63830645Y-75120208D01*
X63830643Y-75120211D01*
X63819276Y-75136445D01*
X63702477Y-75303251D01*
X63700154Y-75308233D01*
X63700151Y-75308238D01*
X63608039Y-75505775D01*
X63605716Y-75510757D01*
X63604294Y-75516065D01*
X63604293Y-75516067D01*
X63592992Y-75558243D01*
X63546457Y-75731913D01*
X63526502Y-75960000D01*
X62008500Y-75960000D01*
X62008500Y-64567988D01*
X66098576Y-64567988D01*
X66105644Y-64581434D01*
X66807188Y-65282978D01*
X66821132Y-65290592D01*
X66822965Y-65290461D01*
X66829580Y-65286210D01*
X67535077Y-64580713D01*
X67541507Y-64568938D01*
X67532211Y-64556923D01*
X67481006Y-64521069D01*
X67471511Y-64515586D01*
X67274053Y-64423510D01*
X67263761Y-64419764D01*
X67053312Y-64363375D01*
X67042519Y-64361472D01*
X66825475Y-64342483D01*
X66814525Y-64342483D01*
X66597481Y-64361472D01*
X66586688Y-64363375D01*
X66376239Y-64419764D01*
X66365947Y-64423510D01*
X66168489Y-64515586D01*
X66158994Y-64521069D01*
X66106952Y-64557509D01*
X66098576Y-64567988D01*
X62008500Y-64567988D01*
X62008500Y-60560987D01*
X65168721Y-60560987D01*
X65177548Y-60572605D01*
X65400281Y-60734430D01*
X65406961Y-60738670D01*
X65676572Y-60886890D01*
X65683707Y-60890247D01*
X65969770Y-61003508D01*
X65977296Y-61005953D01*
X66275279Y-61082462D01*
X66283050Y-61083945D01*
X66588278Y-61122503D01*
X66596169Y-61123000D01*
X66903831Y-61123000D01*
X66911722Y-61122503D01*
X67216950Y-61083945D01*
X67224721Y-61082462D01*
X67522704Y-61005953D01*
X67530230Y-61003508D01*
X67816293Y-60890247D01*
X67823428Y-60886890D01*
X68093039Y-60738670D01*
X68099719Y-60734430D01*
X68322823Y-60572336D01*
X68331246Y-60561413D01*
X68324342Y-60548552D01*
X68206777Y-60430987D01*
X109318390Y-60430987D01*
X109327217Y-60442605D01*
X109549950Y-60604430D01*
X109556630Y-60608670D01*
X109826241Y-60756890D01*
X109833376Y-60760247D01*
X110119439Y-60873508D01*
X110126965Y-60875953D01*
X110424948Y-60952462D01*
X110432719Y-60953945D01*
X110737947Y-60992503D01*
X110745838Y-60993000D01*
X111053500Y-60993000D01*
X111061391Y-60992503D01*
X111366619Y-60953945D01*
X111374390Y-60952462D01*
X111672373Y-60875953D01*
X111679899Y-60873508D01*
X111965962Y-60760247D01*
X111973097Y-60756890D01*
X112242708Y-60608670D01*
X112249388Y-60604430D01*
X112472492Y-60442336D01*
X112480915Y-60431413D01*
X112474011Y-60418552D01*
X110912481Y-58857022D01*
X110898537Y-58849408D01*
X110896704Y-58849539D01*
X110890089Y-58853790D01*
X109325003Y-60418876D01*
X109318390Y-60430987D01*
X68206777Y-60430987D01*
X66762812Y-58987022D01*
X66748868Y-58979408D01*
X66747035Y-58979539D01*
X66740420Y-58983790D01*
X65175334Y-60548876D01*
X65168721Y-60560987D01*
X62008500Y-60560987D01*
X62008500Y-58618958D01*
X64237290Y-58618958D01*
X64256607Y-58925994D01*
X64257600Y-58933855D01*
X64315246Y-59236046D01*
X64317217Y-59243723D01*
X64412284Y-59536309D01*
X64415199Y-59543672D01*
X64546189Y-59822041D01*
X64550001Y-59828974D01*
X64714851Y-60088736D01*
X64719495Y-60095129D01*
X64794497Y-60185790D01*
X64807014Y-60194245D01*
X64817752Y-60188038D01*
X66377978Y-58627812D01*
X66384356Y-58616132D01*
X67114408Y-58616132D01*
X67114539Y-58617965D01*
X67118790Y-58624580D01*
X68681145Y-60186935D01*
X68694407Y-60194177D01*
X68704512Y-60186988D01*
X68780505Y-60095129D01*
X68785149Y-60088736D01*
X68949999Y-59828974D01*
X68953811Y-59822041D01*
X69084801Y-59543672D01*
X69087716Y-59536309D01*
X69182783Y-59243723D01*
X69184754Y-59236046D01*
X69242400Y-58933855D01*
X69243393Y-58925994D01*
X69262710Y-58618958D01*
X69262710Y-58611042D01*
X69255029Y-58488958D01*
X108386959Y-58488958D01*
X108406276Y-58795994D01*
X108407269Y-58803855D01*
X108464915Y-59106046D01*
X108466886Y-59113723D01*
X108561953Y-59406309D01*
X108564868Y-59413672D01*
X108695858Y-59692041D01*
X108699670Y-59698974D01*
X108864520Y-59958736D01*
X108869164Y-59965129D01*
X108944166Y-60055790D01*
X108956683Y-60064245D01*
X108967421Y-60058038D01*
X110527647Y-58497812D01*
X110534025Y-58486132D01*
X111264077Y-58486132D01*
X111264208Y-58487965D01*
X111268459Y-58494580D01*
X112830814Y-60056935D01*
X112844076Y-60064177D01*
X112854181Y-60056988D01*
X112930174Y-59965129D01*
X112934818Y-59958736D01*
X113099668Y-59698974D01*
X113103480Y-59692041D01*
X113234470Y-59413672D01*
X113237385Y-59406309D01*
X113332452Y-59113723D01*
X113334423Y-59106046D01*
X113392069Y-58803855D01*
X113393062Y-58795994D01*
X113412379Y-58488958D01*
X113412379Y-58481042D01*
X113393062Y-58174006D01*
X113392069Y-58166145D01*
X113334423Y-57863954D01*
X113332452Y-57856277D01*
X113237385Y-57563691D01*
X113234470Y-57556328D01*
X113103480Y-57277959D01*
X113099668Y-57271026D01*
X112934818Y-57011264D01*
X112930174Y-57004871D01*
X112855172Y-56914210D01*
X112842655Y-56905755D01*
X112831917Y-56911962D01*
X111271691Y-58472188D01*
X111264077Y-58486132D01*
X110534025Y-58486132D01*
X110535261Y-58483868D01*
X110535130Y-58482035D01*
X110530879Y-58475420D01*
X108968524Y-56913065D01*
X108955262Y-56905823D01*
X108945157Y-56913012D01*
X108869164Y-57004871D01*
X108864520Y-57011264D01*
X108699670Y-57271026D01*
X108695858Y-57277959D01*
X108564868Y-57556328D01*
X108561953Y-57563691D01*
X108466886Y-57856277D01*
X108464915Y-57863954D01*
X108407269Y-58166145D01*
X108406276Y-58174006D01*
X108386959Y-58481042D01*
X108386959Y-58488958D01*
X69255029Y-58488958D01*
X69243393Y-58304006D01*
X69242400Y-58296145D01*
X69184754Y-57993954D01*
X69182783Y-57986277D01*
X69087716Y-57693691D01*
X69084801Y-57686328D01*
X68953811Y-57407959D01*
X68949999Y-57401026D01*
X68785149Y-57141264D01*
X68780505Y-57134871D01*
X68705503Y-57044210D01*
X68692986Y-57035755D01*
X68682248Y-57041962D01*
X67122022Y-58602188D01*
X67114408Y-58616132D01*
X66384356Y-58616132D01*
X66385592Y-58613868D01*
X66385461Y-58612035D01*
X66381210Y-58605420D01*
X64818855Y-57043065D01*
X64805593Y-57035823D01*
X64795488Y-57043012D01*
X64719495Y-57134871D01*
X64714851Y-57141264D01*
X64550001Y-57401026D01*
X64546189Y-57407959D01*
X64415199Y-57686328D01*
X64412284Y-57693691D01*
X64317217Y-57986277D01*
X64315246Y-57993954D01*
X64257600Y-58296145D01*
X64256607Y-58304006D01*
X64237290Y-58611042D01*
X64237290Y-58618958D01*
X62008500Y-58618958D01*
X62008500Y-56668587D01*
X65168754Y-56668587D01*
X65175658Y-56681448D01*
X66737188Y-58242978D01*
X66751132Y-58250592D01*
X66752965Y-58250461D01*
X66759580Y-58246210D01*
X68324666Y-56681124D01*
X68331279Y-56669013D01*
X68322452Y-56657395D01*
X68158927Y-56538587D01*
X109318423Y-56538587D01*
X109325327Y-56551448D01*
X110886857Y-58112978D01*
X110900801Y-58120592D01*
X110902634Y-58120461D01*
X110909249Y-58116210D01*
X112474335Y-56551124D01*
X112480948Y-56539013D01*
X112472121Y-56527395D01*
X112249388Y-56365570D01*
X112242708Y-56361330D01*
X111973097Y-56213110D01*
X111965962Y-56209753D01*
X111679899Y-56096492D01*
X111672373Y-56094047D01*
X111374390Y-56017538D01*
X111366619Y-56016055D01*
X111061391Y-55977497D01*
X111053500Y-55977000D01*
X110745838Y-55977000D01*
X110737947Y-55977497D01*
X110432719Y-56016055D01*
X110424948Y-56017538D01*
X110126965Y-56094047D01*
X110119439Y-56096492D01*
X109833376Y-56209753D01*
X109826241Y-56213110D01*
X109556630Y-56361330D01*
X109549950Y-56365570D01*
X109326846Y-56527664D01*
X109318423Y-56538587D01*
X68158927Y-56538587D01*
X68099719Y-56495570D01*
X68093039Y-56491330D01*
X67823428Y-56343110D01*
X67816293Y-56339753D01*
X67530230Y-56226492D01*
X67522704Y-56224047D01*
X67224721Y-56147538D01*
X67216950Y-56146055D01*
X66911722Y-56107497D01*
X66903831Y-56107000D01*
X66596169Y-56107000D01*
X66588278Y-56107497D01*
X66283050Y-56146055D01*
X66275279Y-56147538D01*
X65977296Y-56224047D01*
X65969770Y-56226492D01*
X65683707Y-56339753D01*
X65676572Y-56343110D01*
X65406961Y-56491330D01*
X65400281Y-56495570D01*
X65177177Y-56657664D01*
X65168754Y-56668587D01*
X62008500Y-56668587D01*
X62008500Y-54134500D01*
X62028502Y-54066379D01*
X62082158Y-54019886D01*
X62134500Y-54008500D01*
X115365500Y-54008500D01*
X115433621Y-54028502D01*
G37*
%TD.AperFunction*%
%TD*%
M02*
