%TF.GenerationSoftware,KiCad,Pcbnew,(6.0.4)*%
%TF.CreationDate,2022-10-01T01:36:45+02:00*%
%TF.ProjectId,RGB-YPbPr-Converter,5247422d-5950-4625-9072-2d436f6e7665,rev?*%
%TF.SameCoordinates,Original*%
%TF.FileFunction,Legend,Bot*%
%TF.FilePolarity,Positive*%
%FSLAX46Y46*%
G04 Gerber Fmt 4.6, Leading zero omitted, Abs format (unit mm)*
G04 Created by KiCad (PCBNEW (6.0.4)) date 2022-10-01 01:36:45*
%MOMM*%
%LPD*%
G01*
G04 APERTURE LIST*
%ADD10C,0.150000*%
%ADD11C,0.120000*%
G04 APERTURE END LIST*
D10*
X105533333Y-83052380D02*
X105533333Y-83766666D01*
X105580952Y-83909523D01*
X105676190Y-84004761D01*
X105819047Y-84052380D01*
X105914285Y-84052380D01*
X104580952Y-84052380D02*
X105057142Y-84052380D01*
X105057142Y-83052380D01*
X103676190Y-83957142D02*
X103723809Y-84004761D01*
X103866666Y-84052380D01*
X103961904Y-84052380D01*
X104104761Y-84004761D01*
X104200000Y-83909523D01*
X104247619Y-83814285D01*
X104295238Y-83623809D01*
X104295238Y-83480952D01*
X104247619Y-83290476D01*
X104200000Y-83195238D01*
X104104761Y-83100000D01*
X103961904Y-83052380D01*
X103866666Y-83052380D01*
X103723809Y-83100000D01*
X103676190Y-83147619D01*
X102961904Y-83052380D02*
X102961904Y-83766666D01*
X103009523Y-83909523D01*
X103104761Y-84004761D01*
X103247619Y-84052380D01*
X103342857Y-84052380D01*
X102009523Y-84052380D02*
X102485714Y-84052380D01*
X102485714Y-83052380D01*
X101104761Y-83957142D02*
X101152380Y-84004761D01*
X101295238Y-84052380D01*
X101390476Y-84052380D01*
X101533333Y-84004761D01*
X101628571Y-83909523D01*
X101676190Y-83814285D01*
X101723809Y-83623809D01*
X101723809Y-83480952D01*
X101676190Y-83290476D01*
X101628571Y-83195238D01*
X101533333Y-83100000D01*
X101390476Y-83052380D01*
X101295238Y-83052380D01*
X101152380Y-83100000D01*
X101104761Y-83147619D01*
X100390476Y-83052380D02*
X100390476Y-83766666D01*
X100438095Y-83909523D01*
X100533333Y-84004761D01*
X100676190Y-84052380D01*
X100771428Y-84052380D01*
X99438095Y-84052380D02*
X99914285Y-84052380D01*
X99914285Y-83052380D01*
X98533333Y-83957142D02*
X98580952Y-84004761D01*
X98723809Y-84052380D01*
X98819047Y-84052380D01*
X98961904Y-84004761D01*
X99057142Y-83909523D01*
X99104761Y-83814285D01*
X99152380Y-83623809D01*
X99152380Y-83480952D01*
X99104761Y-83290476D01*
X99057142Y-83195238D01*
X98961904Y-83100000D01*
X98819047Y-83052380D01*
X98723809Y-83052380D01*
X98580952Y-83100000D01*
X98533333Y-83147619D01*
%TO.C,R9*%
X75366666Y-67252380D02*
X75700000Y-66776190D01*
X75938095Y-67252380D02*
X75938095Y-66252380D01*
X75557142Y-66252380D01*
X75461904Y-66300000D01*
X75414285Y-66347619D01*
X75366666Y-66442857D01*
X75366666Y-66585714D01*
X75414285Y-66680952D01*
X75461904Y-66728571D01*
X75557142Y-66776190D01*
X75938095Y-66776190D01*
X74890476Y-67252380D02*
X74700000Y-67252380D01*
X74604761Y-67204761D01*
X74557142Y-67157142D01*
X74461904Y-67014285D01*
X74414285Y-66823809D01*
X74414285Y-66442857D01*
X74461904Y-66347619D01*
X74509523Y-66300000D01*
X74604761Y-66252380D01*
X74795238Y-66252380D01*
X74890476Y-66300000D01*
X74938095Y-66347619D01*
X74985714Y-66442857D01*
X74985714Y-66680952D01*
X74938095Y-66776190D01*
X74890476Y-66823809D01*
X74795238Y-66871428D01*
X74604761Y-66871428D01*
X74509523Y-66823809D01*
X74461904Y-66776190D01*
X74414285Y-66680952D01*
%TO.C,R8*%
X75366666Y-69552380D02*
X75700000Y-69076190D01*
X75938095Y-69552380D02*
X75938095Y-68552380D01*
X75557142Y-68552380D01*
X75461904Y-68600000D01*
X75414285Y-68647619D01*
X75366666Y-68742857D01*
X75366666Y-68885714D01*
X75414285Y-68980952D01*
X75461904Y-69028571D01*
X75557142Y-69076190D01*
X75938095Y-69076190D01*
X74795238Y-68980952D02*
X74890476Y-68933333D01*
X74938095Y-68885714D01*
X74985714Y-68790476D01*
X74985714Y-68742857D01*
X74938095Y-68647619D01*
X74890476Y-68600000D01*
X74795238Y-68552380D01*
X74604761Y-68552380D01*
X74509523Y-68600000D01*
X74461904Y-68647619D01*
X74414285Y-68742857D01*
X74414285Y-68790476D01*
X74461904Y-68885714D01*
X74509523Y-68933333D01*
X74604761Y-68980952D01*
X74795238Y-68980952D01*
X74890476Y-69028571D01*
X74938095Y-69076190D01*
X74985714Y-69171428D01*
X74985714Y-69361904D01*
X74938095Y-69457142D01*
X74890476Y-69504761D01*
X74795238Y-69552380D01*
X74604761Y-69552380D01*
X74509523Y-69504761D01*
X74461904Y-69457142D01*
X74414285Y-69361904D01*
X74414285Y-69171428D01*
X74461904Y-69076190D01*
X74509523Y-69028571D01*
X74604761Y-68980952D01*
%TO.C,C1*%
X81866666Y-66477142D02*
X81914285Y-66524761D01*
X82057142Y-66572380D01*
X82152380Y-66572380D01*
X82295238Y-66524761D01*
X82390476Y-66429523D01*
X82438095Y-66334285D01*
X82485714Y-66143809D01*
X82485714Y-66000952D01*
X82438095Y-65810476D01*
X82390476Y-65715238D01*
X82295238Y-65620000D01*
X82152380Y-65572380D01*
X82057142Y-65572380D01*
X81914285Y-65620000D01*
X81866666Y-65667619D01*
X80914285Y-66572380D02*
X81485714Y-66572380D01*
X81200000Y-66572380D02*
X81200000Y-65572380D01*
X81295238Y-65715238D01*
X81390476Y-65810476D01*
X81485714Y-65858095D01*
%TO.C,R7*%
X75366666Y-71852380D02*
X75700000Y-71376190D01*
X75938095Y-71852380D02*
X75938095Y-70852380D01*
X75557142Y-70852380D01*
X75461904Y-70900000D01*
X75414285Y-70947619D01*
X75366666Y-71042857D01*
X75366666Y-71185714D01*
X75414285Y-71280952D01*
X75461904Y-71328571D01*
X75557142Y-71376190D01*
X75938095Y-71376190D01*
X75033333Y-70852380D02*
X74366666Y-70852380D01*
X74795238Y-71852380D01*
D11*
%TO.C,R9*%
X72172936Y-66065000D02*
X72627064Y-66065000D01*
X72172936Y-67535000D02*
X72627064Y-67535000D01*
%TO.C,R8*%
X72172936Y-68365000D02*
X72627064Y-68365000D01*
X72172936Y-69835000D02*
X72627064Y-69835000D01*
%TO.C,C1*%
X81961252Y-68535000D02*
X81438748Y-68535000D01*
X81961252Y-67065000D02*
X81438748Y-67065000D01*
%TO.C,R7*%
X72172936Y-70665000D02*
X72627064Y-70665000D01*
X72172936Y-72135000D02*
X72627064Y-72135000D01*
%TD*%
M02*
