%TF.GenerationSoftware,KiCad,Pcbnew,7.0.2*%
%TF.CreationDate,2023-06-12T01:54:00+02:00*%
%TF.ProjectId,RGB-YPbPr-Converter,5247422d-5950-4625-9072-2d436f6e7665,rev?*%
%TF.SameCoordinates,Original*%
%TF.FileFunction,Drillmap*%
%TF.FilePolarity,Positive*%
%FSLAX45Y45*%
G04 Gerber Fmt 4.5, Leading zero omitted, Abs format (unit mm)*
G04 Created by KiCad (PCBNEW 7.0.2) date 2023-06-12 01:54:00*
%MOMM*%
%LPD*%
G01*
G04 APERTURE LIST*
%ADD10C,0.150000*%
%ADD11C,0.200000*%
%ADD12C,0.060000*%
%ADD13C,0.080000*%
%ADD14C,0.089000*%
%ADD15C,0.100000*%
%ADD16C,0.201000*%
%ADD17C,0.320000*%
G04 APERTURE END LIST*
D10*
X10000000Y-10000000D02*
X17000000Y-10000000D01*
X17000000Y-17000000D01*
X10000000Y-17000000D01*
X10000000Y-10000000D01*
D11*
D12*
X12060000Y-15505000D02*
X12120000Y-15565000D01*
X12120000Y-15505000D02*
X12060000Y-15565000D01*
X12390000Y-12120000D02*
X12450000Y-12180000D01*
X12450000Y-12120000D02*
X12390000Y-12180000D01*
X12394375Y-12645625D02*
X12454375Y-12705625D01*
X12454375Y-12645625D02*
X12394375Y-12705625D01*
X12400000Y-13190000D02*
X12460000Y-13250000D01*
X12460000Y-13190000D02*
X12400000Y-13250000D01*
X12435000Y-15585000D02*
X12495000Y-15645000D01*
X12495000Y-15585000D02*
X12435000Y-15645000D01*
X12440000Y-12290000D02*
X12500000Y-12350000D01*
X12500000Y-12290000D02*
X12440000Y-12350000D01*
X12945000Y-13255000D02*
X13005000Y-13315000D01*
X13005000Y-13255000D02*
X12945000Y-13315000D01*
X12950000Y-12745000D02*
X13010000Y-12805000D01*
X13010000Y-12745000D02*
X12950000Y-12805000D01*
X12950000Y-13600000D02*
X13010000Y-13660000D01*
X13010000Y-13600000D02*
X12950000Y-13660000D01*
X13070000Y-14020000D02*
X13130000Y-14080000D01*
X13130000Y-14020000D02*
X13070000Y-14080000D01*
X13110000Y-16025000D02*
X13170000Y-16085000D01*
X13170000Y-16025000D02*
X13110000Y-16085000D01*
X13210000Y-13185000D02*
X13270000Y-13245000D01*
X13270000Y-13185000D02*
X13210000Y-13245000D01*
X13230000Y-14360000D02*
X13290000Y-14420000D01*
X13290000Y-14360000D02*
X13230000Y-14420000D01*
X13230000Y-14605000D02*
X13290000Y-14665000D01*
X13290000Y-14605000D02*
X13230000Y-14665000D01*
X13360000Y-13320000D02*
X13420000Y-13380000D01*
X13420000Y-13320000D02*
X13360000Y-13380000D01*
X13360000Y-15415000D02*
X13420000Y-15475000D01*
X13420000Y-15415000D02*
X13360000Y-15475000D01*
X13400000Y-15045000D02*
X13460000Y-15105000D01*
X13460000Y-15045000D02*
X13400000Y-15105000D01*
X13540000Y-12470000D02*
X13600000Y-12530000D01*
X13600000Y-12470000D02*
X13540000Y-12530000D01*
X13775000Y-15385000D02*
X13835000Y-15445000D01*
X13835000Y-15385000D02*
X13775000Y-15445000D01*
X13805000Y-12675000D02*
X13865000Y-12735000D01*
X13865000Y-12675000D02*
X13805000Y-12735000D01*
X14030000Y-13110000D02*
X14090000Y-13170000D01*
X14090000Y-13110000D02*
X14030000Y-13170000D01*
X14090000Y-16050000D02*
X14150000Y-16110000D01*
X14150000Y-16050000D02*
X14090000Y-16110000D01*
X14130000Y-15385000D02*
X14190000Y-15445000D01*
X14190000Y-15385000D02*
X14130000Y-15445000D01*
X14210000Y-12390000D02*
X14270000Y-12450000D01*
X14270000Y-12390000D02*
X14210000Y-12450000D01*
X14210000Y-13330000D02*
X14270000Y-13390000D01*
X14270000Y-13330000D02*
X14210000Y-13390000D01*
D13*
X11930000Y-15195000D02*
G75*
G03*
X11930000Y-15195000I-40000J0D01*
G01*
X12130000Y-15195000D02*
G75*
G03*
X12130000Y-15195000I-40000J0D01*
G01*
D14*
X15641100Y-11296500D02*
X15641100Y-11385500D01*
X15596600Y-11341000D02*
X15685600Y-11341000D01*
X15641100Y-11550500D02*
X15641100Y-11639500D01*
X15596600Y-11595000D02*
X15685600Y-11595000D01*
X15641100Y-13201500D02*
X15641100Y-13290500D01*
X15596600Y-13246000D02*
X15685600Y-13246000D01*
X15641100Y-13455500D02*
X15641100Y-13544500D01*
X15596600Y-13500000D02*
X15685600Y-13500000D01*
X15641100Y-15109500D02*
X15641100Y-15198500D01*
X15596600Y-15154000D02*
X15685600Y-15154000D01*
X15641100Y-15363500D02*
X15641100Y-15452500D01*
X15596600Y-15408000D02*
X15685600Y-15408000D01*
D15*
X10815356Y-15229425D02*
X10815356Y-15158713D01*
X10744644Y-15158713D01*
X10744644Y-15229425D01*
X10815356Y-15229425D01*
D11*
X10730000Y-15094069D02*
X10730000Y-15294069D01*
X10730000Y-15294069D02*
G75*
G03*
X10830000Y-15294069I50000J0D01*
G01*
X10830000Y-15294069D02*
X10830000Y-15094069D01*
X10830000Y-15094069D02*
G75*
G03*
X10730000Y-15094069I-50000J0D01*
G01*
D15*
X10912889Y-12099356D02*
X10912889Y-12028644D01*
X10842177Y-12028644D01*
X10842177Y-12099356D01*
X10912889Y-12099356D01*
X10912889Y-12328356D02*
X10912889Y-12257644D01*
X10842177Y-12257644D01*
X10842177Y-12328356D01*
X10912889Y-12328356D01*
X10912889Y-12557356D02*
X10912889Y-12486644D01*
X10842177Y-12486644D01*
X10842177Y-12557356D01*
X10912889Y-12557356D01*
X10912889Y-12786356D02*
X10912889Y-12715644D01*
X10842177Y-12715644D01*
X10842177Y-12786356D01*
X10912889Y-12786356D01*
X10912889Y-13015356D02*
X10912889Y-12944644D01*
X10842177Y-12944644D01*
X10842177Y-13015356D01*
X10912889Y-13015356D01*
X11115356Y-15699425D02*
X11115356Y-15628713D01*
X11044644Y-15628713D01*
X11044644Y-15699425D01*
X11115356Y-15699425D01*
D11*
X10980000Y-15714069D02*
X11180000Y-15714069D01*
X11180000Y-15714069D02*
G75*
G03*
X11180000Y-15614069I0J50000D01*
G01*
X11180000Y-15614069D02*
X10980000Y-15614069D01*
X10980000Y-15614069D02*
G75*
G03*
X10980000Y-15714069I0J-50000D01*
G01*
D15*
X11166889Y-12213856D02*
X11166889Y-12143144D01*
X11096177Y-12143144D01*
X11096177Y-12213856D01*
X11166889Y-12213856D01*
X11166889Y-12442856D02*
X11166889Y-12372144D01*
X11096177Y-12372144D01*
X11096177Y-12442856D01*
X11166889Y-12442856D01*
X11166889Y-12671856D02*
X11166889Y-12601144D01*
X11096177Y-12601144D01*
X11096177Y-12671856D01*
X11166889Y-12671856D01*
X11166889Y-12900856D02*
X11166889Y-12830144D01*
X11096177Y-12830144D01*
X11096177Y-12900856D01*
X11166889Y-12900856D01*
X11166889Y-13129856D02*
X11166889Y-13059144D01*
X11096177Y-13059144D01*
X11096177Y-13129856D01*
X11166889Y-13129856D01*
X11415356Y-15229425D02*
X11415356Y-15158713D01*
X11344644Y-15158713D01*
X11344644Y-15229425D01*
X11415356Y-15229425D01*
D11*
X11330000Y-15094069D02*
X11330000Y-15294069D01*
X11330000Y-15294069D02*
G75*
G03*
X11430000Y-15294069I50000J0D01*
G01*
X11430000Y-15294069D02*
X11430000Y-15094069D01*
X11430000Y-15094069D02*
G75*
G03*
X11330000Y-15094069I-50000J0D01*
G01*
D15*
X11420889Y-12099356D02*
X11420889Y-12028644D01*
X11350177Y-12028644D01*
X11350177Y-12099356D01*
X11420889Y-12099356D01*
X11420889Y-12328356D02*
X11420889Y-12257644D01*
X11350177Y-12257644D01*
X11350177Y-12328356D01*
X11420889Y-12328356D01*
X11420889Y-12557356D02*
X11420889Y-12486644D01*
X11350177Y-12486644D01*
X11350177Y-12557356D01*
X11420889Y-12557356D01*
X11420889Y-12786356D02*
X11420889Y-12715644D01*
X11350177Y-12715644D01*
X11350177Y-12786356D01*
X11420889Y-12786356D01*
X11420889Y-13015356D02*
X11420889Y-12944644D01*
X11350177Y-12944644D01*
X11350177Y-13015356D01*
X11420889Y-13015356D01*
D16*
X16149100Y-11187500D02*
X16249600Y-11087000D01*
X16149100Y-10986500D01*
X16048600Y-11087000D01*
X16149100Y-11187500D01*
X16149100Y-12203500D02*
X16249600Y-12103000D01*
X16149100Y-12002500D01*
X16048600Y-12103000D01*
X16149100Y-12203500D01*
X16149100Y-13092500D02*
X16249600Y-12992000D01*
X16149100Y-12891500D01*
X16048600Y-12992000D01*
X16149100Y-13092500D01*
X16149100Y-14108500D02*
X16249600Y-14008000D01*
X16149100Y-13907500D01*
X16048600Y-14008000D01*
X16149100Y-14108500D01*
X16149100Y-15000500D02*
X16249600Y-14900000D01*
X16149100Y-14799500D01*
X16048600Y-14900000D01*
X16149100Y-15000500D01*
X16149100Y-16016500D02*
X16249600Y-15916000D01*
X16149100Y-15815500D01*
X16048600Y-15916000D01*
X16149100Y-16016500D01*
D17*
X10240000Y-10240000D02*
X10560000Y-10560000D01*
X10560000Y-10240000D02*
X10240000Y-10560000D01*
X10560000Y-10400000D02*
G75*
G03*
X10560000Y-10400000I-160000J0D01*
G01*
X10240000Y-16440000D02*
X10560000Y-16760000D01*
X10560000Y-16440000D02*
X10240000Y-16760000D01*
X10560000Y-16600000D02*
G75*
G03*
X10560000Y-16600000I-160000J0D01*
G01*
X10964533Y-11138500D02*
X11284533Y-11458500D01*
X11284533Y-11138500D02*
X10964533Y-11458500D01*
X11284533Y-11298500D02*
G75*
G03*
X11284533Y-11298500I-160000J0D01*
G01*
X10964533Y-13638500D02*
X11284533Y-13958500D01*
X11284533Y-13638500D02*
X10964533Y-13958500D01*
X11284533Y-13798500D02*
G75*
G03*
X11284533Y-13798500I-160000J0D01*
G01*
X16440000Y-10240000D02*
X16760000Y-10560000D01*
X16760000Y-10240000D02*
X16440000Y-10560000D01*
X16760000Y-10400000D02*
G75*
G03*
X16760000Y-10400000I-160000J0D01*
G01*
X16440000Y-16440000D02*
X16760000Y-16760000D01*
X16760000Y-16440000D02*
X16440000Y-16760000D01*
X16760000Y-16600000D02*
G75*
G03*
X16760000Y-16600000I-160000J0D01*
G01*
D11*
X10240119Y-17320024D02*
X10240119Y-17120024D01*
X10240119Y-17120024D02*
X10287738Y-17120024D01*
X10287738Y-17120024D02*
X10316310Y-17129548D01*
X10316310Y-17129548D02*
X10335357Y-17148595D01*
X10335357Y-17148595D02*
X10344881Y-17167643D01*
X10344881Y-17167643D02*
X10354405Y-17205738D01*
X10354405Y-17205738D02*
X10354405Y-17234310D01*
X10354405Y-17234310D02*
X10344881Y-17272405D01*
X10344881Y-17272405D02*
X10335357Y-17291452D01*
X10335357Y-17291452D02*
X10316310Y-17310500D01*
X10316310Y-17310500D02*
X10287738Y-17320024D01*
X10287738Y-17320024D02*
X10240119Y-17320024D01*
X10440119Y-17320024D02*
X10440119Y-17186690D01*
X10440119Y-17224786D02*
X10449643Y-17205738D01*
X10449643Y-17205738D02*
X10459167Y-17196214D01*
X10459167Y-17196214D02*
X10478214Y-17186690D01*
X10478214Y-17186690D02*
X10497262Y-17186690D01*
X10563929Y-17320024D02*
X10563929Y-17186690D01*
X10563929Y-17120024D02*
X10554405Y-17129548D01*
X10554405Y-17129548D02*
X10563929Y-17139071D01*
X10563929Y-17139071D02*
X10573452Y-17129548D01*
X10573452Y-17129548D02*
X10563929Y-17120024D01*
X10563929Y-17120024D02*
X10563929Y-17139071D01*
X10687738Y-17320024D02*
X10668690Y-17310500D01*
X10668690Y-17310500D02*
X10659167Y-17291452D01*
X10659167Y-17291452D02*
X10659167Y-17120024D01*
X10792500Y-17320024D02*
X10773452Y-17310500D01*
X10773452Y-17310500D02*
X10763929Y-17291452D01*
X10763929Y-17291452D02*
X10763929Y-17120024D01*
X11021071Y-17320024D02*
X11021071Y-17120024D01*
X11021071Y-17120024D02*
X11087738Y-17262881D01*
X11087738Y-17262881D02*
X11154405Y-17120024D01*
X11154405Y-17120024D02*
X11154405Y-17320024D01*
X11335357Y-17320024D02*
X11335357Y-17215262D01*
X11335357Y-17215262D02*
X11325833Y-17196214D01*
X11325833Y-17196214D02*
X11306786Y-17186690D01*
X11306786Y-17186690D02*
X11268690Y-17186690D01*
X11268690Y-17186690D02*
X11249643Y-17196214D01*
X11335357Y-17310500D02*
X11316309Y-17320024D01*
X11316309Y-17320024D02*
X11268690Y-17320024D01*
X11268690Y-17320024D02*
X11249643Y-17310500D01*
X11249643Y-17310500D02*
X11240119Y-17291452D01*
X11240119Y-17291452D02*
X11240119Y-17272405D01*
X11240119Y-17272405D02*
X11249643Y-17253357D01*
X11249643Y-17253357D02*
X11268690Y-17243833D01*
X11268690Y-17243833D02*
X11316309Y-17243833D01*
X11316309Y-17243833D02*
X11335357Y-17234310D01*
X11430595Y-17186690D02*
X11430595Y-17386690D01*
X11430595Y-17196214D02*
X11449643Y-17186690D01*
X11449643Y-17186690D02*
X11487738Y-17186690D01*
X11487738Y-17186690D02*
X11506786Y-17196214D01*
X11506786Y-17196214D02*
X11516309Y-17205738D01*
X11516309Y-17205738D02*
X11525833Y-17224786D01*
X11525833Y-17224786D02*
X11525833Y-17281929D01*
X11525833Y-17281929D02*
X11516309Y-17300976D01*
X11516309Y-17300976D02*
X11506786Y-17310500D01*
X11506786Y-17310500D02*
X11487738Y-17320024D01*
X11487738Y-17320024D02*
X11449643Y-17320024D01*
X11449643Y-17320024D02*
X11430595Y-17310500D01*
X11611548Y-17300976D02*
X11621071Y-17310500D01*
X11621071Y-17310500D02*
X11611548Y-17320024D01*
X11611548Y-17320024D02*
X11602024Y-17310500D01*
X11602024Y-17310500D02*
X11611548Y-17300976D01*
X11611548Y-17300976D02*
X11611548Y-17320024D01*
X11611548Y-17196214D02*
X11621071Y-17205738D01*
X11621071Y-17205738D02*
X11611548Y-17215262D01*
X11611548Y-17215262D02*
X11602024Y-17205738D01*
X11602024Y-17205738D02*
X11611548Y-17196214D01*
X11611548Y-17196214D02*
X11611548Y-17215262D01*
D12*
X9932500Y-17617500D02*
X9992500Y-17677500D01*
X9992500Y-17617500D02*
X9932500Y-17677500D01*
D11*
X10278214Y-17540024D02*
X10297262Y-17540024D01*
X10297262Y-17540024D02*
X10316310Y-17549548D01*
X10316310Y-17549548D02*
X10325833Y-17559071D01*
X10325833Y-17559071D02*
X10335357Y-17578119D01*
X10335357Y-17578119D02*
X10344881Y-17616214D01*
X10344881Y-17616214D02*
X10344881Y-17663833D01*
X10344881Y-17663833D02*
X10335357Y-17701929D01*
X10335357Y-17701929D02*
X10325833Y-17720976D01*
X10325833Y-17720976D02*
X10316310Y-17730500D01*
X10316310Y-17730500D02*
X10297262Y-17740024D01*
X10297262Y-17740024D02*
X10278214Y-17740024D01*
X10278214Y-17740024D02*
X10259167Y-17730500D01*
X10259167Y-17730500D02*
X10249643Y-17720976D01*
X10249643Y-17720976D02*
X10240119Y-17701929D01*
X10240119Y-17701929D02*
X10230595Y-17663833D01*
X10230595Y-17663833D02*
X10230595Y-17616214D01*
X10230595Y-17616214D02*
X10240119Y-17578119D01*
X10240119Y-17578119D02*
X10249643Y-17559071D01*
X10249643Y-17559071D02*
X10259167Y-17549548D01*
X10259167Y-17549548D02*
X10278214Y-17540024D01*
X10430595Y-17720976D02*
X10440119Y-17730500D01*
X10440119Y-17730500D02*
X10430595Y-17740024D01*
X10430595Y-17740024D02*
X10421071Y-17730500D01*
X10421071Y-17730500D02*
X10430595Y-17720976D01*
X10430595Y-17720976D02*
X10430595Y-17740024D01*
X10611548Y-17540024D02*
X10573452Y-17540024D01*
X10573452Y-17540024D02*
X10554405Y-17549548D01*
X10554405Y-17549548D02*
X10544881Y-17559071D01*
X10544881Y-17559071D02*
X10525833Y-17587643D01*
X10525833Y-17587643D02*
X10516310Y-17625738D01*
X10516310Y-17625738D02*
X10516310Y-17701929D01*
X10516310Y-17701929D02*
X10525833Y-17720976D01*
X10525833Y-17720976D02*
X10535357Y-17730500D01*
X10535357Y-17730500D02*
X10554405Y-17740024D01*
X10554405Y-17740024D02*
X10592500Y-17740024D01*
X10592500Y-17740024D02*
X10611548Y-17730500D01*
X10611548Y-17730500D02*
X10621071Y-17720976D01*
X10621071Y-17720976D02*
X10630595Y-17701929D01*
X10630595Y-17701929D02*
X10630595Y-17654310D01*
X10630595Y-17654310D02*
X10621071Y-17635262D01*
X10621071Y-17635262D02*
X10611548Y-17625738D01*
X10611548Y-17625738D02*
X10592500Y-17616214D01*
X10592500Y-17616214D02*
X10554405Y-17616214D01*
X10554405Y-17616214D02*
X10535357Y-17625738D01*
X10535357Y-17625738D02*
X10525833Y-17635262D01*
X10525833Y-17635262D02*
X10516310Y-17654310D01*
X10754405Y-17540024D02*
X10773452Y-17540024D01*
X10773452Y-17540024D02*
X10792500Y-17549548D01*
X10792500Y-17549548D02*
X10802024Y-17559071D01*
X10802024Y-17559071D02*
X10811548Y-17578119D01*
X10811548Y-17578119D02*
X10821071Y-17616214D01*
X10821071Y-17616214D02*
X10821071Y-17663833D01*
X10821071Y-17663833D02*
X10811548Y-17701929D01*
X10811548Y-17701929D02*
X10802024Y-17720976D01*
X10802024Y-17720976D02*
X10792500Y-17730500D01*
X10792500Y-17730500D02*
X10773452Y-17740024D01*
X10773452Y-17740024D02*
X10754405Y-17740024D01*
X10754405Y-17740024D02*
X10735357Y-17730500D01*
X10735357Y-17730500D02*
X10725833Y-17720976D01*
X10725833Y-17720976D02*
X10716310Y-17701929D01*
X10716310Y-17701929D02*
X10706786Y-17663833D01*
X10706786Y-17663833D02*
X10706786Y-17616214D01*
X10706786Y-17616214D02*
X10716310Y-17578119D01*
X10716310Y-17578119D02*
X10725833Y-17559071D01*
X10725833Y-17559071D02*
X10735357Y-17549548D01*
X10735357Y-17549548D02*
X10754405Y-17540024D01*
X10944881Y-17540024D02*
X10963929Y-17540024D01*
X10963929Y-17540024D02*
X10982976Y-17549548D01*
X10982976Y-17549548D02*
X10992500Y-17559071D01*
X10992500Y-17559071D02*
X11002024Y-17578119D01*
X11002024Y-17578119D02*
X11011548Y-17616214D01*
X11011548Y-17616214D02*
X11011548Y-17663833D01*
X11011548Y-17663833D02*
X11002024Y-17701929D01*
X11002024Y-17701929D02*
X10992500Y-17720976D01*
X10992500Y-17720976D02*
X10982976Y-17730500D01*
X10982976Y-17730500D02*
X10963929Y-17740024D01*
X10963929Y-17740024D02*
X10944881Y-17740024D01*
X10944881Y-17740024D02*
X10925833Y-17730500D01*
X10925833Y-17730500D02*
X10916310Y-17720976D01*
X10916310Y-17720976D02*
X10906786Y-17701929D01*
X10906786Y-17701929D02*
X10897262Y-17663833D01*
X10897262Y-17663833D02*
X10897262Y-17616214D01*
X10897262Y-17616214D02*
X10906786Y-17578119D01*
X10906786Y-17578119D02*
X10916310Y-17559071D01*
X10916310Y-17559071D02*
X10925833Y-17549548D01*
X10925833Y-17549548D02*
X10944881Y-17540024D01*
X11097262Y-17740024D02*
X11097262Y-17606690D01*
X11097262Y-17625738D02*
X11106786Y-17616214D01*
X11106786Y-17616214D02*
X11125833Y-17606690D01*
X11125833Y-17606690D02*
X11154405Y-17606690D01*
X11154405Y-17606690D02*
X11173452Y-17616214D01*
X11173452Y-17616214D02*
X11182976Y-17635262D01*
X11182976Y-17635262D02*
X11182976Y-17740024D01*
X11182976Y-17635262D02*
X11192500Y-17616214D01*
X11192500Y-17616214D02*
X11211548Y-17606690D01*
X11211548Y-17606690D02*
X11240119Y-17606690D01*
X11240119Y-17606690D02*
X11259167Y-17616214D01*
X11259167Y-17616214D02*
X11268690Y-17635262D01*
X11268690Y-17635262D02*
X11268690Y-17740024D01*
X11363929Y-17740024D02*
X11363929Y-17606690D01*
X11363929Y-17625738D02*
X11373452Y-17616214D01*
X11373452Y-17616214D02*
X11392500Y-17606690D01*
X11392500Y-17606690D02*
X11421071Y-17606690D01*
X11421071Y-17606690D02*
X11440119Y-17616214D01*
X11440119Y-17616214D02*
X11449643Y-17635262D01*
X11449643Y-17635262D02*
X11449643Y-17740024D01*
X11449643Y-17635262D02*
X11459167Y-17616214D01*
X11459167Y-17616214D02*
X11478214Y-17606690D01*
X11478214Y-17606690D02*
X11506786Y-17606690D01*
X11506786Y-17606690D02*
X11525833Y-17616214D01*
X11525833Y-17616214D02*
X11535357Y-17635262D01*
X11535357Y-17635262D02*
X11535357Y-17740024D01*
X11925833Y-17530500D02*
X11754405Y-17787643D01*
X12182976Y-17540024D02*
X12202024Y-17540024D01*
X12202024Y-17540024D02*
X12221072Y-17549548D01*
X12221072Y-17549548D02*
X12230595Y-17559071D01*
X12230595Y-17559071D02*
X12240119Y-17578119D01*
X12240119Y-17578119D02*
X12249643Y-17616214D01*
X12249643Y-17616214D02*
X12249643Y-17663833D01*
X12249643Y-17663833D02*
X12240119Y-17701929D01*
X12240119Y-17701929D02*
X12230595Y-17720976D01*
X12230595Y-17720976D02*
X12221072Y-17730500D01*
X12221072Y-17730500D02*
X12202024Y-17740024D01*
X12202024Y-17740024D02*
X12182976Y-17740024D01*
X12182976Y-17740024D02*
X12163929Y-17730500D01*
X12163929Y-17730500D02*
X12154405Y-17720976D01*
X12154405Y-17720976D02*
X12144881Y-17701929D01*
X12144881Y-17701929D02*
X12135357Y-17663833D01*
X12135357Y-17663833D02*
X12135357Y-17616214D01*
X12135357Y-17616214D02*
X12144881Y-17578119D01*
X12144881Y-17578119D02*
X12154405Y-17559071D01*
X12154405Y-17559071D02*
X12163929Y-17549548D01*
X12163929Y-17549548D02*
X12182976Y-17540024D01*
X12335357Y-17720976D02*
X12344881Y-17730500D01*
X12344881Y-17730500D02*
X12335357Y-17740024D01*
X12335357Y-17740024D02*
X12325833Y-17730500D01*
X12325833Y-17730500D02*
X12335357Y-17720976D01*
X12335357Y-17720976D02*
X12335357Y-17740024D01*
X12468691Y-17540024D02*
X12487738Y-17540024D01*
X12487738Y-17540024D02*
X12506786Y-17549548D01*
X12506786Y-17549548D02*
X12516310Y-17559071D01*
X12516310Y-17559071D02*
X12525833Y-17578119D01*
X12525833Y-17578119D02*
X12535357Y-17616214D01*
X12535357Y-17616214D02*
X12535357Y-17663833D01*
X12535357Y-17663833D02*
X12525833Y-17701929D01*
X12525833Y-17701929D02*
X12516310Y-17720976D01*
X12516310Y-17720976D02*
X12506786Y-17730500D01*
X12506786Y-17730500D02*
X12487738Y-17740024D01*
X12487738Y-17740024D02*
X12468691Y-17740024D01*
X12468691Y-17740024D02*
X12449643Y-17730500D01*
X12449643Y-17730500D02*
X12440119Y-17720976D01*
X12440119Y-17720976D02*
X12430595Y-17701929D01*
X12430595Y-17701929D02*
X12421072Y-17663833D01*
X12421072Y-17663833D02*
X12421072Y-17616214D01*
X12421072Y-17616214D02*
X12430595Y-17578119D01*
X12430595Y-17578119D02*
X12440119Y-17559071D01*
X12440119Y-17559071D02*
X12449643Y-17549548D01*
X12449643Y-17549548D02*
X12468691Y-17540024D01*
X12611548Y-17559071D02*
X12621072Y-17549548D01*
X12621072Y-17549548D02*
X12640119Y-17540024D01*
X12640119Y-17540024D02*
X12687738Y-17540024D01*
X12687738Y-17540024D02*
X12706786Y-17549548D01*
X12706786Y-17549548D02*
X12716310Y-17559071D01*
X12716310Y-17559071D02*
X12725833Y-17578119D01*
X12725833Y-17578119D02*
X12725833Y-17597167D01*
X12725833Y-17597167D02*
X12716310Y-17625738D01*
X12716310Y-17625738D02*
X12602024Y-17740024D01*
X12602024Y-17740024D02*
X12725833Y-17740024D01*
X12792500Y-17540024D02*
X12916310Y-17540024D01*
X12916310Y-17540024D02*
X12849643Y-17616214D01*
X12849643Y-17616214D02*
X12878214Y-17616214D01*
X12878214Y-17616214D02*
X12897262Y-17625738D01*
X12897262Y-17625738D02*
X12906786Y-17635262D01*
X12906786Y-17635262D02*
X12916310Y-17654310D01*
X12916310Y-17654310D02*
X12916310Y-17701929D01*
X12916310Y-17701929D02*
X12906786Y-17720976D01*
X12906786Y-17720976D02*
X12897262Y-17730500D01*
X12897262Y-17730500D02*
X12878214Y-17740024D01*
X12878214Y-17740024D02*
X12821072Y-17740024D01*
X12821072Y-17740024D02*
X12802024Y-17730500D01*
X12802024Y-17730500D02*
X12792500Y-17720976D01*
X13087738Y-17540024D02*
X13049643Y-17540024D01*
X13049643Y-17540024D02*
X13030595Y-17549548D01*
X13030595Y-17549548D02*
X13021072Y-17559071D01*
X13021072Y-17559071D02*
X13002024Y-17587643D01*
X13002024Y-17587643D02*
X12992500Y-17625738D01*
X12992500Y-17625738D02*
X12992500Y-17701929D01*
X12992500Y-17701929D02*
X13002024Y-17720976D01*
X13002024Y-17720976D02*
X13011548Y-17730500D01*
X13011548Y-17730500D02*
X13030595Y-17740024D01*
X13030595Y-17740024D02*
X13068691Y-17740024D01*
X13068691Y-17740024D02*
X13087738Y-17730500D01*
X13087738Y-17730500D02*
X13097262Y-17720976D01*
X13097262Y-17720976D02*
X13106786Y-17701929D01*
X13106786Y-17701929D02*
X13106786Y-17654310D01*
X13106786Y-17654310D02*
X13097262Y-17635262D01*
X13097262Y-17635262D02*
X13087738Y-17625738D01*
X13087738Y-17625738D02*
X13068691Y-17616214D01*
X13068691Y-17616214D02*
X13030595Y-17616214D01*
X13030595Y-17616214D02*
X13011548Y-17625738D01*
X13011548Y-17625738D02*
X13002024Y-17635262D01*
X13002024Y-17635262D02*
X12992500Y-17654310D01*
X13182976Y-17540024D02*
X13182976Y-17578119D01*
X13259167Y-17540024D02*
X13259167Y-17578119D01*
X13554405Y-17816214D02*
X13544881Y-17806690D01*
X13544881Y-17806690D02*
X13525834Y-17778119D01*
X13525834Y-17778119D02*
X13516310Y-17759071D01*
X13516310Y-17759071D02*
X13506786Y-17730500D01*
X13506786Y-17730500D02*
X13497262Y-17682881D01*
X13497262Y-17682881D02*
X13497262Y-17644786D01*
X13497262Y-17644786D02*
X13506786Y-17597167D01*
X13506786Y-17597167D02*
X13516310Y-17568595D01*
X13516310Y-17568595D02*
X13525834Y-17549548D01*
X13525834Y-17549548D02*
X13544881Y-17520976D01*
X13544881Y-17520976D02*
X13554405Y-17511452D01*
X13621072Y-17559071D02*
X13630595Y-17549548D01*
X13630595Y-17549548D02*
X13649643Y-17540024D01*
X13649643Y-17540024D02*
X13697262Y-17540024D01*
X13697262Y-17540024D02*
X13716310Y-17549548D01*
X13716310Y-17549548D02*
X13725834Y-17559071D01*
X13725834Y-17559071D02*
X13735357Y-17578119D01*
X13735357Y-17578119D02*
X13735357Y-17597167D01*
X13735357Y-17597167D02*
X13725834Y-17625738D01*
X13725834Y-17625738D02*
X13611548Y-17740024D01*
X13611548Y-17740024D02*
X13735357Y-17740024D01*
X13916310Y-17540024D02*
X13821072Y-17540024D01*
X13821072Y-17540024D02*
X13811548Y-17635262D01*
X13811548Y-17635262D02*
X13821072Y-17625738D01*
X13821072Y-17625738D02*
X13840119Y-17616214D01*
X13840119Y-17616214D02*
X13887738Y-17616214D01*
X13887738Y-17616214D02*
X13906786Y-17625738D01*
X13906786Y-17625738D02*
X13916310Y-17635262D01*
X13916310Y-17635262D02*
X13925834Y-17654310D01*
X13925834Y-17654310D02*
X13925834Y-17701929D01*
X13925834Y-17701929D02*
X13916310Y-17720976D01*
X13916310Y-17720976D02*
X13906786Y-17730500D01*
X13906786Y-17730500D02*
X13887738Y-17740024D01*
X13887738Y-17740024D02*
X13840119Y-17740024D01*
X13840119Y-17740024D02*
X13821072Y-17730500D01*
X13821072Y-17730500D02*
X13811548Y-17720976D01*
X14163929Y-17740024D02*
X14163929Y-17540024D01*
X14249643Y-17740024D02*
X14249643Y-17635262D01*
X14249643Y-17635262D02*
X14240119Y-17616214D01*
X14240119Y-17616214D02*
X14221072Y-17606690D01*
X14221072Y-17606690D02*
X14192500Y-17606690D01*
X14192500Y-17606690D02*
X14173453Y-17616214D01*
X14173453Y-17616214D02*
X14163929Y-17625738D01*
X14373453Y-17740024D02*
X14354405Y-17730500D01*
X14354405Y-17730500D02*
X14344881Y-17720976D01*
X14344881Y-17720976D02*
X14335357Y-17701929D01*
X14335357Y-17701929D02*
X14335357Y-17644786D01*
X14335357Y-17644786D02*
X14344881Y-17625738D01*
X14344881Y-17625738D02*
X14354405Y-17616214D01*
X14354405Y-17616214D02*
X14373453Y-17606690D01*
X14373453Y-17606690D02*
X14402024Y-17606690D01*
X14402024Y-17606690D02*
X14421072Y-17616214D01*
X14421072Y-17616214D02*
X14430596Y-17625738D01*
X14430596Y-17625738D02*
X14440119Y-17644786D01*
X14440119Y-17644786D02*
X14440119Y-17701929D01*
X14440119Y-17701929D02*
X14430596Y-17720976D01*
X14430596Y-17720976D02*
X14421072Y-17730500D01*
X14421072Y-17730500D02*
X14402024Y-17740024D01*
X14402024Y-17740024D02*
X14373453Y-17740024D01*
X14554405Y-17740024D02*
X14535357Y-17730500D01*
X14535357Y-17730500D02*
X14525834Y-17711452D01*
X14525834Y-17711452D02*
X14525834Y-17540024D01*
X14706786Y-17730500D02*
X14687738Y-17740024D01*
X14687738Y-17740024D02*
X14649643Y-17740024D01*
X14649643Y-17740024D02*
X14630596Y-17730500D01*
X14630596Y-17730500D02*
X14621072Y-17711452D01*
X14621072Y-17711452D02*
X14621072Y-17635262D01*
X14621072Y-17635262D02*
X14630596Y-17616214D01*
X14630596Y-17616214D02*
X14649643Y-17606690D01*
X14649643Y-17606690D02*
X14687738Y-17606690D01*
X14687738Y-17606690D02*
X14706786Y-17616214D01*
X14706786Y-17616214D02*
X14716310Y-17635262D01*
X14716310Y-17635262D02*
X14716310Y-17654310D01*
X14716310Y-17654310D02*
X14621072Y-17673357D01*
X14792500Y-17730500D02*
X14811548Y-17740024D01*
X14811548Y-17740024D02*
X14849643Y-17740024D01*
X14849643Y-17740024D02*
X14868691Y-17730500D01*
X14868691Y-17730500D02*
X14878215Y-17711452D01*
X14878215Y-17711452D02*
X14878215Y-17701929D01*
X14878215Y-17701929D02*
X14868691Y-17682881D01*
X14868691Y-17682881D02*
X14849643Y-17673357D01*
X14849643Y-17673357D02*
X14821072Y-17673357D01*
X14821072Y-17673357D02*
X14802024Y-17663833D01*
X14802024Y-17663833D02*
X14792500Y-17644786D01*
X14792500Y-17644786D02*
X14792500Y-17635262D01*
X14792500Y-17635262D02*
X14802024Y-17616214D01*
X14802024Y-17616214D02*
X14821072Y-17606690D01*
X14821072Y-17606690D02*
X14849643Y-17606690D01*
X14849643Y-17606690D02*
X14868691Y-17616214D01*
X14944881Y-17816214D02*
X14954405Y-17806690D01*
X14954405Y-17806690D02*
X14973453Y-17778119D01*
X14973453Y-17778119D02*
X14982977Y-17759071D01*
X14982977Y-17759071D02*
X14992500Y-17730500D01*
X14992500Y-17730500D02*
X15002024Y-17682881D01*
X15002024Y-17682881D02*
X15002024Y-17644786D01*
X15002024Y-17644786D02*
X14992500Y-17597167D01*
X14992500Y-17597167D02*
X14982977Y-17568595D01*
X14982977Y-17568595D02*
X14973453Y-17549548D01*
X14973453Y-17549548D02*
X14954405Y-17520976D01*
X14954405Y-17520976D02*
X14944881Y-17511452D01*
D13*
X9992500Y-17911500D02*
G75*
G03*
X9992500Y-17911500I-40000J0D01*
G01*
D11*
X10278214Y-17804024D02*
X10297262Y-17804024D01*
X10297262Y-17804024D02*
X10316310Y-17813548D01*
X10316310Y-17813548D02*
X10325833Y-17823071D01*
X10325833Y-17823071D02*
X10335357Y-17842119D01*
X10335357Y-17842119D02*
X10344881Y-17880214D01*
X10344881Y-17880214D02*
X10344881Y-17927833D01*
X10344881Y-17927833D02*
X10335357Y-17965929D01*
X10335357Y-17965929D02*
X10325833Y-17984976D01*
X10325833Y-17984976D02*
X10316310Y-17994500D01*
X10316310Y-17994500D02*
X10297262Y-18004024D01*
X10297262Y-18004024D02*
X10278214Y-18004024D01*
X10278214Y-18004024D02*
X10259167Y-17994500D01*
X10259167Y-17994500D02*
X10249643Y-17984976D01*
X10249643Y-17984976D02*
X10240119Y-17965929D01*
X10240119Y-17965929D02*
X10230595Y-17927833D01*
X10230595Y-17927833D02*
X10230595Y-17880214D01*
X10230595Y-17880214D02*
X10240119Y-17842119D01*
X10240119Y-17842119D02*
X10249643Y-17823071D01*
X10249643Y-17823071D02*
X10259167Y-17813548D01*
X10259167Y-17813548D02*
X10278214Y-17804024D01*
X10430595Y-17984976D02*
X10440119Y-17994500D01*
X10440119Y-17994500D02*
X10430595Y-18004024D01*
X10430595Y-18004024D02*
X10421071Y-17994500D01*
X10421071Y-17994500D02*
X10430595Y-17984976D01*
X10430595Y-17984976D02*
X10430595Y-18004024D01*
X10554405Y-17889738D02*
X10535357Y-17880214D01*
X10535357Y-17880214D02*
X10525833Y-17870690D01*
X10525833Y-17870690D02*
X10516310Y-17851643D01*
X10516310Y-17851643D02*
X10516310Y-17842119D01*
X10516310Y-17842119D02*
X10525833Y-17823071D01*
X10525833Y-17823071D02*
X10535357Y-17813548D01*
X10535357Y-17813548D02*
X10554405Y-17804024D01*
X10554405Y-17804024D02*
X10592500Y-17804024D01*
X10592500Y-17804024D02*
X10611548Y-17813548D01*
X10611548Y-17813548D02*
X10621071Y-17823071D01*
X10621071Y-17823071D02*
X10630595Y-17842119D01*
X10630595Y-17842119D02*
X10630595Y-17851643D01*
X10630595Y-17851643D02*
X10621071Y-17870690D01*
X10621071Y-17870690D02*
X10611548Y-17880214D01*
X10611548Y-17880214D02*
X10592500Y-17889738D01*
X10592500Y-17889738D02*
X10554405Y-17889738D01*
X10554405Y-17889738D02*
X10535357Y-17899262D01*
X10535357Y-17899262D02*
X10525833Y-17908786D01*
X10525833Y-17908786D02*
X10516310Y-17927833D01*
X10516310Y-17927833D02*
X10516310Y-17965929D01*
X10516310Y-17965929D02*
X10525833Y-17984976D01*
X10525833Y-17984976D02*
X10535357Y-17994500D01*
X10535357Y-17994500D02*
X10554405Y-18004024D01*
X10554405Y-18004024D02*
X10592500Y-18004024D01*
X10592500Y-18004024D02*
X10611548Y-17994500D01*
X10611548Y-17994500D02*
X10621071Y-17984976D01*
X10621071Y-17984976D02*
X10630595Y-17965929D01*
X10630595Y-17965929D02*
X10630595Y-17927833D01*
X10630595Y-17927833D02*
X10621071Y-17908786D01*
X10621071Y-17908786D02*
X10611548Y-17899262D01*
X10611548Y-17899262D02*
X10592500Y-17889738D01*
X10754405Y-17804024D02*
X10773452Y-17804024D01*
X10773452Y-17804024D02*
X10792500Y-17813548D01*
X10792500Y-17813548D02*
X10802024Y-17823071D01*
X10802024Y-17823071D02*
X10811548Y-17842119D01*
X10811548Y-17842119D02*
X10821071Y-17880214D01*
X10821071Y-17880214D02*
X10821071Y-17927833D01*
X10821071Y-17927833D02*
X10811548Y-17965929D01*
X10811548Y-17965929D02*
X10802024Y-17984976D01*
X10802024Y-17984976D02*
X10792500Y-17994500D01*
X10792500Y-17994500D02*
X10773452Y-18004024D01*
X10773452Y-18004024D02*
X10754405Y-18004024D01*
X10754405Y-18004024D02*
X10735357Y-17994500D01*
X10735357Y-17994500D02*
X10725833Y-17984976D01*
X10725833Y-17984976D02*
X10716310Y-17965929D01*
X10716310Y-17965929D02*
X10706786Y-17927833D01*
X10706786Y-17927833D02*
X10706786Y-17880214D01*
X10706786Y-17880214D02*
X10716310Y-17842119D01*
X10716310Y-17842119D02*
X10725833Y-17823071D01*
X10725833Y-17823071D02*
X10735357Y-17813548D01*
X10735357Y-17813548D02*
X10754405Y-17804024D01*
X10944881Y-17804024D02*
X10963929Y-17804024D01*
X10963929Y-17804024D02*
X10982976Y-17813548D01*
X10982976Y-17813548D02*
X10992500Y-17823071D01*
X10992500Y-17823071D02*
X11002024Y-17842119D01*
X11002024Y-17842119D02*
X11011548Y-17880214D01*
X11011548Y-17880214D02*
X11011548Y-17927833D01*
X11011548Y-17927833D02*
X11002024Y-17965929D01*
X11002024Y-17965929D02*
X10992500Y-17984976D01*
X10992500Y-17984976D02*
X10982976Y-17994500D01*
X10982976Y-17994500D02*
X10963929Y-18004024D01*
X10963929Y-18004024D02*
X10944881Y-18004024D01*
X10944881Y-18004024D02*
X10925833Y-17994500D01*
X10925833Y-17994500D02*
X10916310Y-17984976D01*
X10916310Y-17984976D02*
X10906786Y-17965929D01*
X10906786Y-17965929D02*
X10897262Y-17927833D01*
X10897262Y-17927833D02*
X10897262Y-17880214D01*
X10897262Y-17880214D02*
X10906786Y-17842119D01*
X10906786Y-17842119D02*
X10916310Y-17823071D01*
X10916310Y-17823071D02*
X10925833Y-17813548D01*
X10925833Y-17813548D02*
X10944881Y-17804024D01*
X11097262Y-18004024D02*
X11097262Y-17870690D01*
X11097262Y-17889738D02*
X11106786Y-17880214D01*
X11106786Y-17880214D02*
X11125833Y-17870690D01*
X11125833Y-17870690D02*
X11154405Y-17870690D01*
X11154405Y-17870690D02*
X11173452Y-17880214D01*
X11173452Y-17880214D02*
X11182976Y-17899262D01*
X11182976Y-17899262D02*
X11182976Y-18004024D01*
X11182976Y-17899262D02*
X11192500Y-17880214D01*
X11192500Y-17880214D02*
X11211548Y-17870690D01*
X11211548Y-17870690D02*
X11240119Y-17870690D01*
X11240119Y-17870690D02*
X11259167Y-17880214D01*
X11259167Y-17880214D02*
X11268690Y-17899262D01*
X11268690Y-17899262D02*
X11268690Y-18004024D01*
X11363929Y-18004024D02*
X11363929Y-17870690D01*
X11363929Y-17889738D02*
X11373452Y-17880214D01*
X11373452Y-17880214D02*
X11392500Y-17870690D01*
X11392500Y-17870690D02*
X11421071Y-17870690D01*
X11421071Y-17870690D02*
X11440119Y-17880214D01*
X11440119Y-17880214D02*
X11449643Y-17899262D01*
X11449643Y-17899262D02*
X11449643Y-18004024D01*
X11449643Y-17899262D02*
X11459167Y-17880214D01*
X11459167Y-17880214D02*
X11478214Y-17870690D01*
X11478214Y-17870690D02*
X11506786Y-17870690D01*
X11506786Y-17870690D02*
X11525833Y-17880214D01*
X11525833Y-17880214D02*
X11535357Y-17899262D01*
X11535357Y-17899262D02*
X11535357Y-18004024D01*
X11925833Y-17794500D02*
X11754405Y-18051643D01*
X12182976Y-17804024D02*
X12202024Y-17804024D01*
X12202024Y-17804024D02*
X12221072Y-17813548D01*
X12221072Y-17813548D02*
X12230595Y-17823071D01*
X12230595Y-17823071D02*
X12240119Y-17842119D01*
X12240119Y-17842119D02*
X12249643Y-17880214D01*
X12249643Y-17880214D02*
X12249643Y-17927833D01*
X12249643Y-17927833D02*
X12240119Y-17965929D01*
X12240119Y-17965929D02*
X12230595Y-17984976D01*
X12230595Y-17984976D02*
X12221072Y-17994500D01*
X12221072Y-17994500D02*
X12202024Y-18004024D01*
X12202024Y-18004024D02*
X12182976Y-18004024D01*
X12182976Y-18004024D02*
X12163929Y-17994500D01*
X12163929Y-17994500D02*
X12154405Y-17984976D01*
X12154405Y-17984976D02*
X12144881Y-17965929D01*
X12144881Y-17965929D02*
X12135357Y-17927833D01*
X12135357Y-17927833D02*
X12135357Y-17880214D01*
X12135357Y-17880214D02*
X12144881Y-17842119D01*
X12144881Y-17842119D02*
X12154405Y-17823071D01*
X12154405Y-17823071D02*
X12163929Y-17813548D01*
X12163929Y-17813548D02*
X12182976Y-17804024D01*
X12335357Y-17984976D02*
X12344881Y-17994500D01*
X12344881Y-17994500D02*
X12335357Y-18004024D01*
X12335357Y-18004024D02*
X12325833Y-17994500D01*
X12325833Y-17994500D02*
X12335357Y-17984976D01*
X12335357Y-17984976D02*
X12335357Y-18004024D01*
X12468691Y-17804024D02*
X12487738Y-17804024D01*
X12487738Y-17804024D02*
X12506786Y-17813548D01*
X12506786Y-17813548D02*
X12516310Y-17823071D01*
X12516310Y-17823071D02*
X12525833Y-17842119D01*
X12525833Y-17842119D02*
X12535357Y-17880214D01*
X12535357Y-17880214D02*
X12535357Y-17927833D01*
X12535357Y-17927833D02*
X12525833Y-17965929D01*
X12525833Y-17965929D02*
X12516310Y-17984976D01*
X12516310Y-17984976D02*
X12506786Y-17994500D01*
X12506786Y-17994500D02*
X12487738Y-18004024D01*
X12487738Y-18004024D02*
X12468691Y-18004024D01*
X12468691Y-18004024D02*
X12449643Y-17994500D01*
X12449643Y-17994500D02*
X12440119Y-17984976D01*
X12440119Y-17984976D02*
X12430595Y-17965929D01*
X12430595Y-17965929D02*
X12421072Y-17927833D01*
X12421072Y-17927833D02*
X12421072Y-17880214D01*
X12421072Y-17880214D02*
X12430595Y-17842119D01*
X12430595Y-17842119D02*
X12440119Y-17823071D01*
X12440119Y-17823071D02*
X12449643Y-17813548D01*
X12449643Y-17813548D02*
X12468691Y-17804024D01*
X12602024Y-17804024D02*
X12725833Y-17804024D01*
X12725833Y-17804024D02*
X12659167Y-17880214D01*
X12659167Y-17880214D02*
X12687738Y-17880214D01*
X12687738Y-17880214D02*
X12706786Y-17889738D01*
X12706786Y-17889738D02*
X12716310Y-17899262D01*
X12716310Y-17899262D02*
X12725833Y-17918310D01*
X12725833Y-17918310D02*
X12725833Y-17965929D01*
X12725833Y-17965929D02*
X12716310Y-17984976D01*
X12716310Y-17984976D02*
X12706786Y-17994500D01*
X12706786Y-17994500D02*
X12687738Y-18004024D01*
X12687738Y-18004024D02*
X12630595Y-18004024D01*
X12630595Y-18004024D02*
X12611548Y-17994500D01*
X12611548Y-17994500D02*
X12602024Y-17984976D01*
X12916310Y-18004024D02*
X12802024Y-18004024D01*
X12859167Y-18004024D02*
X12859167Y-17804024D01*
X12859167Y-17804024D02*
X12840119Y-17832595D01*
X12840119Y-17832595D02*
X12821072Y-17851643D01*
X12821072Y-17851643D02*
X12802024Y-17861167D01*
X13097262Y-17804024D02*
X13002024Y-17804024D01*
X13002024Y-17804024D02*
X12992500Y-17899262D01*
X12992500Y-17899262D02*
X13002024Y-17889738D01*
X13002024Y-17889738D02*
X13021072Y-17880214D01*
X13021072Y-17880214D02*
X13068691Y-17880214D01*
X13068691Y-17880214D02*
X13087738Y-17889738D01*
X13087738Y-17889738D02*
X13097262Y-17899262D01*
X13097262Y-17899262D02*
X13106786Y-17918310D01*
X13106786Y-17918310D02*
X13106786Y-17965929D01*
X13106786Y-17965929D02*
X13097262Y-17984976D01*
X13097262Y-17984976D02*
X13087738Y-17994500D01*
X13087738Y-17994500D02*
X13068691Y-18004024D01*
X13068691Y-18004024D02*
X13021072Y-18004024D01*
X13021072Y-18004024D02*
X13002024Y-17994500D01*
X13002024Y-17994500D02*
X12992500Y-17984976D01*
X13182976Y-17804024D02*
X13182976Y-17842119D01*
X13259167Y-17804024D02*
X13259167Y-17842119D01*
X13554405Y-18080214D02*
X13544881Y-18070690D01*
X13544881Y-18070690D02*
X13525834Y-18042119D01*
X13525834Y-18042119D02*
X13516310Y-18023071D01*
X13516310Y-18023071D02*
X13506786Y-17994500D01*
X13506786Y-17994500D02*
X13497262Y-17946881D01*
X13497262Y-17946881D02*
X13497262Y-17908786D01*
X13497262Y-17908786D02*
X13506786Y-17861167D01*
X13506786Y-17861167D02*
X13516310Y-17832595D01*
X13516310Y-17832595D02*
X13525834Y-17813548D01*
X13525834Y-17813548D02*
X13544881Y-17784976D01*
X13544881Y-17784976D02*
X13554405Y-17775452D01*
X13621072Y-17823071D02*
X13630595Y-17813548D01*
X13630595Y-17813548D02*
X13649643Y-17804024D01*
X13649643Y-17804024D02*
X13697262Y-17804024D01*
X13697262Y-17804024D02*
X13716310Y-17813548D01*
X13716310Y-17813548D02*
X13725834Y-17823071D01*
X13725834Y-17823071D02*
X13735357Y-17842119D01*
X13735357Y-17842119D02*
X13735357Y-17861167D01*
X13735357Y-17861167D02*
X13725834Y-17889738D01*
X13725834Y-17889738D02*
X13611548Y-18004024D01*
X13611548Y-18004024D02*
X13735357Y-18004024D01*
X13973453Y-18004024D02*
X13973453Y-17804024D01*
X14059167Y-18004024D02*
X14059167Y-17899262D01*
X14059167Y-17899262D02*
X14049643Y-17880214D01*
X14049643Y-17880214D02*
X14030596Y-17870690D01*
X14030596Y-17870690D02*
X14002024Y-17870690D01*
X14002024Y-17870690D02*
X13982976Y-17880214D01*
X13982976Y-17880214D02*
X13973453Y-17889738D01*
X14182976Y-18004024D02*
X14163929Y-17994500D01*
X14163929Y-17994500D02*
X14154405Y-17984976D01*
X14154405Y-17984976D02*
X14144881Y-17965929D01*
X14144881Y-17965929D02*
X14144881Y-17908786D01*
X14144881Y-17908786D02*
X14154405Y-17889738D01*
X14154405Y-17889738D02*
X14163929Y-17880214D01*
X14163929Y-17880214D02*
X14182976Y-17870690D01*
X14182976Y-17870690D02*
X14211548Y-17870690D01*
X14211548Y-17870690D02*
X14230596Y-17880214D01*
X14230596Y-17880214D02*
X14240119Y-17889738D01*
X14240119Y-17889738D02*
X14249643Y-17908786D01*
X14249643Y-17908786D02*
X14249643Y-17965929D01*
X14249643Y-17965929D02*
X14240119Y-17984976D01*
X14240119Y-17984976D02*
X14230596Y-17994500D01*
X14230596Y-17994500D02*
X14211548Y-18004024D01*
X14211548Y-18004024D02*
X14182976Y-18004024D01*
X14363929Y-18004024D02*
X14344881Y-17994500D01*
X14344881Y-17994500D02*
X14335357Y-17975452D01*
X14335357Y-17975452D02*
X14335357Y-17804024D01*
X14516310Y-17994500D02*
X14497262Y-18004024D01*
X14497262Y-18004024D02*
X14459167Y-18004024D01*
X14459167Y-18004024D02*
X14440119Y-17994500D01*
X14440119Y-17994500D02*
X14430596Y-17975452D01*
X14430596Y-17975452D02*
X14430596Y-17899262D01*
X14430596Y-17899262D02*
X14440119Y-17880214D01*
X14440119Y-17880214D02*
X14459167Y-17870690D01*
X14459167Y-17870690D02*
X14497262Y-17870690D01*
X14497262Y-17870690D02*
X14516310Y-17880214D01*
X14516310Y-17880214D02*
X14525834Y-17899262D01*
X14525834Y-17899262D02*
X14525834Y-17918310D01*
X14525834Y-17918310D02*
X14430596Y-17937357D01*
X14602024Y-17994500D02*
X14621072Y-18004024D01*
X14621072Y-18004024D02*
X14659167Y-18004024D01*
X14659167Y-18004024D02*
X14678215Y-17994500D01*
X14678215Y-17994500D02*
X14687738Y-17975452D01*
X14687738Y-17975452D02*
X14687738Y-17965929D01*
X14687738Y-17965929D02*
X14678215Y-17946881D01*
X14678215Y-17946881D02*
X14659167Y-17937357D01*
X14659167Y-17937357D02*
X14630596Y-17937357D01*
X14630596Y-17937357D02*
X14611548Y-17927833D01*
X14611548Y-17927833D02*
X14602024Y-17908786D01*
X14602024Y-17908786D02*
X14602024Y-17899262D01*
X14602024Y-17899262D02*
X14611548Y-17880214D01*
X14611548Y-17880214D02*
X14630596Y-17870690D01*
X14630596Y-17870690D02*
X14659167Y-17870690D01*
X14659167Y-17870690D02*
X14678215Y-17880214D01*
X14754405Y-18080214D02*
X14763929Y-18070690D01*
X14763929Y-18070690D02*
X14782977Y-18042119D01*
X14782977Y-18042119D02*
X14792500Y-18023071D01*
X14792500Y-18023071D02*
X14802024Y-17994500D01*
X14802024Y-17994500D02*
X14811548Y-17946881D01*
X14811548Y-17946881D02*
X14811548Y-17908786D01*
X14811548Y-17908786D02*
X14802024Y-17861167D01*
X14802024Y-17861167D02*
X14792500Y-17832595D01*
X14792500Y-17832595D02*
X14782977Y-17813548D01*
X14782977Y-17813548D02*
X14763929Y-17784976D01*
X14763929Y-17784976D02*
X14754405Y-17775452D01*
D14*
X9948000Y-18131000D02*
X9948000Y-18220000D01*
X9903500Y-18175500D02*
X9992500Y-18175500D01*
D11*
X10278214Y-18068024D02*
X10297262Y-18068024D01*
X10297262Y-18068024D02*
X10316310Y-18077548D01*
X10316310Y-18077548D02*
X10325833Y-18087071D01*
X10325833Y-18087071D02*
X10335357Y-18106119D01*
X10335357Y-18106119D02*
X10344881Y-18144214D01*
X10344881Y-18144214D02*
X10344881Y-18191833D01*
X10344881Y-18191833D02*
X10335357Y-18229929D01*
X10335357Y-18229929D02*
X10325833Y-18248976D01*
X10325833Y-18248976D02*
X10316310Y-18258500D01*
X10316310Y-18258500D02*
X10297262Y-18268024D01*
X10297262Y-18268024D02*
X10278214Y-18268024D01*
X10278214Y-18268024D02*
X10259167Y-18258500D01*
X10259167Y-18258500D02*
X10249643Y-18248976D01*
X10249643Y-18248976D02*
X10240119Y-18229929D01*
X10240119Y-18229929D02*
X10230595Y-18191833D01*
X10230595Y-18191833D02*
X10230595Y-18144214D01*
X10230595Y-18144214D02*
X10240119Y-18106119D01*
X10240119Y-18106119D02*
X10249643Y-18087071D01*
X10249643Y-18087071D02*
X10259167Y-18077548D01*
X10259167Y-18077548D02*
X10278214Y-18068024D01*
X10430595Y-18248976D02*
X10440119Y-18258500D01*
X10440119Y-18258500D02*
X10430595Y-18268024D01*
X10430595Y-18268024D02*
X10421071Y-18258500D01*
X10421071Y-18258500D02*
X10430595Y-18248976D01*
X10430595Y-18248976D02*
X10430595Y-18268024D01*
X10554405Y-18153738D02*
X10535357Y-18144214D01*
X10535357Y-18144214D02*
X10525833Y-18134690D01*
X10525833Y-18134690D02*
X10516310Y-18115643D01*
X10516310Y-18115643D02*
X10516310Y-18106119D01*
X10516310Y-18106119D02*
X10525833Y-18087071D01*
X10525833Y-18087071D02*
X10535357Y-18077548D01*
X10535357Y-18077548D02*
X10554405Y-18068024D01*
X10554405Y-18068024D02*
X10592500Y-18068024D01*
X10592500Y-18068024D02*
X10611548Y-18077548D01*
X10611548Y-18077548D02*
X10621071Y-18087071D01*
X10621071Y-18087071D02*
X10630595Y-18106119D01*
X10630595Y-18106119D02*
X10630595Y-18115643D01*
X10630595Y-18115643D02*
X10621071Y-18134690D01*
X10621071Y-18134690D02*
X10611548Y-18144214D01*
X10611548Y-18144214D02*
X10592500Y-18153738D01*
X10592500Y-18153738D02*
X10554405Y-18153738D01*
X10554405Y-18153738D02*
X10535357Y-18163262D01*
X10535357Y-18163262D02*
X10525833Y-18172786D01*
X10525833Y-18172786D02*
X10516310Y-18191833D01*
X10516310Y-18191833D02*
X10516310Y-18229929D01*
X10516310Y-18229929D02*
X10525833Y-18248976D01*
X10525833Y-18248976D02*
X10535357Y-18258500D01*
X10535357Y-18258500D02*
X10554405Y-18268024D01*
X10554405Y-18268024D02*
X10592500Y-18268024D01*
X10592500Y-18268024D02*
X10611548Y-18258500D01*
X10611548Y-18258500D02*
X10621071Y-18248976D01*
X10621071Y-18248976D02*
X10630595Y-18229929D01*
X10630595Y-18229929D02*
X10630595Y-18191833D01*
X10630595Y-18191833D02*
X10621071Y-18172786D01*
X10621071Y-18172786D02*
X10611548Y-18163262D01*
X10611548Y-18163262D02*
X10592500Y-18153738D01*
X10725833Y-18268024D02*
X10763929Y-18268024D01*
X10763929Y-18268024D02*
X10782976Y-18258500D01*
X10782976Y-18258500D02*
X10792500Y-18248976D01*
X10792500Y-18248976D02*
X10811548Y-18220405D01*
X10811548Y-18220405D02*
X10821071Y-18182310D01*
X10821071Y-18182310D02*
X10821071Y-18106119D01*
X10821071Y-18106119D02*
X10811548Y-18087071D01*
X10811548Y-18087071D02*
X10802024Y-18077548D01*
X10802024Y-18077548D02*
X10782976Y-18068024D01*
X10782976Y-18068024D02*
X10744881Y-18068024D01*
X10744881Y-18068024D02*
X10725833Y-18077548D01*
X10725833Y-18077548D02*
X10716310Y-18087071D01*
X10716310Y-18087071D02*
X10706786Y-18106119D01*
X10706786Y-18106119D02*
X10706786Y-18153738D01*
X10706786Y-18153738D02*
X10716310Y-18172786D01*
X10716310Y-18172786D02*
X10725833Y-18182310D01*
X10725833Y-18182310D02*
X10744881Y-18191833D01*
X10744881Y-18191833D02*
X10782976Y-18191833D01*
X10782976Y-18191833D02*
X10802024Y-18182310D01*
X10802024Y-18182310D02*
X10811548Y-18172786D01*
X10811548Y-18172786D02*
X10821071Y-18153738D01*
X10944881Y-18068024D02*
X10963929Y-18068024D01*
X10963929Y-18068024D02*
X10982976Y-18077548D01*
X10982976Y-18077548D02*
X10992500Y-18087071D01*
X10992500Y-18087071D02*
X11002024Y-18106119D01*
X11002024Y-18106119D02*
X11011548Y-18144214D01*
X11011548Y-18144214D02*
X11011548Y-18191833D01*
X11011548Y-18191833D02*
X11002024Y-18229929D01*
X11002024Y-18229929D02*
X10992500Y-18248976D01*
X10992500Y-18248976D02*
X10982976Y-18258500D01*
X10982976Y-18258500D02*
X10963929Y-18268024D01*
X10963929Y-18268024D02*
X10944881Y-18268024D01*
X10944881Y-18268024D02*
X10925833Y-18258500D01*
X10925833Y-18258500D02*
X10916310Y-18248976D01*
X10916310Y-18248976D02*
X10906786Y-18229929D01*
X10906786Y-18229929D02*
X10897262Y-18191833D01*
X10897262Y-18191833D02*
X10897262Y-18144214D01*
X10897262Y-18144214D02*
X10906786Y-18106119D01*
X10906786Y-18106119D02*
X10916310Y-18087071D01*
X10916310Y-18087071D02*
X10925833Y-18077548D01*
X10925833Y-18077548D02*
X10944881Y-18068024D01*
X11097262Y-18268024D02*
X11097262Y-18134690D01*
X11097262Y-18153738D02*
X11106786Y-18144214D01*
X11106786Y-18144214D02*
X11125833Y-18134690D01*
X11125833Y-18134690D02*
X11154405Y-18134690D01*
X11154405Y-18134690D02*
X11173452Y-18144214D01*
X11173452Y-18144214D02*
X11182976Y-18163262D01*
X11182976Y-18163262D02*
X11182976Y-18268024D01*
X11182976Y-18163262D02*
X11192500Y-18144214D01*
X11192500Y-18144214D02*
X11211548Y-18134690D01*
X11211548Y-18134690D02*
X11240119Y-18134690D01*
X11240119Y-18134690D02*
X11259167Y-18144214D01*
X11259167Y-18144214D02*
X11268690Y-18163262D01*
X11268690Y-18163262D02*
X11268690Y-18268024D01*
X11363929Y-18268024D02*
X11363929Y-18134690D01*
X11363929Y-18153738D02*
X11373452Y-18144214D01*
X11373452Y-18144214D02*
X11392500Y-18134690D01*
X11392500Y-18134690D02*
X11421071Y-18134690D01*
X11421071Y-18134690D02*
X11440119Y-18144214D01*
X11440119Y-18144214D02*
X11449643Y-18163262D01*
X11449643Y-18163262D02*
X11449643Y-18268024D01*
X11449643Y-18163262D02*
X11459167Y-18144214D01*
X11459167Y-18144214D02*
X11478214Y-18134690D01*
X11478214Y-18134690D02*
X11506786Y-18134690D01*
X11506786Y-18134690D02*
X11525833Y-18144214D01*
X11525833Y-18144214D02*
X11535357Y-18163262D01*
X11535357Y-18163262D02*
X11535357Y-18268024D01*
X11925833Y-18058500D02*
X11754405Y-18315643D01*
X12182976Y-18068024D02*
X12202024Y-18068024D01*
X12202024Y-18068024D02*
X12221072Y-18077548D01*
X12221072Y-18077548D02*
X12230595Y-18087071D01*
X12230595Y-18087071D02*
X12240119Y-18106119D01*
X12240119Y-18106119D02*
X12249643Y-18144214D01*
X12249643Y-18144214D02*
X12249643Y-18191833D01*
X12249643Y-18191833D02*
X12240119Y-18229929D01*
X12240119Y-18229929D02*
X12230595Y-18248976D01*
X12230595Y-18248976D02*
X12221072Y-18258500D01*
X12221072Y-18258500D02*
X12202024Y-18268024D01*
X12202024Y-18268024D02*
X12182976Y-18268024D01*
X12182976Y-18268024D02*
X12163929Y-18258500D01*
X12163929Y-18258500D02*
X12154405Y-18248976D01*
X12154405Y-18248976D02*
X12144881Y-18229929D01*
X12144881Y-18229929D02*
X12135357Y-18191833D01*
X12135357Y-18191833D02*
X12135357Y-18144214D01*
X12135357Y-18144214D02*
X12144881Y-18106119D01*
X12144881Y-18106119D02*
X12154405Y-18087071D01*
X12154405Y-18087071D02*
X12163929Y-18077548D01*
X12163929Y-18077548D02*
X12182976Y-18068024D01*
X12335357Y-18248976D02*
X12344881Y-18258500D01*
X12344881Y-18258500D02*
X12335357Y-18268024D01*
X12335357Y-18268024D02*
X12325833Y-18258500D01*
X12325833Y-18258500D02*
X12335357Y-18248976D01*
X12335357Y-18248976D02*
X12335357Y-18268024D01*
X12468691Y-18068024D02*
X12487738Y-18068024D01*
X12487738Y-18068024D02*
X12506786Y-18077548D01*
X12506786Y-18077548D02*
X12516310Y-18087071D01*
X12516310Y-18087071D02*
X12525833Y-18106119D01*
X12525833Y-18106119D02*
X12535357Y-18144214D01*
X12535357Y-18144214D02*
X12535357Y-18191833D01*
X12535357Y-18191833D02*
X12525833Y-18229929D01*
X12525833Y-18229929D02*
X12516310Y-18248976D01*
X12516310Y-18248976D02*
X12506786Y-18258500D01*
X12506786Y-18258500D02*
X12487738Y-18268024D01*
X12487738Y-18268024D02*
X12468691Y-18268024D01*
X12468691Y-18268024D02*
X12449643Y-18258500D01*
X12449643Y-18258500D02*
X12440119Y-18248976D01*
X12440119Y-18248976D02*
X12430595Y-18229929D01*
X12430595Y-18229929D02*
X12421072Y-18191833D01*
X12421072Y-18191833D02*
X12421072Y-18144214D01*
X12421072Y-18144214D02*
X12430595Y-18106119D01*
X12430595Y-18106119D02*
X12440119Y-18087071D01*
X12440119Y-18087071D02*
X12449643Y-18077548D01*
X12449643Y-18077548D02*
X12468691Y-18068024D01*
X12602024Y-18068024D02*
X12725833Y-18068024D01*
X12725833Y-18068024D02*
X12659167Y-18144214D01*
X12659167Y-18144214D02*
X12687738Y-18144214D01*
X12687738Y-18144214D02*
X12706786Y-18153738D01*
X12706786Y-18153738D02*
X12716310Y-18163262D01*
X12716310Y-18163262D02*
X12725833Y-18182310D01*
X12725833Y-18182310D02*
X12725833Y-18229929D01*
X12725833Y-18229929D02*
X12716310Y-18248976D01*
X12716310Y-18248976D02*
X12706786Y-18258500D01*
X12706786Y-18258500D02*
X12687738Y-18268024D01*
X12687738Y-18268024D02*
X12630595Y-18268024D01*
X12630595Y-18268024D02*
X12611548Y-18258500D01*
X12611548Y-18258500D02*
X12602024Y-18248976D01*
X12906786Y-18068024D02*
X12811548Y-18068024D01*
X12811548Y-18068024D02*
X12802024Y-18163262D01*
X12802024Y-18163262D02*
X12811548Y-18153738D01*
X12811548Y-18153738D02*
X12830595Y-18144214D01*
X12830595Y-18144214D02*
X12878214Y-18144214D01*
X12878214Y-18144214D02*
X12897262Y-18153738D01*
X12897262Y-18153738D02*
X12906786Y-18163262D01*
X12906786Y-18163262D02*
X12916310Y-18182310D01*
X12916310Y-18182310D02*
X12916310Y-18229929D01*
X12916310Y-18229929D02*
X12906786Y-18248976D01*
X12906786Y-18248976D02*
X12897262Y-18258500D01*
X12897262Y-18258500D02*
X12878214Y-18268024D01*
X12878214Y-18268024D02*
X12830595Y-18268024D01*
X12830595Y-18268024D02*
X12811548Y-18258500D01*
X12811548Y-18258500D02*
X12802024Y-18248976D01*
X13040119Y-18068024D02*
X13059167Y-18068024D01*
X13059167Y-18068024D02*
X13078214Y-18077548D01*
X13078214Y-18077548D02*
X13087738Y-18087071D01*
X13087738Y-18087071D02*
X13097262Y-18106119D01*
X13097262Y-18106119D02*
X13106786Y-18144214D01*
X13106786Y-18144214D02*
X13106786Y-18191833D01*
X13106786Y-18191833D02*
X13097262Y-18229929D01*
X13097262Y-18229929D02*
X13087738Y-18248976D01*
X13087738Y-18248976D02*
X13078214Y-18258500D01*
X13078214Y-18258500D02*
X13059167Y-18268024D01*
X13059167Y-18268024D02*
X13040119Y-18268024D01*
X13040119Y-18268024D02*
X13021072Y-18258500D01*
X13021072Y-18258500D02*
X13011548Y-18248976D01*
X13011548Y-18248976D02*
X13002024Y-18229929D01*
X13002024Y-18229929D02*
X12992500Y-18191833D01*
X12992500Y-18191833D02*
X12992500Y-18144214D01*
X12992500Y-18144214D02*
X13002024Y-18106119D01*
X13002024Y-18106119D02*
X13011548Y-18087071D01*
X13011548Y-18087071D02*
X13021072Y-18077548D01*
X13021072Y-18077548D02*
X13040119Y-18068024D01*
X13182976Y-18068024D02*
X13182976Y-18106119D01*
X13259167Y-18068024D02*
X13259167Y-18106119D01*
X13554405Y-18344214D02*
X13544881Y-18334690D01*
X13544881Y-18334690D02*
X13525834Y-18306119D01*
X13525834Y-18306119D02*
X13516310Y-18287071D01*
X13516310Y-18287071D02*
X13506786Y-18258500D01*
X13506786Y-18258500D02*
X13497262Y-18210881D01*
X13497262Y-18210881D02*
X13497262Y-18172786D01*
X13497262Y-18172786D02*
X13506786Y-18125167D01*
X13506786Y-18125167D02*
X13516310Y-18096595D01*
X13516310Y-18096595D02*
X13525834Y-18077548D01*
X13525834Y-18077548D02*
X13544881Y-18048976D01*
X13544881Y-18048976D02*
X13554405Y-18039452D01*
X13716310Y-18068024D02*
X13678214Y-18068024D01*
X13678214Y-18068024D02*
X13659167Y-18077548D01*
X13659167Y-18077548D02*
X13649643Y-18087071D01*
X13649643Y-18087071D02*
X13630595Y-18115643D01*
X13630595Y-18115643D02*
X13621072Y-18153738D01*
X13621072Y-18153738D02*
X13621072Y-18229929D01*
X13621072Y-18229929D02*
X13630595Y-18248976D01*
X13630595Y-18248976D02*
X13640119Y-18258500D01*
X13640119Y-18258500D02*
X13659167Y-18268024D01*
X13659167Y-18268024D02*
X13697262Y-18268024D01*
X13697262Y-18268024D02*
X13716310Y-18258500D01*
X13716310Y-18258500D02*
X13725834Y-18248976D01*
X13725834Y-18248976D02*
X13735357Y-18229929D01*
X13735357Y-18229929D02*
X13735357Y-18182310D01*
X13735357Y-18182310D02*
X13725834Y-18163262D01*
X13725834Y-18163262D02*
X13716310Y-18153738D01*
X13716310Y-18153738D02*
X13697262Y-18144214D01*
X13697262Y-18144214D02*
X13659167Y-18144214D01*
X13659167Y-18144214D02*
X13640119Y-18153738D01*
X13640119Y-18153738D02*
X13630595Y-18163262D01*
X13630595Y-18163262D02*
X13621072Y-18182310D01*
X13973453Y-18268024D02*
X13973453Y-18068024D01*
X14059167Y-18268024D02*
X14059167Y-18163262D01*
X14059167Y-18163262D02*
X14049643Y-18144214D01*
X14049643Y-18144214D02*
X14030596Y-18134690D01*
X14030596Y-18134690D02*
X14002024Y-18134690D01*
X14002024Y-18134690D02*
X13982976Y-18144214D01*
X13982976Y-18144214D02*
X13973453Y-18153738D01*
X14182976Y-18268024D02*
X14163929Y-18258500D01*
X14163929Y-18258500D02*
X14154405Y-18248976D01*
X14154405Y-18248976D02*
X14144881Y-18229929D01*
X14144881Y-18229929D02*
X14144881Y-18172786D01*
X14144881Y-18172786D02*
X14154405Y-18153738D01*
X14154405Y-18153738D02*
X14163929Y-18144214D01*
X14163929Y-18144214D02*
X14182976Y-18134690D01*
X14182976Y-18134690D02*
X14211548Y-18134690D01*
X14211548Y-18134690D02*
X14230596Y-18144214D01*
X14230596Y-18144214D02*
X14240119Y-18153738D01*
X14240119Y-18153738D02*
X14249643Y-18172786D01*
X14249643Y-18172786D02*
X14249643Y-18229929D01*
X14249643Y-18229929D02*
X14240119Y-18248976D01*
X14240119Y-18248976D02*
X14230596Y-18258500D01*
X14230596Y-18258500D02*
X14211548Y-18268024D01*
X14211548Y-18268024D02*
X14182976Y-18268024D01*
X14363929Y-18268024D02*
X14344881Y-18258500D01*
X14344881Y-18258500D02*
X14335357Y-18239452D01*
X14335357Y-18239452D02*
X14335357Y-18068024D01*
X14516310Y-18258500D02*
X14497262Y-18268024D01*
X14497262Y-18268024D02*
X14459167Y-18268024D01*
X14459167Y-18268024D02*
X14440119Y-18258500D01*
X14440119Y-18258500D02*
X14430596Y-18239452D01*
X14430596Y-18239452D02*
X14430596Y-18163262D01*
X14430596Y-18163262D02*
X14440119Y-18144214D01*
X14440119Y-18144214D02*
X14459167Y-18134690D01*
X14459167Y-18134690D02*
X14497262Y-18134690D01*
X14497262Y-18134690D02*
X14516310Y-18144214D01*
X14516310Y-18144214D02*
X14525834Y-18163262D01*
X14525834Y-18163262D02*
X14525834Y-18182310D01*
X14525834Y-18182310D02*
X14430596Y-18201357D01*
X14602024Y-18258500D02*
X14621072Y-18268024D01*
X14621072Y-18268024D02*
X14659167Y-18268024D01*
X14659167Y-18268024D02*
X14678215Y-18258500D01*
X14678215Y-18258500D02*
X14687738Y-18239452D01*
X14687738Y-18239452D02*
X14687738Y-18229929D01*
X14687738Y-18229929D02*
X14678215Y-18210881D01*
X14678215Y-18210881D02*
X14659167Y-18201357D01*
X14659167Y-18201357D02*
X14630596Y-18201357D01*
X14630596Y-18201357D02*
X14611548Y-18191833D01*
X14611548Y-18191833D02*
X14602024Y-18172786D01*
X14602024Y-18172786D02*
X14602024Y-18163262D01*
X14602024Y-18163262D02*
X14611548Y-18144214D01*
X14611548Y-18144214D02*
X14630596Y-18134690D01*
X14630596Y-18134690D02*
X14659167Y-18134690D01*
X14659167Y-18134690D02*
X14678215Y-18144214D01*
X14754405Y-18344214D02*
X14763929Y-18334690D01*
X14763929Y-18334690D02*
X14782977Y-18306119D01*
X14782977Y-18306119D02*
X14792500Y-18287071D01*
X14792500Y-18287071D02*
X14802024Y-18258500D01*
X14802024Y-18258500D02*
X14811548Y-18210881D01*
X14811548Y-18210881D02*
X14811548Y-18172786D01*
X14811548Y-18172786D02*
X14802024Y-18125167D01*
X14802024Y-18125167D02*
X14792500Y-18096595D01*
X14792500Y-18096595D02*
X14782977Y-18077548D01*
X14782977Y-18077548D02*
X14763929Y-18048976D01*
X14763929Y-18048976D02*
X14754405Y-18039452D01*
D15*
X9977856Y-18474856D02*
X9977856Y-18404144D01*
X9907144Y-18404144D01*
X9907144Y-18474856D01*
X9977856Y-18474856D01*
D11*
X10344881Y-18532024D02*
X10230595Y-18532024D01*
X10287738Y-18532024D02*
X10287738Y-18332024D01*
X10287738Y-18332024D02*
X10268690Y-18360595D01*
X10268690Y-18360595D02*
X10249643Y-18379643D01*
X10249643Y-18379643D02*
X10230595Y-18389167D01*
X10430595Y-18512976D02*
X10440119Y-18522500D01*
X10440119Y-18522500D02*
X10430595Y-18532024D01*
X10430595Y-18532024D02*
X10421071Y-18522500D01*
X10421071Y-18522500D02*
X10430595Y-18512976D01*
X10430595Y-18512976D02*
X10430595Y-18532024D01*
X10563929Y-18332024D02*
X10582976Y-18332024D01*
X10582976Y-18332024D02*
X10602024Y-18341548D01*
X10602024Y-18341548D02*
X10611548Y-18351071D01*
X10611548Y-18351071D02*
X10621071Y-18370119D01*
X10621071Y-18370119D02*
X10630595Y-18408214D01*
X10630595Y-18408214D02*
X10630595Y-18455833D01*
X10630595Y-18455833D02*
X10621071Y-18493929D01*
X10621071Y-18493929D02*
X10611548Y-18512976D01*
X10611548Y-18512976D02*
X10602024Y-18522500D01*
X10602024Y-18522500D02*
X10582976Y-18532024D01*
X10582976Y-18532024D02*
X10563929Y-18532024D01*
X10563929Y-18532024D02*
X10544881Y-18522500D01*
X10544881Y-18522500D02*
X10535357Y-18512976D01*
X10535357Y-18512976D02*
X10525833Y-18493929D01*
X10525833Y-18493929D02*
X10516310Y-18455833D01*
X10516310Y-18455833D02*
X10516310Y-18408214D01*
X10516310Y-18408214D02*
X10525833Y-18370119D01*
X10525833Y-18370119D02*
X10535357Y-18351071D01*
X10535357Y-18351071D02*
X10544881Y-18341548D01*
X10544881Y-18341548D02*
X10563929Y-18332024D01*
X10754405Y-18332024D02*
X10773452Y-18332024D01*
X10773452Y-18332024D02*
X10792500Y-18341548D01*
X10792500Y-18341548D02*
X10802024Y-18351071D01*
X10802024Y-18351071D02*
X10811548Y-18370119D01*
X10811548Y-18370119D02*
X10821071Y-18408214D01*
X10821071Y-18408214D02*
X10821071Y-18455833D01*
X10821071Y-18455833D02*
X10811548Y-18493929D01*
X10811548Y-18493929D02*
X10802024Y-18512976D01*
X10802024Y-18512976D02*
X10792500Y-18522500D01*
X10792500Y-18522500D02*
X10773452Y-18532024D01*
X10773452Y-18532024D02*
X10754405Y-18532024D01*
X10754405Y-18532024D02*
X10735357Y-18522500D01*
X10735357Y-18522500D02*
X10725833Y-18512976D01*
X10725833Y-18512976D02*
X10716310Y-18493929D01*
X10716310Y-18493929D02*
X10706786Y-18455833D01*
X10706786Y-18455833D02*
X10706786Y-18408214D01*
X10706786Y-18408214D02*
X10716310Y-18370119D01*
X10716310Y-18370119D02*
X10725833Y-18351071D01*
X10725833Y-18351071D02*
X10735357Y-18341548D01*
X10735357Y-18341548D02*
X10754405Y-18332024D01*
X10944881Y-18332024D02*
X10963929Y-18332024D01*
X10963929Y-18332024D02*
X10982976Y-18341548D01*
X10982976Y-18341548D02*
X10992500Y-18351071D01*
X10992500Y-18351071D02*
X11002024Y-18370119D01*
X11002024Y-18370119D02*
X11011548Y-18408214D01*
X11011548Y-18408214D02*
X11011548Y-18455833D01*
X11011548Y-18455833D02*
X11002024Y-18493929D01*
X11002024Y-18493929D02*
X10992500Y-18512976D01*
X10992500Y-18512976D02*
X10982976Y-18522500D01*
X10982976Y-18522500D02*
X10963929Y-18532024D01*
X10963929Y-18532024D02*
X10944881Y-18532024D01*
X10944881Y-18532024D02*
X10925833Y-18522500D01*
X10925833Y-18522500D02*
X10916310Y-18512976D01*
X10916310Y-18512976D02*
X10906786Y-18493929D01*
X10906786Y-18493929D02*
X10897262Y-18455833D01*
X10897262Y-18455833D02*
X10897262Y-18408214D01*
X10897262Y-18408214D02*
X10906786Y-18370119D01*
X10906786Y-18370119D02*
X10916310Y-18351071D01*
X10916310Y-18351071D02*
X10925833Y-18341548D01*
X10925833Y-18341548D02*
X10944881Y-18332024D01*
X11097262Y-18532024D02*
X11097262Y-18398690D01*
X11097262Y-18417738D02*
X11106786Y-18408214D01*
X11106786Y-18408214D02*
X11125833Y-18398690D01*
X11125833Y-18398690D02*
X11154405Y-18398690D01*
X11154405Y-18398690D02*
X11173452Y-18408214D01*
X11173452Y-18408214D02*
X11182976Y-18427262D01*
X11182976Y-18427262D02*
X11182976Y-18532024D01*
X11182976Y-18427262D02*
X11192500Y-18408214D01*
X11192500Y-18408214D02*
X11211548Y-18398690D01*
X11211548Y-18398690D02*
X11240119Y-18398690D01*
X11240119Y-18398690D02*
X11259167Y-18408214D01*
X11259167Y-18408214D02*
X11268690Y-18427262D01*
X11268690Y-18427262D02*
X11268690Y-18532024D01*
X11363929Y-18532024D02*
X11363929Y-18398690D01*
X11363929Y-18417738D02*
X11373452Y-18408214D01*
X11373452Y-18408214D02*
X11392500Y-18398690D01*
X11392500Y-18398690D02*
X11421071Y-18398690D01*
X11421071Y-18398690D02*
X11440119Y-18408214D01*
X11440119Y-18408214D02*
X11449643Y-18427262D01*
X11449643Y-18427262D02*
X11449643Y-18532024D01*
X11449643Y-18427262D02*
X11459167Y-18408214D01*
X11459167Y-18408214D02*
X11478214Y-18398690D01*
X11478214Y-18398690D02*
X11506786Y-18398690D01*
X11506786Y-18398690D02*
X11525833Y-18408214D01*
X11525833Y-18408214D02*
X11535357Y-18427262D01*
X11535357Y-18427262D02*
X11535357Y-18532024D01*
X11925833Y-18322500D02*
X11754405Y-18579643D01*
X12182976Y-18332024D02*
X12202024Y-18332024D01*
X12202024Y-18332024D02*
X12221072Y-18341548D01*
X12221072Y-18341548D02*
X12230595Y-18351071D01*
X12230595Y-18351071D02*
X12240119Y-18370119D01*
X12240119Y-18370119D02*
X12249643Y-18408214D01*
X12249643Y-18408214D02*
X12249643Y-18455833D01*
X12249643Y-18455833D02*
X12240119Y-18493929D01*
X12240119Y-18493929D02*
X12230595Y-18512976D01*
X12230595Y-18512976D02*
X12221072Y-18522500D01*
X12221072Y-18522500D02*
X12202024Y-18532024D01*
X12202024Y-18532024D02*
X12182976Y-18532024D01*
X12182976Y-18532024D02*
X12163929Y-18522500D01*
X12163929Y-18522500D02*
X12154405Y-18512976D01*
X12154405Y-18512976D02*
X12144881Y-18493929D01*
X12144881Y-18493929D02*
X12135357Y-18455833D01*
X12135357Y-18455833D02*
X12135357Y-18408214D01*
X12135357Y-18408214D02*
X12144881Y-18370119D01*
X12144881Y-18370119D02*
X12154405Y-18351071D01*
X12154405Y-18351071D02*
X12163929Y-18341548D01*
X12163929Y-18341548D02*
X12182976Y-18332024D01*
X12335357Y-18512976D02*
X12344881Y-18522500D01*
X12344881Y-18522500D02*
X12335357Y-18532024D01*
X12335357Y-18532024D02*
X12325833Y-18522500D01*
X12325833Y-18522500D02*
X12335357Y-18512976D01*
X12335357Y-18512976D02*
X12335357Y-18532024D01*
X12468691Y-18332024D02*
X12487738Y-18332024D01*
X12487738Y-18332024D02*
X12506786Y-18341548D01*
X12506786Y-18341548D02*
X12516310Y-18351071D01*
X12516310Y-18351071D02*
X12525833Y-18370119D01*
X12525833Y-18370119D02*
X12535357Y-18408214D01*
X12535357Y-18408214D02*
X12535357Y-18455833D01*
X12535357Y-18455833D02*
X12525833Y-18493929D01*
X12525833Y-18493929D02*
X12516310Y-18512976D01*
X12516310Y-18512976D02*
X12506786Y-18522500D01*
X12506786Y-18522500D02*
X12487738Y-18532024D01*
X12487738Y-18532024D02*
X12468691Y-18532024D01*
X12468691Y-18532024D02*
X12449643Y-18522500D01*
X12449643Y-18522500D02*
X12440119Y-18512976D01*
X12440119Y-18512976D02*
X12430595Y-18493929D01*
X12430595Y-18493929D02*
X12421072Y-18455833D01*
X12421072Y-18455833D02*
X12421072Y-18408214D01*
X12421072Y-18408214D02*
X12430595Y-18370119D01*
X12430595Y-18370119D02*
X12440119Y-18351071D01*
X12440119Y-18351071D02*
X12449643Y-18341548D01*
X12449643Y-18341548D02*
X12468691Y-18332024D01*
X12602024Y-18332024D02*
X12725833Y-18332024D01*
X12725833Y-18332024D02*
X12659167Y-18408214D01*
X12659167Y-18408214D02*
X12687738Y-18408214D01*
X12687738Y-18408214D02*
X12706786Y-18417738D01*
X12706786Y-18417738D02*
X12716310Y-18427262D01*
X12716310Y-18427262D02*
X12725833Y-18446310D01*
X12725833Y-18446310D02*
X12725833Y-18493929D01*
X12725833Y-18493929D02*
X12716310Y-18512976D01*
X12716310Y-18512976D02*
X12706786Y-18522500D01*
X12706786Y-18522500D02*
X12687738Y-18532024D01*
X12687738Y-18532024D02*
X12630595Y-18532024D01*
X12630595Y-18532024D02*
X12611548Y-18522500D01*
X12611548Y-18522500D02*
X12602024Y-18512976D01*
X12821072Y-18532024D02*
X12859167Y-18532024D01*
X12859167Y-18532024D02*
X12878214Y-18522500D01*
X12878214Y-18522500D02*
X12887738Y-18512976D01*
X12887738Y-18512976D02*
X12906786Y-18484405D01*
X12906786Y-18484405D02*
X12916310Y-18446310D01*
X12916310Y-18446310D02*
X12916310Y-18370119D01*
X12916310Y-18370119D02*
X12906786Y-18351071D01*
X12906786Y-18351071D02*
X12897262Y-18341548D01*
X12897262Y-18341548D02*
X12878214Y-18332024D01*
X12878214Y-18332024D02*
X12840119Y-18332024D01*
X12840119Y-18332024D02*
X12821072Y-18341548D01*
X12821072Y-18341548D02*
X12811548Y-18351071D01*
X12811548Y-18351071D02*
X12802024Y-18370119D01*
X12802024Y-18370119D02*
X12802024Y-18417738D01*
X12802024Y-18417738D02*
X12811548Y-18436786D01*
X12811548Y-18436786D02*
X12821072Y-18446310D01*
X12821072Y-18446310D02*
X12840119Y-18455833D01*
X12840119Y-18455833D02*
X12878214Y-18455833D01*
X12878214Y-18455833D02*
X12897262Y-18446310D01*
X12897262Y-18446310D02*
X12906786Y-18436786D01*
X12906786Y-18436786D02*
X12916310Y-18417738D01*
X13087738Y-18398690D02*
X13087738Y-18532024D01*
X13040119Y-18322500D02*
X12992500Y-18465357D01*
X12992500Y-18465357D02*
X13116310Y-18465357D01*
X13182976Y-18332024D02*
X13182976Y-18370119D01*
X13259167Y-18332024D02*
X13259167Y-18370119D01*
X13554405Y-18608214D02*
X13544881Y-18598690D01*
X13544881Y-18598690D02*
X13525834Y-18570119D01*
X13525834Y-18570119D02*
X13516310Y-18551071D01*
X13516310Y-18551071D02*
X13506786Y-18522500D01*
X13506786Y-18522500D02*
X13497262Y-18474881D01*
X13497262Y-18474881D02*
X13497262Y-18436786D01*
X13497262Y-18436786D02*
X13506786Y-18389167D01*
X13506786Y-18389167D02*
X13516310Y-18360595D01*
X13516310Y-18360595D02*
X13525834Y-18341548D01*
X13525834Y-18341548D02*
X13544881Y-18312976D01*
X13544881Y-18312976D02*
X13554405Y-18303452D01*
X13735357Y-18532024D02*
X13621072Y-18532024D01*
X13678214Y-18532024D02*
X13678214Y-18332024D01*
X13678214Y-18332024D02*
X13659167Y-18360595D01*
X13659167Y-18360595D02*
X13640119Y-18379643D01*
X13640119Y-18379643D02*
X13621072Y-18389167D01*
X13916310Y-18332024D02*
X13821072Y-18332024D01*
X13821072Y-18332024D02*
X13811548Y-18427262D01*
X13811548Y-18427262D02*
X13821072Y-18417738D01*
X13821072Y-18417738D02*
X13840119Y-18408214D01*
X13840119Y-18408214D02*
X13887738Y-18408214D01*
X13887738Y-18408214D02*
X13906786Y-18417738D01*
X13906786Y-18417738D02*
X13916310Y-18427262D01*
X13916310Y-18427262D02*
X13925834Y-18446310D01*
X13925834Y-18446310D02*
X13925834Y-18493929D01*
X13925834Y-18493929D02*
X13916310Y-18512976D01*
X13916310Y-18512976D02*
X13906786Y-18522500D01*
X13906786Y-18522500D02*
X13887738Y-18532024D01*
X13887738Y-18532024D02*
X13840119Y-18532024D01*
X13840119Y-18532024D02*
X13821072Y-18522500D01*
X13821072Y-18522500D02*
X13811548Y-18512976D01*
X14163929Y-18532024D02*
X14163929Y-18332024D01*
X14249643Y-18532024D02*
X14249643Y-18427262D01*
X14249643Y-18427262D02*
X14240119Y-18408214D01*
X14240119Y-18408214D02*
X14221072Y-18398690D01*
X14221072Y-18398690D02*
X14192500Y-18398690D01*
X14192500Y-18398690D02*
X14173453Y-18408214D01*
X14173453Y-18408214D02*
X14163929Y-18417738D01*
X14373453Y-18532024D02*
X14354405Y-18522500D01*
X14354405Y-18522500D02*
X14344881Y-18512976D01*
X14344881Y-18512976D02*
X14335357Y-18493929D01*
X14335357Y-18493929D02*
X14335357Y-18436786D01*
X14335357Y-18436786D02*
X14344881Y-18417738D01*
X14344881Y-18417738D02*
X14354405Y-18408214D01*
X14354405Y-18408214D02*
X14373453Y-18398690D01*
X14373453Y-18398690D02*
X14402024Y-18398690D01*
X14402024Y-18398690D02*
X14421072Y-18408214D01*
X14421072Y-18408214D02*
X14430596Y-18417738D01*
X14430596Y-18417738D02*
X14440119Y-18436786D01*
X14440119Y-18436786D02*
X14440119Y-18493929D01*
X14440119Y-18493929D02*
X14430596Y-18512976D01*
X14430596Y-18512976D02*
X14421072Y-18522500D01*
X14421072Y-18522500D02*
X14402024Y-18532024D01*
X14402024Y-18532024D02*
X14373453Y-18532024D01*
X14554405Y-18532024D02*
X14535357Y-18522500D01*
X14535357Y-18522500D02*
X14525834Y-18503452D01*
X14525834Y-18503452D02*
X14525834Y-18332024D01*
X14706786Y-18522500D02*
X14687738Y-18532024D01*
X14687738Y-18532024D02*
X14649643Y-18532024D01*
X14649643Y-18532024D02*
X14630596Y-18522500D01*
X14630596Y-18522500D02*
X14621072Y-18503452D01*
X14621072Y-18503452D02*
X14621072Y-18427262D01*
X14621072Y-18427262D02*
X14630596Y-18408214D01*
X14630596Y-18408214D02*
X14649643Y-18398690D01*
X14649643Y-18398690D02*
X14687738Y-18398690D01*
X14687738Y-18398690D02*
X14706786Y-18408214D01*
X14706786Y-18408214D02*
X14716310Y-18427262D01*
X14716310Y-18427262D02*
X14716310Y-18446310D01*
X14716310Y-18446310D02*
X14621072Y-18465357D01*
X14792500Y-18522500D02*
X14811548Y-18532024D01*
X14811548Y-18532024D02*
X14849643Y-18532024D01*
X14849643Y-18532024D02*
X14868691Y-18522500D01*
X14868691Y-18522500D02*
X14878215Y-18503452D01*
X14878215Y-18503452D02*
X14878215Y-18493929D01*
X14878215Y-18493929D02*
X14868691Y-18474881D01*
X14868691Y-18474881D02*
X14849643Y-18465357D01*
X14849643Y-18465357D02*
X14821072Y-18465357D01*
X14821072Y-18465357D02*
X14802024Y-18455833D01*
X14802024Y-18455833D02*
X14792500Y-18436786D01*
X14792500Y-18436786D02*
X14792500Y-18427262D01*
X14792500Y-18427262D02*
X14802024Y-18408214D01*
X14802024Y-18408214D02*
X14821072Y-18398690D01*
X14821072Y-18398690D02*
X14849643Y-18398690D01*
X14849643Y-18398690D02*
X14868691Y-18408214D01*
X15116310Y-18455833D02*
X15268691Y-18455833D01*
X15192500Y-18532024D02*
X15192500Y-18379643D01*
X15497262Y-18332024D02*
X15621072Y-18332024D01*
X15621072Y-18332024D02*
X15554405Y-18408214D01*
X15554405Y-18408214D02*
X15582977Y-18408214D01*
X15582977Y-18408214D02*
X15602024Y-18417738D01*
X15602024Y-18417738D02*
X15611548Y-18427262D01*
X15611548Y-18427262D02*
X15621072Y-18446310D01*
X15621072Y-18446310D02*
X15621072Y-18493929D01*
X15621072Y-18493929D02*
X15611548Y-18512976D01*
X15611548Y-18512976D02*
X15602024Y-18522500D01*
X15602024Y-18522500D02*
X15582977Y-18532024D01*
X15582977Y-18532024D02*
X15525834Y-18532024D01*
X15525834Y-18532024D02*
X15506786Y-18522500D01*
X15506786Y-18522500D02*
X15497262Y-18512976D01*
X15849643Y-18522500D02*
X15868691Y-18532024D01*
X15868691Y-18532024D02*
X15906786Y-18532024D01*
X15906786Y-18532024D02*
X15925834Y-18522500D01*
X15925834Y-18522500D02*
X15935358Y-18503452D01*
X15935358Y-18503452D02*
X15935358Y-18493929D01*
X15935358Y-18493929D02*
X15925834Y-18474881D01*
X15925834Y-18474881D02*
X15906786Y-18465357D01*
X15906786Y-18465357D02*
X15878215Y-18465357D01*
X15878215Y-18465357D02*
X15859167Y-18455833D01*
X15859167Y-18455833D02*
X15849643Y-18436786D01*
X15849643Y-18436786D02*
X15849643Y-18427262D01*
X15849643Y-18427262D02*
X15859167Y-18408214D01*
X15859167Y-18408214D02*
X15878215Y-18398690D01*
X15878215Y-18398690D02*
X15906786Y-18398690D01*
X15906786Y-18398690D02*
X15925834Y-18408214D01*
X16049643Y-18532024D02*
X16030596Y-18522500D01*
X16030596Y-18522500D02*
X16021072Y-18503452D01*
X16021072Y-18503452D02*
X16021072Y-18332024D01*
X16154405Y-18532024D02*
X16135358Y-18522500D01*
X16135358Y-18522500D02*
X16125834Y-18512976D01*
X16125834Y-18512976D02*
X16116310Y-18493929D01*
X16116310Y-18493929D02*
X16116310Y-18436786D01*
X16116310Y-18436786D02*
X16125834Y-18417738D01*
X16125834Y-18417738D02*
X16135358Y-18408214D01*
X16135358Y-18408214D02*
X16154405Y-18398690D01*
X16154405Y-18398690D02*
X16182977Y-18398690D01*
X16182977Y-18398690D02*
X16202024Y-18408214D01*
X16202024Y-18408214D02*
X16211548Y-18417738D01*
X16211548Y-18417738D02*
X16221072Y-18436786D01*
X16221072Y-18436786D02*
X16221072Y-18493929D01*
X16221072Y-18493929D02*
X16211548Y-18512976D01*
X16211548Y-18512976D02*
X16202024Y-18522500D01*
X16202024Y-18522500D02*
X16182977Y-18532024D01*
X16182977Y-18532024D02*
X16154405Y-18532024D01*
X16278215Y-18398690D02*
X16354405Y-18398690D01*
X16306786Y-18332024D02*
X16306786Y-18503452D01*
X16306786Y-18503452D02*
X16316310Y-18522500D01*
X16316310Y-18522500D02*
X16335358Y-18532024D01*
X16335358Y-18532024D02*
X16354405Y-18532024D01*
X16411548Y-18522500D02*
X16430596Y-18532024D01*
X16430596Y-18532024D02*
X16468691Y-18532024D01*
X16468691Y-18532024D02*
X16487739Y-18522500D01*
X16487739Y-18522500D02*
X16497262Y-18503452D01*
X16497262Y-18503452D02*
X16497262Y-18493929D01*
X16497262Y-18493929D02*
X16487739Y-18474881D01*
X16487739Y-18474881D02*
X16468691Y-18465357D01*
X16468691Y-18465357D02*
X16440120Y-18465357D01*
X16440120Y-18465357D02*
X16421072Y-18455833D01*
X16421072Y-18455833D02*
X16411548Y-18436786D01*
X16411548Y-18436786D02*
X16411548Y-18427262D01*
X16411548Y-18427262D02*
X16421072Y-18408214D01*
X16421072Y-18408214D02*
X16440120Y-18398690D01*
X16440120Y-18398690D02*
X16468691Y-18398690D01*
X16468691Y-18398690D02*
X16487739Y-18408214D01*
X16563929Y-18608214D02*
X16573453Y-18598690D01*
X16573453Y-18598690D02*
X16592501Y-18570119D01*
X16592501Y-18570119D02*
X16602024Y-18551071D01*
X16602024Y-18551071D02*
X16611548Y-18522500D01*
X16611548Y-18522500D02*
X16621072Y-18474881D01*
X16621072Y-18474881D02*
X16621072Y-18436786D01*
X16621072Y-18436786D02*
X16611548Y-18389167D01*
X16611548Y-18389167D02*
X16602024Y-18360595D01*
X16602024Y-18360595D02*
X16592501Y-18341548D01*
X16592501Y-18341548D02*
X16573453Y-18312976D01*
X16573453Y-18312976D02*
X16563929Y-18303452D01*
X9892500Y-18803500D02*
X9992500Y-18703500D01*
X9892500Y-18603500D01*
X9792500Y-18703500D01*
X9892500Y-18803500D01*
X10230595Y-18615071D02*
X10240119Y-18605548D01*
X10240119Y-18605548D02*
X10259167Y-18596024D01*
X10259167Y-18596024D02*
X10306786Y-18596024D01*
X10306786Y-18596024D02*
X10325833Y-18605548D01*
X10325833Y-18605548D02*
X10335357Y-18615071D01*
X10335357Y-18615071D02*
X10344881Y-18634119D01*
X10344881Y-18634119D02*
X10344881Y-18653167D01*
X10344881Y-18653167D02*
X10335357Y-18681738D01*
X10335357Y-18681738D02*
X10221071Y-18796024D01*
X10221071Y-18796024D02*
X10344881Y-18796024D01*
X10430595Y-18776976D02*
X10440119Y-18786500D01*
X10440119Y-18786500D02*
X10430595Y-18796024D01*
X10430595Y-18796024D02*
X10421071Y-18786500D01*
X10421071Y-18786500D02*
X10430595Y-18776976D01*
X10430595Y-18776976D02*
X10430595Y-18796024D01*
X10563929Y-18596024D02*
X10582976Y-18596024D01*
X10582976Y-18596024D02*
X10602024Y-18605548D01*
X10602024Y-18605548D02*
X10611548Y-18615071D01*
X10611548Y-18615071D02*
X10621071Y-18634119D01*
X10621071Y-18634119D02*
X10630595Y-18672214D01*
X10630595Y-18672214D02*
X10630595Y-18719833D01*
X10630595Y-18719833D02*
X10621071Y-18757929D01*
X10621071Y-18757929D02*
X10611548Y-18776976D01*
X10611548Y-18776976D02*
X10602024Y-18786500D01*
X10602024Y-18786500D02*
X10582976Y-18796024D01*
X10582976Y-18796024D02*
X10563929Y-18796024D01*
X10563929Y-18796024D02*
X10544881Y-18786500D01*
X10544881Y-18786500D02*
X10535357Y-18776976D01*
X10535357Y-18776976D02*
X10525833Y-18757929D01*
X10525833Y-18757929D02*
X10516310Y-18719833D01*
X10516310Y-18719833D02*
X10516310Y-18672214D01*
X10516310Y-18672214D02*
X10525833Y-18634119D01*
X10525833Y-18634119D02*
X10535357Y-18615071D01*
X10535357Y-18615071D02*
X10544881Y-18605548D01*
X10544881Y-18605548D02*
X10563929Y-18596024D01*
X10821071Y-18796024D02*
X10706786Y-18796024D01*
X10763929Y-18796024D02*
X10763929Y-18596024D01*
X10763929Y-18596024D02*
X10744881Y-18624595D01*
X10744881Y-18624595D02*
X10725833Y-18643643D01*
X10725833Y-18643643D02*
X10706786Y-18653167D01*
X10944881Y-18596024D02*
X10963929Y-18596024D01*
X10963929Y-18596024D02*
X10982976Y-18605548D01*
X10982976Y-18605548D02*
X10992500Y-18615071D01*
X10992500Y-18615071D02*
X11002024Y-18634119D01*
X11002024Y-18634119D02*
X11011548Y-18672214D01*
X11011548Y-18672214D02*
X11011548Y-18719833D01*
X11011548Y-18719833D02*
X11002024Y-18757929D01*
X11002024Y-18757929D02*
X10992500Y-18776976D01*
X10992500Y-18776976D02*
X10982976Y-18786500D01*
X10982976Y-18786500D02*
X10963929Y-18796024D01*
X10963929Y-18796024D02*
X10944881Y-18796024D01*
X10944881Y-18796024D02*
X10925833Y-18786500D01*
X10925833Y-18786500D02*
X10916310Y-18776976D01*
X10916310Y-18776976D02*
X10906786Y-18757929D01*
X10906786Y-18757929D02*
X10897262Y-18719833D01*
X10897262Y-18719833D02*
X10897262Y-18672214D01*
X10897262Y-18672214D02*
X10906786Y-18634119D01*
X10906786Y-18634119D02*
X10916310Y-18615071D01*
X10916310Y-18615071D02*
X10925833Y-18605548D01*
X10925833Y-18605548D02*
X10944881Y-18596024D01*
X11097262Y-18796024D02*
X11097262Y-18662690D01*
X11097262Y-18681738D02*
X11106786Y-18672214D01*
X11106786Y-18672214D02*
X11125833Y-18662690D01*
X11125833Y-18662690D02*
X11154405Y-18662690D01*
X11154405Y-18662690D02*
X11173452Y-18672214D01*
X11173452Y-18672214D02*
X11182976Y-18691262D01*
X11182976Y-18691262D02*
X11182976Y-18796024D01*
X11182976Y-18691262D02*
X11192500Y-18672214D01*
X11192500Y-18672214D02*
X11211548Y-18662690D01*
X11211548Y-18662690D02*
X11240119Y-18662690D01*
X11240119Y-18662690D02*
X11259167Y-18672214D01*
X11259167Y-18672214D02*
X11268690Y-18691262D01*
X11268690Y-18691262D02*
X11268690Y-18796024D01*
X11363929Y-18796024D02*
X11363929Y-18662690D01*
X11363929Y-18681738D02*
X11373452Y-18672214D01*
X11373452Y-18672214D02*
X11392500Y-18662690D01*
X11392500Y-18662690D02*
X11421071Y-18662690D01*
X11421071Y-18662690D02*
X11440119Y-18672214D01*
X11440119Y-18672214D02*
X11449643Y-18691262D01*
X11449643Y-18691262D02*
X11449643Y-18796024D01*
X11449643Y-18691262D02*
X11459167Y-18672214D01*
X11459167Y-18672214D02*
X11478214Y-18662690D01*
X11478214Y-18662690D02*
X11506786Y-18662690D01*
X11506786Y-18662690D02*
X11525833Y-18672214D01*
X11525833Y-18672214D02*
X11535357Y-18691262D01*
X11535357Y-18691262D02*
X11535357Y-18796024D01*
X11925833Y-18586500D02*
X11754405Y-18843643D01*
X12182976Y-18596024D02*
X12202024Y-18596024D01*
X12202024Y-18596024D02*
X12221072Y-18605548D01*
X12221072Y-18605548D02*
X12230595Y-18615071D01*
X12230595Y-18615071D02*
X12240119Y-18634119D01*
X12240119Y-18634119D02*
X12249643Y-18672214D01*
X12249643Y-18672214D02*
X12249643Y-18719833D01*
X12249643Y-18719833D02*
X12240119Y-18757929D01*
X12240119Y-18757929D02*
X12230595Y-18776976D01*
X12230595Y-18776976D02*
X12221072Y-18786500D01*
X12221072Y-18786500D02*
X12202024Y-18796024D01*
X12202024Y-18796024D02*
X12182976Y-18796024D01*
X12182976Y-18796024D02*
X12163929Y-18786500D01*
X12163929Y-18786500D02*
X12154405Y-18776976D01*
X12154405Y-18776976D02*
X12144881Y-18757929D01*
X12144881Y-18757929D02*
X12135357Y-18719833D01*
X12135357Y-18719833D02*
X12135357Y-18672214D01*
X12135357Y-18672214D02*
X12144881Y-18634119D01*
X12144881Y-18634119D02*
X12154405Y-18615071D01*
X12154405Y-18615071D02*
X12163929Y-18605548D01*
X12163929Y-18605548D02*
X12182976Y-18596024D01*
X12335357Y-18776976D02*
X12344881Y-18786500D01*
X12344881Y-18786500D02*
X12335357Y-18796024D01*
X12335357Y-18796024D02*
X12325833Y-18786500D01*
X12325833Y-18786500D02*
X12335357Y-18776976D01*
X12335357Y-18776976D02*
X12335357Y-18796024D01*
X12468691Y-18596024D02*
X12487738Y-18596024D01*
X12487738Y-18596024D02*
X12506786Y-18605548D01*
X12506786Y-18605548D02*
X12516310Y-18615071D01*
X12516310Y-18615071D02*
X12525833Y-18634119D01*
X12525833Y-18634119D02*
X12535357Y-18672214D01*
X12535357Y-18672214D02*
X12535357Y-18719833D01*
X12535357Y-18719833D02*
X12525833Y-18757929D01*
X12525833Y-18757929D02*
X12516310Y-18776976D01*
X12516310Y-18776976D02*
X12506786Y-18786500D01*
X12506786Y-18786500D02*
X12487738Y-18796024D01*
X12487738Y-18796024D02*
X12468691Y-18796024D01*
X12468691Y-18796024D02*
X12449643Y-18786500D01*
X12449643Y-18786500D02*
X12440119Y-18776976D01*
X12440119Y-18776976D02*
X12430595Y-18757929D01*
X12430595Y-18757929D02*
X12421072Y-18719833D01*
X12421072Y-18719833D02*
X12421072Y-18672214D01*
X12421072Y-18672214D02*
X12430595Y-18634119D01*
X12430595Y-18634119D02*
X12440119Y-18615071D01*
X12440119Y-18615071D02*
X12449643Y-18605548D01*
X12449643Y-18605548D02*
X12468691Y-18596024D01*
X12602024Y-18596024D02*
X12735357Y-18596024D01*
X12735357Y-18596024D02*
X12649643Y-18796024D01*
X12821072Y-18796024D02*
X12859167Y-18796024D01*
X12859167Y-18796024D02*
X12878214Y-18786500D01*
X12878214Y-18786500D02*
X12887738Y-18776976D01*
X12887738Y-18776976D02*
X12906786Y-18748405D01*
X12906786Y-18748405D02*
X12916310Y-18710310D01*
X12916310Y-18710310D02*
X12916310Y-18634119D01*
X12916310Y-18634119D02*
X12906786Y-18615071D01*
X12906786Y-18615071D02*
X12897262Y-18605548D01*
X12897262Y-18605548D02*
X12878214Y-18596024D01*
X12878214Y-18596024D02*
X12840119Y-18596024D01*
X12840119Y-18596024D02*
X12821072Y-18605548D01*
X12821072Y-18605548D02*
X12811548Y-18615071D01*
X12811548Y-18615071D02*
X12802024Y-18634119D01*
X12802024Y-18634119D02*
X12802024Y-18681738D01*
X12802024Y-18681738D02*
X12811548Y-18700786D01*
X12811548Y-18700786D02*
X12821072Y-18710310D01*
X12821072Y-18710310D02*
X12840119Y-18719833D01*
X12840119Y-18719833D02*
X12878214Y-18719833D01*
X12878214Y-18719833D02*
X12897262Y-18710310D01*
X12897262Y-18710310D02*
X12906786Y-18700786D01*
X12906786Y-18700786D02*
X12916310Y-18681738D01*
X13106786Y-18796024D02*
X12992500Y-18796024D01*
X13049643Y-18796024D02*
X13049643Y-18596024D01*
X13049643Y-18596024D02*
X13030595Y-18624595D01*
X13030595Y-18624595D02*
X13011548Y-18643643D01*
X13011548Y-18643643D02*
X12992500Y-18653167D01*
X13182976Y-18596024D02*
X13182976Y-18634119D01*
X13259167Y-18596024D02*
X13259167Y-18634119D01*
X13554405Y-18872214D02*
X13544881Y-18862690D01*
X13544881Y-18862690D02*
X13525834Y-18834119D01*
X13525834Y-18834119D02*
X13516310Y-18815071D01*
X13516310Y-18815071D02*
X13506786Y-18786500D01*
X13506786Y-18786500D02*
X13497262Y-18738881D01*
X13497262Y-18738881D02*
X13497262Y-18700786D01*
X13497262Y-18700786D02*
X13506786Y-18653167D01*
X13506786Y-18653167D02*
X13516310Y-18624595D01*
X13516310Y-18624595D02*
X13525834Y-18605548D01*
X13525834Y-18605548D02*
X13544881Y-18576976D01*
X13544881Y-18576976D02*
X13554405Y-18567452D01*
X13716310Y-18596024D02*
X13678214Y-18596024D01*
X13678214Y-18596024D02*
X13659167Y-18605548D01*
X13659167Y-18605548D02*
X13649643Y-18615071D01*
X13649643Y-18615071D02*
X13630595Y-18643643D01*
X13630595Y-18643643D02*
X13621072Y-18681738D01*
X13621072Y-18681738D02*
X13621072Y-18757929D01*
X13621072Y-18757929D02*
X13630595Y-18776976D01*
X13630595Y-18776976D02*
X13640119Y-18786500D01*
X13640119Y-18786500D02*
X13659167Y-18796024D01*
X13659167Y-18796024D02*
X13697262Y-18796024D01*
X13697262Y-18796024D02*
X13716310Y-18786500D01*
X13716310Y-18786500D02*
X13725834Y-18776976D01*
X13725834Y-18776976D02*
X13735357Y-18757929D01*
X13735357Y-18757929D02*
X13735357Y-18710310D01*
X13735357Y-18710310D02*
X13725834Y-18691262D01*
X13725834Y-18691262D02*
X13716310Y-18681738D01*
X13716310Y-18681738D02*
X13697262Y-18672214D01*
X13697262Y-18672214D02*
X13659167Y-18672214D01*
X13659167Y-18672214D02*
X13640119Y-18681738D01*
X13640119Y-18681738D02*
X13630595Y-18691262D01*
X13630595Y-18691262D02*
X13621072Y-18710310D01*
X13973453Y-18796024D02*
X13973453Y-18596024D01*
X14059167Y-18796024D02*
X14059167Y-18691262D01*
X14059167Y-18691262D02*
X14049643Y-18672214D01*
X14049643Y-18672214D02*
X14030596Y-18662690D01*
X14030596Y-18662690D02*
X14002024Y-18662690D01*
X14002024Y-18662690D02*
X13982976Y-18672214D01*
X13982976Y-18672214D02*
X13973453Y-18681738D01*
X14182976Y-18796024D02*
X14163929Y-18786500D01*
X14163929Y-18786500D02*
X14154405Y-18776976D01*
X14154405Y-18776976D02*
X14144881Y-18757929D01*
X14144881Y-18757929D02*
X14144881Y-18700786D01*
X14144881Y-18700786D02*
X14154405Y-18681738D01*
X14154405Y-18681738D02*
X14163929Y-18672214D01*
X14163929Y-18672214D02*
X14182976Y-18662690D01*
X14182976Y-18662690D02*
X14211548Y-18662690D01*
X14211548Y-18662690D02*
X14230596Y-18672214D01*
X14230596Y-18672214D02*
X14240119Y-18681738D01*
X14240119Y-18681738D02*
X14249643Y-18700786D01*
X14249643Y-18700786D02*
X14249643Y-18757929D01*
X14249643Y-18757929D02*
X14240119Y-18776976D01*
X14240119Y-18776976D02*
X14230596Y-18786500D01*
X14230596Y-18786500D02*
X14211548Y-18796024D01*
X14211548Y-18796024D02*
X14182976Y-18796024D01*
X14363929Y-18796024D02*
X14344881Y-18786500D01*
X14344881Y-18786500D02*
X14335357Y-18767452D01*
X14335357Y-18767452D02*
X14335357Y-18596024D01*
X14516310Y-18786500D02*
X14497262Y-18796024D01*
X14497262Y-18796024D02*
X14459167Y-18796024D01*
X14459167Y-18796024D02*
X14440119Y-18786500D01*
X14440119Y-18786500D02*
X14430596Y-18767452D01*
X14430596Y-18767452D02*
X14430596Y-18691262D01*
X14430596Y-18691262D02*
X14440119Y-18672214D01*
X14440119Y-18672214D02*
X14459167Y-18662690D01*
X14459167Y-18662690D02*
X14497262Y-18662690D01*
X14497262Y-18662690D02*
X14516310Y-18672214D01*
X14516310Y-18672214D02*
X14525834Y-18691262D01*
X14525834Y-18691262D02*
X14525834Y-18710310D01*
X14525834Y-18710310D02*
X14430596Y-18729357D01*
X14602024Y-18786500D02*
X14621072Y-18796024D01*
X14621072Y-18796024D02*
X14659167Y-18796024D01*
X14659167Y-18796024D02*
X14678215Y-18786500D01*
X14678215Y-18786500D02*
X14687738Y-18767452D01*
X14687738Y-18767452D02*
X14687738Y-18757929D01*
X14687738Y-18757929D02*
X14678215Y-18738881D01*
X14678215Y-18738881D02*
X14659167Y-18729357D01*
X14659167Y-18729357D02*
X14630596Y-18729357D01*
X14630596Y-18729357D02*
X14611548Y-18719833D01*
X14611548Y-18719833D02*
X14602024Y-18700786D01*
X14602024Y-18700786D02*
X14602024Y-18691262D01*
X14602024Y-18691262D02*
X14611548Y-18672214D01*
X14611548Y-18672214D02*
X14630596Y-18662690D01*
X14630596Y-18662690D02*
X14659167Y-18662690D01*
X14659167Y-18662690D02*
X14678215Y-18672214D01*
X14754405Y-18872214D02*
X14763929Y-18862690D01*
X14763929Y-18862690D02*
X14782977Y-18834119D01*
X14782977Y-18834119D02*
X14792500Y-18815071D01*
X14792500Y-18815071D02*
X14802024Y-18786500D01*
X14802024Y-18786500D02*
X14811548Y-18738881D01*
X14811548Y-18738881D02*
X14811548Y-18700786D01*
X14811548Y-18700786D02*
X14802024Y-18653167D01*
X14802024Y-18653167D02*
X14792500Y-18624595D01*
X14792500Y-18624595D02*
X14782977Y-18605548D01*
X14782977Y-18605548D02*
X14763929Y-18576976D01*
X14763929Y-18576976D02*
X14754405Y-18567452D01*
X9792500Y-18923500D02*
X9992500Y-19123500D01*
X9992500Y-18923500D02*
X9792500Y-19123500D01*
X9992500Y-19023500D02*
G75*
G03*
X9992500Y-19023500I-100000J0D01*
G01*
X10221071Y-18916024D02*
X10344881Y-18916024D01*
X10344881Y-18916024D02*
X10278214Y-18992214D01*
X10278214Y-18992214D02*
X10306786Y-18992214D01*
X10306786Y-18992214D02*
X10325833Y-19001738D01*
X10325833Y-19001738D02*
X10335357Y-19011262D01*
X10335357Y-19011262D02*
X10344881Y-19030310D01*
X10344881Y-19030310D02*
X10344881Y-19077929D01*
X10344881Y-19077929D02*
X10335357Y-19096976D01*
X10335357Y-19096976D02*
X10325833Y-19106500D01*
X10325833Y-19106500D02*
X10306786Y-19116024D01*
X10306786Y-19116024D02*
X10249643Y-19116024D01*
X10249643Y-19116024D02*
X10230595Y-19106500D01*
X10230595Y-19106500D02*
X10221071Y-19096976D01*
X10430595Y-19096976D02*
X10440119Y-19106500D01*
X10440119Y-19106500D02*
X10430595Y-19116024D01*
X10430595Y-19116024D02*
X10421071Y-19106500D01*
X10421071Y-19106500D02*
X10430595Y-19096976D01*
X10430595Y-19096976D02*
X10430595Y-19116024D01*
X10516310Y-18935071D02*
X10525833Y-18925548D01*
X10525833Y-18925548D02*
X10544881Y-18916024D01*
X10544881Y-18916024D02*
X10592500Y-18916024D01*
X10592500Y-18916024D02*
X10611548Y-18925548D01*
X10611548Y-18925548D02*
X10621071Y-18935071D01*
X10621071Y-18935071D02*
X10630595Y-18954119D01*
X10630595Y-18954119D02*
X10630595Y-18973167D01*
X10630595Y-18973167D02*
X10621071Y-19001738D01*
X10621071Y-19001738D02*
X10506786Y-19116024D01*
X10506786Y-19116024D02*
X10630595Y-19116024D01*
X10754405Y-18916024D02*
X10773452Y-18916024D01*
X10773452Y-18916024D02*
X10792500Y-18925548D01*
X10792500Y-18925548D02*
X10802024Y-18935071D01*
X10802024Y-18935071D02*
X10811548Y-18954119D01*
X10811548Y-18954119D02*
X10821071Y-18992214D01*
X10821071Y-18992214D02*
X10821071Y-19039833D01*
X10821071Y-19039833D02*
X10811548Y-19077929D01*
X10811548Y-19077929D02*
X10802024Y-19096976D01*
X10802024Y-19096976D02*
X10792500Y-19106500D01*
X10792500Y-19106500D02*
X10773452Y-19116024D01*
X10773452Y-19116024D02*
X10754405Y-19116024D01*
X10754405Y-19116024D02*
X10735357Y-19106500D01*
X10735357Y-19106500D02*
X10725833Y-19096976D01*
X10725833Y-19096976D02*
X10716310Y-19077929D01*
X10716310Y-19077929D02*
X10706786Y-19039833D01*
X10706786Y-19039833D02*
X10706786Y-18992214D01*
X10706786Y-18992214D02*
X10716310Y-18954119D01*
X10716310Y-18954119D02*
X10725833Y-18935071D01*
X10725833Y-18935071D02*
X10735357Y-18925548D01*
X10735357Y-18925548D02*
X10754405Y-18916024D01*
X10944881Y-18916024D02*
X10963929Y-18916024D01*
X10963929Y-18916024D02*
X10982976Y-18925548D01*
X10982976Y-18925548D02*
X10992500Y-18935071D01*
X10992500Y-18935071D02*
X11002024Y-18954119D01*
X11002024Y-18954119D02*
X11011548Y-18992214D01*
X11011548Y-18992214D02*
X11011548Y-19039833D01*
X11011548Y-19039833D02*
X11002024Y-19077929D01*
X11002024Y-19077929D02*
X10992500Y-19096976D01*
X10992500Y-19096976D02*
X10982976Y-19106500D01*
X10982976Y-19106500D02*
X10963929Y-19116024D01*
X10963929Y-19116024D02*
X10944881Y-19116024D01*
X10944881Y-19116024D02*
X10925833Y-19106500D01*
X10925833Y-19106500D02*
X10916310Y-19096976D01*
X10916310Y-19096976D02*
X10906786Y-19077929D01*
X10906786Y-19077929D02*
X10897262Y-19039833D01*
X10897262Y-19039833D02*
X10897262Y-18992214D01*
X10897262Y-18992214D02*
X10906786Y-18954119D01*
X10906786Y-18954119D02*
X10916310Y-18935071D01*
X10916310Y-18935071D02*
X10925833Y-18925548D01*
X10925833Y-18925548D02*
X10944881Y-18916024D01*
X11097262Y-19116024D02*
X11097262Y-18982690D01*
X11097262Y-19001738D02*
X11106786Y-18992214D01*
X11106786Y-18992214D02*
X11125833Y-18982690D01*
X11125833Y-18982690D02*
X11154405Y-18982690D01*
X11154405Y-18982690D02*
X11173452Y-18992214D01*
X11173452Y-18992214D02*
X11182976Y-19011262D01*
X11182976Y-19011262D02*
X11182976Y-19116024D01*
X11182976Y-19011262D02*
X11192500Y-18992214D01*
X11192500Y-18992214D02*
X11211548Y-18982690D01*
X11211548Y-18982690D02*
X11240119Y-18982690D01*
X11240119Y-18982690D02*
X11259167Y-18992214D01*
X11259167Y-18992214D02*
X11268690Y-19011262D01*
X11268690Y-19011262D02*
X11268690Y-19116024D01*
X11363929Y-19116024D02*
X11363929Y-18982690D01*
X11363929Y-19001738D02*
X11373452Y-18992214D01*
X11373452Y-18992214D02*
X11392500Y-18982690D01*
X11392500Y-18982690D02*
X11421071Y-18982690D01*
X11421071Y-18982690D02*
X11440119Y-18992214D01*
X11440119Y-18992214D02*
X11449643Y-19011262D01*
X11449643Y-19011262D02*
X11449643Y-19116024D01*
X11449643Y-19011262D02*
X11459167Y-18992214D01*
X11459167Y-18992214D02*
X11478214Y-18982690D01*
X11478214Y-18982690D02*
X11506786Y-18982690D01*
X11506786Y-18982690D02*
X11525833Y-18992214D01*
X11525833Y-18992214D02*
X11535357Y-19011262D01*
X11535357Y-19011262D02*
X11535357Y-19116024D01*
X11925833Y-18906500D02*
X11754405Y-19163643D01*
X12182976Y-18916024D02*
X12202024Y-18916024D01*
X12202024Y-18916024D02*
X12221072Y-18925548D01*
X12221072Y-18925548D02*
X12230595Y-18935071D01*
X12230595Y-18935071D02*
X12240119Y-18954119D01*
X12240119Y-18954119D02*
X12249643Y-18992214D01*
X12249643Y-18992214D02*
X12249643Y-19039833D01*
X12249643Y-19039833D02*
X12240119Y-19077929D01*
X12240119Y-19077929D02*
X12230595Y-19096976D01*
X12230595Y-19096976D02*
X12221072Y-19106500D01*
X12221072Y-19106500D02*
X12202024Y-19116024D01*
X12202024Y-19116024D02*
X12182976Y-19116024D01*
X12182976Y-19116024D02*
X12163929Y-19106500D01*
X12163929Y-19106500D02*
X12154405Y-19096976D01*
X12154405Y-19096976D02*
X12144881Y-19077929D01*
X12144881Y-19077929D02*
X12135357Y-19039833D01*
X12135357Y-19039833D02*
X12135357Y-18992214D01*
X12135357Y-18992214D02*
X12144881Y-18954119D01*
X12144881Y-18954119D02*
X12154405Y-18935071D01*
X12154405Y-18935071D02*
X12163929Y-18925548D01*
X12163929Y-18925548D02*
X12182976Y-18916024D01*
X12335357Y-19096976D02*
X12344881Y-19106500D01*
X12344881Y-19106500D02*
X12335357Y-19116024D01*
X12335357Y-19116024D02*
X12325833Y-19106500D01*
X12325833Y-19106500D02*
X12335357Y-19096976D01*
X12335357Y-19096976D02*
X12335357Y-19116024D01*
X12535357Y-19116024D02*
X12421072Y-19116024D01*
X12478214Y-19116024D02*
X12478214Y-18916024D01*
X12478214Y-18916024D02*
X12459167Y-18944595D01*
X12459167Y-18944595D02*
X12440119Y-18963643D01*
X12440119Y-18963643D02*
X12421072Y-18973167D01*
X12611548Y-18935071D02*
X12621072Y-18925548D01*
X12621072Y-18925548D02*
X12640119Y-18916024D01*
X12640119Y-18916024D02*
X12687738Y-18916024D01*
X12687738Y-18916024D02*
X12706786Y-18925548D01*
X12706786Y-18925548D02*
X12716310Y-18935071D01*
X12716310Y-18935071D02*
X12725833Y-18954119D01*
X12725833Y-18954119D02*
X12725833Y-18973167D01*
X12725833Y-18973167D02*
X12716310Y-19001738D01*
X12716310Y-19001738D02*
X12602024Y-19116024D01*
X12602024Y-19116024D02*
X12725833Y-19116024D01*
X12897262Y-18916024D02*
X12859167Y-18916024D01*
X12859167Y-18916024D02*
X12840119Y-18925548D01*
X12840119Y-18925548D02*
X12830595Y-18935071D01*
X12830595Y-18935071D02*
X12811548Y-18963643D01*
X12811548Y-18963643D02*
X12802024Y-19001738D01*
X12802024Y-19001738D02*
X12802024Y-19077929D01*
X12802024Y-19077929D02*
X12811548Y-19096976D01*
X12811548Y-19096976D02*
X12821072Y-19106500D01*
X12821072Y-19106500D02*
X12840119Y-19116024D01*
X12840119Y-19116024D02*
X12878214Y-19116024D01*
X12878214Y-19116024D02*
X12897262Y-19106500D01*
X12897262Y-19106500D02*
X12906786Y-19096976D01*
X12906786Y-19096976D02*
X12916310Y-19077929D01*
X12916310Y-19077929D02*
X12916310Y-19030310D01*
X12916310Y-19030310D02*
X12906786Y-19011262D01*
X12906786Y-19011262D02*
X12897262Y-19001738D01*
X12897262Y-19001738D02*
X12878214Y-18992214D01*
X12878214Y-18992214D02*
X12840119Y-18992214D01*
X12840119Y-18992214D02*
X12821072Y-19001738D01*
X12821072Y-19001738D02*
X12811548Y-19011262D01*
X12811548Y-19011262D02*
X12802024Y-19030310D01*
X13040119Y-18916024D02*
X13059167Y-18916024D01*
X13059167Y-18916024D02*
X13078214Y-18925548D01*
X13078214Y-18925548D02*
X13087738Y-18935071D01*
X13087738Y-18935071D02*
X13097262Y-18954119D01*
X13097262Y-18954119D02*
X13106786Y-18992214D01*
X13106786Y-18992214D02*
X13106786Y-19039833D01*
X13106786Y-19039833D02*
X13097262Y-19077929D01*
X13097262Y-19077929D02*
X13087738Y-19096976D01*
X13087738Y-19096976D02*
X13078214Y-19106500D01*
X13078214Y-19106500D02*
X13059167Y-19116024D01*
X13059167Y-19116024D02*
X13040119Y-19116024D01*
X13040119Y-19116024D02*
X13021072Y-19106500D01*
X13021072Y-19106500D02*
X13011548Y-19096976D01*
X13011548Y-19096976D02*
X13002024Y-19077929D01*
X13002024Y-19077929D02*
X12992500Y-19039833D01*
X12992500Y-19039833D02*
X12992500Y-18992214D01*
X12992500Y-18992214D02*
X13002024Y-18954119D01*
X13002024Y-18954119D02*
X13011548Y-18935071D01*
X13011548Y-18935071D02*
X13021072Y-18925548D01*
X13021072Y-18925548D02*
X13040119Y-18916024D01*
X13182976Y-18916024D02*
X13182976Y-18954119D01*
X13259167Y-18916024D02*
X13259167Y-18954119D01*
X13554405Y-19192214D02*
X13544881Y-19182690D01*
X13544881Y-19182690D02*
X13525834Y-19154119D01*
X13525834Y-19154119D02*
X13516310Y-19135071D01*
X13516310Y-19135071D02*
X13506786Y-19106500D01*
X13506786Y-19106500D02*
X13497262Y-19058881D01*
X13497262Y-19058881D02*
X13497262Y-19020786D01*
X13497262Y-19020786D02*
X13506786Y-18973167D01*
X13506786Y-18973167D02*
X13516310Y-18944595D01*
X13516310Y-18944595D02*
X13525834Y-18925548D01*
X13525834Y-18925548D02*
X13544881Y-18896976D01*
X13544881Y-18896976D02*
X13554405Y-18887452D01*
X13716310Y-18916024D02*
X13678214Y-18916024D01*
X13678214Y-18916024D02*
X13659167Y-18925548D01*
X13659167Y-18925548D02*
X13649643Y-18935071D01*
X13649643Y-18935071D02*
X13630595Y-18963643D01*
X13630595Y-18963643D02*
X13621072Y-19001738D01*
X13621072Y-19001738D02*
X13621072Y-19077929D01*
X13621072Y-19077929D02*
X13630595Y-19096976D01*
X13630595Y-19096976D02*
X13640119Y-19106500D01*
X13640119Y-19106500D02*
X13659167Y-19116024D01*
X13659167Y-19116024D02*
X13697262Y-19116024D01*
X13697262Y-19116024D02*
X13716310Y-19106500D01*
X13716310Y-19106500D02*
X13725834Y-19096976D01*
X13725834Y-19096976D02*
X13735357Y-19077929D01*
X13735357Y-19077929D02*
X13735357Y-19030310D01*
X13735357Y-19030310D02*
X13725834Y-19011262D01*
X13725834Y-19011262D02*
X13716310Y-19001738D01*
X13716310Y-19001738D02*
X13697262Y-18992214D01*
X13697262Y-18992214D02*
X13659167Y-18992214D01*
X13659167Y-18992214D02*
X13640119Y-19001738D01*
X13640119Y-19001738D02*
X13630595Y-19011262D01*
X13630595Y-19011262D02*
X13621072Y-19030310D01*
X13973453Y-19116024D02*
X13973453Y-18916024D01*
X14059167Y-19116024D02*
X14059167Y-19011262D01*
X14059167Y-19011262D02*
X14049643Y-18992214D01*
X14049643Y-18992214D02*
X14030596Y-18982690D01*
X14030596Y-18982690D02*
X14002024Y-18982690D01*
X14002024Y-18982690D02*
X13982976Y-18992214D01*
X13982976Y-18992214D02*
X13973453Y-19001738D01*
X14182976Y-19116024D02*
X14163929Y-19106500D01*
X14163929Y-19106500D02*
X14154405Y-19096976D01*
X14154405Y-19096976D02*
X14144881Y-19077929D01*
X14144881Y-19077929D02*
X14144881Y-19020786D01*
X14144881Y-19020786D02*
X14154405Y-19001738D01*
X14154405Y-19001738D02*
X14163929Y-18992214D01*
X14163929Y-18992214D02*
X14182976Y-18982690D01*
X14182976Y-18982690D02*
X14211548Y-18982690D01*
X14211548Y-18982690D02*
X14230596Y-18992214D01*
X14230596Y-18992214D02*
X14240119Y-19001738D01*
X14240119Y-19001738D02*
X14249643Y-19020786D01*
X14249643Y-19020786D02*
X14249643Y-19077929D01*
X14249643Y-19077929D02*
X14240119Y-19096976D01*
X14240119Y-19096976D02*
X14230596Y-19106500D01*
X14230596Y-19106500D02*
X14211548Y-19116024D01*
X14211548Y-19116024D02*
X14182976Y-19116024D01*
X14363929Y-19116024D02*
X14344881Y-19106500D01*
X14344881Y-19106500D02*
X14335357Y-19087452D01*
X14335357Y-19087452D02*
X14335357Y-18916024D01*
X14516310Y-19106500D02*
X14497262Y-19116024D01*
X14497262Y-19116024D02*
X14459167Y-19116024D01*
X14459167Y-19116024D02*
X14440119Y-19106500D01*
X14440119Y-19106500D02*
X14430596Y-19087452D01*
X14430596Y-19087452D02*
X14430596Y-19011262D01*
X14430596Y-19011262D02*
X14440119Y-18992214D01*
X14440119Y-18992214D02*
X14459167Y-18982690D01*
X14459167Y-18982690D02*
X14497262Y-18982690D01*
X14497262Y-18982690D02*
X14516310Y-18992214D01*
X14516310Y-18992214D02*
X14525834Y-19011262D01*
X14525834Y-19011262D02*
X14525834Y-19030310D01*
X14525834Y-19030310D02*
X14430596Y-19049357D01*
X14602024Y-19106500D02*
X14621072Y-19116024D01*
X14621072Y-19116024D02*
X14659167Y-19116024D01*
X14659167Y-19116024D02*
X14678215Y-19106500D01*
X14678215Y-19106500D02*
X14687738Y-19087452D01*
X14687738Y-19087452D02*
X14687738Y-19077929D01*
X14687738Y-19077929D02*
X14678215Y-19058881D01*
X14678215Y-19058881D02*
X14659167Y-19049357D01*
X14659167Y-19049357D02*
X14630596Y-19049357D01*
X14630596Y-19049357D02*
X14611548Y-19039833D01*
X14611548Y-19039833D02*
X14602024Y-19020786D01*
X14602024Y-19020786D02*
X14602024Y-19011262D01*
X14602024Y-19011262D02*
X14611548Y-18992214D01*
X14611548Y-18992214D02*
X14630596Y-18982690D01*
X14630596Y-18982690D02*
X14659167Y-18982690D01*
X14659167Y-18982690D02*
X14678215Y-18992214D01*
X14754405Y-19192214D02*
X14763929Y-19182690D01*
X14763929Y-19182690D02*
X14782977Y-19154119D01*
X14782977Y-19154119D02*
X14792500Y-19135071D01*
X14792500Y-19135071D02*
X14802024Y-19106500D01*
X14802024Y-19106500D02*
X14811548Y-19058881D01*
X14811548Y-19058881D02*
X14811548Y-19020786D01*
X14811548Y-19020786D02*
X14802024Y-18973167D01*
X14802024Y-18973167D02*
X14792500Y-18944595D01*
X14792500Y-18944595D02*
X14782977Y-18925548D01*
X14782977Y-18925548D02*
X14763929Y-18896976D01*
X14763929Y-18896976D02*
X14754405Y-18887452D01*
M02*
