M48
; DRILL file {KiCad (6.0.7)} date Fri Oct  7 02:42:25 2022
; FORMAT={-:-/ absolute / inch / decimal}
; #@! TF.CreationDate,2022-10-07T02:42:25+02:00
; #@! TF.GenerationSoftware,Kicad,Pcbnew,(6.0.7)
; #@! TF.FileFunction,Plated,1,2,PTH
FMAT,2
INCH
; #@! TA.AperFunction,Plated,PTH,ViaDrill
T1C0.0236
; #@! TA.AperFunction,Plated,PTH,ComponentDrill
T2C0.0315
; #@! TA.AperFunction,Plated,PTH,ComponentDrill
T3C0.0350
; #@! TA.AperFunction,Plated,PTH,ComponentDrill
T4C0.0394
; #@! TA.AperFunction,Plated,PTH,ComponentDrill
T5C0.0433
; #@! TA.AperFunction,Plated,PTH,ComponentDrill
T6C0.0791
; #@! TA.AperFunction,Plated,PTH,ComponentDrill
T7C0.1260
%
G90
G05
T1
X4.2362Y-6.374
X4.8898Y-4.7835
X4.8915Y-4.9904
X4.8937Y-5.7835
X4.8976Y-5.5039
X4.9016Y-5.1929
X4.9921Y-4.9567
X4.9958Y-6.1457
X5.1575Y-5.5315
X5.3425Y-4.9213
X5.3462Y-6.1457
X5.5309Y-6.0512
X5.5354Y-5.1732
X5.6063Y-4.8898
X5.6063Y-5.2598
X5.6293Y-6.3386
T2
X4.8482Y-6.437
X4.927Y-6.437
X5.4836Y-6.437
X5.5624Y-6.437
X5.708Y-6.437
X5.7868Y-6.437
T3
X6.1579Y-4.465
X6.1579Y-4.565
X6.1579Y-5.215
X6.1579Y-5.315
X6.1579Y-5.9661
X6.1579Y-6.0661
T4
X4.2825Y-4.7496
X4.2825Y-4.8398
X4.2825Y-4.9299
X4.2825Y-5.0201
X4.2825Y-5.1102
X4.3825Y-4.7947
X4.3825Y-4.8848
X4.3825Y-4.975
X4.3825Y-5.0652
X4.3825Y-5.1553
X4.4825Y-4.7496
X4.4825Y-4.8398
X4.4825Y-4.9299
X4.4825Y-5.0201
X4.4825Y-5.1102
T5
X4.6535Y-5.9772
X4.6535Y-6.3772
T6
X6.3579Y-4.365
X6.3579Y-4.765
X6.3579Y-5.115
X6.3579Y-5.515
X6.3579Y-5.8661
X6.3579Y-6.2661
T7
X4.0945Y-4.0945
X4.0945Y-6.5354
X4.3797Y-4.4482
X4.3797Y-5.4325
X6.5354Y-4.0945
X6.5354Y-6.5354
T4
G00X4.2441Y-5.9425
M15
G01X4.2441Y-6.0213
M16
G05
G00X4.3228Y-6.167
M15
G01X4.4016Y-6.167
M16
G05
G00X4.4803Y-5.9425
M15
G01X4.4803Y-6.0213
M16
G05
T0
M30
