M48
; DRILL file {KiCad (6.0.4)} date Sat Oct  1 01:36:53 2022
; FORMAT={-:-/ absolute / inch / decimal}
; #@! TF.CreationDate,2022-10-01T01:36:53+02:00
; #@! TF.GenerationSoftware,Kicad,Pcbnew,(6.0.4)
; #@! TF.FileFunction,Plated,1,2,PTH
FMAT,2
INCH
; #@! TA.AperFunction,Plated,PTH,ViaDrill
T1C0.0157
; #@! TA.AperFunction,Plated,PTH,ComponentDrill
T2C0.0315
; #@! TA.AperFunction,Plated,PTH,ComponentDrill
T3C0.0394
; #@! TA.AperFunction,Plated,PTH,ComponentDrill
T4C0.0598
; #@! TA.AperFunction,Plated,PTH,ComponentDrill
T5C0.1260
%
G90
G05
T1
X2.8425Y-3.0118
X3.1142Y-2.6732
X3.2598Y-2.9409
X3.3228Y-2.6496
X3.341Y-2.9719
X3.3976Y-3.0748
X3.4764Y-2.6024
X3.7283Y-2.4882
X4.063Y-2.9961
X4.0669Y-2.4843
X4.1142Y-2.8543
X4.2126Y-2.8346
T2
X3.4094Y-3.3071
X3.4882Y-3.3071
X3.6378Y-3.0061
X3.6378Y-3.0848
T3
X2.5528Y-2.6299
X2.5528Y-2.7201
X2.5528Y-2.8102
X2.5528Y-2.9004
X2.5528Y-2.9906
X2.6307Y-2.5848
X2.6307Y-2.675
X2.6307Y-2.7652
X2.6307Y-2.8553
X2.6307Y-2.9455
X2.7087Y-2.6299
X2.7087Y-2.7201
X2.7087Y-2.8102
X2.7087Y-2.9004
X2.7087Y-2.9906
X4.2854Y-2.6039
X4.2854Y-2.6941
X4.2854Y-2.7843
X4.2854Y-2.8744
X4.2854Y-2.9646
X4.3634Y-2.649
X4.3634Y-2.7392
X4.3634Y-2.8293
X4.3634Y-2.9195
X4.3634Y-3.0096
X4.4413Y-2.6039
X4.4413Y-2.6941
X4.4413Y-2.7843
X4.4413Y-2.8744
X4.4413Y-2.9646
T4
X2.9394Y-3.2677
X3.1394Y-3.2677
T5
X2.628Y-2.3077
X2.628Y-3.2919
X4.3661Y-2.3026
X4.3661Y-3.2868
T0
M30
